<svg width="360" height="360" viewBox="0 0 360 360" fill="none" xmlns="http://www.w3.org/2000/svg">
<path d="M324.972 201.37C324.732 200.117 324.48 198.879 324.216 197.655C317.621 166.63 304.337 134.59 280.656 112.695C270.396 103.227 257.99 95.9911 244.166 93.3847C227.29 90.2095 209.743 94.6087 194.234 102.025C178.726 109.441 164.808 119.679 150.437 129.082C141.156 135.152 131.342 140.998 120.391 142.762C107.28 144.872 93.8664 140.912 80.64 142.172C59.904 144.145 41.6304 159.61 34.1568 179.057C26.6832 198.505 29.3904 221.077 39.24 239.437C49.0896 257.797 65.52 272.096 84.1248 281.521C109.865 294.596 140.285 298.685 168.293 291.601C181.973 288.145 195.178 282.097 209.261 281.845C226.728 281.535 243.101 290.175 260.381 292.565C276.624 294.805 293.947 291.125 306.871 281.045C330.84 262.325 330.163 228.341 324.972 201.37Z" fill="#4679EC"/>
<path d="M324.972 201.37C324.732 200.117 324.48 198.879 324.216 197.655C317.621 166.63 304.337 134.59 280.656 112.695C270.396 103.227 257.99 95.9911 244.166 93.3847C227.29 90.2095 209.743 94.6087 194.234 102.025C178.726 109.441 164.808 119.679 150.437 129.082C141.156 135.152 131.342 140.998 120.391 142.762C107.28 144.872 93.8664 140.912 80.64 142.172C59.904 144.145 41.6304 159.61 34.1568 179.057C26.6832 198.505 29.3904 221.077 39.24 239.437C49.0896 257.797 65.52 272.096 84.1248 281.521C109.865 294.596 140.285 298.685 168.293 291.601C181.973 288.145 195.178 282.097 209.261 281.845C226.728 281.535 243.101 290.175 260.381 292.565C276.624 294.805 293.947 291.125 306.871 281.045C330.84 262.325 330.163 228.341 324.972 201.37Z" fill="#ECF1FE"/>
<path d="M274.471 125.279C272.131 123.997 271.065 125.063 270.215 123.997C269.366 122.932 272.555 120.167 266.169 117.402C266.169 117.402 265.744 111.441 257.018 111.232C248.291 111.023 250.631 117.186 248.291 118.677C245.951 120.167 245.311 117.827 242.971 119.317C240.631 120.808 241.696 123.789 239.781 124.213C237.866 124.638 235.31 122.298 232.97 123.789C230.63 125.279 230.63 126.553 229.564 126.553C228.499 126.553 226.367 125.704 225.093 126.553C223.819 127.403 222.328 128.469 222.328 128.469H276.177C276.177 128.469 276.811 126.517 274.471 125.279Z" fill="white"/>
<path opacity="0.5" d="M274.471 125.279C272.131 123.997 271.065 125.063 270.215 123.997C269.366 122.932 272.555 120.167 266.169 117.402C266.169 117.402 265.744 111.441 257.018 111.232C248.291 111.023 250.631 117.186 248.291 118.677C245.951 120.167 245.311 117.827 242.971 119.317C240.631 120.808 241.696 123.789 239.781 124.213C237.866 124.638 235.31 122.298 232.97 123.789C230.63 125.279 230.63 126.553 229.564 126.553C228.499 126.553 226.367 125.704 225.093 126.553C223.819 127.403 222.328 128.469 222.328 128.469H276.177C276.177 128.469 276.811 126.517 274.471 125.279Z" fill="white"/>
<path d="M183.275 266.398C180.927 265.116 179.869 266.182 179.012 265.116C178.155 264.051 181.352 261.286 174.973 258.521C174.973 258.521 174.548 252.56 165.822 252.351C157.095 252.142 159.435 258.305 157.095 259.796C154.755 261.286 154.115 258.946 151.775 260.436C149.435 261.927 150.493 264.908 148.578 265.332C146.663 265.757 144.107 263.417 141.767 264.908C139.427 266.398 139.427 267.672 138.361 267.672C137.295 267.672 135.171 266.823 133.89 267.672C132.608 268.522 131.125 269.588 131.125 269.588H184.974C184.974 269.588 185.615 267.636 183.275 266.398Z" fill="white"/>
<path opacity="0.5" d="M183.275 266.398C180.927 265.116 179.869 266.182 179.012 265.116C178.155 264.051 181.352 261.286 174.973 258.521C174.973 258.521 174.548 252.56 165.822 252.351C157.095 252.142 159.435 258.305 157.095 259.796C154.755 261.286 154.115 258.946 151.775 260.436C149.435 261.927 150.493 264.908 148.578 265.332C146.663 265.757 144.107 263.417 141.767 264.908C139.427 266.398 139.427 267.672 138.361 267.672C137.295 267.672 135.171 266.823 133.89 267.672C132.608 268.522 131.125 269.588 131.125 269.588H184.974C184.974 269.588 185.615 267.636 183.275 266.398Z" fill="white"/>
<path d="M139.766 242.639C136.101 240.645 134.438 242.308 133.106 240.645C131.774 238.981 136.764 234.647 126.777 230.32C126.777 230.32 126.115 220.996 112.456 220.665C98.7979 220.333 102.47 229.989 98.7763 232.321C95.0827 234.654 94.1179 230.989 90.4531 233.315C86.7883 235.641 88.4515 240.313 85.4563 240.976C82.4611 241.638 78.4651 237.981 74.8003 240.313C71.1355 242.646 71.1355 244.633 69.4723 244.633C67.8091 244.633 64.4755 243.301 62.4811 244.633C60.4867 245.965 58.1611 247.629 58.1611 247.629H142.401C142.401 247.629 143.424 244.662 139.766 242.639Z" fill="white"/>
<path opacity="0.5" d="M139.766 242.639C136.101 240.645 134.438 242.308 133.106 240.645C131.774 238.981 136.764 234.647 126.777 230.32C126.777 230.32 126.115 220.996 112.456 220.665C98.7979 220.333 102.47 229.989 98.7763 232.321C95.0827 234.654 94.1179 230.989 90.4531 233.315C86.7883 235.641 88.4515 240.313 85.4563 240.976C82.4611 241.638 78.4651 237.981 74.8003 240.313C71.1355 242.646 71.1355 244.633 69.4723 244.633C67.8091 244.633 64.4755 243.301 62.4811 244.633C60.4867 245.965 58.1611 247.629 58.1611 247.629H142.401C142.401 247.629 143.424 244.662 139.766 242.639Z" fill="white"/>
<path d="M178.215 51.5303C153.079 51.5303 132.639 69.8687 131.926 92.7287L112.119 103.579L101.707 93.6863L86.6739 116.51L76.2051 116.064L81.5763 136.893L82.0443 119.75L89.4531 121.14L101.693 108.259L114.185 118.152L133.762 105.912C139.407 123.509 157.155 136.368 178.2 136.368C203.782 136.368 224.525 117.374 224.525 93.9455C224.525 70.5167 203.796 51.5303 178.215 51.5303Z" fill="#263238" stroke="#263238" stroke-width="0.72" stroke-linecap="round" stroke-linejoin="round"/>
<path d="M219.248 66.3701H135.685C133.367 66.3701 131.487 68.2494 131.487 70.5677V118.117C131.487 120.435 133.367 122.314 135.685 122.314H219.248C221.566 122.314 223.446 120.435 223.446 118.117V70.5677C223.446 68.2494 221.566 66.3701 219.248 66.3701Z" fill="#4679EC" stroke="#263238" stroke-width="1.44" stroke-linecap="round" stroke-linejoin="round"/>
<path d="M181.139 92.9437L223.446 71.5381V70.5589C223.446 69.4457 223.003 68.378 222.216 67.5908C221.429 66.8036 220.361 66.3613 219.248 66.3613H135.685C134.572 66.3613 133.504 66.8036 132.717 67.5908C131.93 68.378 131.487 69.4457 131.487 70.5589V71.7181L173.024 93.0373C174.291 93.6533 175.684 93.9655 177.092 93.9492C178.501 93.933 179.886 93.5887 181.139 92.9437Z" fill="white" stroke="#263238" stroke-width="1.44" stroke-linecap="round" stroke-linejoin="round"/>
<path d="M221.822 87.2092C226.967 86.3703 230.458 81.5193 229.619 76.3741C228.78 71.2289 223.929 67.7379 218.784 68.5768C213.639 69.4157 210.148 74.2667 210.987 79.4119C211.826 84.5571 216.677 88.048 221.822 87.2092Z" fill="#263238"/>
<path d="M219.737 83.3246C219.496 83.0294 219.375 82.6539 219.399 82.2734V73.871L217.743 74.879C217.613 74.9657 217.459 75.0109 217.303 75.0086C217.193 75.0112 217.084 74.9885 216.984 74.9423C216.885 74.8961 216.797 74.8277 216.727 74.7422C216.648 74.6614 216.586 74.5657 216.544 74.4607C216.502 74.3557 216.481 74.2433 216.483 74.1302C216.485 73.9811 216.528 73.8355 216.607 73.7088C216.685 73.5821 216.797 73.4789 216.929 73.4102L219.946 71.6318C220.162 71.4948 220.41 71.4178 220.666 71.4086C220.822 71.4042 220.978 71.4349 221.121 71.4985C221.265 71.562 221.392 71.6568 221.494 71.7758C221.72 72.0722 221.833 72.4402 221.811 72.8126V82.331C221.829 82.6954 221.708 83.0531 221.472 83.3318C221.364 83.4534 221.231 83.5499 221.082 83.6146C220.932 83.6793 220.771 83.7105 220.608 83.7062C220.443 83.7144 220.279 83.6842 220.128 83.618C219.976 83.5518 219.843 83.4514 219.737 83.3246Z" fill="#DB5555"/>
<path d="M132.12 202.867C132.12 202.867 160.56 245.707 167.4 246.427C174.24 247.147 195.84 224.827 195.84 224.827L189.72 223.387L169.337 237.167C169.337 237.167 151.92 215.783 136.613 199.439L132.12 202.867Z" fill="white" stroke="#263238" stroke-width="1.44" stroke-linecap="round" stroke-linejoin="round"/>
<path d="M137.181 190.08C137.181 190.08 142.883 190.325 142.639 192.809C142.394 195.293 142.639 201.989 141.148 203.234C139.658 204.48 137.426 204.97 136.929 202.514C136.432 200.059 137.181 190.08 137.181 190.08Z" fill="white" stroke="#263238" stroke-width="1.44" stroke-linecap="round" stroke-linejoin="round"/>
<path d="M135.69 201.766C135.69 201.766 135.438 209.211 134.97 209.952C134.502 210.694 130.996 213.43 128.764 212.933C126.532 212.436 127.273 210.204 127.273 208.966V189.36H135.712L135.69 201.766Z" fill="#263238" stroke="#263238" stroke-width="0.72" stroke-linecap="round" stroke-linejoin="round"/>
<path d="M124.027 204.48C124.027 204.48 122.292 207.706 123.775 210.19C125.259 212.674 129.485 212.674 131.227 211.428C132.97 210.182 131.717 208.454 130.234 207.958C128.751 207.461 126.756 206.215 126.756 204.732C126.756 203.249 124.769 203.501 124.027 204.48Z" fill="white" stroke="#263238" stroke-width="1.44" stroke-linecap="round" stroke-linejoin="round"/>
<path d="M122.68 199.772C122.68 201.471 122.968 204.322 124.307 205.532C125.819 206.864 132.774 206.972 135.827 204.934C138.88 202.896 136.849 199.39 134.538 199.613C132.623 199.8 130.571 199.332 128.627 199.088C127.532 198.951 123.673 198.094 122.917 198.893C122.746 199.144 122.671 199.449 122.708 199.75L122.68 199.772Z" fill="white" stroke="#263238" stroke-width="1.44" stroke-linecap="round" stroke-linejoin="round"/>
<path d="M121.824 193.623C121.586 195.336 121.478 198.231 122.882 199.483C124.473 200.923 132.717 201.327 136.613 199.426C140.508 197.525 138.657 193.875 135.893 193.997C133.596 194.091 131.227 193.515 128.966 193.176C127.692 192.989 123.206 191.945 122.22 192.715C121.988 192.942 121.851 193.248 121.838 193.572L121.824 193.623Z" fill="white" stroke="#263238" stroke-width="1.44" stroke-linecap="round" stroke-linejoin="round"/>
<path d="M122.306 185.141C121.694 186.761 120.945 189.562 122.04 191.096C123.285 192.831 131.227 195.063 135.439 194.069C139.651 193.076 138.672 189.109 135.936 188.612C133.675 188.201 131.493 187.114 129.362 186.286C128.16 185.818 124.048 183.817 122.882 184.342C122.614 184.504 122.416 184.761 122.328 185.062L122.306 185.141Z" fill="white" stroke="#263238" stroke-width="1.44" stroke-linecap="round" stroke-linejoin="round"/>
<path d="M188.33 309.57L211.01 224.783H218.685L194.608 310.269" fill="#263238"/>
<path d="M188.33 309.57L211.01 224.783H218.685L194.608 310.269" stroke="#263238" stroke-width="0.72" stroke-linecap="round" stroke-linejoin="round"/>
<path d="M203.349 301.464L225.316 224.438L218.685 224.784L194.608 310.27" fill="white"/>
<path d="M203.349 301.464L225.316 224.438L218.685 224.784L194.608 310.27" stroke="#263238" stroke-width="1.44" stroke-linecap="round" stroke-linejoin="round"/>
<path d="M201.24 308.872L202.255 305.315" stroke="#263238" stroke-width="1.44" stroke-linecap="round" stroke-linejoin="round"/>
<path d="M173.16 244.698C173.16 244.698 175.644 248.421 178.625 248.917C181.606 249.414 213.12 224.596 213.12 224.596L200.211 226.079L173.16 244.698Z" fill="white" stroke="#263238" stroke-width="1.44" stroke-linecap="round" stroke-linejoin="round"/>
<path d="M153.151 204.897C153.151 204.897 159.084 155.7 172.347 138.6C186.84 119.88 215.964 135.115 210.031 165.117C205.481 188.157 192.233 229.32 192.233 229.32L153.151 204.897Z" fill="#DB5555" stroke="#263238" stroke-width="1.44" stroke-linecap="round" stroke-linejoin="round"/>
<path d="M195.725 132.321L273.255 156.801C275.793 157.59 278.114 158.955 280.037 160.79C284.926 165.499 292.219 175.629 286.092 190.569C281.131 202.324 274.427 213.263 266.206 223.02L192.24 229.32L207.245 171.396C207.245 171.396 214.215 145.929 195.725 132.321Z" fill="white"/>
<path d="M232.078 200.469C213.43 209.21 203.458 207.669 198.497 205.149L192.24 229.319L266.213 223.041C274.434 213.284 281.138 202.345 286.099 190.59C286.905 188.644 287.518 186.623 287.928 184.557C269.95 180.323 255.694 189.402 232.078 200.469Z" fill="#4679EC"/>
<path d="M232.078 200.469C213.43 209.21 203.458 207.669 198.497 205.149L192.24 229.319L266.213 223.041C274.434 213.284 281.138 202.345 286.099 190.59C286.905 188.644 287.518 186.623 287.928 184.557C269.95 180.323 255.694 189.402 232.078 200.469Z" fill="#E06C6C"/>
<path d="M195.725 132.321L273.255 156.801C275.793 157.59 278.114 158.955 280.037 160.79C284.926 165.499 292.219 175.629 286.092 190.569C281.131 202.324 274.427 213.263 266.206 223.02L192.24 229.32L207.245 171.396C207.245 171.396 214.215 145.929 195.725 132.321Z" stroke="#263238" stroke-width="1.44" stroke-linecap="round" stroke-linejoin="round"/>
<path d="M239.3 139.622L227.16 177.508C225.094 177.847 223.078 179.553 222.077 182.066C220.695 185.536 221.768 189.23 224.475 190.31C227.182 191.39 230.501 189.446 231.884 185.99C233.021 183.11 232.496 180.129 230.76 178.552L239.3 149.378L251.208 153.439L254.463 145.051L239.3 139.622Z" fill="#263238" stroke="#263238" stroke-width="0.72" stroke-linecap="round" stroke-linejoin="round"/>
<path d="M165.118 173.188C165.118 173.188 170.533 179.149 170.806 182.123C171.08 185.097 166.205 192.923 166.205 192.923C166.205 192.923 176.221 199.151 185.696 194.817C195.171 190.482 199.772 172.079 199.772 172.079C199.772 172.079 188.403 177.494 184.069 177.494C179.734 177.494 165.118 173.188 165.118 173.188Z" fill="#263238" stroke="#263238" stroke-width="0.72" stroke-linecap="round" stroke-linejoin="round"/>
<path d="M185.696 194.846C188.309 193.651 190.548 191.383 192.428 188.734C192.294 188.162 191.995 187.642 191.569 187.237C191.143 186.833 190.608 186.562 190.03 186.458C184.342 185.371 178.388 191.599 178.388 191.599C177.854 193.133 177.53 194.731 177.423 196.351C180.262 196.525 183.1 196.009 185.696 194.846Z" fill="#4679EC" stroke="#263238" stroke-width="0.72" stroke-linecap="round" stroke-linejoin="round"/>
<path d="M177.84 189.979C174.789 189.861 171.807 189.038 169.128 187.574C167.81 190.353 166.197 192.953 166.197 192.953C166.197 192.953 176.212 199.181 185.688 194.846C188.245 193.538 190.433 191.61 192.052 189.237C189.835 189.482 182.606 190.202 177.84 189.979Z" fill="white" stroke="#263238" stroke-width="0.72" stroke-linecap="round" stroke-linejoin="round"/>
<path d="M184.069 177.522C179.749 177.522 165.118 173.202 165.118 173.202C166.89 175.168 168.471 177.296 169.841 179.56C173.441 181 179.77 183.225 184.882 183.225C189.28 183.184 193.577 181.904 197.281 179.531C198.264 177.101 199.096 174.612 199.772 172.079C199.772 172.079 188.403 177.522 184.069 177.522Z" fill="white" stroke="#263238" stroke-width="0.72" stroke-linecap="round" stroke-linejoin="round"/>
<path d="M182.987 165.066C182.987 165.066 184.615 159.386 189.215 158.838C193.816 158.291 195.17 161.546 195.17 161.546C195.17 161.546 186.479 161.546 182.987 165.066Z" fill="#263238"/>
<path d="M196.249 170.481L203.017 172.922" stroke="#263238" stroke-width="0.72" stroke-linecap="round" stroke-linejoin="round"/>
<path d="M175.384 159.623C175.046 161.531 174.175 162.978 173.433 162.849C172.692 162.719 172.382 161.063 172.713 159.148C173.044 157.233 173.93 155.786 174.664 155.915C175.399 156.045 175.73 157.679 175.384 159.623Z" fill="#263238"/>
<path d="M184.067 158.299C184.067 158.299 183.801 155.051 190.835 155.051C197.87 155.051 199.231 154.238 196.523 150.731C193.816 147.225 182.447 149.097 184.067 158.299Z" fill="#263238"/>
<path d="M181.36 148.558C181.36 148.558 180.82 143.95 176.493 143.95C172.166 143.95 169.718 149.098 169.451 147.471C169.185 145.844 170.805 140.163 176.759 139.623C182.714 139.083 181.36 148.558 181.36 148.558Z" fill="#263238"/>
<path d="M211.91 144.8C213.071 147.715 213.776 150.792 213.998 153.922C215.726 173.672 198.158 227.506 198.158 227.506" stroke="#263238" stroke-width="0.72" stroke-linecap="round" stroke-linejoin="round"/>
<path d="M205.106 136.88C206.672 137.596 208.039 138.683 209.088 140.048" stroke="#263238" stroke-width="0.72" stroke-linecap="round" stroke-linejoin="round"/>
<path d="M266.27 218.016C264.556 220.593 263.39 222.336 263.39 222.336" stroke="#263238" stroke-width="0.72" stroke-linecap="round" stroke-linejoin="round"/>
<path d="M269.064 156.391C269.064 156.391 282.154 163.799 283.882 174.664C285.61 185.529 281.412 191.224 278.943 197.135C277.503 200.527 272.628 208.295 268.704 214.315" stroke="#263238" stroke-width="0.72" stroke-linecap="round" stroke-linejoin="round"/>
<path d="M166.867 198.475C166.867 198.475 170.784 202.384 179.582 201.405C179.582 201.405 170.784 205.315 166.867 198.475Z" fill="#263238"/>
<path d="M87.7959 195.314C87.7959 195.314 110.713 183.297 152.545 190.663C154.469 191 156.448 190.561 158.048 189.443C159.649 188.324 160.741 186.616 161.085 184.694L161.689 181.317C161.98 179.697 161.721 178.026 160.952 176.57C160.184 175.114 158.951 173.956 157.449 173.282C146.339 168.292 120.491 154.454 106.905 128.808L87.7959 195.314Z" fill="#4679EC" stroke="#263238" stroke-width="1.44" stroke-linecap="round" stroke-linejoin="round"/>
<path d="M108.266 142.732C108.266 142.732 119.454 160.286 138.03 166.644" stroke="white" stroke-width="1.44" stroke-linecap="round" stroke-linejoin="round"/>
<path d="M157.45 173.282C150.95 170.342 144.71 166.859 138.795 162.871C140.746 169.106 141.308 178.531 133.236 188.46C139.713 188.791 146.162 189.527 152.547 190.663C154.47 191 156.449 190.562 158.049 189.443C159.65 188.324 160.742 186.617 161.086 184.694L161.691 181.317C161.981 179.697 161.722 178.026 160.953 176.57C160.185 175.114 158.952 173.957 157.45 173.282Z" fill="#263238" stroke="#263238" stroke-width="0.72" stroke-linecap="round" stroke-linejoin="round"/>
<path d="M106.155 164.856C112.681 143.981 111.448 125.02 103.402 122.505C95.356 119.99 83.5434 134.873 77.0178 155.747C70.4922 176.621 71.7248 195.582 79.7709 198.097C87.8169 200.613 99.6296 185.73 106.155 164.856Z" fill="#263238" stroke="#263238" stroke-width="0.72" stroke-linecap="round" stroke-linejoin="round"/>
<path d="M102.904 163.843C108.774 145.064 108.066 128.131 101.322 126.023C94.5775 123.914 84.351 137.429 78.4804 156.208C72.6097 174.987 73.3179 191.92 80.0622 194.028C86.8065 196.137 97.0329 182.622 102.904 163.843Z" fill="white" stroke="#263238" stroke-width="0.72" stroke-linecap="round" stroke-linejoin="round"/>
<path d="M105.616 153.093L98.9199 152.74L93.8799 169.891L99.2007 173.728C100.609 170.508 101.839 167.212 102.887 163.857C104.002 160.324 104.913 156.73 105.616 153.093Z" fill="#263238" stroke="#263238" stroke-width="0.72" stroke-linecap="round" stroke-linejoin="round"/>
<path d="M99.3026 162.157C97.9202 166.895 95.5082 170.358 93.9098 169.89C92.3114 169.422 92.1458 165.21 93.5282 160.472C94.9106 155.735 97.3298 152.272 98.921 152.74C100.512 153.208 100.685 157.427 99.3026 162.157Z" fill="white" stroke="#263238" stroke-width="0.72" stroke-linecap="round" stroke-linejoin="round"/>
<path d="M175.895 247.924C172.173 246.189 141.645 191.836 139.895 188.884C138.146 185.932 138.657 181.684 140.392 177.717C142.127 173.75 142.127 166.298 141.112 164.807C140.097 163.317 137.059 161.798 137.059 161.798C137.059 161.798 137.642 161.078 138.88 159.602C140.119 158.126 143.099 159.105 143.099 159.105C145.331 157.363 147.326 160.199 147.326 160.199C149.81 158.709 151.041 161.582 151.041 161.582C151.913 161.63 152.762 161.877 153.525 162.302C155.591 163.641 155.26 169.502 155.26 169.502C155.26 169.502 157.492 169.999 157.989 171.489C158.545 173.885 158.372 176.392 157.492 178.689C156.499 181.173 150.292 188.618 150.292 188.618L181.065 241.48" fill="white"/>
<path d="M175.895 247.924C172.173 246.189 141.645 191.836 139.895 188.884C138.146 185.932 138.657 181.684 140.392 177.717C142.127 173.75 142.127 166.298 141.112 164.807C140.097 163.317 137.059 161.798 137.059 161.798C137.059 161.798 137.642 161.078 138.88 159.602C140.119 158.126 143.099 159.105 143.099 159.105C145.331 157.363 147.326 160.199 147.326 160.199C149.81 158.709 151.041 161.582 151.041 161.582C151.913 161.63 152.762 161.877 153.525 162.302C155.591 163.641 155.26 169.502 155.26 169.502C155.26 169.502 157.492 169.999 157.989 171.489C158.545 173.885 158.372 176.392 157.492 178.689C156.499 181.173 150.292 188.618 150.292 188.618L181.065 241.48" stroke="#263238" stroke-width="1.44" stroke-linecap="round" stroke-linejoin="round"/>
<path d="M143.136 159.12C143.136 159.12 146.7 161.417 146.7 163.44C146.738 165.002 146.87 166.56 147.096 168.106" stroke="#263238" stroke-width="0.72" stroke-linecap="round" stroke-linejoin="round"/>
<path d="M147.362 160.179C147.362 160.179 149.522 162.447 149.63 163.779C149.738 165.111 150.034 169.244 150.034 169.244" stroke="#263238" stroke-width="0.72" stroke-linecap="round" stroke-linejoin="round"/>
<path d="M151.077 161.561C151.818 162.652 152.24 163.929 152.294 165.247C152.309 166.628 152.398 168.008 152.56 169.38" stroke="#263238" stroke-width="0.72" stroke-linecap="round" stroke-linejoin="round"/>
<path d="M155.296 169.502C155.296 169.502 156.297 175.91 155.893 177.249" stroke="#263238" stroke-width="0.72" stroke-linecap="round" stroke-linejoin="round"/>
</svg>
