<svg width="1059" height="810" viewBox="0 0 1059 810" fill="none" xmlns="http://www.w3.org/2000/svg">
<circle cx="357.5" cy="1028.5" r="357.5" fill="url(#paint0_linear_64_1183)"/>
<circle cx="44.75" cy="900" r="273.75" fill="url(#paint1_linear_64_1183)"/>
<path d="M737.75 945.809C880.367 928.255 984.607 1041.78 1035.8 1128.73C1047.99 1149.43 1032.11 1173.86 1008.08 1173.73L12.1571 1168.47C-6.18335 1168.37 -21.0001 1153.48 -21.0001 1135.14L-21 31.3335C-21 12.9239 -6.07619 -1.99991 12.3334 -1.99991L96.8799 -1.9999C98.7069 -1.9999 100.615 -1.83718 102.416 -1.53225C472.811 61.1707 410.055 307.162 332.125 422.599C286.5 503.824 204 699.525 239 832.528C282.75 998.782 525.875 971.888 737.75 945.809Z" fill="url(#paint2_linear_64_1183)"/>
<defs>
<linearGradient id="paint0_linear_64_1183" x1="-50.9993" y1="230.371" x2="1344.05" y2="464.275" gradientUnits="userSpaceOnUse">
<stop stop-color="#3F4F61"/>
<stop offset="1" stop-color="#3A9FD1"/>
</linearGradient>
<linearGradient id="paint1_linear_64_1183" x1="-268.052" y1="288.846" x2="800.183" y2="467.953" gradientUnits="userSpaceOnUse">
<stop stop-color="#3F4F61"/>
<stop offset="1" stop-color="#3A9FD1"/>
</linearGradient>
<linearGradient id="paint2_linear_64_1183" x1="1136.03" y1="1898.73" x2="-980.232" y2="1572.86" gradientUnits="userSpaceOnUse">
<stop stop-color="#3F4F61"/>
<stop offset="1" stop-color="#3A9FD1"/>
</linearGradient>
</defs>
</svg>
