<svg width="1600" height="900" viewBox="0 0 1600 900" fill="none" xmlns="http://www.w3.org/2000/svg">
<circle cx="357.5" cy="1028.5" r="357.5" fill="url(#paint0_linear_17:1279)"/>
<circle cy="900" r="273.75" fill="url(#paint1_linear_17:1279)"/>
<path d="M840.625 173.75C706.412 186.419 606.187 110.058 552.173 45.446C535.795 25.854 551.019 -1.12181 576.555 -1.01837L1566.18 2.99052C1584.53 3.06488 1599.38 17.9668 1599.38 36.3236V867.292C1599.38 885.701 1584.45 900.625 1566.04 900.625H1478.75C1105.25 853.125 1168.12 663.75 1246.25 575C1291.88 512.708 1374.38 362.625 1339.38 260.625C1295.62 133.125 1052.5 153.75 840.625 173.75Z" fill="url(#paint2_linear_17:1279)"/>
<defs>
<linearGradient id="paint0_linear_17:1279" x1="-50.9993" y1="230.371" x2="1344.05" y2="464.275" gradientUnits="userSpaceOnUse">
<stop stop-color="#3F4F61"/>
<stop offset="1" stop-color="#3A9FD1"/>
</linearGradient>
<linearGradient id="paint1_linear_17:1279" x1="-312.802" y1="288.846" x2="755.433" y2="467.953" gradientUnits="userSpaceOnUse">
<stop stop-color="#3F4F61"/>
<stop offset="1" stop-color="#3A9FD1"/>
</linearGradient>
<linearGradient id="paint2_linear_17:1279" x1="442.341" y1="-557.043" x2="2524.83" y2="-138.916" gradientUnits="userSpaceOnUse">
<stop stop-color="#3F4F61" stop-opacity="0.47"/>
<stop offset="1" stop-color="#3A9FD1"/>
</linearGradient>
</defs>
</svg>
