<svg width="1041" height="900" viewBox="0 0 1041 900" fill="none" xmlns="http://www.w3.org/2000/svg">
<path d="M737.75 945.809C880.367 928.255 984.607 1041.78 1035.8 1128.73C1047.99 1149.43 1032.11 1173.86 1008.08 1173.73L12.1571 1168.47C-6.18335 1168.37 -21.0001 1153.48 -21.0001 1135.14L-21 31.3334C-21 12.9239 -6.07619 -1.99997 12.3334 -1.99997L96.8799 -1.99996C98.7069 -1.99996 100.615 -1.83724 102.416 -1.53231C472.811 61.1706 410.055 307.162 332.125 422.599C286.5 503.824 204 699.525 239 832.528C282.75 998.782 525.875 971.888 737.75 945.809Z" fill="url(#paint0_linear_17:1285)"/>
<defs>
<linearGradient id="paint0_linear_17:1285" x1="1136.03" y1="1898.73" x2="-980.232" y2="1572.86" gradientUnits="userSpaceOnUse">
<stop stop-color="#3F4F61"/>
<stop offset="1" stop-color="#3A9FD1"/>
</linearGradient>
</defs>
</svg>
