<svg width="19" height="19" viewBox="0 0 19 19" fill="none" xmlns="http://www.w3.org/2000/svg">
<path d="M18.7935 6.4538C18.9071 6.4538 19 6.36087 19 6.24728V4.69837C19 4.58478 18.9071 4.49185 18.7935 4.49185H14.5598V0.206522C14.5598 0.0929348 14.4668 0 14.3533 0H12.7011C12.5875 0 12.4946 0.0929348 12.4946 0.206522V4.49185H6.6087V0.206522C6.6087 0.0929348 6.51576 0 6.40217 0H4.75C4.63641 0 4.54348 0.0929348 4.54348 0.206522V4.49185H0.206522C0.0929348 4.49185 0 4.58478 0 4.69837V6.24728C0 6.36087 0.0929348 6.4538 0.206522 6.4538H4.54348V12.5462H0.206522C0.0929348 12.5462 0 12.6391 0 12.7527V14.3016C0 14.4152 0.0929348 14.5082 0.206522 14.5082H4.54348V18.7935C4.54348 18.9071 4.63641 19 4.75 19H6.40217C6.51576 19 6.6087 18.9071 6.6087 18.7935V14.5082H12.4946V18.7935C12.4946 18.9071 12.5875 19 12.7011 19H14.3533C14.4668 19 14.5598 18.9071 14.5598 18.7935V14.5082H18.7935C18.9071 14.5082 19 14.4152 19 14.3016V12.7527C19 12.6391 18.9071 12.5462 18.7935 12.5462H14.5598V6.4538H18.7935ZM12.4946 12.5462H6.6087V6.4538H12.4946V12.5462Z" fill="white"/>
</svg>
