<svg width="19" height="19" viewBox="0 0 19 19" fill="none" xmlns="http://www.w3.org/2000/svg">
<path d="M9.5 0C14.7535 0 19 4.25695 19 9.5C19 14.7449 14.7535 19 9.5 19C4.256 19 0 14.7449 0 9.5C0 4.25695 4.256 0 9.5 0ZM9.5 12.2844C9.044 12.2844 8.6735 12.6549 8.6735 13.1109C8.6735 13.5669 9.044 13.9469 9.5095 13.9469C9.9655 13.9469 10.336 13.5669 10.336 13.1109C10.336 12.6549 9.9655 12.2844 9.5 12.2844ZM9.5 5.0635C9.044 5.0635 8.664 5.44445 8.664 5.8995V10.0985C8.664 10.5555 9.044 10.925 9.5 10.925C9.956 10.925 10.3265 10.5555 10.3265 10.0985V5.8995C10.3265 5.44445 9.956 5.0635 9.5 5.0635Z" fill="#CFCFCF"/>
</svg>
