                  <svg
                    width="20"
                    height="20"
                    viewBox="0 0 17 17"
                    fill="none"
                    xmlns="http://www.w3.org/2000/svg"
                  >
                    <path
                      fill-rule="evenodd"
                      clip-rule="evenodd"
                      d="M2.43946 16.5823C2.1712 16.8502 1.80751 17.0005 1.42841 17.0002C1.0493 17 0.685833 16.8491 0.417954 16.5809C0.150074 16.3127 -0.000266937 15.949 1.25042e-07 15.5699C0.000269094 15.1909 0.151119 14.8274 0.419377 14.5596L12.1227 2.85725L4.21381 2.85725C3.83491 2.85725 3.47154 2.70675 3.20362 2.43885C2.9357 2.17096 2.78518 1.80761 2.78518 1.42875C2.78518 1.04989 2.9357 0.686539 3.20362 0.418643C3.47154 0.150746 3.83491 0.00024299 4.21381 0.000243023L15.5714 0.000244016C15.9503 0.000244049 16.3136 0.150747 16.5816 0.418644C16.8495 0.686541 17 1.04989 17 1.42875L17 12.7854C17 13.1642 16.8495 13.5276 16.5816 13.7955C16.3136 14.0634 15.9503 14.2139 15.5714 14.2139C15.1925 14.2139 14.8291 14.0634 14.5612 13.7955C14.2933 13.5276 14.1428 13.1642 14.1428 12.7854L14.1428 4.87716L2.43946 16.5823Z"
                      fill="black"
                    />
                  </svg>