<svg width="1600" height="900" viewBox="0 0 1600 900" fill="none" xmlns="http://www.w3.org/2000/svg">
<circle cx="357.5" cy="1028.5" r="357.5" fill="url(#paint0_linear_32_5409)"/>
<circle cy="900" r="273.75" fill="url(#paint1_linear_32_5409)"/>
<path d="M840.625 173.75C706.413 186.419 606.187 110.058 552.173 45.446C535.795 25.854 551.019 -1.12178 576.555 -1.01834L1566.18 2.99055C1584.53 3.06491 1599.38 17.9668 1599.38 36.3236V867.292C1599.38 885.701 1584.45 900.625 1566.04 900.625H1478.75C1105.25 853.125 1168.13 663.75 1246.25 575C1291.88 512.708 1374.38 362.625 1339.38 260.625C1295.63 133.125 1052.5 153.75 840.625 173.75Z" fill="url(#paint2_linear_32_5409)"/>
<path d="M737.75 945.809C880.367 928.255 984.607 1041.78 1035.8 1128.73C1047.99 1149.43 1032.11 1173.86 1008.08 1173.73L12.1571 1168.47C-6.18335 1168.37 -21.0001 1153.48 -21.0001 1135.14L-21 31.3335C-21 12.9239 -6.07619 -1.99991 12.3334 -1.99991L96.8799 -1.9999C98.7069 -1.9999 100.615 -1.83718 102.416 -1.53225C472.811 61.1707 410.055 307.162 332.125 422.599C286.5 503.824 204 699.525 239 832.528C282.75 998.782 525.875 971.888 737.75 945.809Z" fill="url(#paint3_linear_32_5409)"/>
<defs>
<linearGradient id="paint0_linear_32_5409" x1="-50.9993" y1="230.371" x2="1344.05" y2="464.275" gradientUnits="userSpaceOnUse">
<stop stop-color="#3F4F61"/>
<stop offset="1" stop-color="#3A9FD1"/>
</linearGradient>
<linearGradient id="paint1_linear_32_5409" x1="-312.802" y1="288.846" x2="755.433" y2="467.953" gradientUnits="userSpaceOnUse">
<stop stop-color="#3F4F61"/>
<stop offset="1" stop-color="#3A9FD1"/>
</linearGradient>
<linearGradient id="paint2_linear_32_5409" x1="442.341" y1="-557.043" x2="2524.83" y2="-138.916" gradientUnits="userSpaceOnUse">
<stop stop-color="#3F4F61" stop-opacity="0.47"/>
<stop offset="1" stop-color="#3A9FD1"/>
</linearGradient>
<linearGradient id="paint3_linear_32_5409" x1="1136.03" y1="1898.73" x2="-980.232" y2="1572.86" gradientUnits="userSpaceOnUse">
<stop stop-color="#3F4F61"/>
<stop offset="1" stop-color="#3A9FD1"/>
</linearGradient>
</defs>
</svg>
