<svg width="26" height="26" viewBox="0 0 26 26" fill="none" xmlns="http://www.w3.org/2000/svg">
<path fill-rule="evenodd" clip-rule="evenodd" d="M10.6994 16.4734C6.5351 16.4734 2.97852 17.1028 2.97852 19.6248C2.97852 22.1468 6.51343 22.799 10.6994 22.799C14.8648 22.799 18.4203 22.1685 18.4203 19.6476C18.4203 17.1266 14.8865 16.4734 10.6994 16.4734Z" stroke="#60739F" stroke-width="1.625" stroke-linecap="round" stroke-linejoin="round"/>
<path fill-rule="evenodd" clip-rule="evenodd" d="M10.6996 12.8764C13.4328 12.8764 15.6482 10.661 15.6482 7.92773C15.6482 5.19448 13.4328 2.97906 10.6996 2.97906C7.9674 2.97906 5.75199 5.19448 5.75199 7.92773C5.74224 10.6512 7.9414 12.8666 10.666 12.8764H10.6996Z" stroke="#60739F" stroke-width="1.625" stroke-linecap="round" stroke-linejoin="round"/>
<path d="M20.8039 9.39154V13.7357" stroke="#60739F" stroke-width="1.625" stroke-linecap="round" stroke-linejoin="round"/>
<path d="M23.0202 11.5635H18.5894" stroke="#60739F" stroke-width="1.625" stroke-linecap="round" stroke-linejoin="round"/>
</svg>
