<svg width="22" height="22" viewBox="0 0 22 22" fill="none" xmlns="http://www.w3.org/2000/svg">
<path fill-rule="evenodd" clip-rule="evenodd" d="M8.29173 11.5997C11.2759 11.5997 13.6679 9.17673 13.6679 6.154C13.6679 3.13127 11.2759 0.708252 8.29173 0.708252C5.30761 0.708252 2.91555 3.13127 2.91555 6.154C2.91555 9.17673 5.30761 11.5997 8.29173 11.5997ZM8.29175 14.2663C3.90882 14.2663 0.166748 14.9671 0.166748 17.7668C0.166748 20.5655 3.88605 21.2915 8.29175 21.2915C12.6736 21.2915 16.4167 20.5908 16.4167 17.791C16.4167 14.9912 12.6974 14.2663 8.29175 14.2663ZM19.5561 8.38673H20.8594C21.3959 8.38673 21.8333 8.8303 21.8333 9.37431C21.8333 9.91833 21.3959 10.3619 20.8594 10.3619H19.5561V11.6373C19.5561 12.1813 19.1198 12.6249 18.5822 12.6249C18.0457 12.6249 17.6083 12.1813 17.6083 11.6373V10.3619H16.3072C15.7696 10.3619 15.3333 9.91833 15.3333 9.37431C15.3333 8.8303 15.7696 8.38673 16.3072 8.38673H17.6083V7.11246C17.6083 6.56844 18.0457 6.12488 18.5822 6.12488C19.1198 6.12488 19.5561 6.56844 19.5561 7.11246V8.38673Z" fill="#4679EC"/>
</svg>
