<svg width="24" height="24" viewBox="0 0 24 24" fill="none" xmlns="http://www.w3.org/2000/svg">
<path d="M12 0.25C7.16747 0.25 3.24996 4.16751 3.24996 9C3.24996 9.42694 3.28059 9.84693 3.33979 10.2578C3.44828 10.5461 3.57075 10.8274 3.70636 11.1011C4.96252 13.6362 7.34644 15.5122 10.1987 16.0749C10.7808 16.1897 11.383 16.25 12 16.25C12.5277 16.25 13.0445 16.2059 13.5471 16.1213C16.4595 15.6312 18.9125 13.7781 20.2243 11.2382C20.3877 10.9218 20.5334 10.5946 20.6601 10.2581C20.7193 9.84715 20.75 9.42706 20.75 9C20.75 4.16751 16.8325 0.25 12 0.25Z" fill="white"/>
<path d="M20.5814 13.4757C18.9623 15.618 16.5589 17.1356 13.796 17.6005C13.5061 17.6493 13.2123 17.6865 12.9152 17.7115C12.9992 17.8594 13.0917 18.0196 13.1923 18.194L14.9816 21.2932C15.207 21.6837 15.4154 22.0447 15.6141 22.2982C15.8087 22.5465 16.1741 22.9287 16.7448 22.8798C17.3227 22.8304 17.6134 22.3832 17.7577 22.102C17.9037 21.8173 18.0376 21.4254 18.1814 21.0044L18.4422 20.2414C18.5869 19.8184 18.6739 19.5681 18.7589 19.3942C18.7978 19.3148 18.825 19.2759 18.84 19.2576C18.8469 19.2493 18.8519 19.2449 18.8519 19.2449L18.8532 19.2439L18.8546 19.243L18.8575 19.2416C18.8575 19.2416 18.8639 19.2395 18.8746 19.2377C18.8979 19.2338 18.9452 19.2297 19.0334 19.2358C19.2265 19.2491 19.4868 19.2988 19.9254 19.3851L20.7167 19.5407C21.1531 19.6267 21.5594 19.7066 21.879 19.7225C22.1947 19.7382 22.7273 19.71 23.0591 19.2343C23.3868 18.7645 23.2385 18.2569 23.1208 17.9642C23.0006 17.6654 22.7921 17.3044 22.5666 16.9141L20.7219 13.7188C20.6735 13.635 20.6268 13.554 20.5814 13.4757Z" fill="white"/>
<path d="M10.8209 17.686C10.5127 17.6524 10.2084 17.6057 9.9084 17.5465C7.18108 17.0085 4.82602 15.4403 3.26358 13.2652C3.17493 13.4153 3.08155 13.5771 2.98098 13.7513L1.155 16.914C0.929535 17.3044 0.721054 17.6654 0.600856 17.9642C0.483122 18.2569 0.334849 18.7645 0.662511 19.2343C0.994323 19.71 1.52695 19.7382 1.8426 19.7225C2.1622 19.7066 2.56848 19.6267 3.00491 19.5407L3.79618 19.3851C4.23484 19.2988 4.4951 19.2491 4.6882 19.2358C4.7764 19.2297 4.82375 19.2338 4.84705 19.2377C4.85775 19.2395 4.86407 19.2416 4.86407 19.2416L4.86701 19.243L4.86966 19.2449C4.86966 19.2449 4.87466 19.2493 4.88157 19.2576C4.89661 19.2759 4.92382 19.3148 4.96267 19.3942C5.04772 19.5681 5.13475 19.8184 5.27936 20.2414L5.54018 21.0044C5.684 21.4254 5.81789 21.8172 5.96393 22.102C6.10817 22.3832 6.39891 22.8304 6.97682 22.8798C7.54749 22.9287 7.91291 22.5465 8.10753 22.2982C8.30622 22.0447 8.51461 21.6836 8.73997 21.2932L10.5292 18.1941C10.6357 18.0096 10.7331 17.8409 10.8209 17.686Z" fill="white"/>
</svg>
