<svg width="18" height="16" viewBox="0 0 18 16" fill="none" xmlns="http://www.w3.org/2000/svg">
<path d="M13.2757 0.0636015C12.6728 0.00247096 12.25 0.49801 12.25 0.999996V15C12.25 15.4142 12.5858 15.75 13 15.75C13.4142 15.75 13.75 15.4142 13.75 15L13.75 1.86345C13.7642 1.87453 13.7787 1.88601 13.7935 1.89789C14.1161 2.15699 14.4997 2.54234 15.0695 3.11724L16.4673 4.52762C16.7589 4.82182 17.2338 4.82394 17.528 4.53235C17.8222 4.24077 17.8243 3.7659 17.5327 3.4717L16.1044 2.03057C15.573 1.49438 15.1298 1.0472 14.7328 0.728352C14.3163 0.393926 13.8787 0.139553 13.3455 0.0715913C13.3222 0.0686283 13.299 0.0659647 13.2757 0.0636015Z" fill="white"/>
<path d="M5.75 1.00001C5.75 0.585791 5.41421 0.250005 5 0.250005C4.58579 0.250005 4.25 0.585791 4.25 1.00001L4.25 13.9363C4.23578 13.9252 4.22128 13.9138 4.20649 13.9019C3.88386 13.6428 3.50033 13.2574 2.93054 12.6825L1.53269 11.2721C1.24111 10.9779 0.766239 10.9758 0.472042 11.2674C0.177844 11.559 0.175726 12.0339 0.467309 12.3281L1.89563 13.7692C2.42702 14.3054 2.87022 14.7526 3.26724 15.0714C3.68367 15.4058 4.12131 15.6602 4.6545 15.7282C5.30512 15.8111 5.75 15.2715 5.75 14.7487L5.75 1.00001Z" fill="white"/>
</svg>
