<svg width="26" height="26" viewBox="0 0 26 26" fill="none" xmlns="http://www.w3.org/2000/svg">
<path fill-rule="evenodd" clip-rule="evenodd" d="M11.5964 3.81255C10.8702 3.81255 10.2524 4.31719 10.0789 4.99736H15.9102C15.7368 4.31719 15.119 3.81255 14.3928 3.81255H11.5964ZM17.5577 4.99736H19.7038C21.9799 4.99736 23.8333 6.8733 23.8333 9.17708C23.8333 9.17708 23.7683 10.1524 23.7466 11.5105C23.7444 11.618 23.6924 11.7233 23.6068 11.7869C23.0854 12.172 22.6085 12.4901 22.5652 12.5121C20.766 13.7188 18.6752 14.5679 16.4478 14.9903C16.3026 15.0188 16.1595 14.9431 16.0858 14.8137C15.4615 13.732 14.2952 13.0277 12.9946 13.0277C11.7026 13.0277 10.5255 13.7243 9.88276 14.8071C9.80798 14.9344 9.66707 15.0079 9.52292 14.9804C7.31398 14.557 5.22318 13.709 3.43479 12.5231L2.39427 11.799C2.30756 11.7442 2.25337 11.6454 2.25337 11.5357C2.22085 10.9762 2.16666 9.17708 2.16666 9.17708C2.16666 6.8733 4.02008 4.99736 6.29622 4.99736H8.43146C8.63739 3.40665 9.97056 2.16699 11.5964 2.16699H14.3928C16.0186 2.16699 17.3517 3.40665 17.5577 4.99736ZM23.4648 13.8835L23.4215 13.9054C21.232 15.3755 18.5982 16.3518 15.8343 16.7577C15.4441 16.8126 15.0539 16.5603 14.9455 16.1653C14.7071 15.2658 13.9375 14.6734 13.0162 14.6734H13.0054H12.9837C12.0624 14.6734 11.2929 15.2658 11.0544 16.1653C10.946 16.5603 10.5559 16.8126 10.1657 16.7577C7.40177 16.3518 4.76796 15.3755 2.57853 13.9054C2.56769 13.8945 2.4593 13.8286 2.37259 13.8835C2.27504 13.9383 2.27504 14.07 2.27504 14.07L2.35092 19.6649C2.35092 21.9687 4.1935 23.8337 6.46964 23.8337H19.5195C21.7956 23.8337 23.6382 21.9687 23.6382 19.6649L23.7249 14.07C23.7249 14.07 23.7249 13.9383 23.6274 13.8835C23.5732 13.8506 23.5082 13.8616 23.4648 13.8835ZM13.8075 18.4801C13.8075 18.9409 13.4498 19.3029 12.9946 19.3029C12.5502 19.3029 12.1817 18.9409 12.1817 18.4801V17.0649C12.1817 16.6151 12.5502 16.2421 12.9946 16.2421C13.4498 16.2421 13.8075 16.6151 13.8075 17.0649V18.4801Z" fill="#4679EC"/>
</svg>
