<svg width="26" height="26" viewBox="0 0 26 26" fill="none" xmlns="http://www.w3.org/2000/svg">
<path d="M12.9947 18.0658V15.3174" stroke="#60739F" stroke-width="1.5" stroke-linecap="round" stroke-linejoin="round"/>
<path fill-rule="evenodd" clip-rule="evenodd" d="M19.7057 5.77441C21.5366 5.77441 23.0099 7.25858 23.0099 9.08941V12.8161C20.3449 14.3761 16.8241 15.3186 12.9891 15.3186C9.15406 15.3186 5.64407 14.3761 2.97906 12.8161V9.07858C2.97906 7.24775 4.46323 5.77441 6.29407 5.77441H19.7057Z" stroke="#60739F" stroke-width="1.5" stroke-linecap="round" stroke-linejoin="round"/>
<path d="M16.7864 5.76918V5.37268C16.7864 4.05102 15.7139 2.97852 14.3922 2.97852H11.5972C10.2755 2.97852 9.20303 4.05102 9.20303 5.37268V5.76918" stroke="#60739F" stroke-width="1.5" stroke-linecap="round" stroke-linejoin="round"/>
<path d="M3.00562 16.7725L3.21037 19.4905C3.34903 21.3225 4.87545 22.7384 6.7117 22.7384H19.2773C21.1135 22.7384 22.64 21.3225 22.7786 19.4905L22.9834 16.7725" stroke="#60739F" stroke-width="1.5" stroke-linecap="round" stroke-linejoin="round"/>
</svg>
