<svg width="22" height="22" viewBox="0 0 22 22" fill="none" xmlns="http://www.w3.org/2000/svg">
<path fill-rule="evenodd" clip-rule="evenodd" d="M18.5965 4.80573C18.9531 4.80573 19.25 5.10181 19.25 5.47855V5.82688C19.25 6.19446 18.9531 6.49971 18.5965 6.49971H3.40437C3.04687 6.49971 2.75 6.19446 2.75 5.82688V5.47855C2.75 5.10181 3.04687 4.80573 3.40437 4.80573H6.0771C6.62003 4.80573 7.09253 4.41982 7.21466 3.87532L7.35463 3.25016C7.57216 2.39859 8.28804 1.83301 9.10733 1.83301H12.8927C13.703 1.83301 14.427 2.39859 14.6365 3.20524L14.7862 3.8744C14.9075 4.41982 15.38 4.80573 15.9238 4.80573H18.5965ZM17.2387 17.5392C17.5177 14.9386 18.0063 8.76037 18.0063 8.69804C18.0241 8.50921 17.9626 8.33046 17.8404 8.18654C17.7094 8.0518 17.5436 7.97205 17.3608 7.97205H4.64614C4.46249 7.97205 4.28776 8.0518 4.16651 8.18654C4.04349 8.33046 3.98286 8.50921 3.99178 8.69804C3.99342 8.70949 4.01095 8.92712 4.04025 9.29096C4.17045 10.9073 4.53307 15.409 4.76739 17.5392C4.93321 19.1085 5.9629 20.0948 7.45439 20.1306C8.60532 20.1572 9.79103 20.1663 11.0035 20.1663C12.1455 20.1663 13.3053 20.1572 14.4919 20.1306C16.0351 20.104 17.0639 19.1351 17.2387 17.5392Z" fill="#F18D8E"/>
</svg>
