<svg width="26" height="26" viewBox="0 0 26 26" fill="none" xmlns="http://www.w3.org/2000/svg">
<path d="M5.19441 7.64398C5.19441 6.2909 6.29074 5.19457 7.64383 5.19348H8.75858C9.40533 5.19348 10.025 4.93673 10.4843 4.48173L11.2632 3.70173C12.2177 2.7419 13.769 2.73757 14.7288 3.69198L14.7299 3.69307L14.7397 3.70173L15.5197 4.48173C15.979 4.93782 16.5987 5.19348 17.2454 5.19348H18.3591C19.7122 5.19348 20.8096 6.28982 20.8096 7.64398V8.75657C20.8096 9.40332 21.0652 10.0241 21.5213 10.4834L22.3013 11.2634C23.2612 12.2178 23.2666 13.7691 22.3122 14.729L22.3111 14.7301L22.3013 14.7398L21.5213 15.5198C21.0652 15.9781 20.8096 16.5977 20.8096 17.2445V18.3592C20.8096 19.7123 19.7132 20.8086 18.3602 20.8086H18.3591H17.2432C16.5965 20.8086 15.9757 21.0654 15.5175 21.5215L14.7375 22.3004C13.7842 23.2602 12.2339 23.2656 11.2741 22.3134C11.273 22.3123 11.2719 22.3112 11.2708 22.3101L11.2611 22.3004L10.4822 21.5215C10.0239 21.0654 9.40316 20.8097 8.75641 20.8086H7.64383C6.29074 20.8086 5.19441 19.7123 5.19441 18.3592V17.2423C5.19441 16.5956 4.93766 15.9759 4.48158 15.5176L3.70266 14.7376C2.74283 13.7843 2.73741 12.2341 3.69074 11.2742C3.69074 11.2731 3.69183 11.2721 3.69291 11.271L3.70266 11.2612L4.48158 10.4812C4.93766 10.0219 5.19441 9.40223 5.19441 8.7544V7.64398" stroke="white" stroke-width="1.5" stroke-linecap="round" stroke-linejoin="round"/>
<path d="M10.2175 15.786L15.7859 10.2177" stroke="white" stroke-width="1.5" stroke-linecap="round" stroke-linejoin="round"/>
<path d="M15.7033 15.7083H15.713" stroke="white" stroke-width="2" stroke-linecap="round" stroke-linejoin="round"/>
<path d="M10.2868 10.2917H10.2965" stroke="white" stroke-width="2" stroke-linecap="round" stroke-linejoin="round"/>
</svg>
