<svg width="26" height="26" viewBox="0 0 26 26" fill="none" xmlns="http://www.w3.org/2000/svg">
<g id="Iconly/Bold/Discount">
<g id="Discount">
<path id="Discount_2" fill-rule="evenodd" clip-rule="evenodd" d="M22.099 9.90818L22.8792 10.6882C23.497 11.2949 23.8329 12.1182 23.8329 12.9849C23.8438 13.8515 23.5078 14.6759 22.9009 15.2924C22.8937 15.3003 22.8865 15.3073 22.8792 15.3143C22.8756 15.3177 22.872 15.3212 22.8684 15.3249L22.099 16.094C21.7955 16.3974 21.6221 16.809 21.6221 17.2434V18.3582C21.6221 20.1565 20.1591 21.6201 18.3601 21.6201H17.2439C16.8104 21.6201 16.3986 21.7924 16.0951 22.0957L15.3148 22.8757C14.6754 23.5159 13.841 23.829 13.0065 23.829C12.172 23.829 11.3376 23.5159 10.6982 22.8876L9.90703 22.0957C9.60359 21.7924 9.19178 21.6201 8.75829 21.6201H7.64205C5.84306 21.6201 4.38003 20.1565 4.38003 18.3582V17.2434C4.38003 16.809 4.20664 16.3974 3.90319 16.0832L3.12291 15.314C1.85495 14.0476 1.84411 11.9774 3.11207 10.7001L3.90319 9.90818C4.20664 9.60485 4.38003 9.19318 4.38003 8.74902V7.64402C4.38003 5.84568 5.84306 4.38427 7.64205 4.38427H8.75829C9.19178 4.38427 9.60359 4.20985 9.90703 3.90652L10.6873 3.12652C11.9553 1.84927 14.0252 1.84927 15.304 3.11677L16.0951 3.90652C16.3986 4.20985 16.8104 4.38427 17.2439 4.38427H18.3601C20.1591 4.38427 21.6221 5.84568 21.6221 7.64402V8.76093C21.6221 9.19318 21.7955 9.60485 22.099 9.90818ZM10.2105 16.7332C10.4706 16.7332 10.709 16.6357 10.8824 16.4515L16.4527 10.8843C16.8212 10.5159 16.8212 9.90818 16.4527 9.53985C16.0843 9.1726 15.4882 9.1726 15.1198 9.53985L9.54941 15.1082C9.18094 15.4765 9.18094 16.0832 9.54941 16.4515C9.7228 16.6357 9.96122 16.7332 10.2105 16.7332ZM14.838 15.7799C14.838 16.3107 15.2606 16.7332 15.7917 16.7332C16.3119 16.7332 16.7345 16.3107 16.7345 15.7799C16.7345 15.2609 16.3119 14.8374 15.7917 14.8374C15.2606 14.8374 14.838 15.2609 14.838 15.7799ZM10.2213 9.26902C10.7415 9.26902 11.1642 9.69152 11.1642 10.2115C11.1642 10.7434 10.7415 11.1649 10.2213 11.1649C9.70113 11.1649 9.26764 10.7434 9.26764 10.2115C9.26764 9.69152 9.70113 9.26902 10.2213 9.26902Z" fill="white"/>
</g>
</g>
</svg>
