<svg width="26" height="26" viewBox="0 0 26 26" fill="none" xmlns="http://www.w3.org/2000/svg">
<g id="Iconly/Bold/Document">
<g id="Document">
<path id="Document_2" fill-rule="evenodd" clip-rule="evenodd" d="M8.46083 2.16663H17.5403C20.8867 2.16663 22.75 4.09496 22.75 7.39913V18.59C22.75 21.9483 20.8867 23.8333 17.5403 23.8333H8.46083C5.1675 23.8333 3.25 21.9483 3.25 18.59V7.39913C3.25 4.09496 5.1675 2.16663 8.46083 2.16663ZM8.75333 7.21496V7.20413H11.9914C12.4583 7.20413 12.8375 7.58329 12.8375 8.04804C12.8375 8.52579 12.4583 8.90496 11.9914 8.90496H8.75333C8.28642 8.90496 7.90833 8.52579 7.90833 8.05996C7.90833 7.59413 8.28642 7.21496 8.75333 7.21496ZM8.75333 13.8016H17.2467C17.7125 13.8016 18.0917 13.4225 18.0917 12.9566C18.0917 12.4908 17.7125 12.1105 17.2467 12.1105H8.75333C8.28642 12.1105 7.90833 12.4908 7.90833 12.9566C7.90833 13.4225 8.28642 13.8016 8.75333 13.8016ZM8.75333 18.7525H17.2467C17.6789 18.7091 18.005 18.3397 18.005 17.9075C18.005 17.4633 17.6789 17.095 17.2467 17.0516H8.75333C8.42833 17.0191 8.11417 17.1708 7.94083 17.4525C7.7675 17.7233 7.7675 18.0808 7.94083 18.3625C8.11417 18.6333 8.42833 18.7958 8.75333 18.7525Z" fill="white"/>
</g>
</g>
</svg>
