<svg width="15" height="18" viewBox="0 0 15 18" fill="none" xmlns="http://www.w3.org/2000/svg">
<path d="M11.2039 1.5755L11.294 1.6275C12.0721 2.07671 12.721 2.4513 13.1961 2.81795C13.6976 3.20494 14.0956 3.64914 14.2623 4.27132C14.429 4.8935 14.3064 5.4772 14.0656 6.06309C13.8985 6.46976 13.6527 6.92674 13.3566 7.44801L12.7213 7.0704L12.7131 7.0656L5.78779 3.06728L5.14014 2.68557C5.44023 2.17448 5.71061 1.73795 5.97681 1.393C6.3638 0.891518 6.808 0.49349 7.43018 0.326777C8.05236 0.160063 8.63606 0.282668 9.22195 0.523468C9.77702 0.751604 10.4259 1.12624 11.2039 1.5755Z" fill="#4679EC"/>
<path d="M4.38872 3.98384L0.910745 10.0077C0.612958 10.5225 0.377498 10.9296 0.290263 11.3926C0.203027 11.8556 0.274214 12.3204 0.364245 12.9083L0.388501 13.0672C0.554687 14.1586 0.691667 15.0581 0.898268 15.7403C1.11434 16.4537 1.44649 17.0712 2.09977 17.4484C2.75304 17.8256 3.4539 17.8045 4.17979 17.6349C4.87385 17.4727 5.72139 17.1416 6.74962 16.7398L6.89936 16.6814C7.45349 16.4654 7.89164 16.2946 8.249 15.9876C8.60635 15.6805 8.84114 15.2731 9.13808 14.7578L12.6078 8.74792L11.959 8.36226L5.02905 4.36127L4.38872 3.98384Z" fill="#4679EC"/>
</svg>
