<svg width="24" height="24" viewBox="0 0 24 24" fill="none" xmlns="http://www.w3.org/2000/svg">
<path d="M23.25 3.75003H13.5V1.50003C13.5 1.27653 13.401 1.06503 13.2285 0.922534C13.0575 0.780034 12.828 0.718534 12.612 0.763534L0.612 3.01353C0.2565 3.07953 0 3.38853 0 3.75003V20.25C0 20.61 0.2565 20.9205 0.612 20.9865L12.612 23.2365C12.657 23.2455 12.7035 23.25 12.75 23.25C12.924 23.25 13.0935 23.19 13.2285 23.0775C13.401 22.935 13.5 22.722 13.5 22.5V20.25H23.25C23.664 20.25 24 19.914 24 19.5V4.50003C24 4.08603 23.664 3.75003 23.25 3.75003ZM10.314 14.5065C10.587 14.817 10.5555 15.291 10.2435 15.564C10.101 15.6885 9.9255 15.75 9.75 15.75C9.5415 15.75 9.3345 15.663 9.186 15.4935L7.005 13.002L5.0925 15.462C4.944 15.651 4.722 15.75 4.5 15.75C4.3395 15.75 4.1775 15.699 4.0395 15.5925C3.7125 15.3375 3.654 14.8665 3.9075 14.5395L5.9985 11.8515L3.936 9.49354C3.663 9.18303 3.6945 8.70903 4.0065 8.43603C4.317 8.16303 4.7895 8.19303 5.0655 8.50653L6.9375 10.6455L9.159 7.78953C9.414 7.46403 9.885 7.40403 10.212 7.65903C10.539 7.91253 10.5975 8.38353 10.3425 8.71203L7.9425 11.796L10.314 14.5065ZM22.5 18.75H13.5V17.25H15.75C16.164 17.25 16.5 16.914 16.5 16.5C16.5 16.086 16.164 15.75 15.75 15.75H13.5V14.25H15.75C16.164 14.25 16.5 13.914 16.5 13.5C16.5 13.086 16.164 12.75 15.75 12.75H13.5V11.25H15.75C16.164 11.25 16.5 10.914 16.5 10.5C16.5 10.086 16.164 9.75004 15.75 9.75004H13.5V8.25003H15.75C16.164 8.25003 16.5 7.91403 16.5 7.50003C16.5 7.08603 16.164 6.75003 15.75 6.75003H13.5V5.25003H22.5V18.75Z" fill="#4679EC"/>
</svg>
