<svg width="22" height="18" viewBox="0 0 22 18" fill="none" xmlns="http://www.w3.org/2000/svg">
<path d="M8.75 9C8.75 7.75736 9.75736 6.75 11 6.75C12.2426 6.75 13.25 7.75736 13.25 9C13.25 10.2426 12.2426 11.25 11 11.25C9.75736 11.25 8.75 10.2426 8.75 9Z" fill="#4679EC"/>
<path fill-rule="evenodd" clip-rule="evenodd" d="M5.35173 2.59572C6.92325 1.30899 8.85905 0.25 11 0.25C13.141 0.25 15.0768 1.30899 16.6483 2.59572C18.2284 3.88946 19.5204 5.47865 20.3886 6.68801L20.4602 6.78759C20.9829 7.51384 21.4131 8.11166 21.4131 9C21.4131 9.88835 20.9829 10.4862 20.4602 11.2124L20.3886 11.312C19.5204 12.5214 18.2284 14.1105 16.6483 15.4043C15.0768 16.691 13.141 17.75 11 17.75C8.85905 17.75 6.92325 16.691 5.35173 15.4043C3.77164 14.1105 2.47962 12.5214 1.61142 11.312L1.53981 11.2124C1.01715 10.4862 0.586914 9.88834 0.586914 9C0.586914 8.11166 1.01715 7.51384 1.53981 6.78759L1.61142 6.68801C2.47962 5.47865 3.77164 3.88946 5.35173 2.59572ZM11 5.25C8.92893 5.25 7.25 6.92893 7.25 9C7.25 11.0711 8.92893 12.75 11 12.75C13.0711 12.75 14.75 11.0711 14.75 9C14.75 6.92893 13.0711 5.25 11 5.25Z" fill="#4679EC"/>
</svg>
