<svg width="304" height="304" viewBox="0 0 304 304" fill="none" xmlns="http://www.w3.org/2000/svg">
<path d="M89.7832 38.043V73.003H84.8766V81.4785L76.395 73.003H29.8587V38.043H89.7832Z" fill="#EBEBEB"/>
<path d="M48.4941 55.523C48.4941 56.0845 48.3276 56.6335 48.0156 57.1004C47.7036 57.5673 47.2602 57.9313 46.7414 58.1462C46.2225 58.3611 45.6516 58.4173 45.1009 58.3078C44.5501 58.1982 44.0441 57.9278 43.6471 57.5307C43.25 57.1336 42.9795 56.6277 42.87 56.0769C42.7604 55.5261 42.8167 54.9552 43.0316 54.4364C43.2465 53.9175 43.6104 53.4741 44.0773 53.1621C44.5443 52.8501 45.0932 52.6836 45.6548 52.6836C46.0276 52.6836 46.3969 52.757 46.7414 52.8997C47.0858 53.0424 47.3988 53.2516 47.6625 53.5152C47.9262 53.7789 48.1353 54.0919 48.278 54.4364C48.4207 54.7809 48.4941 55.1501 48.4941 55.523Z" fill="white"/>
<path d="M62.6602 55.523C62.6602 56.0845 62.4936 56.6335 62.1816 57.1004C61.8696 57.5673 61.4262 57.9313 60.9074 58.1462C60.3885 58.3611 59.8176 58.4173 59.2669 58.3078C58.7161 58.1982 58.2101 57.9278 57.813 57.5307C57.416 57.1336 57.1455 56.6277 57.036 56.0769C56.9264 55.5261 56.9826 54.9552 57.1975 54.4364C57.4124 53.9175 57.7764 53.4741 58.2433 53.1621C58.7103 52.8501 59.2592 52.6836 59.8208 52.6836C60.5738 52.6836 61.296 52.9827 61.8285 53.5152C62.361 54.0477 62.6602 54.7699 62.6602 55.523Z" fill="white"/>
<path d="M76.8267 55.523C76.8267 56.0848 76.66 56.634 76.3477 57.101C76.0355 57.5681 75.5917 57.932 75.0725 58.1468C74.5533 58.3615 73.9821 58.4174 73.4311 58.3073C72.8802 58.1973 72.3743 57.9262 71.9774 57.5285C71.5805 57.1308 71.3106 56.6243 71.2017 56.0732C71.0929 55.522 71.15 54.9509 71.3658 54.4322C71.5816 53.9134 71.9465 53.4704 72.4143 53.1592C72.882 52.8479 73.4315 52.6824 73.9934 52.6836C74.7454 52.6852 75.466 52.9851 75.9972 53.5174C76.5284 54.0497 76.8267 54.771 76.8267 55.523Z" fill="white"/>
<path d="M190.31 148.796V197.703H197.174V209.565L209.036 197.703H274.141V148.796H190.31Z" fill="white"/>
<path d="M190.304 148.796C190.261 162.701 189.951 183.963 189.939 197.704V198.062H190.304L197.168 198.093L196.773 197.697L196.718 209.56V210.648L197.49 209.882L209.401 198.062C223.726 198.543 258.868 198.129 274.737 198.293V197.685L274.658 148.778V148.255H274.141C253.238 148.352 211.201 148.583 190.31 148.772L190.304 148.796ZM190.304 148.796C211.195 148.984 253.25 149.216 274.135 149.313L273.618 148.796L273.539 197.704L274.147 197.096C257.792 197.096 225.173 197.144 208.824 197.175L208.678 197.327L196.858 209.231L197.63 209.553L197.576 197.691V197.29H197.18L190.316 197.32L190.681 197.685C190.59 184.036 190.432 162.579 190.316 148.778L190.304 148.796Z" fill="#EBEBEB"/>
<path d="M248.064 173.28C248.063 174.066 248.295 174.836 248.731 175.491C249.167 176.145 249.788 176.656 250.514 176.958C251.241 177.26 252.041 177.339 252.812 177.187C253.584 177.034 254.293 176.656 254.85 176.1C255.407 175.544 255.786 174.835 255.94 174.064C256.094 173.292 256.015 172.493 255.715 171.766C255.414 171.039 254.904 170.417 254.25 169.98C253.596 169.543 252.827 169.31 252.04 169.31C251.518 169.309 251.001 169.411 250.519 169.61C250.037 169.809 249.598 170.102 249.229 170.47C248.86 170.839 248.567 171.277 248.367 171.759C248.167 172.241 248.064 172.758 248.064 173.28Z" fill="#EBEBEB"/>
<path d="M228.249 173.28C228.248 174.066 228.48 174.836 228.916 175.491C229.352 176.145 229.973 176.656 230.699 176.958C231.426 177.26 232.226 177.339 232.997 177.187C233.769 177.034 234.478 176.656 235.035 176.1C235.592 175.544 235.971 174.835 236.125 174.064C236.279 173.292 236.2 172.493 235.9 171.766C235.599 171.039 235.089 170.417 234.435 169.98C233.781 169.543 233.012 169.31 232.225 169.31C231.703 169.309 231.187 169.411 230.704 169.61C230.222 169.809 229.783 170.102 229.414 170.47C229.045 170.839 228.752 171.277 228.552 171.759C228.352 172.241 228.249 172.758 228.249 173.28Z" fill="#EBEBEB"/>
<path d="M208.428 173.28C208.427 174.066 208.659 174.836 209.095 175.491C209.532 176.145 210.152 176.656 210.879 176.958C211.605 177.26 212.405 177.339 213.177 177.187C213.948 177.034 214.657 176.656 215.214 176.1C215.771 175.544 216.15 174.835 216.304 174.064C216.458 173.292 216.38 172.493 216.079 171.766C215.778 171.039 215.268 170.417 214.614 169.98C213.96 169.543 213.191 169.31 212.405 169.31C211.883 169.309 211.366 169.411 210.883 169.61C210.401 169.809 209.963 170.102 209.593 170.47C209.224 170.839 208.931 171.277 208.731 171.759C208.531 172.241 208.428 172.758 208.428 173.28Z" fill="#EBEBEB"/>
<path d="M263.051 56.2773L260.388 60.2476L255.785 61.5548L258.74 65.3122L258.564 70.0911L263.051 68.4434L267.538 70.0911L267.362 65.3122L270.311 61.5548L265.714 60.2476L263.051 56.2773Z" fill="#EBEBEB"/>
<path d="M242.507 56.2773L239.844 60.2476L235.247 61.5548L238.196 65.3122L238.02 70.0911L242.507 68.4434L247 70.0911L246.818 65.3122L249.772 61.5548L245.17 60.2476L242.507 56.2773Z" fill="#EBEBEB"/>
<path d="M221.969 56.2773L219.299 60.2476L214.703 61.5548L217.658 65.3122L217.475 70.0911L221.969 68.4434L226.456 70.0911L226.279 65.3122L229.228 61.5548L224.632 60.2476L221.969 56.2773Z" fill="#EBEBEB"/>
<path d="M201.424 56.2773L198.761 60.2476L194.159 61.5548L197.114 65.3122L196.937 70.0911L201.424 68.4434L205.911 70.0911L205.735 65.3122L208.69 61.5548L204.087 60.2476L201.424 56.2773Z" fill="#EBEBEB"/>
<path d="M176.07 70.5283L180.88 68.7651L185.689 70.5283L185.501 65.4089L188.662 61.4083L183.737 60.0099L180.88 55.7539L178.028 60.0099L173.097 61.4083L176.259 65.4393L176.07 70.5283ZM180.88 68.0963L176.715 69.6224L176.879 65.1901L174.137 61.6941L178.393 60.4781L180.868 56.7875L183.342 60.4781L187.598 61.6941L184.856 65.1901L185.02 69.6224L180.88 68.0963Z" fill="#EBEBEB"/>
<path d="M180.88 68.4434V56.2773L183.543 60.2476L188.146 61.5548L185.191 65.3122L185.373 70.0911L180.88 68.4434Z" fill="#EBEBEB"/>
<path fill-rule="evenodd" clip-rule="evenodd" d="M73.3429 149.069C74.5589 148.321 75.5743 147.245 77.1672 147.397C77.7752 147.464 77.6475 146.953 77.6536 146.625L77.7266 128.653C77.7266 128.221 77.7266 127.862 77.228 127.619C72.6619 125.296 70.692 120.749 67.9013 116.863C66.4706 114.932 65.4436 112.733 64.8816 110.396C64.3196 108.059 64.2341 105.633 64.6302 103.262C64.8248 101.913 64.1986 101.311 62.9826 101.031C61.5234 100.691 60.0642 101.092 59.5595 102.095C58.2374 104.537 57.3448 107.188 56.9208 109.932C56.6533 112.206 57.4559 114.419 57.7355 116.669C57.9362 118.31 58.3435 119.94 58.6232 121.606C58.222 121.898 57.7538 121.746 57.3221 121.746C52.2635 121.746 47.1969 121.731 42.1221 121.703C39.9941 121.703 38.9423 122.311 38.6444 123.722C38.4776 124.592 38.6016 125.493 38.997 126.286C39.3925 127.079 40.0376 127.721 40.8332 128.111C41.2101 128.306 41.8972 128.111 41.9397 128.719C41.9823 129.327 41.277 129.261 40.9304 129.504C39.1064 130.756 39.4226 133.346 41.5384 134.854C42.0492 135.213 43.0341 135.049 43.0584 135.797C43.0584 136.405 42.1404 136.405 41.7208 136.8C40.2373 138.259 40.9669 140.989 43.174 142.101C43.4772 142.195 43.7737 142.309 44.0616 142.442C44.3109 142.612 44.5541 142.807 44.0616 143.147C41.8668 144.704 41.9032 146.886 44.1042 148.485L44.7608 148.96C45.5585 149.447 46.4936 149.661 47.4239 149.568C55.3562 149.612 63.2927 149.641 71.2331 149.653C71.6059 149.701 71.9846 149.674 72.3469 149.574C72.7092 149.474 73.0479 149.302 73.3429 149.069Z" fill="#EBEBEB"/>
<path fill-rule="evenodd" clip-rule="evenodd" d="M95.9423 138.576C95.9423 134.776 95.9424 130.963 95.9971 127.163C95.9971 126.385 95.9241 126.008 94.9756 126.014C90.3305 126.057 85.6975 126.014 81.0524 125.972C80.1404 125.972 80.0006 126.276 80.0006 127.084C80.0006 134.741 79.9742 142.398 79.9215 150.055C79.9215 151.033 80.1769 151.307 81.1375 151.271C85.6428 151.234 90.142 151.24 94.6412 151.325C95.7599 151.325 95.918 150.954 95.9119 149.976C95.8815 146.194 95.9302 142.388 95.9423 138.576Z" fill="#EBEBEB"/>
<path fill-rule="evenodd" clip-rule="evenodd" d="M161.236 199.934C160.336 200.506 159.552 201.326 158.342 201.211C157.873 201.168 157.977 201.551 157.977 201.819C157.977 206.371 157.977 210.919 157.977 215.462C157.977 215.791 157.977 216.07 158.36 216.247C161.832 217.998 163.339 221.439 165.461 224.388C166.556 225.852 167.344 227.522 167.778 229.298C168.212 231.074 168.282 232.92 167.984 234.724C167.839 235.751 168.313 236.207 169.237 236.414C170.35 236.669 171.45 236.365 171.833 235.599C172.833 233.743 173.504 231.727 173.815 229.641C174.016 227.92 173.396 226.236 173.207 224.534C173.049 223.281 172.757 222.053 172.52 220.788C172.824 220.564 173.177 220.679 173.505 220.673H184.99C186.614 220.673 187.422 220.205 187.629 219.135C187.752 218.473 187.656 217.789 187.354 217.187C187.052 216.586 186.561 216.1 185.957 215.803C185.671 215.657 185.148 215.803 185.112 215.341C185.075 214.879 185.616 214.927 185.878 214.733C187.27 213.784 187.009 211.814 185.404 210.677C185.015 210.404 184.267 210.532 184.248 209.966C184.248 209.51 184.942 209.516 185.258 209.2C186.383 208.087 185.823 206.02 184.145 205.181C183.914 205.11 183.689 205.023 183.47 204.92C183.282 204.792 183.093 204.652 183.47 204.385C185.13 203.169 185.094 201.545 183.422 200.335L182.923 199.977C182.314 199.614 181.603 199.46 180.898 199.539C174.875 199.539 168.852 199.539 162.829 199.539C162.266 199.456 161.694 199.598 161.236 199.934Z" fill="#EBEBEB"/>
<path fill-rule="evenodd" clip-rule="evenodd" d="M144.096 207.936C144.096 210.824 144.096 213.718 144.096 216.606C144.096 217.214 144.151 217.481 144.868 217.469C148.395 217.428 151.919 217.428 155.441 217.469C156.128 217.469 156.238 217.238 156.232 216.624C156.232 210.811 156.232 204.999 156.232 199.186C156.232 198.445 156.031 198.232 155.289 198.25C151.872 198.287 148.455 198.293 145.038 198.25C144.187 198.25 144.072 198.536 144.084 199.284C144.139 202.178 144.096 205.066 144.096 207.936Z" fill="#EBEBEB"/>
<path d="M277.491 275.424C197.095 275.047 106.904 275.047 26.5083 275.424C106.904 275.795 197.095 275.795 277.491 275.424Z" fill="#263238"/>
<path d="M111.732 58.1982L108.643 62.6488L103.451 64.2114L106.74 68.5221L106.619 73.9394L111.732 72.1458L116.845 73.9394L116.724 68.5221L120.007 64.2114L114.815 62.6488L111.732 58.1982Z" fill="#FFC727"/>
<path d="M218.18 134.046L215.098 138.503L209.906 140.059L213.189 144.37L213.067 149.787L218.18 148L223.3 149.787L223.172 144.37L226.461 140.059L221.269 138.503L218.18 134.046Z" fill="#FFC727"/>
<path d="M180.606 183.045L179.062 185.27L176.466 186.048L178.107 188.207L178.047 190.912L180.606 190.019L183.166 190.912L183.105 188.207L184.741 186.048L182.151 185.27L180.606 183.045Z" fill="#FFC727"/>
<path d="M81.6789 127.814L80.1345 130.046L77.5445 130.824L79.1861 132.976L79.1192 135.688L81.6789 134.794L84.2385 135.688L84.1777 132.976L85.8193 130.824L83.2232 130.046L81.6789 127.814Z" fill="#FFC727"/>
<path d="M129.516 48.9141L127.971 51.1393L125.375 51.9176L127.017 54.076L126.956 56.7877L129.516 55.8878L132.069 56.7877L132.008 54.076L133.65 51.9176L131.054 51.1393L129.516 48.9141Z" fill="#FFC727"/>
<path d="M174.581 275.139C173.091 275.674 129.078 276.543 127.418 275.534C127.23 275.431 126.512 260.869 126.512 260.869C126.561 260.662 125.825 259.258 124.688 257.306C121.551 251.834 115.416 242.021 115.416 242.021L141.56 234.117L152.292 255.61L155.028 261.082C155.028 261.082 161.029 263.423 166.263 265.764C169.486 267.198 172.295 268.518 172.951 269.004C174.636 270.336 176.064 274.61 174.581 275.139Z" fill="#FFC4C0"/>
<path d="M174.581 275.138C173.091 275.673 129.078 276.543 127.418 275.533C127.23 275.43 126.512 260.868 126.512 260.868C126.561 260.662 125.825 259.257 124.688 257.305L152.267 255.615L155.003 261.087C155.003 261.087 161.004 263.428 166.239 265.769C169.462 267.204 172.271 268.523 172.927 269.009C174.636 270.335 176.065 274.609 174.581 275.138Z" fill="white"/>
<path d="M174.763 275.302C173.231 275.843 129.163 276.597 127.461 275.563C126.816 275.174 126.038 268.389 126.512 260.868L154.924 260.412C154.924 260.412 171.383 267.708 173.122 269.021C174.861 270.335 176.32 274.761 174.763 275.302Z" fill="#FFC727"/>
<path opacity="0.1" d="M127.461 275.564C128.069 275.941 134.344 276.081 142.126 276.081L127.206 260.881H126.519C126.038 268.39 126.817 275.175 127.461 275.564Z" fill="black"/>
<path d="M174.101 273.545C166.707 273.491 136.897 273.971 129.583 274.476C129.528 274.476 129.528 274.524 129.583 274.524C136.909 274.737 166.72 274.02 174.101 273.667C174.259 273.661 174.259 273.551 174.101 273.545Z" fill="#263238"/>
<path d="M170.239 267.485C169.418 267.477 168.603 267.64 167.847 267.963C167.092 268.286 166.411 268.763 165.85 269.363C164.83 270.436 164.262 271.86 164.263 273.34C164.263 273.382 164.348 273.382 164.354 273.34C164.581 271.873 165.278 270.519 166.339 269.482C167.4 268.444 168.768 267.777 170.239 267.582C170.252 267.582 170.265 267.577 170.274 267.568C170.283 267.559 170.288 267.546 170.288 267.533C170.288 267.52 170.283 267.508 170.274 267.499C170.265 267.49 170.252 267.485 170.239 267.485Z" fill="#263238"/>
<path d="M157.259 261.118C154.298 261.118 150.887 262.225 149.094 264.675C149.021 264.772 149.16 264.87 149.246 264.821C151.808 263.423 154.513 262.302 157.314 261.477C157.357 261.466 157.395 261.439 157.42 261.401C157.445 261.363 157.455 261.318 157.448 261.273C157.441 261.228 157.418 261.188 157.383 261.159C157.348 261.131 157.304 261.116 157.259 261.118Z" fill="#263238"/>
<path d="M159.557 261.963C156.596 261.963 153.186 263.076 151.392 265.526C151.319 265.623 151.459 265.72 151.544 265.672C154.107 264.273 156.811 263.152 159.612 262.328C159.653 262.313 159.687 262.284 159.709 262.247C159.731 262.21 159.739 262.166 159.733 262.123C159.726 262.08 159.705 262.041 159.673 262.012C159.642 261.983 159.601 261.965 159.557 261.963Z" fill="#263238"/>
<path d="M161.849 262.814C158.894 262.814 155.484 263.927 153.69 266.377C153.617 266.475 153.757 266.572 153.842 266.523C156.405 265.125 159.109 264.004 161.91 263.179C161.951 263.164 161.985 263.135 162.007 263.097C162.029 263.059 162.037 263.015 162.03 262.972C162.022 262.929 162.001 262.89 161.968 262.861C161.935 262.832 161.893 262.816 161.849 262.814Z" fill="#263238"/>
<path d="M164.16 263.666C161.205 263.666 157.794 264.779 156.001 267.229C155.928 267.326 156.067 267.423 156.153 267.375C158.715 265.976 161.42 264.855 164.221 264.031C164.262 264.015 164.296 263.986 164.318 263.949C164.339 263.911 164.347 263.866 164.34 263.823C164.333 263.78 164.311 263.741 164.278 263.712C164.245 263.684 164.204 263.667 164.16 263.666Z" fill="#263238"/>
<path d="M131.327 267.428C128.008 267.495 128.111 272.651 131.431 272.584C134.75 272.517 134.671 267.361 131.327 267.428Z" fill="#263238"/>
<path d="M160.153 257.506C158.597 259.592 156.183 260.929 154.103 262.425C154.054 262.453 153.999 262.469 153.943 262.472C153.887 262.475 153.83 262.465 153.778 262.443C153.726 262.42 153.68 262.386 153.644 262.343C153.608 262.3 153.582 262.249 153.568 262.194C153.556 262.197 153.544 262.198 153.531 262.195C153.519 262.192 153.508 262.186 153.499 262.177C153.49 262.168 153.483 262.158 153.479 262.146C153.475 262.134 153.475 262.121 153.477 262.109C153.647 259.394 154.528 256.771 156.031 254.503C156.931 253.202 158.797 251.955 160.317 253.171C161.837 254.387 161.065 256.29 160.153 257.506ZM160.25 255.074C159.898 251.864 157.04 254.381 156.414 255.372C156.02 256.018 155.67 256.691 155.368 257.385C154.718 258.813 154.28 260.309 153.775 261.793C154.754 260.996 155.794 260.291 156.815 259.537C157.995 258.613 160.445 256.825 160.25 255.056V255.074Z" fill="#263238"/>
<path d="M142.941 260.407C143.141 258.474 145.336 258.018 146.899 258.291C149.572 258.808 152.061 260.02 154.116 261.806C154.126 261.812 154.134 261.821 154.14 261.832C154.145 261.843 154.148 261.854 154.148 261.866C154.148 261.878 154.145 261.89 154.14 261.901C154.134 261.912 154.126 261.921 154.116 261.927C154.146 261.975 154.165 262.03 154.171 262.087C154.176 262.144 154.168 262.201 154.148 262.255C154.127 262.308 154.094 262.355 154.051 262.394C154.009 262.432 153.958 262.459 153.903 262.474C151.38 262.906 148.735 263.69 146.157 263.332C144.643 263.131 142.752 262.237 142.941 260.407ZM149.933 262.353C151.179 262.164 152.413 261.921 153.666 261.781C152.255 261.1 150.881 260.365 149.41 259.824C148.701 259.555 147.976 259.332 147.239 259.155C146.096 258.912 142.296 259.155 144.339 261.684C145.464 263.064 148.449 262.572 149.933 262.353Z" fill="#263238"/>
<path d="M122.706 257.184L152 252.764C152 252.764 137.906 224.674 129.187 209.431C124.323 200.956 111.063 200.543 104.612 210.696C95.9906 224.261 89.2965 236.974 85.4661 244.021L78.8146 244.592L80.2555 255.457L102.356 260.406C110.826 261.415 116.766 246.343 116.906 246.599C117.994 248.581 122.706 257.184 122.706 257.184Z" fill="#0A235C"/>
<path d="M117.077 246.666C116.244 244.957 115.593 243.146 114.851 241.401C114.11 239.656 113.416 238.014 112.705 236.318C111.264 232.895 109.774 229.484 108.382 226.042C107.598 224.109 106.88 222.151 106.145 220.2C106.145 220.157 106.06 220.2 106.072 220.2C106.637 222.024 107.227 223.884 107.847 225.714C107.683 225.398 107.519 225.106 107.349 224.772C106.874 223.933 106.388 223.1 105.902 222.267C105.902 222.236 105.835 222.267 105.853 222.297C106.303 223.136 106.753 223.969 107.221 224.796C107.452 225.203 107.707 225.611 107.95 226.012C109.659 231.143 111.69 236.161 114.03 241.036C114.967 242.951 116.055 244.781 116.991 246.69C117.022 246.781 117.107 246.727 117.077 246.666Z" fill="#263238"/>
<path d="M105.184 222.322C102.661 226.833 100.077 231.314 97.5416 235.82C96.2587 238.094 94.9758 240.374 93.7112 242.654C93.1032 243.73 92.5316 244.818 91.8872 245.882C91.3562 246.885 90.5533 247.717 89.5707 248.284C88.4054 248.844 87.1821 249.274 85.9227 249.567C84.4939 249.986 83.0773 250.436 81.6667 250.825C81.6059 250.825 81.6363 250.947 81.6971 250.929C82.98 250.588 84.2689 250.321 85.5518 249.974C86.7335 249.724 87.9006 249.41 89.0478 249.032C90.0617 248.69 90.9593 248.071 91.6379 247.244C92.331 246.284 92.9412 245.267 93.4619 244.204C95.9952 239.567 98.5062 234.92 100.995 230.263C102.412 227.618 103.816 224.961 105.251 222.322C105.184 222.316 105.184 222.304 105.184 222.322Z" fill="#263238"/>
<path d="M122.044 253.092C123.801 252.776 125.601 252.618 127.37 252.393L132.696 251.712C136.241 251.244 148.298 249.329 149.21 249.025C149.27 249.025 149.246 248.909 149.21 248.909C148.346 248.909 140.448 249.937 138.679 250.192C135.134 250.715 131.614 251.347 128.088 251.937C127.078 252.107 126.075 252.302 125.048 252.478C124.02 252.654 123.035 252.873 122.008 253.007C121.965 253.007 121.983 253.104 122.044 253.092Z" fill="#263238"/>
<path d="M141.628 281.765C141.068 280.288 113.003 246.374 111.161 245.778C110.948 245.699 99.4506 254.661 99.4506 254.661C98.9885 255.336 76.2311 251.548 76.2311 251.548L77.216 278.762L118.256 276.105C118.256 276.105 123.947 279.145 129.139 281.577C132.331 283.085 135.158 284.355 135.955 284.526C138.016 284.951 142.199 283.237 141.628 281.765Z" fill="#FFC4C0"/>
<path d="M135.948 284.544C135.152 284.374 132.3 283.11 129.133 281.596C123.947 279.164 118.256 276.124 118.256 276.124L109.136 276.732L93.8201 254.236C96.9817 254.655 99.3407 254.886 99.4927 254.667C99.4927 254.667 110.984 245.712 111.197 245.791C113.021 246.399 141.104 280.301 141.664 281.778C142.223 283.256 138.016 284.952 135.948 284.544Z" fill="white"/>
<path d="M141.877 281.802C141.269 280.288 113.1 246.404 111.209 245.79C110.492 245.553 104.844 249.389 99.4506 254.66L117.648 276.488C117.648 276.488 133.9 284.209 136.046 284.659C138.192 285.109 142.461 283.328 141.877 281.802Z" fill="#FFC727"/>
<path d="M140.114 282.447C135.25 276.884 116.158 253.974 111.769 248.107C111.738 248.058 111.769 248.034 111.805 248.077C116.748 253.488 135.657 276.543 140.205 282.368C140.302 282.489 140.217 282.562 140.114 282.447Z" fill="#263238"/>
<path d="M133.012 283.493C132.471 282.874 132.064 282.15 131.816 281.366C131.568 280.583 131.484 279.756 131.571 278.939C131.72 277.468 132.43 276.111 133.553 275.151C133.553 275.12 133.639 275.181 133.608 275.218C132.643 276.345 132.07 277.756 131.976 279.237C131.882 280.719 132.271 282.191 133.085 283.432C133.09 283.442 133.092 283.453 133.09 283.464C133.088 283.475 133.082 283.484 133.073 283.491C133.065 283.499 133.054 283.503 133.043 283.503C133.032 283.503 133.021 283.499 133.012 283.493Z" fill="#263238"/>
<path d="M119.703 277.795C117.775 275.546 116.389 272.244 117.07 269.283C117.101 269.168 117.265 269.211 117.283 269.283C117.893 272.14 118.808 274.922 120.013 277.583C120.041 277.624 120.052 277.674 120.043 277.723C120.034 277.772 120.005 277.816 119.964 277.844C119.923 277.872 119.872 277.883 119.823 277.874C119.774 277.865 119.731 277.837 119.703 277.795Z" fill="#263238"/>
<path d="M121.843 278.982C119.922 276.732 118.535 273.431 119.216 270.47C119.216 270.354 119.405 270.397 119.429 270.47C120.04 273.324 120.955 276.104 122.159 278.763C122.188 278.805 122.199 278.857 122.19 278.907C122.181 278.957 122.152 279.002 122.111 279.031C122.069 279.06 122.017 279.071 121.967 279.062C121.917 279.053 121.872 279.024 121.843 278.982Z" fill="#263238"/>
<path d="M123.989 280.167C122.068 277.917 120.676 274.616 121.363 271.655C121.363 271.539 121.551 271.582 121.569 271.655C122.183 274.508 123.098 277.288 124.299 279.948C124.314 279.968 124.324 279.991 124.329 280.015C124.335 280.04 124.335 280.065 124.331 280.089C124.327 280.114 124.318 280.137 124.305 280.159C124.291 280.18 124.274 280.198 124.254 280.212C124.233 280.227 124.21 280.237 124.186 280.242C124.162 280.248 124.137 280.248 124.112 280.244C124.087 280.24 124.064 280.231 124.043 280.218C124.022 280.204 124.004 280.187 123.989 280.167Z" fill="#263238"/>
<path d="M126.135 281.352C124.208 279.102 122.822 275.801 123.503 272.84C123.533 272.725 123.697 272.767 123.715 272.84C124.33 275.703 125.252 278.492 126.464 281.158C126.489 281.201 126.497 281.253 126.484 281.302C126.472 281.351 126.44 281.393 126.397 281.419C126.353 281.445 126.301 281.452 126.252 281.44C126.203 281.427 126.161 281.396 126.135 281.352Z" fill="#263238"/>
<path d="M107.579 254.041C105.463 251.481 109.433 248.192 111.555 250.751C113.677 253.311 109.695 256.576 107.579 254.041Z" fill="#263238"/>
<path d="M115.678 285.299C113.763 284.94 113.495 282.715 113.891 281.183C114.628 278.563 116.041 276.183 117.988 274.282C117.996 274.273 118.006 274.266 118.017 274.261C118.028 274.256 118.04 274.253 118.052 274.253C118.064 274.253 118.076 274.256 118.087 274.261C118.098 274.266 118.108 274.273 118.116 274.282C118.167 274.257 118.223 274.243 118.28 274.243C118.336 274.243 118.392 274.256 118.443 274.282C118.494 274.307 118.538 274.344 118.572 274.389C118.606 274.435 118.629 274.488 118.639 274.543C118.864 277.091 119.423 279.79 118.858 282.332C118.53 283.828 117.484 285.633 115.678 285.299ZM118.189 278.465C118.11 277.207 117.964 275.96 117.934 274.702C117.096 276.023 116.327 277.387 115.629 278.787C115.3 279.468 115.017 280.171 114.784 280.891C114.444 282.01 114.401 285.822 117.064 283.992C118.53 283.007 118.286 279.985 118.189 278.465Z" fill="#263238"/>
<path d="M114.134 267.927C116.085 269.654 117.222 272.183 118.535 274.36C118.561 274.411 118.574 274.468 118.574 274.525C118.573 274.582 118.559 274.638 118.532 274.689C118.505 274.739 118.467 274.783 118.42 274.816C118.373 274.848 118.319 274.869 118.262 274.877C118.262 274.925 118.231 274.974 118.171 274.962C115.477 274.567 112.935 273.468 110.802 271.776C109.586 270.773 108.485 268.809 109.823 267.398C111.16 265.988 112.997 266.912 114.134 267.927ZM111.702 267.629C108.473 267.714 110.753 270.773 111.702 271.478C112.313 271.928 112.955 272.334 113.623 272.694C115.008 273.414 116.428 274.063 117.879 274.64C117.167 273.6 116.553 272.512 115.879 271.448C115.058 270.171 113.477 267.587 111.695 267.629H111.702Z" fill="#263238"/>
<path d="M83.3807 243.085C83.3807 243.085 54.2636 239.948 42.742 243.055C26.6726 247.378 24.8364 266.682 37.2092 274.026C52.8956 283.329 107.269 278.148 107.269 278.148L92.069 252.558C92.069 252.558 69.2873 248.302 48.8646 249.962L90.0687 255.057L83.3807 243.085Z" fill="#0A235C"/>
<path d="M93.1393 254.277C93.1235 254.234 93.1113 254.189 93.1028 254.144C93.0963 254.104 93.0861 254.066 93.0724 254.028L92.9994 253.767C92.9436 253.587 92.8787 253.411 92.8049 253.238C92.7319 253.061 92.659 252.897 92.5738 252.727C92.4896 252.561 92.392 252.403 92.282 252.253H92.2394H92.203H92.1604C89.6615 251.851 72.7044 249.93 70.169 249.723C67.6337 249.517 65.0861 249.365 62.5386 249.243C57.4627 248.979 52.376 248.997 47.3021 249.298C46.8279 249.298 46.3537 249.371 45.8794 249.407C45.7761 249.407 45.6666 249.365 45.5633 249.34C45.314 249.286 45.0708 249.231 44.8215 249.188C44.3594 249.109 43.8974 249.055 43.4353 249C42.4686 248.878 41.4958 248.811 40.5351 248.653C40.4743 248.653 40.4561 248.745 40.5351 248.757C41.5079 248.945 42.4625 249.213 43.4353 249.401L44.2743 249.559C42.4199 249.748 40.5655 249.985 38.7172 250.252C38.6625 250.252 38.6625 250.362 38.7172 250.356C41.2343 250.082 43.7818 249.948 46.3111 249.888C48.8404 249.827 51.3393 249.778 53.8564 249.827C58.9453 249.924 64.0404 250.204 69.1172 250.569C71.9687 250.769 89.2724 252.788 92.13 252.794H92.1665C92.1885 252.867 92.217 252.938 92.2516 253.007C92.3367 253.177 92.4218 253.341 92.513 253.505C92.6042 253.669 92.6894 253.815 92.7927 253.961L92.9386 254.186L93.0177 254.296C93.0475 254.332 93.0739 254.37 93.0967 254.411C93.0846 254.393 93.1758 254.344 93.1393 254.277Z" fill="#263238"/>
<path d="M99.4683 276.549C98.5685 275.077 97.7902 273.509 96.9634 271.977C96.1365 270.444 95.3035 268.937 94.4706 267.404C92.8046 264.364 86.8645 254.144 86.2929 253.42C86.2565 253.378 86.1896 253.42 86.2078 253.487C86.4997 254.284 90.2267 261.057 91.0718 262.565C92.7864 265.605 94.5739 268.535 96.3371 271.508C96.8418 272.36 97.3586 273.199 97.8693 274.044C98.38 274.889 98.9211 275.716 99.3954 276.585C99.4258 276.64 99.4987 276.603 99.4683 276.549Z" fill="#263238"/>
<path d="M85.3692 256.243C83.8553 255.914 82.3292 255.726 80.7849 255.477C79.2406 255.227 77.7449 254.978 76.1945 254.735C73.1383 254.24 70.074 253.778 67.0015 253.349C60.885 252.491 54.7503 251.823 48.5913 251.439C45.1196 251.227 41.6418 251.135 38.1641 251.008C38.0911 251.008 38.0972 251.129 38.1641 251.135C44.3657 251.266 50.5559 251.729 56.7081 252.522C62.7881 253.215 68.8681 253.995 74.9481 254.863L80.0978 255.604C81.8367 255.86 83.5817 256.212 85.3327 256.358C85.3476 256.362 85.3631 256.359 85.3763 256.352C85.3895 256.344 85.3993 256.332 85.4039 256.317C85.4085 256.303 85.4075 256.287 85.401 256.273C85.3946 256.259 85.3833 256.249 85.3692 256.243Z" fill="#263238"/>
<path d="M71.9084 201.857C70.8018 204.691 69.221 207.268 68.3334 210.205C67.469 212.902 67.2157 215.758 67.5916 218.565C69.1663 228.84 82.5484 234.981 91.9481 231.819C96.4412 230.287 100.357 226.639 101.548 221.964C103.008 216.23 99.9493 210.722 98.0889 205.487C97.0622 202.557 96.552 199.471 96.581 196.367C96.581 193.649 96.7452 190.895 96.198 188.195C95.8028 186.28 94.4956 180.711 87.4428 178.467C82.3782 176.874 77.2466 179.641 74.8876 184.45C72.1455 190.056 74.1033 196.239 71.9084 201.857Z" fill="#263238"/>
<path d="M96.0634 202.696C98.2522 207.383 101.128 212.168 101.973 217.342C102.666 221.635 101.511 226.274 97.778 228.821C97.778 228.821 97.7111 228.821 97.7415 228.773C101.663 225.733 102.15 220.486 101.049 215.968C99.9242 211.341 97.2126 207.316 95.8446 202.787C95.8399 202.76 95.8446 202.732 95.8578 202.708C95.8711 202.683 95.8922 202.664 95.9176 202.654C95.943 202.643 95.9713 202.642 95.9978 202.649C96.0243 202.657 96.0474 202.673 96.0634 202.696Z" fill="#263238"/>
<path d="M97.0306 202.421C98.6905 208.544 103.749 213.408 104.071 219.956C104.071 220.029 103.956 220.053 103.95 219.956C103.524 213.42 97.8697 208.781 96.909 202.421C96.8969 202.361 97.0124 202.348 97.0306 202.421Z" fill="#263238"/>
<path d="M71.5555 201.753C72.6129 199.487 73.2632 197.052 73.4768 194.56C73.4829 194.534 73.498 194.51 73.5195 194.492C73.541 194.475 73.5678 194.466 73.5953 194.466C73.6229 194.466 73.6496 194.475 73.6711 194.492C73.6927 194.51 73.7078 194.534 73.7139 194.56C74.3219 203.583 63.9859 210.368 66.7158 219.689C66.7158 219.75 66.6368 219.798 66.6185 219.732C65.2931 215.877 66.3206 212.028 68.0473 208.478C69.1539 206.179 70.4915 204.039 71.5555 201.753Z" fill="#263238"/>
<path d="M73.6469 193.186C73.6469 193.016 73.9205 193.065 73.9083 193.229C73.663 196.609 72.5716 199.873 70.7345 202.72C69.8347 204.124 68.7342 205.383 67.8648 206.806C66.9102 208.368 66.1806 210.046 65.378 211.67C65.374 211.679 65.3666 211.685 65.3575 211.689C65.3484 211.692 65.3383 211.692 65.3294 211.688C65.3205 211.684 65.3136 211.676 65.3102 211.667C65.3068 211.658 65.3071 211.648 65.3112 211.639C66.3509 208.532 67.9864 206.058 69.8529 203.413C71.9459 200.371 73.2497 196.857 73.6469 193.186Z" fill="#263238"/>
<path d="M93.6316 209.815C107.391 219.069 118.56 227.909 119.733 234.081C121.387 242.623 116.213 245.268 113.842 245.401C107.391 245.778 92.6466 223.963 88.0866 214.175C83.6543 204.666 90.5916 207.778 93.6316 209.815Z" fill="#DB5555"/>
<path d="M88.087 214.175C92.6531 223.964 107.391 245.791 113.842 245.402C115.49 245.311 118.481 244.01 119.612 240.368L86.8285 208.484C86.415 209.39 86.6704 211.141 88.087 214.175Z" fill="#D74242"/>
<path d="M61.8577 243.048C61.8577 243.048 78.2737 245.201 86.2324 245.116C93.3703 245.043 100.375 241.571 100.375 241.571L97.1339 229.666C97.1339 229.666 100.362 225.55 97.8635 221.087C96.082 217.914 90.5006 211.116 87.5275 207.936C80.8395 200.756 75.2216 204.83 73.5435 207.11C67.2932 215.84 61.8577 243.048 61.8577 243.048Z" fill="#DB5555"/>
<path d="M87.1505 228.73C88.6644 228.681 90.1796 228.761 91.6801 228.967C92.428 229.082 93.1637 229.234 93.9054 229.404C94.2763 229.49 94.6472 229.556 95.0181 229.629C95.4014 229.711 95.794 229.742 96.1854 229.721C96.1935 229.721 96.2012 229.724 96.2069 229.729C96.2126 229.735 96.2158 229.743 96.2158 229.751C96.2158 229.759 96.2126 229.767 96.2069 229.772C96.2012 229.778 96.1935 229.781 96.1854 229.781C95.8242 229.849 95.4583 229.89 95.091 229.903C94.7307 229.902 94.3709 229.874 94.0149 229.818C93.2549 229.708 92.5009 229.563 91.7409 229.447C90.2088 229.216 88.7009 228.979 87.1444 228.869C87.0776 228.863 87.0776 228.73 87.1505 228.73Z" fill="#263238"/>
<path d="M83.673 230.712C84.8735 230.407 86.0918 230.178 87.321 230.025C87.929 229.952 88.537 229.915 89.1754 229.903H90.0691C90.3974 229.903 90.7258 229.964 91.0541 229.964C91.0621 229.964 91.0699 229.967 91.0756 229.973C91.0813 229.979 91.0845 229.986 91.0845 229.995C91.0845 230.003 91.0813 230.01 91.0756 230.016C91.0699 230.022 91.0621 230.025 91.0541 230.025C90.7501 230.025 90.4461 230.104 90.136 230.134L89.2118 230.232L87.3878 230.426C86.1718 230.542 84.9254 230.669 83.6912 230.834C83.6182 230.84 83.6122 230.73 83.673 230.712Z" fill="#263238"/>
<path d="M72.3516 209.322C61.1948 218.995 53.2361 232.505 53.5766 241.309C53.917 250.003 56.9023 249.012 57.7596 248.915C62.9945 248.307 74.1756 223.525 77.4649 213.486C80.7542 203.448 75.1302 206.932 72.3516 209.322Z" fill="#DB5555"/>
<path d="M64.4475 241.79C65.0008 240.665 65.5723 239.552 66.1135 238.416L67.7612 235.041C68.8434 232.785 69.9499 230.542 71.0018 228.268C72.0536 225.994 73.1298 223.744 74.1755 221.464C74.6984 220.321 75.2091 219.178 75.6955 218.029C76.1819 216.88 76.6683 215.725 77.1426 214.558C76.4267 216.965 75.5803 219.332 74.6072 221.647C73.6527 223.969 72.6069 226.249 71.5672 228.529C70.5275 230.809 69.3723 233.035 68.1928 235.254C67.0133 237.473 65.773 239.668 64.4475 241.79Z" fill="#263238"/>
<path d="M76.0424 217.531C76.2402 217.129 76.4615 216.739 76.7051 216.363C76.8267 216.181 76.9422 215.992 77.0699 215.81C77.1976 215.628 77.3192 215.439 77.4712 215.263C77.3886 215.715 77.2148 216.145 76.9605 216.527C76.7191 216.916 76.4078 217.256 76.0424 217.531Z" fill="#263238"/>
<path d="M86.1595 213.038C86.1595 213.038 78.6507 207.043 74.723 207.183L71.3972 210.15C71.3972 210.15 70.3028 210.515 69.9684 209.822C69.1233 208.107 68.947 203.961 72.5099 201.261C75.7748 198.787 82.4811 199.279 86.9438 200.446C91.2302 201.565 93.6014 204.094 92.2881 206.879C90.9748 209.664 86.1595 213.038 86.1595 213.038Z" fill="#DB5555"/>
<path opacity="0.1" d="M86.5851 211.724C86.5851 211.724 90.0629 208.125 90.5614 206.039C91.06 203.954 86.9134 201.978 84.2017 201.206C80.0369 199.99 77.2037 200.282 74.875 202.507C72.5464 204.732 86.5851 211.724 86.5851 211.724Z" fill="black"/>
<path d="M80.5291 205.541C80.596 206.271 83.7211 209.955 86.9678 210.247C88.0257 210.338 88.4027 205.943 88.4027 205.943L88.5547 205.529L90.6948 199.771L84.3291 194.342L83.3988 193.612C83.3988 193.612 82.9185 195.23 82.3409 197.26C82.3105 197.352 82.2862 197.449 82.2558 197.546C82.2254 197.643 82.1828 197.765 82.1585 197.874C82.0673 198.172 81.9761 198.482 81.891 198.786C81.8059 199.09 81.7633 199.248 81.7025 199.498L81.5079 200.233C81.0617 201.978 80.7347 203.752 80.5291 205.541Z" fill="#FFC4C0"/>
<path d="M82.3409 197.242C82.7141 198.988 83.4634 200.632 84.5365 202.059C85.6096 203.486 86.9808 204.662 88.5547 205.505L90.6948 199.747L84.3291 194.317L83.3988 193.588C83.3988 193.588 82.9185 195.229 82.3409 197.242Z" fill="#263238"/>
<path d="M97.2799 187.379C101.475 197.314 95.997 200.95 93.8569 201.849C91.9113 202.67 85.1868 205.212 79.9823 195.769C74.7778 186.327 78.0732 181.232 82.4143 179.122C86.7554 177.013 93.0239 177.45 97.2799 187.379Z" fill="#FFC4C0"/>
<path d="M94.8479 186.778C94.6072 186.836 94.3637 186.883 94.1183 186.917C93.8659 187.003 93.5924 187.003 93.34 186.917C93.2672 186.875 93.2105 186.809 93.1786 186.731C93.1467 186.653 93.1415 186.567 93.1637 186.486C93.2323 186.33 93.3411 186.196 93.479 186.096C93.6169 185.997 93.7788 185.936 93.948 185.92C94.2839 185.834 94.6399 185.877 94.9452 186.042C95.0116 186.083 95.0648 186.143 95.0982 186.214C95.1316 186.284 95.144 186.363 95.1337 186.441C95.1234 186.519 95.091 186.592 95.0403 186.651C94.9896 186.711 94.9228 186.755 94.8479 186.778Z" fill="#263238"/>
<path d="M87.8195 189.155C88.0305 189.028 88.2335 188.888 88.4275 188.736C88.6646 188.572 88.8653 188.468 88.9747 188.189C88.9949 188.107 88.9887 188.022 88.957 187.944C88.9253 187.866 88.8697 187.801 88.7984 187.757C88.6402 187.694 88.4682 187.675 88.3003 187.702C88.1323 187.729 87.9747 187.8 87.8438 187.909C87.5501 188.088 87.3334 188.37 87.2358 188.699C87.2178 188.775 87.2219 188.855 87.2477 188.928C87.2734 189.002 87.3198 189.067 87.3813 189.115C87.4428 189.163 87.5168 189.192 87.5944 189.199C87.6721 189.206 87.7502 189.191 87.8195 189.155Z" fill="#263238"/>
<path d="M90.0808 190.469C90.0808 190.469 90.0382 190.523 90.0504 190.554C90.3665 191.217 90.6219 192.025 90.1112 192.518C90.1112 192.518 90.1112 192.566 90.1112 192.554C90.8286 192.129 90.4821 191.046 90.0808 190.469Z" fill="#263238"/>
<path d="M89.1692 190.03C88.0505 190.426 88.92 192.627 89.9536 192.268C90.9872 191.909 90.1056 189.696 89.1692 190.03Z" fill="#263238"/>
<path d="M88.7678 190.304C88.6279 190.505 88.5246 190.803 88.2996 190.912C88.0747 191.022 87.7524 190.912 87.4849 190.742C87.4849 190.742 87.4484 190.742 87.4849 190.785C87.643 191.21 87.9774 191.581 88.4516 191.466C88.6557 191.385 88.8227 191.232 88.9204 191.035C89.018 190.839 89.0395 190.613 88.9806 190.402C88.9563 190.304 88.8407 190.237 88.7678 190.304Z" fill="#263238"/>
<path d="M93.9906 188.772C93.9906 188.742 94.0574 188.772 94.0696 188.815C94.3128 189.508 94.6776 190.262 95.4132 190.249C95.4132 190.249 95.4436 190.286 95.4132 190.292C94.6229 190.474 94.1122 189.471 93.9906 188.772Z" fill="#263238"/>
<path d="M94.3312 187.823C95.4013 187.312 96.3377 189.489 95.3466 189.963C94.3556 190.438 93.4314 188.249 94.3312 187.823Z" fill="#263238"/>
<path d="M94.8479 187.769C95.0728 187.812 95.3343 187.945 95.5471 187.872C95.7599 187.799 95.8632 187.477 95.9179 187.185C95.9179 187.155 95.9483 187.185 95.9605 187.185C96.155 187.599 96.2037 188.091 95.8389 188.341C95.4741 188.59 95.085 188.341 94.8053 187.958C94.7445 187.872 94.7567 187.751 94.8479 187.769Z" fill="#263238"/>
<path d="M92.2517 195.965C92.4645 196.087 92.6895 196.275 92.957 196.232C93.2195 196.157 93.4637 196.029 93.6745 195.855C93.6745 195.855 93.7231 195.855 93.7109 195.886C93.6454 196.051 93.5359 196.195 93.3944 196.302C93.253 196.409 93.0849 196.475 92.9084 196.494C92.7537 196.495 92.6023 196.449 92.4743 196.362C92.3462 196.275 92.2474 196.152 92.1909 196.007C92.1666 195.977 92.2153 195.947 92.2517 195.965Z" fill="#263238"/>
<path d="M94.3733 192.512C94.3733 192.512 94.8476 193.509 94.9813 194.001C94.9813 194.05 94.8841 194.111 94.7199 194.171C94.3222 194.386 93.8725 194.485 93.4215 194.458C92.9705 194.431 92.5358 194.28 92.1663 194.019C92.1116 193.983 92.1663 193.91 92.2149 193.928C92.9804 194.156 93.7985 194.132 94.5497 193.861C94.5497 193.715 93.6802 192.177 93.7532 192.147C94.1518 192.056 94.561 192.021 94.9692 192.043C94.0389 189.934 92.7743 187.988 91.8805 185.872C91.8501 185.799 91.9535 185.739 91.996 185.799C93.4128 187.843 94.6226 190.022 95.6076 192.305C95.7292 192.579 94.5983 192.53 94.3733 192.512Z" fill="#263238"/>
<path d="M94.6348 194.001C94.4885 194.491 94.2208 194.937 93.8565 195.296C93.6483 195.479 93.3899 195.596 93.1148 195.63C92.5068 195.697 92.3001 195.199 92.2332 194.73C92.2064 194.48 92.2064 194.227 92.2332 193.977C93.0105 194.241 93.8523 194.25 94.6348 194.001Z" fill="#263238"/>
<path d="M93.8569 195.297C93.6487 195.48 93.3903 195.597 93.1152 195.631C92.5072 195.698 92.3005 195.2 92.2336 194.731C92.5284 194.63 92.8486 194.631 93.1429 194.734C93.4372 194.836 93.6887 195.035 93.8569 195.297Z" fill="#FF9ABB"/>
<path d="M80.8089 195.393C82.6876 195.168 82.0796 190.779 82.0796 190.779C82.0796 190.779 89.6067 187.368 88.5852 180.777C90.5644 182.971 93.201 184.464 96.1001 185.033C96.1001 185.033 92.9567 177.378 87.0227 177.476C87.0227 177.476 80.3347 176.922 77.5439 183.446C74.7107 190.122 79.526 195.564 80.8089 195.393Z" fill="#263238"/>
<path d="M88.4881 180.297C88.8401 181.269 88.9831 182.305 88.9077 183.337C88.8474 184.375 88.572 185.39 88.099 186.316C87.9848 186.55 87.8548 186.775 87.7099 186.991L87.5032 187.319C87.4241 187.429 87.3451 187.526 87.26 187.623C87.0958 187.824 86.9377 188.031 86.7614 188.231C86.5851 188.432 86.3905 188.59 86.202 188.76L85.9163 189.022L85.6001 189.247L84.9921 189.69C84.5483 189.952 84.0984 190.183 83.6424 190.414C84.0436 190.098 84.4693 189.806 84.8584 189.508L85.4299 189.022L85.7096 188.778C85.8008 188.687 85.8798 188.596 85.9649 188.505L86.4757 187.964C86.6337 187.775 86.7736 187.569 86.9256 187.356L87.1505 187.064L87.339 186.748C87.4703 186.54 87.5901 186.325 87.6977 186.103C88.1483 185.224 88.4425 184.274 88.5672 183.294C88.6332 182.803 88.6596 182.307 88.6462 181.811C88.6337 181.303 88.5809 180.797 88.4881 180.297Z" fill="#263238"/>
<path d="M82.031 194.645C82.031 194.645 78.76 192.171 77.5622 193.429C76.3645 194.688 79.5565 198.792 81.4656 198.901C81.7105 198.929 81.9586 198.907 82.1947 198.836C82.4308 198.765 82.65 198.647 82.8393 198.489C83.0285 198.331 83.1837 198.136 83.2956 197.917C83.4075 197.697 83.4737 197.457 83.4902 197.211L82.031 194.645Z" fill="#FFC4C0"/>
<path d="M78.5048 194.591V194.64C79.8606 194.737 80.8456 195.643 81.6603 196.652C81.5524 196.555 81.4248 196.482 81.2861 196.439C81.1474 196.396 81.001 196.384 80.8571 196.403C80.7131 196.422 80.575 196.472 80.4523 196.55C80.3296 196.627 80.2253 196.731 80.1464 196.853C80.1464 196.883 80.1464 196.926 80.195 196.907C80.3839 196.772 80.6103 196.7 80.8426 196.7C81.0748 196.7 81.3012 196.772 81.4901 196.907C81.8089 197.13 82.1007 197.389 82.3595 197.68C82.4507 197.765 82.6271 197.643 82.548 197.534C82.0798 195.965 80.195 194.214 78.5048 194.591Z" fill="#263238"/>
<path d="M86.585 211.724C86.585 211.724 80.2739 203.425 74.2061 202.604L74.7229 207.158C74.7229 207.158 79.7814 207.237 86.1594 213.013L86.585 211.724Z" fill="#DB5555"/>
<path d="M73.0878 207.273C74.192 207.182 75.303 207.327 76.3467 207.699C80.5115 208.678 84.7614 212.095 84.7614 212.095L85.9774 213.22L86.1111 213.341L86.2631 213.262C88.2999 212.156 90.3489 209.578 90.7319 209.073C89.3122 210.487 87.74 211.739 86.0442 212.806L86.33 212.855L85.114 211.7C84.6884 211.329 80.0372 208.271 76.4318 207.401C76.1642 207.328 75.8785 207.279 75.6049 207.225C75.3313 207.17 75.0455 207.146 74.7659 207.134C74.2026 207.085 73.6353 207.133 73.0878 207.273Z" fill="#263238"/>
<path d="M71.3974 210.15C72.6258 209.304 73.7431 208.307 74.7231 207.183C74.1084 207.601 73.5196 208.055 72.96 208.545C72.4041 209.044 71.8821 209.581 71.3974 210.15Z" fill="#263238"/>
<path d="M84.512 210.758C84.0073 212.618 83.6635 214.518 83.4845 216.437C83.3507 217.774 83.4845 222.626 84.9923 222.565C86.5001 222.504 84.3113 219.215 84.0864 216.649C83.8614 214.084 84.6944 212.278 84.895 210.764L84.512 210.758Z" fill="#263238"/>
<path d="M88.731 210.69C89.3474 212.341 89.8193 214.041 90.1416 215.773C90.3787 216.989 90.6584 221.397 89.2904 221.47C87.9224 221.543 89.6248 218.369 89.6126 215.998C89.6005 213.627 88.7006 212.071 88.3966 210.715L88.731 210.69Z" fill="#263238"/>
<path d="M117.447 221.653C117.01 217.543 116.037 211.803 114.614 210.563C113.191 209.323 107.689 204.884 106.102 204.276C104.515 203.668 97.4258 200.707 96.0882 201.425C95.0121 202.002 96.1733 204.817 99.5417 206.258C101.368 207.084 103.143 208.02 104.856 209.061C105.719 209.469 107.731 212.363 107.117 213.603C106.759 214.327 104.582 215.129 103.263 214.479C101.943 213.828 101.7 211.177 100.223 209.876C98.7452 208.575 96.0335 208.66 95.8572 209.365C95.6809 210.071 96.5564 210.46 97.8514 212.977C98.6905 214.594 98.6236 218.412 100.545 221.209C101.517 222.863 102.388 224.575 103.153 226.335L117.447 221.653Z" fill="#FFC4C0"/>
<path d="M98.8182 208.703C98.3282 208.617 97.8728 208.393 97.5049 208.058C97.3563 207.907 97.2567 207.714 97.2192 207.505C97.201 207.39 97.201 207.273 97.2192 207.158C97.2282 207.038 97.2775 206.925 97.359 206.836C97.3894 206.836 97.359 206.787 97.359 206.836C97.359 206.885 97.2678 206.939 97.2313 206.994C97.1984 207.042 97.1699 207.093 97.1462 207.146C97.1031 207.252 97.0804 207.366 97.0793 207.481C97.079 207.731 97.1649 207.973 97.3225 208.168C97.5104 208.38 97.7449 208.545 98.0077 208.65C98.2705 208.756 98.5542 208.799 98.8364 208.776L98.8182 208.703Z" fill="#263238"/>
<path d="M114.614 210.562C113.398 208.477 110.176 204.689 106.923 203.315C104.728 202.391 96.9397 205.869 97.116 207.346C97.2924 208.824 98.5995 208.86 100.545 208.696C101.257 208.635 105.032 207.419 105.646 208.222C106.522 209.377 107.555 213.262 107.555 213.262L114.614 210.562Z" fill="#FFC4C0"/>
<path d="M97.3226 206.775C98.3197 205.243 100.429 204.471 102.521 203.881V203.93C101.986 204.082 98.5629 205.522 97.3287 206.805C97.3347 206.817 97.3165 206.793 97.3226 206.775Z" fill="#263238"/>
<path d="M114.614 210.563C113.398 208.478 110.176 204.69 106.923 203.316C104.728 202.391 98.5083 206.964 98.6847 208.441C98.861 209.918 100.734 210.089 102.837 209.432C103.518 209.225 105.823 207.711 106.431 208.514C107.312 209.669 109.471 212.539 109.471 212.539L114.614 210.563Z" fill="#FFC4C0"/>
<path d="M108.224 210.764C108.029 210.436 107.956 210.32 107.756 209.998C107.555 209.676 107.342 209.353 107.117 209.043C106.942 208.757 106.717 208.504 106.455 208.295C106.181 208.129 105.862 208.054 105.543 208.083C104.822 208.21 104.137 208.488 103.53 208.897C102.831 209.262 101.396 209.852 100.314 209.706C100.017 209.678 99.7292 209.589 99.4688 209.445C99.2687 209.348 99.0969 209.201 98.9702 209.019C98.5263 208.204 99.1404 207.31 99.7606 206.69C100.982 205.561 102.397 204.661 103.938 204.033C104.302 203.869 104.673 203.711 105.044 203.559C105.457 203.354 105.909 203.24 106.37 203.225C107.123 203.225 108.333 204.052 108.71 204.295C108.71 204.295 108.759 204.264 108.71 204.246C108.26 203.942 107.142 202.969 105.926 202.988C105.479 203.04 105.045 203.17 104.643 203.371C104.217 203.541 103.792 203.723 103.372 203.918C102.554 204.288 101.765 204.721 101.013 205.213C100.261 205.664 99.5972 206.249 99.0553 206.94C98.8286 207.248 98.6901 207.613 98.6548 207.994C98.6194 208.375 98.6885 208.759 98.8547 209.104C99.0082 209.324 99.2082 209.506 99.4404 209.64C99.6726 209.773 99.9314 209.854 100.198 209.876C100.515 209.922 100.836 209.922 101.153 209.876C101.866 209.746 102.569 209.565 103.257 209.335C103.925 209.092 104.533 208.672 105.22 208.484C105.382 208.435 105.552 208.418 105.72 208.434C105.888 208.451 106.051 208.501 106.199 208.581C106.473 208.776 106.715 209.012 106.917 209.28C107.355 209.742 107.749 210.243 108.096 210.776C108.224 210.977 108.303 210.904 108.224 210.764Z" fill="#263238"/>
<path d="M115.52 212.375C115.076 211.384 114.401 207.359 113.696 206.106C112.991 204.854 109.574 200.494 107.92 200.634C105.847 200.798 107.877 204.598 108.911 206.173C109.945 207.748 109.677 210.344 109.677 210.344L115.52 212.375Z" fill="#FFC4C0"/>
<path d="M109.616 210.77C109.661 211.77 109.452 212.766 109.008 213.664C108.803 214.119 108.568 214.56 108.303 214.983C108.03 215.408 107.73 215.814 107.403 216.199C106.778 216.919 106.245 217.713 105.816 218.564C105.412 219.441 105.116 220.364 104.935 221.312C104.897 220.317 105.054 219.323 105.397 218.388C105.761 217.452 106.281 216.585 106.935 215.822C107.557 215.093 108.103 214.303 108.564 213.463C109.063 212.63 109.419 211.72 109.616 210.77Z" fill="#263238"/>
<path d="M113.161 245.024C109.154 244.307 106.807 237.448 102.715 225.392C101.998 223.276 113.088 210.94 114.438 212.91C116.14 215.39 120.42 228.991 120.779 232.663C121.472 239.905 117.843 245.863 113.161 245.024Z" fill="#FFC4C0"/>
<path d="M104.861 232.117L118.402 220.048C118.402 220.048 121.624 231.077 121.083 235.619C120.542 240.16 118.73 245.28 113.234 245.347C109.117 245.365 104.861 232.117 104.861 232.117Z" fill="#DB5555"/>
<path d="M108.686 241.037C108.248 240.356 107.859 239.638 107.47 238.921C107.081 238.203 106.747 237.468 106.412 236.732C106.078 235.996 105.768 235.236 105.506 234.47C105.218 233.707 104.998 232.919 104.85 232.117C105.16 232.865 105.494 233.601 105.828 234.336L106.826 236.543C107.148 237.285 107.482 238.021 107.786 238.775C108.09 239.529 108.412 240.27 108.686 241.037Z" fill="#263238"/>
<path d="M107.567 234.439C108.224 233.77 108.947 233.162 109.646 232.536C110.346 231.91 111.051 231.32 111.762 230.712C113.191 229.496 114.62 228.28 116.067 227.064C116.462 226.742 116.863 226.413 117.283 226.097C117.702 225.781 118.189 225.489 118.614 225.124C118.645 225.094 118.687 225.124 118.657 225.173C118.31 225.477 118.006 225.836 117.666 226.146C117.325 226.456 116.961 226.79 116.602 227.1C115.891 227.708 115.185 228.316 114.468 228.924C113.045 230.14 111.616 231.356 110.151 232.53C109.324 233.193 108.509 233.886 107.646 234.5C107.638 234.51 107.626 234.517 107.613 234.519C107.6 234.521 107.587 234.517 107.576 234.509C107.566 234.501 107.559 234.489 107.557 234.476C107.555 234.463 107.559 234.45 107.567 234.439Z" fill="#263238"/>
<path d="M90.3245 210.976L84.8525 227.957C84.789 228.049 84.7518 228.156 84.7451 228.267C84.7384 228.378 84.7624 228.489 84.8145 228.588C84.8666 228.686 84.9448 228.769 85.0405 228.826C85.1361 228.883 85.2457 228.913 85.3571 228.912L94.2704 229.52C94.5436 229.517 94.8104 229.437 95.0397 229.288C95.269 229.14 95.4513 228.929 95.5654 228.681L101.037 211.705C101.256 211.207 101.037 210.781 100.533 210.745L91.6256 210.137C91.3519 210.14 91.0847 210.221 90.8546 210.369C90.6245 210.518 90.4408 210.728 90.3245 210.976Z" fill="#37474F"/>
<path d="M91.3822 211.05L85.9102 228.031C85.8467 228.123 85.8095 228.23 85.8028 228.341C85.7961 228.453 85.8202 228.564 85.8722 228.662C85.9243 228.761 86.0025 228.843 86.0982 228.9C86.1939 228.957 86.3034 228.987 86.4148 228.986L95.3281 229.594C95.6013 229.591 95.8681 229.511 96.0974 229.362C96.3267 229.214 96.509 229.003 96.6232 228.755L102.095 211.774C102.159 211.682 102.196 211.575 102.203 211.463C102.209 211.352 102.185 211.241 102.133 211.143C102.081 211.044 102.003 210.962 101.907 210.905C101.811 210.848 101.702 210.818 101.591 210.819L92.6833 210.211C92.4096 210.215 92.1424 210.295 91.9123 210.444C91.6822 210.592 91.4985 210.802 91.3822 211.05Z" fill="#455A64"/>
<path d="M93.7776 211.997C93.765 212.147 93.7083 212.29 93.6146 212.407C93.521 212.525 93.3945 212.612 93.2513 212.658C93.108 212.704 92.9544 212.706 92.81 212.664C92.6655 212.623 92.5366 212.539 92.4396 212.424C92.3426 212.309 92.2819 212.168 92.2651 212.019C92.2482 211.869 92.2761 211.718 92.3451 211.585C92.4142 211.451 92.5213 211.341 92.6529 211.269C92.7845 211.196 92.9347 211.164 93.0845 211.177C93.2852 211.194 93.471 211.29 93.6009 211.443C93.7309 211.597 93.7944 211.797 93.7776 211.997Z" fill="#263238"/>
<path d="M56.544 248.818C60.4352 249.353 65.2871 246.331 77.8605 237.15C79.5994 235.886 73.9389 221.19 72.0116 222.455C69.5796 224.042 60.5021 230.73 59.9002 231.301C54.8052 236.135 53.8871 248.459 56.544 248.818Z" fill="#FFC4C0"/>
<path d="M67.4877 226.9C67.4877 226.9 71.0688 221.872 73.7683 219.817C76.6277 217.747 79.9475 216.403 83.4416 215.902C87.2112 215.348 96.7021 216.613 96.8176 219.41C96.921 221.945 87.2781 220.164 87.2781 220.164C87.2781 220.164 97.4074 220.358 96.9696 223.429C96.5318 226.499 85.4602 223.794 85.4602 223.794C85.4602 223.794 95.8631 224.231 94.9085 227.326C94.1911 229.667 84.0253 227.782 84.0253 227.782C84.0253 227.782 92.9629 228.22 92.3245 230.658C91.6253 233.351 82.1283 232.202 82.1283 232.202C79.4653 238.124 75.6531 239.796 72.8807 240.714C72.2179 240.939 67.4877 226.9 67.4877 226.9Z" fill="#FFC4C0"/>
<path d="M83.7942 219.871C85.0102 219.871 86.1897 219.823 87.3753 219.908C88.5609 219.993 89.7526 220.121 90.9261 220.315C92.4674 220.547 93.9771 220.955 95.4253 221.531C92.7805 220.71 88.5306 220.315 87.3449 220.248C86.1593 220.181 84.9737 220.017 83.7881 219.932C83.7577 219.914 83.7638 219.871 83.7942 219.871Z" fill="#263238"/>
<path d="M83.4052 224.151C84.9252 224.194 86.4452 224.151 87.9591 224.285C89.473 224.419 90.8957 224.626 92.3975 224.838C92.513 224.838 92.4705 224.911 92.3489 224.899C90.841 224.747 89.4365 224.723 87.9287 224.589C86.4209 224.455 84.8887 224.267 83.3991 224.188C83.3809 224.188 83.3808 224.151 83.4052 224.151Z" fill="#263238"/>
<path d="M82.4141 227.77C84.7537 227.776 87.0865 228.022 89.3757 228.505C89.4913 228.505 89.4244 228.596 89.3028 228.578C86.9985 228.292 85.1927 228.049 82.4324 227.855C82.3716 227.849 82.3655 227.776 82.4141 227.77Z" fill="#263238"/>
<path d="M67.4877 224.899L72.4429 242.957C72.4429 242.957 59.152 250.782 56.2154 248.709C53.2787 246.635 55.2 236.214 58.5197 232.238C59.9181 230.584 67.4877 224.899 67.4877 224.899Z" fill="#DB5555"/>
<path d="M67.6646 225.501L67.47 224.893H67.5186C66.2661 225.921 65.0076 226.936 63.7612 227.97C62.5148 229.003 61.2745 230.037 60.1132 231.131C59.5157 231.662 58.9531 232.231 58.429 232.834C57.9281 233.454 57.4806 234.115 57.0914 234.81C56.321 236.228 55.7793 237.759 55.4863 239.346C55.6148 237.712 56.0565 236.118 56.7874 234.652C57.1525 233.914 57.5948 233.217 58.1068 232.572C58.635 231.944 59.2037 231.351 59.8092 230.797C61.0252 229.703 62.2777 228.681 63.5545 227.684C64.8313 226.687 66.1567 225.745 67.5065 224.845H67.549V224.887L67.6646 225.501Z" fill="#263238"/>
<path d="M64.5879 229.381C64.8919 230.268 65.1229 231.205 65.3722 232.086C65.6215 232.968 65.8647 233.91 66.0957 234.804C66.5578 236.628 67.0077 238.452 67.4333 240.276C67.5488 240.781 67.6644 241.279 67.7738 241.778C67.8832 242.276 67.938 242.866 68.0596 243.401C68.0596 243.444 68.0048 243.462 67.9927 243.401C67.8711 242.957 67.6887 242.526 67.5549 242.088C67.4212 241.65 67.2996 241.164 67.178 240.702C66.9348 239.796 66.6976 238.878 66.4666 237.978C66.0045 236.154 65.5485 234.33 65.1472 232.506C64.9223 231.466 64.6608 230.432 64.4967 229.387C64.4935 229.38 64.4921 229.372 64.4926 229.364C64.4931 229.356 64.4955 229.349 64.4996 229.342C64.5036 229.335 64.5092 229.33 64.5159 229.325C64.5226 229.321 64.5301 229.319 64.5379 229.318C64.5457 229.318 64.5536 229.319 64.5607 229.322C64.5679 229.326 64.5742 229.33 64.5791 229.337C64.584 229.343 64.5873 229.35 64.5889 229.357C64.5904 229.365 64.5901 229.373 64.5879 229.381Z" fill="#263238"/>
<path d="M72.0173 241.377C72.0548 241.936 72.1361 242.491 72.2605 243.037L72.3517 242.812C71.345 243.356 70.3852 243.982 69.4819 244.684C70.5863 244.349 71.6278 243.833 72.5645 243.158L72.6982 243.067C72.515 242.487 72.2874 241.922 72.0173 241.377Z" fill="#263238"/>
<path d="M255.092 216.832C255.092 216.832 268.535 240.605 268.541 240.623C270.706 245.414 272.511 249.658 273.241 251.938C273.244 251.95 273.244 251.962 273.241 251.974C273.47 252.49 273.576 253.052 273.551 253.616C273.551 253.616 273.551 253.646 273.551 253.659C272.56 255.264 234.755 273.637 233.222 273.832C231.69 274.027 231.003 269.673 231.903 267.789C232.803 265.904 244.136 252.4 244.136 252.4L230.936 228.536L255.092 216.832Z" fill="#EB9481"/>
<path d="M233.824 273.697C235.357 273.497 272.56 255.263 273.551 253.633C273.553 253.619 273.553 253.605 273.551 253.591C273.576 253.027 273.47 252.465 273.241 251.949C273.244 251.937 273.244 251.925 273.241 251.913C272.511 249.633 270.7 245.389 268.547 240.592C268.547 240.592 266.279 236.439 265.38 234.998L241.333 247.456L244.136 252.405C244.136 252.405 233.411 265.781 232.511 267.654C231.611 269.526 232.256 273.898 233.824 273.697Z" fill="#EBEBEB"/>
<path d="M233.137 273.182C234.681 272.951 272.347 253.544 273.308 251.902C273.685 251.294 271.18 245.627 267.951 238.885L267.848 238.672L243.406 250.923L243.631 251.33C243.631 251.33 232.535 265.205 231.666 267.138C230.796 269.072 231.593 273.425 233.137 273.182Z" fill="#FFC727"/>
<path d="M232.809 271.504C239.077 268.075 264.686 254.845 271.113 251.938C271.168 251.938 271.186 251.938 271.113 251.975C264.978 255.507 239.26 268.531 232.809 271.607C232.724 271.674 232.675 271.577 232.809 271.504Z" fill="white"/>
<path d="M241.625 252.448C243.887 250.691 247.139 249.5 249.967 250.296C250.076 250.333 250.027 250.485 249.967 250.503C247.182 250.961 244.455 251.717 241.832 252.759C241.811 252.772 241.788 252.782 241.764 252.786C241.74 252.791 241.716 252.791 241.692 252.786C241.668 252.781 241.645 252.772 241.625 252.758C241.604 252.745 241.587 252.727 241.573 252.707C241.56 252.687 241.55 252.664 241.545 252.64C241.541 252.616 241.541 252.591 241.546 252.567C241.55 252.543 241.56 252.52 241.573 252.5C241.587 252.48 241.605 252.462 241.625 252.448Z" fill="#263238"/>
<path d="M240.384 254.461C242.64 252.71 245.893 251.518 248.72 252.315C248.829 252.345 248.787 252.503 248.72 252.515C245.926 252.967 243.188 253.717 240.555 254.753C240.518 254.762 240.479 254.759 240.444 254.744C240.409 254.729 240.38 254.703 240.361 254.67C240.342 254.638 240.334 254.599 240.338 254.562C240.342 254.524 240.358 254.489 240.384 254.461Z" fill="#263238"/>
<path d="M239.139 256.479C241.376 254.752 244.653 253.536 247.456 254.333C247.566 254.363 247.517 254.515 247.426 254.533C244.641 254.991 241.914 255.747 239.291 256.789C239.253 256.794 239.215 256.787 239.181 256.769C239.148 256.751 239.121 256.722 239.104 256.688C239.087 256.654 239.081 256.615 239.088 256.578C239.094 256.54 239.112 256.506 239.139 256.479Z" fill="#263238"/>
<path d="M263.805 246.088C265.83 243.316 270.14 246.465 268.11 249.238C266.079 252.01 261.774 248.867 263.805 246.088Z" fill="white"/>
<path opacity="0.1" d="M241.984 253.402L239.278 270.317C237.286 271.376 235.24 272.332 233.15 273.181C231.611 273.424 230.821 269.04 231.678 267.101C232.323 265.696 238.847 257.348 241.984 253.402Z" fill="black"/>
<path d="M231.867 272.129C231.326 272.737 232.639 274.926 233.216 274.853C233.794 274.78 274.773 253.445 275.387 252.929C276.001 252.412 274.457 250.041 273.563 250.332C272.67 250.624 231.867 272.129 231.867 272.129Z" fill="#263238"/>
<path d="M265.435 232.804L238.336 247.268C238.336 247.268 204.142 198.531 203.461 185.733C202.513 168.046 217.615 111.909 217.615 111.909L241.698 111.745C241.698 111.745 231.903 169.505 232.7 179.33C233.125 184.48 265.435 232.804 265.435 232.804Z" fill="#0A235C"/>
<path d="M235.983 241.669C237.375 240.66 250.216 233.224 259.993 228.469C259.999 228.465 260.006 228.463 260.013 228.462C260.02 228.461 260.028 228.462 260.035 228.464C260.042 228.466 260.049 228.469 260.054 228.474C260.06 228.478 260.065 228.484 260.069 228.49C260.072 228.497 260.074 228.504 260.075 228.511C260.076 228.518 260.076 228.526 260.074 228.533C260.072 228.54 260.068 228.546 260.064 228.552C260.059 228.558 260.054 228.563 260.047 228.566C257.08 230.524 237.91 241.024 236.049 241.772C235.989 241.796 235.904 241.711 235.983 241.669Z" fill="#37474F"/>
<path d="M229.362 166.994C230.481 158.543 231.715 150.11 233.119 141.702C234.524 133.293 236.013 124.824 237.777 116.445C237.995 115.424 238.218 114.411 238.445 113.405C238.449 113.389 238.455 113.374 238.464 113.361C238.473 113.347 238.485 113.336 238.498 113.326C238.512 113.317 238.527 113.311 238.543 113.308C238.559 113.305 238.575 113.305 238.591 113.308C238.607 113.311 238.622 113.318 238.636 113.327C238.65 113.336 238.661 113.347 238.67 113.361C238.679 113.374 238.686 113.39 238.689 113.406C238.692 113.422 238.692 113.438 238.689 113.454C237.205 121.765 235.649 130.065 234.317 138.382C232.986 146.699 231.648 155.041 230.529 163.419C230.25 165.487 229.976 167.558 229.708 169.633C229.379 171.77 229.176 173.924 229.1 176.084C229.063 178.147 229.411 180.199 230.128 182.134C230.892 184.024 231.822 185.843 232.907 187.569C237.26 194.938 256.777 227.15 257.281 228.086C257.281 228.147 257.227 228.214 257.19 228.153C252.508 220.857 237.983 197.68 233.563 190.19C231.569 186.809 229.307 183.386 228.632 179.446C227.951 175.348 228.827 171.062 229.362 166.994Z" fill="#37474F"/>
<path d="M236.305 232.805C236.305 232.805 236.572 260.28 236.572 260.298C236.432 265.552 236.207 270.154 235.873 272.531C235.876 272.543 235.876 272.556 235.873 272.568C235.854 273.131 235.706 273.682 235.441 274.179L235.405 274.209C233.812 275.225 191.781 275.292 190.316 274.817C188.85 274.343 190.133 270.105 191.763 268.804C193.392 267.503 209.48 260.292 209.48 260.292V232.835L236.305 232.805Z" fill="#EB9481"/>
<path d="M236.512 254.656C236.512 254.656 236.566 260.28 236.566 260.298C236.427 265.551 236.202 270.154 235.867 272.531C235.87 272.543 235.87 272.555 235.867 272.567C235.785 273.119 235.641 273.66 235.436 274.179L235.399 274.209C233.806 275.224 191.775 275.291 190.31 274.817C188.844 274.343 190.127 270.105 191.757 268.804C193.386 267.503 209.474 260.292 209.474 260.292V254.564L236.512 254.656Z" fill="#EBEBEB"/>
<path d="M190.304 274.75C191.787 275.218 234.153 274.476 235.746 273.418C236.354 273.029 236.609 266.852 236.7 259.38V259.143L209.34 259.319V259.781C209.34 259.781 193.253 267.32 191.623 268.664C189.994 270.008 188.802 274.282 190.304 274.75Z" fill="#FFC727"/>
<path d="M190.742 273.096C197.88 272.792 226.699 272.257 233.776 272.488C233.831 272.488 233.837 272.53 233.776 272.53C226.711 272.987 197.904 273.291 190.742 273.199C190.59 273.211 190.59 273.102 190.742 273.096Z" fill="white"/>
<path d="M207.079 259.902C209.875 259.331 213.323 259.702 215.506 261.666C215.591 261.745 215.506 261.86 215.39 261.836C212.688 261.014 209.906 260.486 207.091 260.261C207.049 260.255 207.01 260.234 206.981 260.202C206.953 260.17 206.936 260.13 206.935 260.087C206.934 260.044 206.947 260.002 206.973 259.969C207 259.935 207.037 259.911 207.079 259.902Z" fill="#263238"/>
<path d="M205.066 261.161C207.869 260.59 211.316 260.961 213.499 262.924C213.584 262.997 213.499 263.119 213.383 263.095C210.681 262.273 207.899 261.745 205.084 261.52C205.041 261.515 205.002 261.494 204.973 261.463C204.944 261.432 204.927 261.391 204.924 261.348C204.922 261.305 204.935 261.263 204.961 261.229C204.987 261.195 205.024 261.171 205.066 261.161Z" fill="#263238"/>
<path d="M203.072 262.42C205.875 261.848 209.322 262.219 211.505 264.183C211.584 264.256 211.505 264.378 211.383 264.353C208.678 263.53 205.891 263.002 203.072 262.779C203.03 262.771 202.992 262.749 202.965 262.716C202.938 262.683 202.923 262.642 202.923 262.599C202.923 262.557 202.938 262.515 202.965 262.483C202.992 262.45 203.03 262.428 203.072 262.42Z" fill="#263238"/>
<path d="M189.616 273.243C188.863 273.547 189.069 276.088 189.616 276.283C190.164 276.477 236.353 275.462 237.138 275.273C237.922 275.085 237.582 272.27 236.664 272.142C235.745 272.014 189.616 273.243 189.616 273.243Z" fill="#263238"/>
<path d="M229.775 264.013C232.815 262.42 235.295 267.15 232.249 268.743C229.203 270.336 226.729 265.606 229.775 264.013Z" fill="white"/>
<path d="M217.925 111.872C218.083 112.371 226.741 136.089 227.556 136.466C228.48 136.891 208.434 170.556 207.249 186.2C206.495 196.202 207.978 252.813 207.978 252.813H237.284C237.284 252.813 235.879 201.917 235.211 185.793C234.949 179.536 255.329 148.401 255.579 129.018C255.658 122.907 251.268 111.738 251.268 111.738L217.925 111.872Z" fill="#0A235C"/>
<path d="M235.041 185.361C235.041 185.1 235.247 185.021 235.266 185.282C235.928 194.013 236.08 202.689 236.482 211.426C236.883 220.163 236.658 222.242 237.047 230.961C237.266 235.892 237.047 240.841 237.175 245.778C237.175 245.794 237.168 245.81 237.157 245.821C237.146 245.832 237.13 245.839 237.114 245.839C237.098 245.839 237.082 245.832 237.071 245.821C237.06 245.81 237.053 245.794 237.053 245.778C236.159 237.12 235.047 190.304 235.041 185.361Z" fill="#37474F"/>
<path d="M207.255 186.547C207.296 184.393 207.5 182.245 207.863 180.121C208.273 178.055 208.884 176.035 209.687 174.089C211.31 170.01 213.219 166.027 215.05 162.039C216.88 158.05 218.795 153.97 220.746 149.97C221.849 147.728 222.956 145.487 224.066 143.245C225.191 140.984 226.401 138.758 227.58 136.521C227.591 136.506 227.607 136.496 227.625 136.492C227.643 136.487 227.661 136.489 227.678 136.497C227.694 136.505 227.707 136.518 227.715 136.535C227.723 136.551 227.725 136.57 227.72 136.588C225.842 140.619 223.993 144.662 222.114 148.693C220.236 152.724 218.394 156.773 216.545 160.823C214.697 164.872 212.897 168.787 211.201 172.818C210.347 174.734 209.648 176.714 209.109 178.74C208.626 180.837 208.34 182.974 208.252 185.124C207.972 190.128 207.833 195.15 207.34 200.142C207.34 200.203 207.231 200.197 207.231 200.142C207.048 195.618 207.121 191.065 207.255 186.547Z" fill="#37474F"/>
<path d="M210.106 247.026C211.808 246.807 224.795 246.357 235.642 246.819C235.657 246.819 235.67 246.825 235.681 246.835C235.691 246.845 235.697 246.859 235.697 246.874C235.697 246.888 235.691 246.902 235.681 246.912C235.67 246.923 235.657 246.928 235.642 246.928C232.097 247.245 212.1 247.378 210.106 247.153C210.057 247.147 210.027 247.038 210.106 247.026Z" fill="#37474F"/>
<path d="M223.513 135.153C226.653 135.948 229.719 137.012 232.676 138.333C232.688 138.337 232.699 138.344 232.709 138.353C232.719 138.362 232.727 138.372 232.732 138.384C232.738 138.396 232.741 138.409 232.742 138.422C232.743 138.435 232.741 138.448 232.736 138.461C232.732 138.473 232.725 138.485 232.716 138.494C232.708 138.504 232.697 138.512 232.685 138.518C232.673 138.523 232.66 138.527 232.647 138.527C232.634 138.528 232.621 138.526 232.609 138.522C229.569 137.555 226.407 136.655 223.391 135.524C223.342 135.508 223.302 135.473 223.278 135.427C223.255 135.381 223.251 135.327 223.267 135.278C223.283 135.229 223.318 135.188 223.364 135.165C223.41 135.141 223.464 135.137 223.513 135.153Z" fill="#37474F"/>
<path d="M220.558 115.071C220.558 114.968 220.728 114.926 220.74 115.035C221.075 118.537 221.616 121.589 222.242 124.83C222.534 126.332 224.619 134.594 227.185 133.713C227.617 133.561 227.793 133.105 227.793 132.436C227.695 131.569 227.491 130.718 227.185 129.901C226.711 128.174 226.298 126.435 225.969 124.678C225.325 121.408 225.021 118.081 225.063 114.749C225.063 114.727 225.072 114.705 225.088 114.689C225.104 114.673 225.126 114.664 225.148 114.664C225.171 114.664 225.193 114.673 225.209 114.689C225.225 114.705 225.234 114.727 225.234 114.749C225.622 119.336 226.358 123.887 227.435 128.362C227.988 130.515 229.423 133.682 227.179 134.254C224.936 134.825 222.82 129.487 222.382 128.01C221.216 123.794 220.603 119.445 220.558 115.071Z" fill="#37474F"/>
<path d="M227.137 133.943C227.43 134.486 227.687 135.046 227.909 135.621C228.125 136.061 228.257 136.538 228.298 137.026C228.298 137.117 228.176 137.141 228.122 137.081C227.805 136.679 227.551 136.232 227.368 135.755C227.112 135.238 226.845 134.728 226.608 134.199C226.574 134.129 226.569 134.048 226.595 133.974C226.62 133.901 226.674 133.84 226.744 133.807C226.815 133.773 226.895 133.768 226.969 133.794C227.042 133.819 227.103 133.873 227.137 133.943Z" fill="#37474F"/>
<path d="M232.043 193.952C231.891 189.787 231.435 185.44 232.797 181.397C233.541 179.431 234.433 177.525 235.466 175.694C236.479 173.736 237.476 171.768 238.457 169.79C242.373 161.886 246.063 153.849 249.359 145.665C250.946 141.719 252.362 137.676 252.928 133.444C253.448 129.001 253.173 124.5 252.113 120.153C251.864 119.071 251.602 117.989 251.304 116.919C251.304 116.84 251.402 116.797 251.426 116.876C252.812 120.975 253.583 125.258 253.712 129.583C253.684 133.734 252.937 137.848 251.505 141.743C250.1 145.829 248.343 149.805 246.641 153.763C244.853 157.849 242.997 161.903 241.072 165.923C239.156 169.918 237.114 173.827 235.089 177.786C234.044 179.658 233.286 181.677 232.839 183.774C232.527 185.946 232.446 188.145 232.596 190.335C232.943 199.546 233.739 230.219 233.855 239.412C233.855 240.58 233.855 241.747 233.897 242.908C233.897 243.012 233.739 243.03 233.733 242.908C233.119 233.758 232.371 203.157 232.043 193.952Z" fill="#37474F"/>
<path d="M238.615 117.825C238.615 117.758 238.712 117.77 238.725 117.825C239.071 120.36 239.266 122.993 240.494 125.291C241.613 127.401 243.576 128.763 245.71 129.717C246.954 130.25 248.225 130.719 249.517 131.122C249.608 131.152 249.583 131.292 249.517 131.274C247.085 130.769 244.653 130.204 242.518 128.842C240.269 127.389 239.108 125.054 238.737 122.446C238.536 120.914 238.495 119.365 238.615 117.825Z" fill="#37474F"/>
<path d="M221.311 77.6605C216.332 87.1697 200.688 100.91 195.703 102.114C189.55 103.592 175.894 93.2922 170.598 87.2244C168.409 84.7133 177.535 73.7693 181.463 74.2801C183.628 74.5658 194.699 85.6861 196.529 84.92C200.937 83.0961 207.066 79.3143 215.815 74.2497C220.576 71.4954 224.406 71.7447 221.311 77.6605Z" fill="#EB9481"/>
<path d="M186.181 77.9459C186.181 77.9459 183.701 73.5257 182.181 71.8233C180.661 70.1209 172.671 65.8528 171.65 67.5248C170.337 69.6892 174.465 73.0576 176.702 74.4438C176.702 74.4438 173.662 79.4416 176.094 82.5059C178.526 85.5702 186.181 77.9459 186.181 77.9459Z" fill="#EB9481"/>
<path d="M172.276 88.8534C170.586 87.8867 163.235 82.7734 161.509 80.9068C159.782 79.0403 155.204 73.2643 156.505 71.7868C157.806 70.3094 159.283 71.8963 159.283 71.8963C159.283 71.8963 157.739 69.1603 159.186 67.7984C160.633 66.4364 162.834 68.9718 162.834 68.9718C162.834 68.9718 161.448 66.0412 162.992 64.7888C164.537 63.5363 166.33 66.4608 166.33 66.4608C166.33 66.4608 164.944 63.8403 166.646 63.3417C168.695 62.7337 170.714 67.8652 172.775 69.7926C173.243 70.2304 182.904 78.0067 182.904 78.0067L172.276 88.8534Z" fill="#EB9481"/>
<path d="M166.184 66.2173C167.68 69.9808 168.981 71.3671 172.203 73.714C172.264 73.7626 172.203 73.866 172.143 73.8234C168.78 71.8109 166.889 70.3092 166.002 66.2842C165.953 66.0836 166.111 66.041 166.184 66.2173Z" fill="#263238"/>
<path d="M162.737 68.7046C164.628 72.4742 166.026 73.9942 169.218 76.6998C169.267 76.7362 169.218 76.8214 169.158 76.7849C165.801 74.3894 163.953 72.845 162.561 68.8262C162.494 68.6255 162.646 68.51 162.737 68.7046Z" fill="#263238"/>
<path d="M159.453 72.0368C161.551 75.5571 163.016 77.2899 166.452 79.5152C166.465 79.5274 166.475 79.544 166.478 79.5622C166.48 79.5804 166.477 79.599 166.468 79.6149C166.458 79.6308 166.444 79.6429 166.426 79.6491C166.409 79.6553 166.39 79.6553 166.373 79.649C162.652 77.7155 160.809 75.5693 159.35 72.1159C159.253 71.8787 159.295 71.8179 159.453 72.0368Z" fill="#263238"/>
<path d="M171.456 68.2363C171.675 71.0757 174.733 72.7051 176.8 74.213C176.832 74.2348 176.857 74.2639 176.875 74.2978C176.893 74.3317 176.902 74.3693 176.902 74.4075C176.902 74.4457 176.893 74.4834 176.875 74.5173C176.857 74.5511 176.832 74.5802 176.8 74.6021C175.663 76.7787 174.691 80.1835 175.894 82.5061C175.899 82.5195 175.9 82.5343 175.895 82.5479C175.89 82.5615 175.881 82.5729 175.868 82.5802C175.856 82.5875 175.841 82.5902 175.827 82.5877C175.813 82.5853 175.8 82.5779 175.791 82.5669C174.168 80.2747 174.849 76.8517 176.247 74.5413C174.101 73.0334 171.109 71.2581 171.413 68.2606L171.456 68.2363Z" fill="#263238"/>
<path d="M204.16 79.8311L210.368 94.186C210.368 94.186 221.184 80.81 223.252 75.9764C225.568 70.5287 222.297 70.5287 217.056 72.5837C211.815 74.6388 204.16 79.8311 204.16 79.8311Z" fill="#DB5555"/>
<path d="M208.087 78.6938C208.269 78.6881 208.446 78.638 208.604 78.5479C208.753 78.4601 208.875 78.3345 208.96 78.1839C209.044 78.0334 209.087 77.8632 209.085 77.6906C209.089 77.4638 209.16 77.2433 209.289 77.0564C209.417 76.8694 209.598 76.7243 209.808 76.6388C210.003 76.5691 210.212 76.5483 210.416 76.578C210.611 76.578 210.811 76.6206 211.024 76.657L210.416 76.73C210.232 76.7339 210.051 76.7797 209.887 76.8638C209.736 76.9447 209.609 77.0646 209.519 77.211C209.429 77.3574 209.38 77.525 209.376 77.6967C209.379 77.9227 209.316 78.1446 209.193 78.3348C209.071 78.525 208.896 78.6752 208.689 78.7668C208.499 78.851 208.288 78.8805 208.081 78.8519C207.881 78.8215 207.68 78.8094 207.473 78.7729C207.686 78.7364 207.887 78.7182 208.087 78.6938ZM223.287 75.3863C223.287 75.1857 223.33 74.9911 223.366 74.7783C223.403 74.979 223.415 75.1735 223.439 75.3863C223.437 75.4106 223.437 75.4351 223.439 75.4593L223.287 75.8362C223.267 75.6884 223.273 75.5381 223.306 75.3924L223.287 75.3863ZM213.444 84.0807C213.577 84.2067 213.74 84.2966 213.918 84.3422C214.084 84.385 214.259 84.3835 214.424 84.3376C214.59 84.2917 214.74 84.2031 214.861 84.0807C215.023 83.9234 215.229 83.8171 215.451 83.775C215.674 83.7328 215.904 83.7567 216.113 83.8436C216.31 83.9348 216.479 84.0751 216.606 84.251C216.727 84.4091 216.855 84.555 216.97 84.7252C216.806 84.6097 216.654 84.482 216.496 84.3604C216.364 84.2307 216.204 84.133 216.028 84.0746C215.863 84.0268 215.689 84.023 215.523 84.0635C215.356 84.104 215.204 84.1876 215.079 84.3057C214.964 84.4258 214.824 84.5191 214.668 84.5793C214.513 84.6394 214.346 84.6649 214.18 84.6539C214.014 84.6429 213.852 84.5957 213.706 84.5156C213.56 84.4355 213.433 84.3244 213.334 84.1902C213.213 84.0321 213.085 83.8801 212.97 83.7159C213.152 83.8314 213.304 83.9591 213.462 84.0807H213.444Z" fill="white"/>
<path d="M206.975 79.2113C208.015 80.9319 210.404 86.5073 210.805 87.4558C211.018 87.9422 211.784 89.8878 212.021 90.3985C212.021 90.4593 211.949 90.4897 211.924 90.3985C211.511 89.4804 211 88.5745 210.581 87.6807C210.161 86.787 207.541 81.1508 206.933 79.2174C206.938 79.212 206.945 79.2085 206.953 79.2074C206.96 79.2063 206.968 79.2077 206.975 79.2113Z" fill="#263238"/>
<path opacity="0.1" d="M223.257 76.0007C221.19 80.8647 210.374 94.2407 210.374 94.2407L207.176 86.8413L222.205 71.3799C224.035 71.4224 224.643 72.7357 223.257 76.0007Z" fill="black"/>
<path d="M255.232 118.086L213.809 126.112C213.967 126.927 212.033 97.5358 215.061 77.1374C215.955 71.106 222.728 68.2545 229.045 73.5867C242.379 84.8104 255.329 118.615 255.232 118.086Z" fill="#DB5555"/>
<path d="M246.647 99.1954L246.842 99.5845L246.72 99.4507C246.605 99.2927 246.471 99.1406 246.361 98.9765C246.459 99.0434 246.556 99.1042 246.647 99.1954ZM214.204 118.043C214.367 117.886 214.573 117.781 214.796 117.74C215.019 117.699 215.248 117.724 215.457 117.812C215.654 117.9 215.824 118.039 215.949 118.214C216.071 118.372 216.199 118.524 216.314 118.688C216.15 118.572 215.998 118.445 215.84 118.323C215.707 118.196 215.547 118.1 215.372 118.043C215.207 117.994 215.033 117.99 214.866 118.03C214.699 118.071 214.547 118.155 214.423 118.274C214.307 118.389 214.17 118.48 214.018 118.54C213.867 118.601 213.705 118.63 213.542 118.627C213.542 118.53 213.542 118.432 213.542 118.335C213.794 118.321 214.032 118.21 214.204 118.025V118.043ZM238.494 120.244C238.629 120.37 238.791 120.462 238.968 120.512C239.135 120.553 239.31 120.55 239.475 120.504C239.64 120.457 239.79 120.367 239.911 120.244C240.075 120.087 240.282 119.982 240.505 119.941C240.729 119.9 240.96 119.925 241.169 120.013C241.364 120.102 241.531 120.24 241.656 120.415L241.874 120.694H241.789L241.552 120.512C241.421 120.385 241.263 120.29 241.09 120.232C240.925 120.183 240.749 120.178 240.582 120.218C240.414 120.259 240.26 120.343 240.136 120.463C240.02 120.583 239.879 120.676 239.723 120.736C239.568 120.795 239.401 120.82 239.235 120.809C239.069 120.797 238.907 120.749 238.761 120.668C238.615 120.588 238.489 120.476 238.391 120.342C238.269 120.184 238.141 120.038 238.026 119.867C238.184 119.977 238.336 120.104 238.494 120.226V120.244ZM227.635 98.8549C227.767 98.9793 227.928 99.0691 228.103 99.1163C228.27 99.161 228.446 99.1603 228.613 99.1144C228.78 99.0684 228.931 98.9788 229.052 98.8549C229.214 98.6965 229.42 98.5899 229.643 98.5488C229.866 98.5076 230.096 98.5338 230.304 98.6239C230.501 98.7116 230.671 98.8501 230.797 99.0251C230.918 99.1832 231.046 99.3352 231.161 99.4994C230.997 99.3838 230.845 99.2562 230.687 99.1346C230.557 99.0038 230.396 98.9076 230.219 98.8549C230.055 98.8044 229.881 98.7986 229.714 98.8381C229.547 98.8777 229.394 98.9612 229.271 99.0799C229.115 99.2363 228.918 99.3452 228.702 99.3936C228.487 99.4421 228.262 99.4281 228.055 99.3535C227.852 99.2751 227.677 99.14 227.55 98.9643C227.428 98.8063 227.301 98.6543 227.185 98.4901C227.325 98.5874 227.477 98.715 227.635 98.8367V98.8549ZM214.216 84.3845C214.466 84.3803 214.705 84.2776 214.879 84.0987C215.042 83.9414 215.247 83.8351 215.47 83.793C215.693 83.7508 215.923 83.7747 216.132 83.8616C216.328 83.9528 216.498 84.0931 216.624 84.269C216.746 84.4271 216.873 84.573 216.989 84.7432C216.825 84.6277 216.673 84.5 216.515 84.3784C216.382 84.2488 216.222 84.151 216.047 84.0927C215.882 84.0448 215.708 84.041 215.541 84.0815C215.375 84.122 215.222 84.2056 215.098 84.3237C214.98 84.4424 214.839 84.5347 214.682 84.5944C214.526 84.6542 214.359 84.68 214.192 84.6703C214.193 84.5685 214.202 84.4669 214.216 84.3663V84.3845ZM213.517 95.9365C213.71 95.9665 213.891 96.0439 214.046 96.1618C214.201 96.2796 214.325 96.4341 214.405 96.6114C214.483 96.804 214.51 97.0133 214.484 97.2194C214.484 97.4139 214.441 97.6146 214.405 97.8274C214.368 97.6328 214.356 97.4322 214.332 97.2194C214.322 97.0358 214.27 96.857 214.18 96.6965C214.108 96.5742 214.011 96.469 213.894 96.3882C213.778 96.3074 213.645 96.2528 213.505 96.2283C213.511 96.1067 213.517 96.0034 213.517 95.8939V95.9365ZM237.837 91.3461C237.837 91.1455 237.88 90.9448 237.916 90.7381C237.953 90.9327 237.965 91.1333 237.995 91.3461C237.998 91.5277 238.042 91.7064 238.123 91.869C238.205 92.02 238.324 92.1468 238.471 92.2365C238.617 92.3262 238.784 92.3756 238.956 92.3797C239.183 92.3781 239.405 92.4421 239.596 92.564C239.787 92.686 239.938 92.8606 240.032 93.0667C240.11 93.2593 240.137 93.4686 240.111 93.6747C240.111 93.8754 240.069 94.0699 240.032 94.2827C239.996 94.0821 239.984 93.8875 239.953 93.6747C239.947 93.4912 239.897 93.3118 239.807 93.1519C239.718 93.0042 239.593 92.8822 239.442 92.798C239.292 92.7137 239.122 92.6702 238.95 92.6715C238.723 92.6677 238.502 92.597 238.315 92.4683C238.128 92.3396 237.983 92.1586 237.898 91.948C237.816 91.7438 237.791 91.521 237.825 91.3035L237.837 91.3461ZM247.225 111.459C247.225 111.264 247.267 111.064 247.304 110.851C247.34 111.051 247.352 111.252 247.377 111.459C247.381 111.643 247.426 111.824 247.511 111.988C247.592 112.139 247.711 112.266 247.858 112.356C248.004 112.446 248.172 112.495 248.344 112.498C248.57 112.496 248.791 112.559 248.982 112.681C249.172 112.804 249.322 112.979 249.414 113.185C249.497 113.377 249.526 113.587 249.499 113.793C249.499 113.988 249.456 114.189 249.42 114.401C249.383 114.207 249.371 114.006 249.341 113.793C249.336 113.61 249.286 113.43 249.195 113.271C249.107 113.122 248.981 112.999 248.831 112.915C248.68 112.831 248.51 112.788 248.337 112.79C248.111 112.786 247.89 112.715 247.703 112.586C247.516 112.457 247.371 112.277 247.286 112.067C247.216 111.872 247.195 111.663 247.225 111.459ZM228.024 110.243C228.024 110.048 228.067 109.848 228.103 109.635C228.14 109.829 228.152 110.03 228.182 110.243C228.184 110.426 228.228 110.607 228.31 110.772C228.391 110.923 228.511 111.05 228.658 111.139C228.804 111.229 228.971 111.278 229.143 111.282C229.369 111.282 229.591 111.346 229.782 111.468C229.973 111.59 230.125 111.764 230.219 111.969C230.297 112.162 230.324 112.371 230.298 112.577C230.298 112.772 230.256 112.973 230.219 113.185C230.183 112.991 230.17 112.79 230.14 112.577C230.135 112.394 230.085 112.214 229.994 112.055C229.906 111.906 229.781 111.783 229.63 111.699C229.48 111.615 229.309 111.572 229.137 111.574C228.91 111.57 228.689 111.499 228.503 111.37C228.316 111.241 228.17 111.061 228.085 110.851C228.002 110.649 227.973 110.429 228 110.212L228.024 110.243ZM223.306 75.3922C223.306 75.1915 223.349 74.997 223.385 74.7842C223.422 74.9848 223.434 75.1794 223.458 75.3922C223.465 75.5759 223.511 75.7562 223.592 75.9211C223.674 76.0714 223.794 76.1974 223.94 76.286C224.086 76.3747 224.254 76.4229 224.425 76.4258C224.651 76.4249 224.873 76.4893 225.064 76.6111C225.255 76.7329 225.406 76.9071 225.501 77.1128C225.579 77.3054 225.606 77.5147 225.58 77.7208C225.58 77.9215 225.537 78.116 225.501 78.3288C225.464 78.1282 225.452 77.9336 225.422 77.7208C225.417 77.5391 225.367 77.3615 225.276 77.204C225.189 77.0546 225.064 76.9313 224.913 76.8468C224.762 76.7623 224.592 76.7198 224.419 76.7237C224.192 76.7175 223.972 76.6459 223.786 76.5175C223.599 76.3891 223.454 76.2094 223.367 76.0002C223.297 75.8055 223.276 75.5968 223.306 75.3922ZM235.126 82.5666C235.255 82.696 235.413 82.7919 235.588 82.8463C235.751 82.8968 235.926 82.9026 236.093 82.863C236.259 82.8235 236.413 82.74 236.536 82.6213C236.611 82.5414 236.7 82.4755 236.798 82.4267C236.854 82.5119 236.915 82.597 236.98 82.6821C236.899 82.7258 236.826 82.7811 236.761 82.8463C236.597 83.0045 236.391 83.1108 236.167 83.152C235.943 83.1931 235.712 83.1671 235.503 83.0773C235.308 82.9886 235.14 82.8502 235.016 82.676C234.895 82.5179 234.761 82.3659 234.651 82.2018C234.816 82.3173 234.968 82.445 235.126 82.5666ZM217.111 106.175C217.294 106.17 217.473 106.119 217.633 106.029C217.781 105.94 217.902 105.814 217.987 105.664C218.071 105.514 218.115 105.344 218.114 105.172C218.118 104.945 218.188 104.724 218.317 104.537C218.446 104.35 218.627 104.205 218.837 104.12C219.031 104.048 219.241 104.028 219.445 104.059C219.646 104.059 219.847 104.102 220.053 104.132C219.859 104.169 219.658 104.187 219.445 104.211C219.263 104.216 219.084 104.262 218.922 104.345C218.771 104.426 218.643 104.545 218.553 104.692C218.463 104.838 218.415 105.006 218.412 105.178C218.413 105.404 218.349 105.625 218.227 105.815C218.105 106.005 217.93 106.155 217.725 106.248C217.533 106.331 217.323 106.36 217.117 106.333C216.916 106.333 216.721 106.291 216.509 106.254C216.715 106.218 216.91 106.2 217.111 106.175ZM227.927 122.938C227.929 122.71 227.999 122.489 228.128 122.301C228.257 122.114 228.439 121.969 228.65 121.886C228.844 121.81 229.054 121.789 229.258 121.825C229.459 121.825 229.66 121.862 229.866 121.898C229.672 121.935 229.471 121.953 229.258 121.977C229.076 121.979 228.896 122.025 228.736 122.111C228.584 122.191 228.456 122.311 228.366 122.458C228.277 122.604 228.228 122.772 228.225 122.944C228.227 123.075 228.204 123.205 228.158 123.327L227.793 123.4C227.877 123.26 227.924 123.101 227.927 122.938ZM238.804 107.324C238.988 107.319 239.167 107.269 239.327 107.178C239.475 107.091 239.598 106.965 239.682 106.814C239.767 106.664 239.81 106.494 239.807 106.321C239.811 106.094 239.882 105.873 240.01 105.686C240.139 105.499 240.32 105.354 240.531 105.269C240.725 105.2 240.934 105.179 241.139 105.208C241.333 105.208 241.534 105.251 241.747 105.288C241.552 105.318 241.352 105.336 241.139 105.36C240.955 105.364 240.774 105.41 240.61 105.494C240.458 105.575 240.331 105.695 240.241 105.841C240.152 105.988 240.103 106.156 240.099 106.327C240.102 106.494 240.068 106.66 240 106.812C239.933 106.965 239.833 107.101 239.707 107.211C239.581 107.32 239.433 107.402 239.273 107.449C239.113 107.496 238.945 107.507 238.78 107.482C238.585 107.452 238.384 107.44 238.172 107.403C238.409 107.367 238.609 107.349 238.804 107.324ZM224.212 89.8383C224.395 89.8333 224.573 89.7809 224.729 89.6863C224.877 89.5998 225 89.4754 225.084 89.3258C225.169 89.1762 225.212 89.0068 225.209 88.8351C225.215 88.6084 225.286 88.3883 225.414 88.2015C225.543 88.0147 225.723 87.8694 225.933 87.7832C226.126 87.7095 226.336 87.6865 226.541 87.7163C226.741 87.7163 226.936 87.7589 227.149 87.7954C226.948 87.8319 226.753 87.8501 226.541 87.8744C226.356 87.8754 226.175 87.9213 226.012 88.0082C225.861 88.0896 225.734 88.2096 225.644 88.3559C225.554 88.5022 225.505 88.6696 225.501 88.8411C225.503 89.0662 225.439 89.2869 225.319 89.4767C225.198 89.6666 225.025 89.8175 224.82 89.9112C224.628 89.9921 224.418 90.0195 224.212 89.9903C224.011 89.9903 223.811 89.9477 223.604 89.9112C223.799 89.8808 223.999 89.8626 224.2 89.8383H224.212Z" fill="white"/>
<path d="M217.816 78.4334C219.834 78.8772 223.981 76.4331 225.361 73.539C225.452 73.3384 225.045 71.3259 224.668 68.8513C224.443 67.3556 224.224 65.6776 224.139 64.1332C224.139 63.8171 214.587 67.0273 214.587 67.0273C215.247 68.9262 215.672 70.8986 215.852 72.9006C215.862 73.1038 215.851 73.3074 215.822 73.5086C215.822 73.5086 215.822 73.5694 215.822 73.612C215.688 74.8705 215.657 77.9774 217.816 78.4334Z" fill="#EB9481"/>
<path d="M215.84 73.5687C215.84 73.5687 215.84 73.6356 215.84 73.6721C216.172 73.6994 216.506 73.6994 216.837 73.6721C222.528 73.2343 223.635 66.0174 223.823 64.1934C222.115 64.5338 214.612 67.0631 214.612 67.0631C215.275 68.9613 215.702 70.9339 215.883 72.9364C215.884 73.1479 215.87 73.3593 215.84 73.5687Z" fill="#263238"/>
<path d="M225.264 52.0274C226.401 55.4383 224.82 65.4034 222.431 67.6834C218.959 70.9788 213.165 71.4226 210.338 67.2274C207.596 63.166 209.882 50.2034 212.563 48.1241C216.515 45.0658 223.598 46.9871 225.264 52.0274Z" fill="#EB9481"/>
<path d="M215.724 58.2051C215.724 58.2051 215.773 58.2416 215.767 58.272C215.639 58.9408 215.609 59.7251 216.187 60.0412C216.187 60.0412 216.187 60.0838 216.187 60.0777C215.445 59.8588 215.499 58.8192 215.724 58.2051Z" fill="#263238"/>
<path d="M216.448 57.5904C217.542 57.6755 217.293 59.8582 216.284 59.7792C215.274 59.7001 215.511 57.5235 216.448 57.5904Z" fill="#263238"/>
<path d="M211.797 57.8701C211.797 57.8701 211.742 57.8701 211.742 57.9248C211.681 58.5997 211.505 59.3658 210.873 59.5239V59.5604C211.627 59.5421 211.852 58.5207 211.797 57.8701Z" fill="#263238"/>
<path d="M211.274 57.0978C210.198 56.8911 209.863 59.0617 210.86 59.2502C211.857 59.4386 212.192 57.2681 211.274 57.0978Z" fill="#263238"/>
<path d="M217.403 56.6913C217.126 56.5764 216.856 56.4465 216.594 56.3022C216.29 56.2 216.026 56.0042 215.84 55.7428C215.801 55.6478 215.794 55.5428 215.819 55.4432C215.844 55.3436 215.9 55.2547 215.98 55.1896C216.157 55.0865 216.358 55.0322 216.563 55.0322C216.769 55.0322 216.97 55.0865 217.147 55.1896C217.535 55.3522 217.851 55.6505 218.035 56.0286C218.073 56.1183 218.084 56.2172 218.067 56.3131C218.049 56.4089 218.004 56.4976 217.937 56.5681C217.87 56.6387 217.783 56.6879 217.688 56.7098C217.593 56.7317 217.494 56.7253 217.403 56.6913Z" fill="#263238"/>
<path d="M210.557 55.9002C210.857 55.8759 211.155 55.8333 211.45 55.7725C211.769 55.7753 212.08 55.6703 212.332 55.4745C212.4 55.3968 212.441 55.2984 212.448 55.195C212.454 55.0916 212.426 54.9889 212.368 54.903C212.23 54.7524 212.054 54.6414 211.858 54.5815C211.663 54.5217 211.455 54.5151 211.256 54.5625C210.837 54.5934 210.444 54.7799 210.155 55.0854C210.095 55.1595 210.056 55.2495 210.045 55.3447C210.034 55.4398 210.051 55.5362 210.093 55.6221C210.136 55.7081 210.202 55.78 210.284 55.8293C210.366 55.8786 210.461 55.9032 210.557 55.9002Z" fill="#263238"/>
<path d="M212.799 63.1104C213.072 63.5434 213.451 63.8993 213.9 64.144C214.148 64.2675 214.429 64.31 214.703 64.2656C215.311 64.1683 215.371 63.6576 215.311 63.1651C215.276 62.9148 215.211 62.6697 215.116 62.4355C214.435 62.9014 213.624 63.1379 212.799 63.1104Z" fill="#263238"/>
<path d="M213.919 64.1439C214.167 64.2673 214.447 64.3099 214.721 64.2655C215.329 64.1682 215.39 63.6575 215.329 63.165C215.018 63.1449 214.709 63.2306 214.453 63.4084C214.197 63.5861 214.009 63.8454 213.919 64.1439Z" fill="#FF9ABB"/>
<path d="M222.066 57.5967C221.421 55.6511 222.564 52.4105 221.598 51.5167C219.518 49.6137 215.189 53.1948 212.24 53.1887C209.292 53.1827 208.447 51.3647 208.982 49.0179C209.517 46.671 211.499 45.1631 214.709 44.7132C217.513 44.4151 220.333 45.1077 222.68 46.671C222.68 46.671 221.968 45.5097 222.242 45.151C222.516 44.7923 223.908 45.9171 224.334 46.367C224.642 46.7851 224.875 47.2543 225.021 47.7532C225.446 47.6489 225.884 47.6059 226.322 47.6255C226.96 47.6901 227.554 47.9788 228 48.4403C228.048 48.6105 227.009 48.7382 226.279 48.7686C226.279 48.7686 227.623 50.5926 227.58 52.1308C227.538 53.6691 225.075 60.9955 224.498 61.0684C223.744 61.1657 222.327 58.3689 222.066 57.5967Z" fill="#263238"/>
<path d="M226.012 48.5801C226.012 48.5801 225.951 48.5801 225.975 48.6166C226.677 49.1954 227.205 49.9571 227.501 50.8175C227.787 51.8603 227.787 52.9607 227.501 54.0034C227.033 56.0281 226.024 57.8642 225.148 59.7247C225.148 59.7794 225.215 59.8281 225.239 59.7734C226.403 57.8626 227.262 55.7828 227.787 53.6082C228.14 51.7599 227.726 49.6258 226.012 48.5801Z" fill="#263238"/>
<path d="M221.719 50.7806C220.852 50.6649 219.971 50.7144 219.123 50.9265C218.337 51.1941 217.588 51.5576 216.891 52.0088C215.296 52.9663 213.462 53.4532 211.602 53.4133V53.4497C213.307 53.6089 215.021 53.2576 216.527 52.4405C217.273 51.9883 218.047 51.5822 218.843 51.2245C219.779 50.9663 220.75 50.8616 221.719 50.9144C221.73 50.9073 221.74 50.8974 221.746 50.8857C221.752 50.874 221.756 50.8609 221.756 50.8475C221.756 50.8341 221.752 50.821 221.746 50.8093C221.74 50.7976 221.73 50.7877 221.719 50.7806Z" fill="#263238"/>
<path d="M220.928 45.8561C219.776 45.2804 218.548 44.8709 217.28 44.6401C216.067 44.375 214.816 44.3215 213.584 44.482C211.468 44.8103 209.504 46.1419 208.993 48.3124C208.712 49.4245 208.855 50.6017 209.395 51.6139C209.398 51.621 209.403 51.6274 209.409 51.6327C209.415 51.638 209.422 51.642 209.43 51.6445C209.438 51.6471 209.446 51.6481 209.454 51.6475C209.462 51.647 209.47 51.6448 209.477 51.6412C209.484 51.6376 209.49 51.6327 209.496 51.6266C209.501 51.6205 209.505 51.6135 209.507 51.6058C209.51 51.5982 209.511 51.5902 209.51 51.5822C209.51 51.5741 209.508 51.5663 209.504 51.5591C209.061 50.6281 208.932 49.5786 209.136 48.5678C209.339 47.5571 209.866 46.6398 210.635 45.9534C212.386 44.4638 214.824 44.3665 216.989 44.7374C218.342 44.9859 219.664 45.3772 220.935 45.9047L220.928 45.8561Z" fill="#263238"/>
<path d="M222.953 60.2906C222.953 60.2906 225.185 57.0743 226.644 57.8586C228.103 58.6429 226.437 63.3306 224.729 63.9386C224.516 64.0363 224.285 64.0899 224.05 64.0961C223.816 64.1023 223.582 64.061 223.364 63.9747C223.146 63.8883 222.948 63.7587 222.781 63.5937C222.614 63.4287 222.483 63.2316 222.394 63.0144L222.953 60.2906Z" fill="#EB9481"/>
<path d="M226.133 59.1895C226.133 59.1895 226.133 59.2259 226.133 59.2381C224.917 59.7245 224.309 60.8432 223.872 61.9984C223.942 61.8782 224.037 61.7744 224.15 61.6943C224.264 61.6141 224.394 61.5595 224.531 61.5341C224.667 61.5087 224.808 61.5131 224.943 61.5471C225.078 61.5811 225.204 61.6438 225.313 61.7309C225.313 61.7309 225.313 61.7978 225.276 61.7917C225.065 61.7259 224.84 61.7268 224.63 61.7943C224.42 61.8618 224.235 61.9925 224.103 62.1687C223.88 62.4664 223.692 62.7888 223.543 63.1293C223.482 63.2327 223.288 63.1779 223.33 63.0563C223.312 61.4938 224.492 59.3536 226.133 59.1895Z" fill="#263238"/>
<path d="M147.641 47.1025L121.673 84.6039L86.6946 92.3377L77.982 97.7185L105.616 134.01L104.588 179.61L147.641 164.544L190.699 179.61L199.412 174.235L189.672 134.01L217.305 97.7185L173.62 84.6039L156.353 41.7217L147.641 47.1025Z" fill="#FFC727"/>
<path opacity="0.1" d="M147.641 47.1025L121.673 84.6039L86.6946 92.3377L77.982 97.7185L105.616 134.01L104.588 179.61L147.641 164.544L190.699 179.61L199.412 174.235L189.672 134.01L217.305 97.7185L173.62 84.6039L156.353 41.7217L147.641 47.1025Z" fill="black"/>
<path d="M156.353 41.7217L130.379 79.2231L86.6944 92.3377L114.328 128.629L113.3 174.235L156.353 159.163L199.411 174.235L198.384 128.629L226.018 92.3377L182.327 79.2231L156.353 41.7217Z" fill="#FFC727"/>
<g opacity="0.2">
<path opacity="0.2" d="M198.853 149.417L198.385 128.629L204.374 120.762L143.665 60.0527L130.386 79.223L129.061 79.6243L198.853 149.417Z" fill="white"/>
<path opacity="0.2" d="M91.8754 90.781L162.355 161.26L182.571 168.337L101.98 87.7471L91.8754 90.781Z" fill="white"/>
<path opacity="0.2" d="M203.261 85.5039L219.136 101.379L224.814 93.9247L222.03 91.1401L203.261 85.5039Z" fill="white"/>
<path opacity="0.2" d="M145.775 57.0063L206.605 117.837L207.165 117.101L146.304 56.2402L145.775 57.0063Z" fill="white"/>
<path opacity="0.2" d="M113.757 154.001L128.629 168.872L129.583 168.538L113.788 152.742L113.757 154.001Z" fill="white"/>
</g>
<path d="M231.441 80.7057C232.949 90.7499 236.7 111.513 232.499 117.757C226.984 125.953 208.55 131.528 203.716 133.188C201.613 133.912 195.989 120.201 197.144 118.128C198.299 116.055 217.439 108.224 218.734 107.008C220.029 105.792 221.701 89.3393 223.385 80.8638C225.507 70.2056 230.164 72.2059 231.441 80.7057Z" fill="#EB9481"/>
<path d="M191.404 123.024C192.158 122.173 191.72 121.772 189.732 122.136C187.744 122.501 180.199 125.608 179.335 122.884C178.472 120.16 189.185 115.923 192.535 115.588C195.885 115.254 201.43 115.85 201.43 115.85C199.509 117.078 195.168 120.537 191.404 123.024Z" fill="#EB9481"/>
<path d="M208.976 130.89C203.443 134.192 196.749 138.642 189.477 138.685C188.669 138.708 187.877 138.46 187.227 137.98C183.969 138.059 182.971 136.545 182.971 136.545C179.931 135.688 179.086 133.991 179.086 133.991C179.086 133.991 175.262 134.04 174.83 131.736C174.356 129.145 179.828 129.583 182.977 127.984C190.207 124.336 199.454 117.101 201.43 115.824L208.976 130.89Z" fill="#EB9481"/>
<path d="M193.246 129.505C191.144 130.598 188.971 131.549 186.741 132.35C184.244 133.073 181.698 133.61 179.122 133.955C179.106 133.955 179.091 133.962 179.079 133.973C179.068 133.985 179.062 134 179.062 134.016C179.062 134.032 179.068 134.048 179.079 134.059C179.091 134.071 179.106 134.077 179.122 134.077C184.164 133.911 189.063 132.36 193.283 129.596C193.392 129.505 193.344 129.42 193.246 129.505Z" fill="#263238"/>
<path d="M196.092 133.511C193.946 134.405 190.164 135.943 182.947 136.466C182.947 136.466 182.917 136.509 182.947 136.509C187.526 136.787 192.092 135.785 196.134 133.615C196.262 133.548 196.232 133.451 196.092 133.511Z" fill="#263238"/>
<path d="M197.6 135.712C193.891 137.086 191.38 137.487 187.264 137.962V138.01C192 137.956 193.715 137.402 197.661 135.834C197.782 135.779 197.722 135.657 197.6 135.712Z" fill="#263238"/>
<path d="M220.607 92.4166L235.333 97.3171C235.333 97.3171 232.59 80.4694 230.383 75.7452C227.903 70.4252 225.726 72.8572 223.774 78.08C221.823 83.3027 220.607 92.4166 220.607 92.4166Z" fill="#DB5555"/>
<path d="M224.2 89.8385C224.383 89.8335 224.561 89.7811 224.717 89.6865C224.865 89.6001 224.988 89.4757 225.073 89.326C225.157 89.1764 225.2 89.007 225.197 88.8353C225.203 88.6086 225.274 88.3885 225.402 88.2017C225.531 88.0149 225.711 87.8696 225.921 87.7834C226.114 87.7097 226.324 87.6867 226.529 87.7166C226.729 87.7166 226.924 87.7591 227.137 87.7956C226.936 87.8321 226.742 87.8503 226.529 87.8746C226.344 87.8756 226.163 87.9215 226 88.0084C225.849 88.0899 225.722 88.2098 225.632 88.3561C225.543 88.5024 225.493 88.6698 225.489 88.8414C225.491 89.0664 225.427 89.2871 225.307 89.4769C225.186 89.6668 225.013 89.8177 224.808 89.9114C224.616 89.9924 224.406 90.0197 224.2 89.9905C223.999 89.9905 223.799 89.9479 223.592 89.9114C223.799 89.881 223.999 89.8628 224.2 89.8385ZM224.449 76.4199C224.671 76.4278 224.886 76.496 225.071 76.6171C225.256 76.7382 225.405 76.9075 225.501 77.107C225.579 77.2995 225.606 77.5089 225.58 77.715C225.58 77.9156 225.538 78.1102 225.501 78.323C225.465 78.1223 225.453 77.9278 225.422 77.715C225.417 77.5332 225.367 77.3556 225.276 77.1982C225.189 77.0488 225.064 76.9254 224.913 76.841C224.762 76.7565 224.592 76.714 224.419 76.7178C224.385 76.7237 224.35 76.7237 224.316 76.7178C224.352 76.6084 224.407 76.5233 224.449 76.4199Z" fill="white"/>
<path d="M222.011 89.9422C223.969 90.307 229.69 92.2465 230.638 92.5566C231.143 92.7207 233.107 93.4625 233.605 93.6206C233.672 93.6206 233.605 93.7361 233.563 93.7178C232.608 93.4138 231.623 93.2071 230.663 92.9092C229.702 92.6113 223.811 90.8542 221.987 90.0151C221.92 89.9847 221.968 89.93 222.011 89.9422Z" fill="#263238"/>
<path d="M232.329 82.3357C232.329 82.2628 232.42 82.2506 232.438 82.3357C232.833 83.7341 233.192 85.1386 233.526 86.5553C233.525 85.7944 233.454 85.0352 233.314 84.2874C233.314 84.2509 233.356 84.2449 233.368 84.2874C233.56 85.1471 233.639 86.0278 233.606 86.9079C233.837 87.8929 234.062 88.8778 234.274 89.8689C234.809 92.386 235.375 94.9031 235.77 97.4445C235.774 97.4756 235.77 97.5071 235.758 97.5361C235.746 97.5651 235.727 97.5906 235.703 97.6101C235.679 97.6296 235.65 97.6426 235.619 97.6476C235.588 97.6527 235.556 97.6498 235.527 97.6391C235.022 97.4506 234.524 97.25 234.031 97.0311C233.982 97.0311 233.995 96.9156 234.031 96.9277C234.469 97.0129 234.901 97.1284 235.332 97.2378C234.724 94.8058 234.293 92.3738 233.776 89.9418C233.259 87.5098 232.76 84.8711 232.329 82.3357Z" fill="#263238"/>
<path d="M221.47 85.8264C221.524 85.0056 221.585 84.1909 221.664 83.3944C221.664 84.0024 221.616 84.6104 221.579 85.2184C221.841 84.045 222.12 82.8776 222.455 81.7285C222.205 83.5525 221.847 85.3218 221.573 87.1215C221.299 88.9212 220.965 90.6418 220.667 92.3989C220.983 92.5631 221.305 92.7151 221.628 92.8671C221.637 92.8743 221.643 92.8842 221.646 92.8953C221.649 92.9063 221.649 92.9181 221.645 92.9289C221.641 92.9397 221.633 92.9489 221.624 92.9552C221.614 92.9616 221.603 92.9648 221.591 92.9643C221.214 92.861 220.837 92.7576 220.454 92.6664C220.41 92.6604 220.369 92.6375 220.341 92.6024C220.313 92.5674 220.299 92.5228 220.302 92.478C220.643 90.2344 221.008 88.0213 221.47 85.8264Z" fill="#263238"/>
<path d="M75.9697 166.185V179.859H73.2702V184.522L68.6068 179.859H29.1294V166.185H75.9697Z" fill="white"/>
<path d="M75.9695 166.184C75.927 170.793 75.8054 175.353 75.7871 179.858L75.9695 179.676H73.27H73.0754V179.876V184.54L73.4585 184.376L68.8255 179.694L68.7465 179.621H68.637L29.1596 179.578L29.4575 179.876V166.202L29.1839 166.476C42.6754 166.476 62.3199 166.312 75.9999 166.202L75.9695 166.184ZM75.9695 166.184C62.1314 166.111 42.7849 165.898 29.1535 165.911H28.8799V166.184V179.858V180.156H29.1778L68.6553 180.12L68.4729 180.041L73.1605 184.68L73.5497 185.063V184.522V179.858L73.349 180.059H76.0485H76.231V179.876C76.231 175.268 76.0911 170.708 76.0546 166.202L75.9695 166.184Z" fill="#263238"/>
<path d="M68.9839 169.814L67.9199 171.401L66.0776 171.924L67.2572 173.426L67.1903 175.341L68.9839 174.678L70.7836 175.341L70.7106 173.426L71.8901 171.924L70.0479 171.401L68.9839 169.814Z" fill="#FFC727"/>
<path d="M60.7635 169.814L59.6995 171.401L57.8633 171.924L59.0428 173.426L58.9698 175.341L60.7635 174.678L62.5631 175.341L62.4902 173.426L63.6758 171.924L61.8335 171.401L60.7635 169.814Z" fill="#FFC727"/>
<path d="M52.5498 169.814L51.4858 171.401L49.6436 171.924L50.8231 173.426L50.7562 175.341L52.5498 174.678L54.3434 175.341L54.2705 173.426L55.4561 171.924L53.6138 171.401L52.5498 169.814Z" fill="#FFC727"/>
<path d="M44.3291 169.814L43.2651 171.401L41.4229 171.924L42.6085 173.426L42.5355 175.341L44.3291 174.678L46.1288 175.341L46.0558 173.426L47.2354 171.924L45.3992 171.401L44.3291 169.814Z" fill="#FFC727"/>
<path d="M36.1148 174.678V169.814L37.1788 171.401L39.021 171.924L37.8354 173.426L37.9084 175.341L36.1148 174.678Z" fill="#FFC727"/>
<path d="M36.1152 169.814L34.9965 171.365C34.5709 171.426 33.744 171.693 33.1725 171.827L33.0327 171.863L33.1239 171.985L34.2791 173.511V173.426L34.1939 175.335V175.542L34.3885 175.469L36.2125 174.824H36.1092L37.9332 175.469L38.1338 175.542V175.335L38.0548 173.426L38.0244 173.511L39.1857 171.985L39.2769 171.863L39.1309 171.827C38.5716 171.693 37.7386 171.42 37.3069 171.365L36.1943 169.814H36.1152ZM36.1152 169.814L37.1306 171.456C37.7386 171.693 38.377 171.845 38.9911 172.064L38.9424 171.906L37.7264 173.39C37.7183 173.402 37.714 173.417 37.714 173.432C37.714 173.447 37.7183 173.462 37.7264 173.475L37.7872 175.39L37.9757 175.25L36.1821 174.581C36.1274 174.581 36.1335 174.581 36.0788 174.581L34.2852 175.25L34.4736 175.39L34.5344 173.475C34.5344 173.426 34.5344 173.426 34.5344 173.39L33.3184 171.906L33.2637 172.064C33.8717 171.863 34.5283 171.711 35.1242 171.456L36.1456 169.839L36.1152 169.814Z" fill="#263238"/>
<path d="M206.702 23.4502V46.7244H204.008V51.3878L199.345 46.7244H151.817V23.4502H206.702Z" fill="white"/>
<path d="M206.72 23.4503C206.641 30.3146 206.586 39.9818 206.549 46.7246L206.72 46.5543H203.844V46.7306V51.394L204.184 51.2542L199.539 46.5786L199.472 46.5118L163.734 46.4327H151.854L152.127 46.7002L152.073 23.426L151.854 23.651C165.534 23.651 193.058 23.5111 206.738 23.426L206.72 23.4503ZM206.72 23.4503C193.046 23.3713 165.509 23.2436 151.836 23.2314H151.617V23.4503L151.562 46.7246V46.9982H151.836C165.09 47.0651 185.957 46.9982 199.363 46.9495L199.205 46.8826L203.886 51.5278L204.221 51.8622V51.3879V46.7246L204.045 46.907H206.738H206.908C206.902 40.0548 206.72 30.3998 206.72 23.4503Z" fill="#263238"/>
<path d="M187.835 35.1174C187.835 36.4282 188.224 37.7095 188.952 38.7993C189.68 39.8891 190.715 40.7386 191.926 41.2402C193.137 41.7418 194.47 41.873 195.755 41.6173C197.041 41.3616 198.221 40.7304 199.148 39.8036C200.075 38.8767 200.706 37.6959 200.962 36.4103C201.218 35.1248 201.086 33.7923 200.585 32.5813C200.083 31.3704 199.234 30.3353 198.144 29.6071C197.054 28.8789 195.773 28.4902 194.462 28.4902C192.705 28.4902 191.019 29.1885 189.776 30.4313C188.533 31.6741 187.835 33.3598 187.835 35.1174Z" fill="#EBEBEB"/>
<path d="M194.377 36.248C193.226 36.248 192.292 35.3143 192.292 34.1626C192.292 33.0108 193.226 32.0771 194.377 32.0771C195.529 32.0771 196.463 33.0108 196.463 34.1626C196.463 35.3143 195.529 36.248 194.377 36.248Z" fill="white"/>
<path d="M197.976 39.9146V40.7719C197.367 41.1527 196.7 41.432 196 41.5988C195.118 41.8177 194.2 41.8573 193.302 41.7152C192.404 41.5732 191.544 41.2524 190.772 40.7719V39.9146C190.752 39.4291 190.83 38.9445 191.002 38.4901C191.174 38.0356 191.436 37.6206 191.773 37.27C192.109 36.9194 192.513 36.6405 192.96 36.4499C193.407 36.2594 193.888 36.1611 194.374 36.1611C194.86 36.1611 195.341 36.2594 195.788 36.4499C196.235 36.6405 196.639 36.9194 196.975 37.27C197.312 37.6206 197.574 38.0356 197.746 38.4901C197.918 38.9445 197.996 39.4291 197.976 39.9146Z" fill="white"/>
<path d="M158.287 31.0928H183.142V31.4697H158.287V31.0928Z" fill="#EBEBEB"/>
<path d="M158.287 33.6709H183.142V34.0479H158.287V33.6709Z" fill="#EBEBEB"/>
<path d="M158.287 36.248H183.142V36.625H158.287V36.248Z" fill="#EBEBEB"/>
<path d="M170.824 38.8262H183.142V39.2031H170.824V38.8262Z" fill="#EBEBEB"/>
</svg>
