<svg width="24" height="24" viewBox="0 0 24 24" fill="none" xmlns="http://www.w3.org/2000/svg">
<g id="Iconly/Light/Filter">
<g id="Filter">
<path id="Stroke 1" d="M10.3301 16.593H4.02942" stroke="#130F26" stroke-width="1.5" stroke-linecap="round" stroke-linejoin="round"/>
<path id="Stroke 3" d="M13.1405 6.89969H19.4412" stroke="#130F26" stroke-width="1.5" stroke-linecap="round" stroke-linejoin="round"/>
<path id="Stroke 5" fill-rule="evenodd" clip-rule="evenodd" d="M8.72629 6.84625C8.72629 5.5506 7.66813 4.5 6.36314 4.5C5.05816 4.5 4 5.5506 4 6.84625C4 8.14191 5.05816 9.19251 6.36314 9.19251C7.66813 9.19251 8.72629 8.14191 8.72629 6.84625Z" stroke="#130F26" stroke-width="1.5" stroke-linecap="round" stroke-linejoin="round"/>
<path id="Stroke 7" fill-rule="evenodd" clip-rule="evenodd" d="M20 16.5533C20 15.2576 18.9426 14.207 17.6376 14.207C16.3318 14.207 15.2737 15.2576 15.2737 16.5533C15.2737 17.8489 16.3318 18.8995 17.6376 18.8995C18.9426 18.8995 20 17.8489 20 16.5533Z" stroke="#130F26" stroke-width="1.5" stroke-linecap="round" stroke-linejoin="round"/>
</g>
</g>
</svg>
