<svg width="24" height="24" viewBox="0 0 24 24" fill="none" xmlns="http://www.w3.org/2000/svg">
<path fill-rule="evenodd" clip-rule="evenodd" d="M9.03696 8.9729C9.43981 6.51054 10.1607 4.01112 10.5117 2.86853C10.9958 2.79028 11.4929 2.74954 12 2.74954C12.5071 2.74954 13.0042 2.79028 13.4883 2.86853C13.8393 4.01112 14.5602 6.51054 14.963 8.9729C13.9175 9.14168 12.8962 9.24954 12 9.24954C11.1038 9.24954 10.0825 9.14168 9.03696 8.9729ZM16.4383 8.70036C16.1049 6.67545 15.5709 4.64654 15.1856 3.31252C17.3675 4.11298 19.1653 5.71296 20.2225 7.75791C19.2361 8.04186 17.878 8.40381 16.4383 8.70036ZM16.6435 10.1895C18.2515 9.86223 19.7612 9.45474 20.8034 9.15134C21.0932 10.0478 21.25 11.0048 21.25 11.9995C21.25 12.5066 21.2093 13.0037 21.131 13.4879C20.2243 13.7664 18.4586 14.2793 16.5337 14.6806C16.6657 13.7589 16.75 12.842 16.75 11.9995C16.75 11.4222 16.7104 10.8112 16.6435 10.1895ZM16.265 16.2646C17.9522 15.9382 19.5648 15.5092 20.687 15.1851C19.7532 17.7308 17.7313 19.7527 15.1856 20.6866C15.5097 19.5643 15.9387 17.9517 16.265 16.2646ZM14.6811 16.5332C14.2798 18.4581 13.7668 20.2239 13.4883 21.1305C13.0042 21.2088 12.5071 21.2495 12 21.2495C11.4929 21.2495 10.9958 21.2088 10.5117 21.1305C10.2332 20.2239 9.72025 18.4581 9.31893 16.5332C10.2407 16.6652 11.1576 16.7495 12 16.7495C12.8424 16.7495 13.7593 16.6652 14.6811 16.5332ZM7.73495 16.2646C8.0613 17.9517 8.49031 19.5643 8.81445 20.6866C6.26873 19.7527 4.24683 17.7308 3.31296 15.1851C4.4352 15.5092 6.04784 15.9382 7.73495 16.2646ZM7.46634 14.6806C5.54141 14.2793 3.77568 13.7664 2.86899 13.4879C2.79073 13.0037 2.75 12.5066 2.75 11.9995C2.75 11.0048 2.90677 10.0478 3.19658 9.15134C4.23878 9.45474 5.74846 9.86223 7.35654 10.1895C7.28957 10.8112 7.25 11.4222 7.25 11.9995C7.25 12.842 7.33431 13.7589 7.46634 14.6806ZM7.56166 8.70036C6.12204 8.40382 4.76388 8.04186 3.77748 7.75791C4.83467 5.71296 6.63247 4.11298 8.81443 3.31252C8.42911 4.64654 7.89509 6.67545 7.56166 8.70036ZM8.75 11.9995C8.75 11.5187 8.78109 11.0004 8.83638 10.4599C9.91915 10.6334 11.0112 10.7495 12 10.7495C12.9888 10.7495 14.0809 10.6334 15.1636 10.4599C15.2189 11.0004 15.25 11.5187 15.25 11.9995C15.25 12.8977 15.1416 13.9221 14.9719 14.9715C13.9226 15.1412 12.8981 15.2495 12 15.2495C11.1019 15.2495 10.0774 15.1412 9.02808 14.9715C8.85836 13.9221 8.75 12.8977 8.75 11.9995ZM12 1.24954C11.2383 1.24954 10.4943 1.32888 9.77616 1.48C6.25736 2.22042 3.37486 4.67944 2.04429 7.93715C1.53198 9.19147 1.25 10.5635 1.25 11.9995C1.25 12.7612 1.32934 13.5052 1.48045 14.2234C2.35435 18.3765 5.62304 21.6452 9.77616 22.5191C10.4943 22.6702 11.2383 22.7495 12 22.7495C12.7617 22.7495 13.5057 22.6702 14.2238 22.5191C18.377 21.6452 21.6456 18.3765 22.5195 14.2234C22.6707 13.5052 22.75 12.7612 22.75 11.9995C22.75 10.5646 22.4685 9.19361 21.9569 7.94009C20.6269 4.68092 17.7437 2.22065 14.2238 1.48C13.5057 1.32888 12.7617 1.24954 12 1.24954Z" fill="#4679EC"/>
</svg>
