<svg width="22" height="22" viewBox="0 0 22 22" fill="none" xmlns="http://www.w3.org/2000/svg">
<path fill-rule="evenodd" clip-rule="evenodd" d="M11.4342 0.394127C11.6072 0.238841 11.8361 0.157445 12.0703 0.167886C17.022 0.316118 21.1604 3.91078 21.9104 8.71517C21.9152 8.74386 21.9152 8.77312 21.9104 8.8018C21.9266 9.02912 21.8497 9.25339 21.6969 9.425C21.5441 9.5966 21.3279 9.7014 21.0961 9.71621L12.7767 10.2649C12.5016 10.2892 12.2287 10.1987 12.0251 10.0155C11.8216 9.83227 11.7062 9.57334 11.7073 9.30232L11.1481 1.13042V0.995664C11.1583 0.765833 11.2612 0.549412 11.4342 0.394127ZM10.8634 12.4017L18.0742 11.9397L18.1233 11.959C18.4329 11.964 18.7278 12.0896 18.9431 12.308C19.1583 12.5264 19.2763 12.8198 19.2711 13.1236C18.987 17.2642 15.9512 20.7239 11.8201 21.6151C7.68889 22.5064 3.45393 20.6154 1.4255 16.9738C0.829056 15.9249 0.452148 14.7697 0.316895 13.576C0.264438 13.2223 0.24147 12.865 0.248221 12.5076C0.261893 8.10471 3.39662 4.30437 7.78281 3.37318C8.31379 3.27379 8.84616 3.53891 9.07782 4.01808C9.13549 4.10503 9.18164 4.19883 9.21517 4.29721C9.29739 5.56638 9.38267 6.82352 9.4676 8.07536C9.53467 9.06409 9.60152 10.0495 9.66646 11.0349C9.66311 11.2671 9.69959 11.4981 9.77438 11.7183C9.95043 12.1517 10.3885 12.4266 10.8634 12.4017Z" fill="white"/>
</svg>
