<svg width="23" height="24" viewBox="0 0 23 24" fill="none" xmlns="http://www.w3.org/2000/svg">
<path fill-rule="evenodd" clip-rule="evenodd" d="M17.2177 14.046C17.9487 14.046 18.5622 14.6493 18.4505 15.3711C17.7948 19.6178 14.1593 22.7708 9.77468 22.7708C4.92363 22.7708 0.991699 18.8389 0.991699 13.989C0.991699 9.99322 4.02731 6.27111 7.44494 5.42953C8.17933 5.24822 8.93196 5.7648 8.93196 6.52085C8.93196 11.6433 9.10415 12.9684 10.0769 13.6891C11.0496 14.4098 12.1934 14.046 17.2177 14.046Z" stroke="white" stroke-width="1.41818" stroke-linecap="round" stroke-linejoin="round"/>
<path fill-rule="evenodd" clip-rule="evenodd" d="M22.0003 9.78055C22.0585 6.4895 18.0159 1.18459 13.0896 1.27582C12.7065 1.28266 12.3997 1.60196 12.3826 1.98398C12.2583 4.69003 12.4259 8.19661 12.5194 9.78626C12.5479 10.2812 12.9368 10.67 13.4306 10.6985C15.0647 10.792 18.699 10.9198 21.3663 10.5161C21.7289 10.4613 21.9946 10.1466 22.0003 9.78055Z" stroke="white" stroke-width="1.41818" stroke-linecap="round" stroke-linejoin="round"/>
</svg>
