<svg width="22" height="22" viewBox="0 0 22 22" fill="none" xmlns="http://www.w3.org/2000/svg">
<path fill-rule="evenodd" clip-rule="evenodd" d="M11.4347 0.394127C11.6077 0.238841 11.8366 0.157445 12.0708 0.167886C17.0225 0.316118 21.1609 3.91078 21.9109 8.71517C21.9157 8.74386 21.9157 8.77312 21.9109 8.8018C21.927 9.02912 21.8502 9.25339 21.6974 9.425C21.5446 9.5966 21.3284 9.7014 21.0966 9.71621L12.7772 10.2649C12.502 10.2892 12.2292 10.1987 12.0256 10.0155C11.8221 9.83227 11.7067 9.57334 11.7078 9.30232L11.1486 1.13042V0.995664C11.1588 0.765833 11.2617 0.549412 11.4347 0.394127ZM10.8638 12.4017L18.0747 11.9397L18.1237 11.959C18.4334 11.964 18.7283 12.0896 18.9436 12.308C19.1588 12.5264 19.2768 12.8198 19.2716 13.1236C18.9874 17.2642 15.9517 20.7239 11.8206 21.6151C7.68938 22.5064 3.45441 20.6154 1.42599 16.9738C0.829544 15.9249 0.452636 14.7697 0.317384 13.576C0.264926 13.2223 0.241958 12.865 0.248709 12.5076C0.262381 8.10471 3.39711 4.30437 7.7833 3.37318C8.31428 3.27379 8.84664 3.53891 9.07831 4.01808C9.13598 4.10503 9.18213 4.19883 9.21566 4.29721C9.29788 5.56638 9.38316 6.82352 9.46808 8.07536C9.53516 9.06409 9.60201 10.0495 9.66695 11.0349C9.6636 11.2671 9.70008 11.4981 9.77486 11.7183C9.95092 12.1517 10.389 12.4266 10.8638 12.4017Z" fill="#4679EC"/>
</svg>
