<svg width="27" height="26" viewBox="0 0 27 26" fill="none" xmlns="http://www.w3.org/2000/svg">
<path fill-rule="evenodd" clip-rule="evenodd" d="M18.799 15.0469C19.53 15.0469 20.1435 15.6502 20.0318 16.372C19.3761 20.6187 15.7406 23.7718 11.356 23.7718C6.50493 23.7718 2.573 19.8398 2.573 14.9899C2.573 10.9941 5.60861 7.27203 9.02624 6.43045C9.76063 6.24913 10.5133 6.76571 10.5133 7.52176C10.5133 12.6442 10.6855 13.9693 11.6582 14.69C12.6309 15.4107 13.7747 15.0469 18.799 15.0469Z" stroke="#60739F" stroke-width="1.41818" stroke-linecap="round" stroke-linejoin="round"/>
<path fill-rule="evenodd" clip-rule="evenodd" d="M23.5816 10.781C23.6398 7.48999 19.5972 2.18508 14.6709 2.27631C14.2877 2.28315 13.981 2.60245 13.9639 2.98447C13.8396 5.69052 14.0072 9.1971 14.1007 10.7867C14.1292 11.2817 14.5181 11.6705 15.0119 11.699C16.646 11.7925 20.2803 11.9203 22.9476 11.5166C23.3102 11.4618 23.5759 11.1471 23.5816 10.781Z" stroke="#60739F" stroke-width="1.41818" stroke-linecap="round" stroke-linejoin="round"/>
</svg>
