<svg width="29" height="28" viewBox="0 0 29 28" fill="none" xmlns="http://www.w3.org/2000/svg">
<path d="M22.2935 12.9846H6.24236C4.97596 12.9846 3.94934 14.0112 3.94934 15.2776V23.3032C3.94934 24.5696 4.97596 25.5962 6.24236 25.5962H22.2935C23.5599 25.5962 24.5866 24.5696 24.5866 23.3032V15.2776C24.5866 14.0112 23.5599 12.9846 22.2935 12.9846Z" stroke="white" stroke-width="1.37581" stroke-linecap="round" stroke-linejoin="round"/>
<path d="M8.53577 12.9846V8.39853C8.53577 6.87816 9.13973 5.42006 10.2148 4.345C11.2899 3.26993 12.748 2.66597 14.2683 2.66597C15.7887 2.66597 17.2468 3.26993 18.3219 4.345C19.3969 5.42006 20.0009 6.87816 20.0009 8.39853V12.9846" stroke="white" stroke-width="1.37581" stroke-linecap="round" stroke-linejoin="round"/>
</svg>
