<svg width="18" height="20" viewBox="0 0 18 20" fill="none" xmlns="http://www.w3.org/2000/svg">
<path d="M8.04948 13.1042C8.04948 12.4713 8.56249 11.9583 9.19531 11.9583C9.82814 11.9583 10.3411 12.4713 10.3411 13.1042C10.3411 13.737 9.82814 14.25 9.19531 14.25C8.56249 14.25 8.04948 13.737 8.04948 13.1042Z" fill="#B8CCFA"/>
<path fill-rule="evenodd" clip-rule="evenodd" d="M9.19531 0.5C6.28431 0.5 3.92448 2.85983 3.92448 5.77083V6.79174C3.92448 6.85298 3.93249 6.91235 3.94751 6.96886C2.63109 7.45257 1.605 8.51458 1.16964 9.85451C0.945312 10.5449 0.945312 11.398 0.945312 13.1042C0.945312 14.8103 0.945312 15.6634 1.16964 16.3538C1.62301 17.7492 2.71698 18.8431 4.11232 19.2965C4.80271 19.5208 5.6558 19.5208 7.36196 19.5208H11.0286C12.7348 19.5208 13.5879 19.5208 14.2783 19.2965C15.6736 18.8431 16.7676 17.7492 17.221 16.3538C17.4453 15.6634 17.4453 14.8103 17.4453 13.1042C17.4453 11.398 17.4453 10.5449 17.221 9.85451C16.7856 8.51458 15.7595 7.45257 14.4431 6.96886C14.4581 6.91235 14.4661 6.85298 14.4661 6.79174V5.77083C14.4661 2.85983 12.1063 0.5 9.19531 0.5ZM11.0286 6.6875C11.9135 6.6875 12.5689 6.6875 13.0911 6.71879V5.77083C13.0911 3.61922 11.3469 1.875 9.19531 1.875C7.0437 1.875 5.29948 3.61922 5.29948 5.77083V6.71879C5.82173 6.6875 6.47713 6.6875 7.36198 6.6875H11.0286ZM6.67448 13.1042C6.67448 11.7119 7.80309 10.5833 9.19531 10.5833C10.5875 10.5833 11.7161 11.7119 11.7161 13.1042C11.7161 14.4964 10.5875 15.625 9.19531 15.625C7.80309 15.625 6.67448 14.4964 6.67448 13.1042Z" fill="#B8CCFA"/>
</svg>
