<svg width="18" height="16" viewBox="0 0 18 16" fill="none" xmlns="http://www.w3.org/2000/svg">
<path d="M1.63212 4.12188C1.4598 4.82362 1.33393 5.72983 1.15884 6.99051C0.759013 9.86926 0.5591 11.3086 0.998668 12.4265C1.38456 13.408 2.09708 14.2263 3.01607 14.7435C4.06288 15.3327 5.51606 15.3327 8.42242 15.3327H9.91129C12.8177 15.3327 14.2709 15.3327 15.3177 14.7435C16.2367 14.2263 16.9492 13.408 17.3351 12.4265C17.7746 11.3086 17.5747 9.86926 17.1749 6.99051C16.9847 5.62136 16.8526 4.67029 16.656 3.94518L15.9865 4.61475C14.4902 6.11101 13.3177 7.28359 12.2798 8.07549C11.2174 8.88603 10.2157 9.36224 9.05573 9.36224C7.89573 9.36224 6.89406 8.88604 5.8317 8.07549C4.7938 7.28359 3.62123 6.11101 2.12498 4.61475L1.63212 4.12188Z" fill="#B8CCFA"/>
<path d="M2.19347 2.73869L3.06005 3.60527C4.60158 5.14679 5.70984 6.253 6.66575 6.98233C7.6058 7.69956 8.31725 7.98724 9.05573 7.98724C9.79421 7.98724 10.5057 7.69956 11.4457 6.98233C12.4016 6.253 13.5099 5.14679 15.0514 3.60527L16.0503 2.60638C15.5847 1.94664 14.9521 1.42051 14.2157 1.08295C13.3062 0.666016 12.1746 0.666016 9.91129 0.666016H8.42245C6.15915 0.666016 5.0275 0.666016 4.11802 1.08295C3.33306 1.44279 2.66608 2.01688 2.19347 2.73869Z" fill="#B8CCFA"/>
</svg>
