<svg width="1416" height="765" viewBox="0 0 1416 765" fill="none" xmlns="http://www.w3.org/2000/svg">
<path d="M1415.1 7H1408.1V0H1407V7H1400V8H1407V15H1408.1V8H1415.1V7Z" fill="#E0F3FF"/>
<path d="M1415.1 57H1408.1V50H1407V57H1400V58H1407V65H1408.1V58H1415.1V57Z" fill="#E0F3FF"/>
<path d="M1415.1 107H1408.1V100H1407V107H1400V108H1407V115H1408.1V108H1415.1V107Z" fill="#E0F3FF"/>
<path d="M1415.1 157H1408.1V150H1407V157H1400V158H1407V165H1408.1V158H1415.1V157Z" fill="#E0F3FF"/>
<path d="M1415.1 207H1408.1V200H1407V207H1400V208H1407V215H1408.1V208H1415.1V207Z" fill="#E0F3FF"/>
<path d="M1415.1 257H1408.1V250H1407V257H1400V258H1407V265H1408.1V258H1415.1V257Z" fill="#E0F3FF"/>
<path d="M1415.1 307H1408.1V300H1407V307H1400V308H1407V315H1408.1V308H1415.1V307Z" fill="#E0F3FF"/>
<path d="M1415.1 357H1408.1V350H1407V357H1400V358H1407V365H1408.1V358H1415.1V357Z" fill="#E0F3FF"/>
<path d="M1415.1 407H1408.1V400H1407V407H1400V408H1407V415H1408.1V408H1415.1V407Z" fill="#E0F3FF"/>
<path d="M1415.1 457H1408.1V450H1407V457H1400V458H1407V465H1408.1V458H1415.1V457Z" fill="#E0F3FF"/>
<path d="M1415.1 507H1408.1V500H1407V507H1400V508H1407V515H1408.1V508H1415.1V507Z" fill="#E0F3FF"/>
<path d="M1415.1 557H1408.1V550H1407V557H1400V558H1407V565H1408.1V558H1415.1V557Z" fill="#E0F3FF"/>
<path d="M1415.1 607H1408.1V600H1407V607H1400V608H1407V615H1408.1V608H1415.1V607Z" fill="#E0F3FF"/>
<path d="M1415.1 657H1408.1V650H1407V657H1400V658H1407V665H1408.1V658H1415.1V657Z" fill="#E0F3FF"/>
<path d="M1415.1 707H1408.1V700H1407V707H1400V708H1407V715H1408.1V708H1415.1V707Z" fill="#E0F3FF"/>
<path d="M1415.1 757H1408.1V750H1407V757H1400V758H1407V765H1408.1V758H1415.1V757Z" fill="#E0F3FF"/>
<path d="M1365.1 7H1358.1V0H1357V7H1350V8H1357V15H1358.1V8H1365.1V7Z" fill="#E0F3FF"/>
<path d="M1365.1 57H1358.1V50H1357V57H1350V58H1357V65H1358.1V58H1365.1V57Z" fill="#E0F3FF"/>
<path d="M1365.1 107H1358.1V100H1357V107H1350V108H1357V115H1358.1V108H1365.1V107Z" fill="#E0F3FF"/>
<path d="M1365.1 157H1358.1V150H1357V157H1350V158H1357V165H1358.1V158H1365.1V157Z" fill="#E0F3FF"/>
<path d="M1365.1 207H1358.1V200H1357V207H1350V208H1357V215H1358.1V208H1365.1V207Z" fill="#E0F3FF"/>
<path d="M1365.1 257H1358.1V250H1357V257H1350V258H1357V265H1358.1V258H1365.1V257Z" fill="#E0F3FF"/>
<path d="M1365.1 307H1358.1V300H1357V307H1350V308H1357V315H1358.1V308H1365.1V307Z" fill="#E0F3FF"/>
<path d="M1365.1 357H1358.1V350H1357V357H1350V358H1357V365H1358.1V358H1365.1V357Z" fill="#E0F3FF"/>
<path d="M1365.1 407H1358.1V400H1357V407H1350V408H1357V415H1358.1V408H1365.1V407Z" fill="#E0F3FF"/>
<path d="M1365.1 457H1358.1V450H1357V457H1350V458H1357V465H1358.1V458H1365.1V457Z" fill="#E0F3FF"/>
<path d="M1365.1 507H1358.1V500H1357V507H1350V508H1357V515H1358.1V508H1365.1V507Z" fill="#E0F3FF"/>
<path d="M1365.1 557H1358.1V550H1357V557H1350V558H1357V565H1358.1V558H1365.1V557Z" fill="#E0F3FF"/>
<path d="M1365.1 607H1358.1V600H1357V607H1350V608H1357V615H1358.1V608H1365.1V607Z" fill="#E0F3FF"/>
<path d="M1365.1 657H1358.1V650H1357V657H1350V658H1357V665H1358.1V658H1365.1V657Z" fill="#E0F3FF"/>
<path d="M1365.1 707H1358.1V700H1357V707H1350V708H1357V715H1358.1V708H1365.1V707Z" fill="#E0F3FF"/>
<path d="M1365.1 757H1358.1V750H1357V757H1350V758H1357V765H1358.1V758H1365.1V757Z" fill="#E0F3FF"/>
<path d="M1315.1 7H1308.1V0H1307V7H1300V8H1307V15H1308.1V8H1315.1V7Z" fill="#E0F3FF"/>
<path d="M1315.1 57H1308.1V50H1307V57H1300V58H1307V65H1308.1V58H1315.1V57Z" fill="#E0F3FF"/>
<path d="M1315.1 107H1308.1V100H1307V107H1300V108H1307V115H1308.1V108H1315.1V107Z" fill="#E0F3FF"/>
<path d="M1315.1 157H1308.1V150H1307V157H1300V158H1307V165H1308.1V158H1315.1V157Z" fill="#E0F3FF"/>
<path d="M1315.1 207H1308.1V200H1307V207H1300V208H1307V215H1308.1V208H1315.1V207Z" fill="#E0F3FF"/>
<path d="M1315.1 257H1308.1V250H1307V257H1300V258H1307V265H1308.1V258H1315.1V257Z" fill="#E0F3FF"/>
<path d="M1315.1 307H1308.1V300H1307V307H1300V308H1307V315H1308.1V308H1315.1V307Z" fill="#E0F3FF"/>
<path d="M1315.1 357H1308.1V350H1307V357H1300V358H1307V365H1308.1V358H1315.1V357Z" fill="#E0F3FF"/>
<path d="M1315.1 407H1308.1V400H1307V407H1300V408H1307V415H1308.1V408H1315.1V407Z" fill="#E0F3FF"/>
<path d="M1315.1 457H1308.1V450H1307V457H1300V458H1307V465H1308.1V458H1315.1V457Z" fill="#E0F3FF"/>
<path d="M1315.1 507H1308.1V500H1307V507H1300V508H1307V515H1308.1V508H1315.1V507Z" fill="#E0F3FF"/>
<path d="M1315.1 557H1308.1V550H1307V557H1300V558H1307V565H1308.1V558H1315.1V557Z" fill="#E0F3FF"/>
<path d="M1315.1 607H1308.1V600H1307V607H1300V608H1307V615H1308.1V608H1315.1V607Z" fill="#E0F3FF"/>
<path d="M1315.1 657H1308.1V650H1307V657H1300V658H1307V665H1308.1V658H1315.1V657Z" fill="#E0F3FF"/>
<path d="M1315.1 707H1308.1V700H1307V707H1300V708H1307V715H1308.1V708H1315.1V707Z" fill="#E0F3FF"/>
<path d="M1315.1 757H1308.1V750H1307V757H1300V758H1307V765H1308.1V758H1315.1V757Z" fill="#E0F3FF"/>
<path d="M1265.1 7H1258.1V0H1257V7H1250V8H1257V15H1258.1V8H1265.1V7Z" fill="#E0F3FF"/>
<path d="M1265.1 57H1258.1V50H1257V57H1250V58H1257V65H1258.1V58H1265.1V57Z" fill="#E0F3FF"/>
<path d="M1265.1 107H1258.1V100H1257V107H1250V108H1257V115H1258.1V108H1265.1V107Z" fill="#E0F3FF"/>
<path d="M1265.1 157H1258.1V150H1257V157H1250V158H1257V165H1258.1V158H1265.1V157Z" fill="#E0F3FF"/>
<path d="M1265.1 207H1258.1V200H1257V207H1250V208H1257V215H1258.1V208H1265.1V207Z" fill="#E0F3FF"/>
<path d="M1265.1 257H1258.1V250H1257V257H1250V258H1257V265H1258.1V258H1265.1V257Z" fill="#E0F3FF"/>
<path d="M1265.1 307H1258.1V300H1257V307H1250V308H1257V315H1258.1V308H1265.1V307Z" fill="#E0F3FF"/>
<path d="M1265.1 357H1258.1V350H1257V357H1250V358H1257V365H1258.1V358H1265.1V357Z" fill="#E0F3FF"/>
<path d="M1265.1 407H1258.1V400H1257V407H1250V408H1257V415H1258.1V408H1265.1V407Z" fill="#E0F3FF"/>
<path d="M1265.1 457H1258.1V450H1257V457H1250V458H1257V465H1258.1V458H1265.1V457Z" fill="#E0F3FF"/>
<path d="M1265.1 507H1258.1V500H1257V507H1250V508H1257V515H1258.1V508H1265.1V507Z" fill="#E0F3FF"/>
<path d="M1265.1 557H1258.1V550H1257V557H1250V558H1257V565H1258.1V558H1265.1V557Z" fill="#E0F3FF"/>
<path d="M1265.1 607H1258.1V600H1257V607H1250V608H1257V615H1258.1V608H1265.1V607Z" fill="#E0F3FF"/>
<path d="M1265.1 657H1258.1V650H1257V657H1250V658H1257V665H1258.1V658H1265.1V657Z" fill="#E0F3FF"/>
<path d="M1265.1 707H1258.1V700H1257V707H1250V708H1257V715H1258.1V708H1265.1V707Z" fill="#E0F3FF"/>
<path d="M1265.1 757H1258.1V750H1257V757H1250V758H1257V765H1258.1V758H1265.1V757Z" fill="#E0F3FF"/>
<path d="M1215.1 7H1208.1V0H1207V7H1200V8H1207V15H1208.1V8H1215.1V7Z" fill="#E0F3FF"/>
<path d="M1215.1 57H1208.1V50H1207V57H1200V58H1207V65H1208.1V58H1215.1V57Z" fill="#E0F3FF"/>
<path d="M1215.1 107H1208.1V100H1207V107H1200V108H1207V115H1208.1V108H1215.1V107Z" fill="#E0F3FF"/>
<path d="M1215.1 157H1208.1V150H1207V157H1200V158H1207V165H1208.1V158H1215.1V157Z" fill="#E0F3FF"/>
<path d="M1215.1 207H1208.1V200H1207V207H1200V208H1207V215H1208.1V208H1215.1V207Z" fill="#E0F3FF"/>
<path d="M1215.1 257H1208.1V250H1207V257H1200V258H1207V265H1208.1V258H1215.1V257Z" fill="#E0F3FF"/>
<path d="M1215.1 307H1208.1V300H1207V307H1200V308H1207V315H1208.1V308H1215.1V307Z" fill="#E0F3FF"/>
<path d="M1215.1 357H1208.1V350H1207V357H1200V358H1207V365H1208.1V358H1215.1V357Z" fill="#E0F3FF"/>
<path d="M1215.1 407H1208.1V400H1207V407H1200V408H1207V415H1208.1V408H1215.1V407Z" fill="#E0F3FF"/>
<path d="M1215.1 457H1208.1V450H1207V457H1200V458H1207V465H1208.1V458H1215.1V457Z" fill="#E0F3FF"/>
<path d="M1215.1 507H1208.1V500H1207V507H1200V508H1207V515H1208.1V508H1215.1V507Z" fill="#E0F3FF"/>
<path d="M1215.1 557H1208.1V550H1207V557H1200V558H1207V565H1208.1V558H1215.1V557Z" fill="#E0F3FF"/>
<path d="M1215.1 607H1208.1V600H1207V607H1200V608H1207V615H1208.1V608H1215.1V607Z" fill="#E0F3FF"/>
<path d="M1215.1 657H1208.1V650H1207V657H1200V658H1207V665H1208.1V658H1215.1V657Z" fill="#E0F3FF"/>
<path d="M1215.1 707H1208.1V700H1207V707H1200V708H1207V715H1208.1V708H1215.1V707Z" fill="#E0F3FF"/>
<path d="M1215.1 757H1208.1V750H1207V757H1200V758H1207V765H1208.1V758H1215.1V757Z" fill="#E0F3FF"/>
<path d="M1165.1 7H1158.1V0H1157V7H1150V8H1157V15H1158.1V8H1165.1V7Z" fill="#E0F3FF"/>
<path d="M1165.1 57H1158.1V50H1157V57H1150V58H1157V65H1158.1V58H1165.1V57Z" fill="#E0F3FF"/>
<path d="M1165.1 107H1158.1V100H1157V107H1150V108H1157V115H1158.1V108H1165.1V107Z" fill="#E0F3FF"/>
<path d="M1165.1 157H1158.1V150H1157V157H1150V158H1157V165H1158.1V158H1165.1V157Z" fill="#E0F3FF"/>
<path d="M1165.1 207H1158.1V200H1157V207H1150V208H1157V215H1158.1V208H1165.1V207Z" fill="#E0F3FF"/>
<path d="M1165.1 257H1158.1V250H1157V257H1150V258H1157V265H1158.1V258H1165.1V257Z" fill="#E0F3FF"/>
<path d="M1165.1 307H1158.1V300H1157V307H1150V308H1157V315H1158.1V308H1165.1V307Z" fill="#E0F3FF"/>
<path d="M1165.1 357H1158.1V350H1157V357H1150V358H1157V365H1158.1V358H1165.1V357Z" fill="#E0F3FF"/>
<path d="M1165.1 407H1158.1V400H1157V407H1150V408H1157V415H1158.1V408H1165.1V407Z" fill="#E0F3FF"/>
<path d="M1165.1 457H1158.1V450H1157V457H1150V458H1157V465H1158.1V458H1165.1V457Z" fill="#E0F3FF"/>
<path d="M1165.1 507H1158.1V500H1157V507H1150V508H1157V515H1158.1V508H1165.1V507Z" fill="#E0F3FF"/>
<path d="M1165.1 557H1158.1V550H1157V557H1150V558H1157V565H1158.1V558H1165.1V557Z" fill="#E0F3FF"/>
<path d="M1165.1 607H1158.1V600H1157V607H1150V608H1157V615H1158.1V608H1165.1V607Z" fill="#E0F3FF"/>
<path d="M1165.1 657H1158.1V650H1157V657H1150V658H1157V665H1158.1V658H1165.1V657Z" fill="#E0F3FF"/>
<path d="M1165.1 707H1158.1V700H1157V707H1150V708H1157V715H1158.1V708H1165.1V707Z" fill="#E0F3FF"/>
<path d="M1165.1 757H1158.1V750H1157V757H1150V758H1157V765H1158.1V758H1165.1V757Z" fill="#E0F3FF"/>
<path d="M1115.1 7H1108.1V0H1107V7H1100V8H1107V15H1108.1V8H1115.1V7Z" fill="#E0F3FF"/>
<path d="M1115.1 57H1108.1V50H1107V57H1100V58H1107V65H1108.1V58H1115.1V57Z" fill="#E0F3FF"/>
<path d="M1115.1 107H1108.1V100H1107V107H1100V108H1107V115H1108.1V108H1115.1V107Z" fill="#E0F3FF"/>
<path d="M1115.1 157H1108.1V150H1107V157H1100V158H1107V165H1108.1V158H1115.1V157Z" fill="#E0F3FF"/>
<path d="M1115.1 207H1108.1V200H1107V207H1100V208H1107V215H1108.1V208H1115.1V207Z" fill="#E0F3FF"/>
<path d="M1115.1 257H1108.1V250H1107V257H1100V258H1107V265H1108.1V258H1115.1V257Z" fill="#E0F3FF"/>
<path d="M1115.1 307H1108.1V300H1107V307H1100V308H1107V315H1108.1V308H1115.1V307Z" fill="#E0F3FF"/>
<path d="M1115.1 357H1108.1V350H1107V357H1100V358H1107V365H1108.1V358H1115.1V357Z" fill="#E0F3FF"/>
<path d="M1115.1 407H1108.1V400H1107V407H1100V408H1107V415H1108.1V408H1115.1V407Z" fill="#E0F3FF"/>
<path d="M1115.1 457H1108.1V450H1107V457H1100V458H1107V465H1108.1V458H1115.1V457Z" fill="#E0F3FF"/>
<path d="M1115.1 507H1108.1V500H1107V507H1100V508H1107V515H1108.1V508H1115.1V507Z" fill="#E0F3FF"/>
<path d="M1115.1 557H1108.1V550H1107V557H1100V558H1107V565H1108.1V558H1115.1V557Z" fill="#E0F3FF"/>
<path d="M1115.1 607H1108.1V600H1107V607H1100V608H1107V615H1108.1V608H1115.1V607Z" fill="#E0F3FF"/>
<path d="M1115.1 657H1108.1V650H1107V657H1100V658H1107V665H1108.1V658H1115.1V657Z" fill="#E0F3FF"/>
<path d="M1115.1 707H1108.1V700H1107V707H1100V708H1107V715H1108.1V708H1115.1V707Z" fill="#E0F3FF"/>
<path d="M1115.1 757H1108.1V750H1107V757H1100V758H1107V765H1108.1V758H1115.1V757Z" fill="#E0F3FF"/>
<path d="M1065.1 7H1058.1V0H1057V7H1050V8H1057V15H1058.1V8H1065.1V7Z" fill="#E0F3FF"/>
<path d="M1065.1 57H1058.1V50H1057V57H1050V58H1057V65H1058.1V58H1065.1V57Z" fill="#E0F3FF"/>
<path d="M1065.1 107H1058.1V100H1057V107H1050V108H1057V115H1058.1V108H1065.1V107Z" fill="#E0F3FF"/>
<path d="M1065.1 157H1058.1V150H1057V157H1050V158H1057V165H1058.1V158H1065.1V157Z" fill="#E0F3FF"/>
<path d="M1065.1 207H1058.1V200H1057V207H1050V208H1057V215H1058.1V208H1065.1V207Z" fill="#E0F3FF"/>
<path d="M1065.1 257H1058.1V250H1057V257H1050V258H1057V265H1058.1V258H1065.1V257Z" fill="#E0F3FF"/>
<path d="M1065.1 307H1058.1V300H1057V307H1050V308H1057V315H1058.1V308H1065.1V307Z" fill="#E0F3FF"/>
<path d="M1065.1 357H1058.1V350H1057V357H1050V358H1057V365H1058.1V358H1065.1V357Z" fill="#E0F3FF"/>
<path d="M1065.1 407H1058.1V400H1057V407H1050V408H1057V415H1058.1V408H1065.1V407Z" fill="#E0F3FF"/>
<path d="M1065.1 457H1058.1V450H1057V457H1050V458H1057V465H1058.1V458H1065.1V457Z" fill="#E0F3FF"/>
<path d="M1065.1 507H1058.1V500H1057V507H1050V508H1057V515H1058.1V508H1065.1V507Z" fill="#E0F3FF"/>
<path d="M1065.1 557H1058.1V550H1057V557H1050V558H1057V565H1058.1V558H1065.1V557Z" fill="#E0F3FF"/>
<path d="M1065.1 607H1058.1V600H1057V607H1050V608H1057V615H1058.1V608H1065.1V607Z" fill="#E0F3FF"/>
<path d="M1065.1 657H1058.1V650H1057V657H1050V658H1057V665H1058.1V658H1065.1V657Z" fill="#E0F3FF"/>
<path d="M1065.1 707H1058.1V700H1057V707H1050V708H1057V715H1058.1V708H1065.1V707Z" fill="#E0F3FF"/>
<path d="M1065.1 757H1058.1V750H1057V757H1050V758H1057V765H1058.1V758H1065.1V757Z" fill="#E0F3FF"/>
<path d="M1015.1 7H1008.1V0H1007V7H1000V8H1007V15H1008.1V8H1015.1V7Z" fill="#E0F3FF"/>
<path d="M1015.1 57H1008.1V50H1007V57H1000V58H1007V65H1008.1V58H1015.1V57Z" fill="#E0F3FF"/>
<path d="M1015.1 107H1008.1V100H1007V107H1000V108H1007V115H1008.1V108H1015.1V107Z" fill="#E0F3FF"/>
<path d="M1015.1 157H1008.1V150H1007V157H1000V158H1007V165H1008.1V158H1015.1V157Z" fill="#E0F3FF"/>
<path d="M1015.1 207H1008.1V200H1007V207H1000V208H1007V215H1008.1V208H1015.1V207Z" fill="#E0F3FF"/>
<path d="M1015.1 257H1008.1V250H1007V257H1000V258H1007V265H1008.1V258H1015.1V257Z" fill="#E0F3FF"/>
<path d="M1015.1 307H1008.1V300H1007V307H1000V308H1007V315H1008.1V308H1015.1V307Z" fill="#E0F3FF"/>
<path d="M1015.1 357H1008.1V350H1007V357H1000V358H1007V365H1008.1V358H1015.1V357Z" fill="#E0F3FF"/>
<path d="M1015.1 407H1008.1V400H1007V407H1000V408H1007V415H1008.1V408H1015.1V407Z" fill="#E0F3FF"/>
<path d="M1015.1 457H1008.1V450H1007V457H1000V458H1007V465H1008.1V458H1015.1V457Z" fill="#E0F3FF"/>
<path d="M1015.1 507H1008.1V500H1007V507H1000V508H1007V515H1008.1V508H1015.1V507Z" fill="#E0F3FF"/>
<path d="M1015.1 557H1008.1V550H1007V557H1000V558H1007V565H1008.1V558H1015.1V557Z" fill="#E0F3FF"/>
<path d="M1015.1 607H1008.1V600H1007V607H1000V608H1007V615H1008.1V608H1015.1V607Z" fill="#E0F3FF"/>
<path d="M1015.1 657H1008.1V650H1007V657H1000V658H1007V665H1008.1V658H1015.1V657Z" fill="#E0F3FF"/>
<path d="M1015.1 707H1008.1V700H1007V707H1000V708H1007V715H1008.1V708H1015.1V707Z" fill="#E0F3FF"/>
<path d="M1015.1 757H1008.1V750H1007V757H1000V758H1007V765H1008.1V758H1015.1V757Z" fill="#E0F3FF"/>
<path d="M965.1 7H958.1V0H957V7H950V8H957V15H958.1V8H965.1V7Z" fill="#E0F3FF"/>
<path d="M965.1 57H958.1V50H957V57H950V58H957V65H958.1V58H965.1V57Z" fill="#E0F3FF"/>
<path d="M965.1 107H958.1V100H957V107H950V108H957V115H958.1V108H965.1V107Z" fill="#E0F3FF"/>
<path d="M965.1 157H958.1V150H957V157H950V158H957V165H958.1V158H965.1V157Z" fill="#E0F3FF"/>
<path d="M965.1 207H958.1V200H957V207H950V208H957V215H958.1V208H965.1V207Z" fill="#E0F3FF"/>
<path d="M965.1 257H958.1V250H957V257H950V258H957V265H958.1V258H965.1V257Z" fill="#E0F3FF"/>
<path d="M965.1 307H958.1V300H957V307H950V308H957V315H958.1V308H965.1V307Z" fill="#E0F3FF"/>
<path d="M965.1 357H958.1V350H957V357H950V358H957V365H958.1V358H965.1V357Z" fill="#E0F3FF"/>
<path d="M965.1 407H958.1V400H957V407H950V408H957V415H958.1V408H965.1V407Z" fill="#E0F3FF"/>
<path d="M965.1 457H958.1V450H957V457H950V458H957V465H958.1V458H965.1V457Z" fill="#E0F3FF"/>
<path d="M965.1 507H958.1V500H957V507H950V508H957V515H958.1V508H965.1V507Z" fill="#E0F3FF"/>
<path d="M965.1 557H958.1V550H957V557H950V558H957V565H958.1V558H965.1V557Z" fill="#E0F3FF"/>
<path d="M965.1 607H958.1V600H957V607H950V608H957V615H958.1V608H965.1V607Z" fill="#E0F3FF"/>
<path d="M965.1 657H958.1V650H957V657H950V658H957V665H958.1V658H965.1V657Z" fill="#E0F3FF"/>
<path d="M965.1 707H958.1V700H957V707H950V708H957V715H958.1V708H965.1V707Z" fill="#E0F3FF"/>
<path d="M965.1 757H958.1V750H957V757H950V758H957V765H958.1V758H965.1V757Z" fill="#E0F3FF"/>
<path d="M915.1 7H908.1V0H907V7H900V8H907V15H908.1V8H915.1V7Z" fill="#E0F3FF"/>
<path d="M915.1 57H908.1V50H907V57H900V58H907V65H908.1V58H915.1V57Z" fill="#E0F3FF"/>
<path d="M915.1 107H908.1V100H907V107H900V108H907V115H908.1V108H915.1V107Z" fill="#E0F3FF"/>
<path d="M915.1 157H908.1V150H907V157H900V158H907V165H908.1V158H915.1V157Z" fill="#E0F3FF"/>
<path d="M915.1 207H908.1V200H907V207H900V208H907V215H908.1V208H915.1V207Z" fill="#E0F3FF"/>
<path d="M915.1 257H908.1V250H907V257H900V258H907V265H908.1V258H915.1V257Z" fill="#E0F3FF"/>
<path d="M915.1 307H908.1V300H907V307H900V308H907V315H908.1V308H915.1V307Z" fill="#E0F3FF"/>
<path d="M915.1 357H908.1V350H907V357H900V358H907V365H908.1V358H915.1V357Z" fill="#E0F3FF"/>
<path d="M915.1 407H908.1V400H907V407H900V408H907V415H908.1V408H915.1V407Z" fill="#E0F3FF"/>
<path d="M915.1 457H908.1V450H907V457H900V458H907V465H908.1V458H915.1V457Z" fill="#E0F3FF"/>
<path d="M915.1 507H908.1V500H907V507H900V508H907V515H908.1V508H915.1V507Z" fill="#E0F3FF"/>
<path d="M915.1 557H908.1V550H907V557H900V558H907V565H908.1V558H915.1V557Z" fill="#E0F3FF"/>
<path d="M915.1 607H908.1V600H907V607H900V608H907V615H908.1V608H915.1V607Z" fill="#E0F3FF"/>
<path d="M915.1 657H908.1V650H907V657H900V658H907V665H908.1V658H915.1V657Z" fill="#E0F3FF"/>
<path d="M915.1 707H908.1V700H907V707H900V708H907V715H908.1V708H915.1V707Z" fill="#E0F3FF"/>
<path d="M915.1 757H908.1V750H907V757H900V758H907V765H908.1V758H915.1V757Z" fill="#E0F3FF"/>
<path d="M865.1 7H858.1V0H857V7H850V8H857V15H858.1V8H865.1V7Z" fill="#E0F3FF"/>
<path d="M865.1 57H858.1V50H857V57H850V58H857V65H858.1V58H865.1V57Z" fill="#E0F3FF"/>
<path d="M865.1 107H858.1V100H857V107H850V108H857V115H858.1V108H865.1V107Z" fill="#E0F3FF"/>
<path d="M865.1 157H858.1V150H857V157H850V158H857V165H858.1V158H865.1V157Z" fill="#E0F3FF"/>
<path d="M865.1 207H858.1V200H857V207H850V208H857V215H858.1V208H865.1V207Z" fill="#E0F3FF"/>
<path d="M865.1 257H858.1V250H857V257H850V258H857V265H858.1V258H865.1V257Z" fill="#E0F3FF"/>
<path d="M865.1 307H858.1V300H857V307H850V308H857V315H858.1V308H865.1V307Z" fill="#E0F3FF"/>
<path d="M865.1 357H858.1V350H857V357H850V358H857V365H858.1V358H865.1V357Z" fill="#E0F3FF"/>
<path d="M865.1 407H858.1V400H857V407H850V408H857V415H858.1V408H865.1V407Z" fill="#E0F3FF"/>
<path d="M865.1 457H858.1V450H857V457H850V458H857V465H858.1V458H865.1V457Z" fill="#E0F3FF"/>
<path d="M865.1 507H858.1V500H857V507H850V508H857V515H858.1V508H865.1V507Z" fill="#E0F3FF"/>
<path d="M865.1 557H858.1V550H857V557H850V558H857V565H858.1V558H865.1V557Z" fill="#E0F3FF"/>
<path d="M865.1 607H858.1V600H857V607H850V608H857V615H858.1V608H865.1V607Z" fill="#E0F3FF"/>
<path d="M865.1 657H858.1V650H857V657H850V658H857V665H858.1V658H865.1V657Z" fill="#E0F3FF"/>
<path d="M865.1 707H858.1V700H857V707H850V708H857V715H858.1V708H865.1V707Z" fill="#E0F3FF"/>
<path d="M865.1 757H858.1V750H857V757H850V758H857V765H858.1V758H865.1V757Z" fill="#E0F3FF"/>
<path d="M815.1 7H808.1V0H807V7H800V8H807V15H808.1V8H815.1V7Z" fill="#E0F3FF"/>
<path d="M815.1 57H808.1V50H807V57H800V58H807V65H808.1V58H815.1V57Z" fill="#E0F3FF"/>
<path d="M815.1 107H808.1V100H807V107H800V108H807V115H808.1V108H815.1V107Z" fill="#E0F3FF"/>
<path d="M815.1 157H808.1V150H807V157H800V158H807V165H808.1V158H815.1V157Z" fill="#E0F3FF"/>
<path d="M815.1 207H808.1V200H807V207H800V208H807V215H808.1V208H815.1V207Z" fill="#E0F3FF"/>
<path d="M815.1 257H808.1V250H807V257H800V258H807V265H808.1V258H815.1V257Z" fill="#E0F3FF"/>
<path d="M815.1 307H808.1V300H807V307H800V308H807V315H808.1V308H815.1V307Z" fill="#E0F3FF"/>
<path d="M815.1 357H808.1V350H807V357H800V358H807V365H808.1V358H815.1V357Z" fill="#E0F3FF"/>
<path d="M815.1 407H808.1V400H807V407H800V408H807V415H808.1V408H815.1V407Z" fill="#E0F3FF"/>
<path d="M815.1 457H808.1V450H807V457H800V458H807V465H808.1V458H815.1V457Z" fill="#E0F3FF"/>
<path d="M815.1 507H808.1V500H807V507H800V508H807V515H808.1V508H815.1V507Z" fill="#E0F3FF"/>
<path d="M815.1 557H808.1V550H807V557H800V558H807V565H808.1V558H815.1V557Z" fill="#E0F3FF"/>
<path d="M815.1 607H808.1V600H807V607H800V608H807V615H808.1V608H815.1V607Z" fill="#E0F3FF"/>
<path d="M815.1 657H808.1V650H807V657H800V658H807V665H808.1V658H815.1V657Z" fill="#E0F3FF"/>
<path d="M815.1 707H808.1V700H807V707H800V708H807V715H808.1V708H815.1V707Z" fill="#E0F3FF"/>
<path d="M815.1 757H808.1V750H807V757H800V758H807V765H808.1V758H815.1V757Z" fill="#E0F3FF"/>
<path d="M765.1 7H758.1V0H757V7H750V8H757V15H758.1V8H765.1V7Z" fill="#E0F3FF"/>
<path d="M765.1 57H758.1V50H757V57H750V58H757V65H758.1V58H765.1V57Z" fill="#E0F3FF"/>
<path d="M765.1 107H758.1V100H757V107H750V108H757V115H758.1V108H765.1V107Z" fill="#E0F3FF"/>
<path d="M765.1 157H758.1V150H757V157H750V158H757V165H758.1V158H765.1V157Z" fill="#E0F3FF"/>
<path d="M765.1 207H758.1V200H757V207H750V208H757V215H758.1V208H765.1V207Z" fill="#E0F3FF"/>
<path d="M765.1 257H758.1V250H757V257H750V258H757V265H758.1V258H765.1V257Z" fill="#E0F3FF"/>
<path d="M765.1 307H758.1V300H757V307H750V308H757V315H758.1V308H765.1V307Z" fill="#E0F3FF"/>
<path d="M765.1 357H758.1V350H757V357H750V358H757V365H758.1V358H765.1V357Z" fill="#E0F3FF"/>
<path d="M765.1 407H758.1V400H757V407H750V408H757V415H758.1V408H765.1V407Z" fill="#E0F3FF"/>
<path d="M765.1 457H758.1V450H757V457H750V458H757V465H758.1V458H765.1V457Z" fill="#E0F3FF"/>
<path d="M765.1 507H758.1V500H757V507H750V508H757V515H758.1V508H765.1V507Z" fill="#E0F3FF"/>
<path d="M765.1 557H758.1V550H757V557H750V558H757V565H758.1V558H765.1V557Z" fill="#E0F3FF"/>
<path d="M765.1 607H758.1V600H757V607H750V608H757V615H758.1V608H765.1V607Z" fill="#E0F3FF"/>
<path d="M765.1 657H758.1V650H757V657H750V658H757V665H758.1V658H765.1V657Z" fill="#E0F3FF"/>
<path d="M765.1 707H758.1V700H757V707H750V708H757V715H758.1V708H765.1V707Z" fill="#E0F3FF"/>
<path d="M765.1 757H758.1V750H757V757H750V758H757V765H758.1V758H765.1V757Z" fill="#E0F3FF"/>
<path d="M715.1 7H708.1V0H707V7H700V8H707V15H708.1V8H715.1V7Z" fill="#E0F3FF"/>
<path d="M715.1 57H708.1V50H707V57H700V58H707V65H708.1V58H715.1V57Z" fill="#E0F3FF"/>
<path d="M715.1 107H708.1V100H707V107H700V108H707V115H708.1V108H715.1V107Z" fill="#E0F3FF"/>
<path d="M715.1 157H708.1V150H707V157H700V158H707V165H708.1V158H715.1V157Z" fill="#E0F3FF"/>
<path d="M715.1 207H708.1V200H707V207H700V208H707V215H708.1V208H715.1V207Z" fill="#E0F3FF"/>
<path d="M715.1 257H708.1V250H707V257H700V258H707V265H708.1V258H715.1V257Z" fill="#E0F3FF"/>
<path d="M715.1 307H708.1V300H707V307H700V308H707V315H708.1V308H715.1V307Z" fill="#E0F3FF"/>
<path d="M715.1 357H708.1V350H707V357H700V358H707V365H708.1V358H715.1V357Z" fill="#E0F3FF"/>
<path d="M715.1 407H708.1V400H707V407H700V408H707V415H708.1V408H715.1V407Z" fill="#E0F3FF"/>
<path d="M715.1 457H708.1V450H707V457H700V458H707V465H708.1V458H715.1V457Z" fill="#E0F3FF"/>
<path d="M715.1 507H708.1V500H707V507H700V508H707V515H708.1V508H715.1V507Z" fill="#E0F3FF"/>
<path d="M715.1 557H708.1V550H707V557H700V558H707V565H708.1V558H715.1V557Z" fill="#E0F3FF"/>
<path d="M715.1 607H708.1V600H707V607H700V608H707V615H708.1V608H715.1V607Z" fill="#E0F3FF"/>
<path d="M715.1 657H708.1V650H707V657H700V658H707V665H708.1V658H715.1V657Z" fill="#E0F3FF"/>
<path d="M715.1 707H708.1V700H707V707H700V708H707V715H708.1V708H715.1V707Z" fill="#E0F3FF"/>
<path d="M715.1 757H708.1V750H707V757H700V758H707V765H708.1V758H715.1V757Z" fill="#E0F3FF"/>
<path d="M665.1 7H658.1V0H657V7H650V8H657V15H658.1V8H665.1V7Z" fill="#E0F3FF"/>
<path d="M665.1 57H658.1V50H657V57H650V58H657V65H658.1V58H665.1V57Z" fill="#E0F3FF"/>
<path d="M665.1 107H658.1V100H657V107H650V108H657V115H658.1V108H665.1V107Z" fill="#E0F3FF"/>
<path d="M665.1 157H658.1V150H657V157H650V158H657V165H658.1V158H665.1V157Z" fill="#E0F3FF"/>
<path d="M665.1 207H658.1V200H657V207H650V208H657V215H658.1V208H665.1V207Z" fill="#E0F3FF"/>
<path d="M665.1 257H658.1V250H657V257H650V258H657V265H658.1V258H665.1V257Z" fill="#E0F3FF"/>
<path d="M665.1 307H658.1V300H657V307H650V308H657V315H658.1V308H665.1V307Z" fill="#E0F3FF"/>
<path d="M665.1 357H658.1V350H657V357H650V358H657V365H658.1V358H665.1V357Z" fill="#E0F3FF"/>
<path d="M665.1 407H658.1V400H657V407H650V408H657V415H658.1V408H665.1V407Z" fill="#E0F3FF"/>
<path d="M665.1 457H658.1V450H657V457H650V458H657V465H658.1V458H665.1V457Z" fill="#E0F3FF"/>
<path d="M665.1 507H658.1V500H657V507H650V508H657V515H658.1V508H665.1V507Z" fill="#E0F3FF"/>
<path d="M665.1 557H658.1V550H657V557H650V558H657V565H658.1V558H665.1V557Z" fill="#E0F3FF"/>
<path d="M665.1 607H658.1V600H657V607H650V608H657V615H658.1V608H665.1V607Z" fill="#E0F3FF"/>
<path d="M665.1 657H658.1V650H657V657H650V658H657V665H658.1V658H665.1V657Z" fill="#E0F3FF"/>
<path d="M665.1 707H658.1V700H657V707H650V708H657V715H658.1V708H665.1V707Z" fill="#E0F3FF"/>
<path d="M665.1 757H658.1V750H657V757H650V758H657V765H658.1V758H665.1V757Z" fill="#E0F3FF"/>
<path d="M615.1 7H608.1V0H607V7H600V8H607V15H608.1V8H615.1V7Z" fill="#E0F3FF"/>
<path d="M615.1 57H608.1V50H607V57H600V58H607V65H608.1V58H615.1V57Z" fill="#E0F3FF"/>
<path d="M615.1 107H608.1V100H607V107H600V108H607V115H608.1V108H615.1V107Z" fill="#E0F3FF"/>
<path d="M615.1 157H608.1V150H607V157H600V158H607V165H608.1V158H615.1V157Z" fill="#E0F3FF"/>
<path d="M615.1 207H608.1V200H607V207H600V208H607V215H608.1V208H615.1V207Z" fill="#E0F3FF"/>
<path d="M615.1 257H608.1V250H607V257H600V258H607V265H608.1V258H615.1V257Z" fill="#E0F3FF"/>
<path d="M615.1 307H608.1V300H607V307H600V308H607V315H608.1V308H615.1V307Z" fill="#E0F3FF"/>
<path d="M615.1 357H608.1V350H607V357H600V358H607V365H608.1V358H615.1V357Z" fill="#E0F3FF"/>
<path d="M615.1 407H608.1V400H607V407H600V408H607V415H608.1V408H615.1V407Z" fill="#E0F3FF"/>
<path d="M615.1 457H608.1V450H607V457H600V458H607V465H608.1V458H615.1V457Z" fill="#E0F3FF"/>
<path d="M615.1 507H608.1V500H607V507H600V508H607V515H608.1V508H615.1V507Z" fill="#E0F3FF"/>
<path d="M615.1 557H608.1V550H607V557H600V558H607V565H608.1V558H615.1V557Z" fill="#E0F3FF"/>
<path d="M615.1 607H608.1V600H607V607H600V608H607V615H608.1V608H615.1V607Z" fill="#E0F3FF"/>
<path d="M615.1 657H608.1V650H607V657H600V658H607V665H608.1V658H615.1V657Z" fill="#E0F3FF"/>
<path d="M615.1 707H608.1V700H607V707H600V708H607V715H608.1V708H615.1V707Z" fill="#E0F3FF"/>
<path d="M615.1 757H608.1V750H607V757H600V758H607V765H608.1V758H615.1V757Z" fill="#E0F3FF"/>
<path d="M565.1 7H558.1V0H557V7H550V8H557V15H558.1V8H565.1V7Z" fill="#E0F3FF"/>
<path d="M565.1 57H558.1V50H557V57H550V58H557V65H558.1V58H565.1V57Z" fill="#E0F3FF"/>
<path d="M565.1 107H558.1V100H557V107H550V108H557V115H558.1V108H565.1V107Z" fill="#E0F3FF"/>
<path d="M565.1 157H558.1V150H557V157H550V158H557V165H558.1V158H565.1V157Z" fill="#E0F3FF"/>
<path d="M565.1 207H558.1V200H557V207H550V208H557V215H558.1V208H565.1V207Z" fill="#E0F3FF"/>
<path d="M565.1 257H558.1V250H557V257H550V258H557V265H558.1V258H565.1V257Z" fill="#E0F3FF"/>
<path d="M565.1 307H558.1V300H557V307H550V308H557V315H558.1V308H565.1V307Z" fill="#E0F3FF"/>
<path d="M565.1 357H558.1V350H557V357H550V358H557V365H558.1V358H565.1V357Z" fill="#E0F3FF"/>
<path d="M565.1 407H558.1V400H557V407H550V408H557V415H558.1V408H565.1V407Z" fill="#E0F3FF"/>
<path d="M565.1 457H558.1V450H557V457H550V458H557V465H558.1V458H565.1V457Z" fill="#E0F3FF"/>
<path d="M565.1 507H558.1V500H557V507H550V508H557V515H558.1V508H565.1V507Z" fill="#E0F3FF"/>
<path d="M565.1 557H558.1V550H557V557H550V558H557V565H558.1V558H565.1V557Z" fill="#E0F3FF"/>
<path d="M565.1 607H558.1V600H557V607H550V608H557V615H558.1V608H565.1V607Z" fill="#E0F3FF"/>
<path d="M565.1 657H558.1V650H557V657H550V658H557V665H558.1V658H565.1V657Z" fill="#E0F3FF"/>
<path d="M565.1 707H558.1V700H557V707H550V708H557V715H558.1V708H565.1V707Z" fill="#E0F3FF"/>
<path d="M565.1 757H558.1V750H557V757H550V758H557V765H558.1V758H565.1V757Z" fill="#E0F3FF"/>
<path d="M515.1 7H508.1V0H507V7H500V8H507V15H508.1V8H515.1V7Z" fill="#E0F3FF"/>
<path d="M515.1 57H508.1V50H507V57H500V58H507V65H508.1V58H515.1V57Z" fill="#E0F3FF"/>
<path d="M515.1 107H508.1V100H507V107H500V108H507V115H508.1V108H515.1V107Z" fill="#E0F3FF"/>
<path d="M515.1 157H508.1V150H507V157H500V158H507V165H508.1V158H515.1V157Z" fill="#E0F3FF"/>
<path d="M515.1 207H508.1V200H507V207H500V208H507V215H508.1V208H515.1V207Z" fill="#E0F3FF"/>
<path d="M515.1 257H508.1V250H507V257H500V258H507V265H508.1V258H515.1V257Z" fill="#E0F3FF"/>
<path d="M515.1 307H508.1V300H507V307H500V308H507V315H508.1V308H515.1V307Z" fill="#E0F3FF"/>
<path d="M515.1 357H508.1V350H507V357H500V358H507V365H508.1V358H515.1V357Z" fill="#E0F3FF"/>
<path d="M515.1 407H508.1V400H507V407H500V408H507V415H508.1V408H515.1V407Z" fill="#E0F3FF"/>
<path d="M515.1 457H508.1V450H507V457H500V458H507V465H508.1V458H515.1V457Z" fill="#E0F3FF"/>
<path d="M515.1 507H508.1V500H507V507H500V508H507V515H508.1V508H515.1V507Z" fill="#E0F3FF"/>
<path d="M515.1 557H508.1V550H507V557H500V558H507V565H508.1V558H515.1V557Z" fill="#E0F3FF"/>
<path d="M515.1 607H508.1V600H507V607H500V608H507V615H508.1V608H515.1V607Z" fill="#E0F3FF"/>
<path d="M515.1 657H508.1V650H507V657H500V658H507V665H508.1V658H515.1V657Z" fill="#E0F3FF"/>
<path d="M515.1 707H508.1V700H507V707H500V708H507V715H508.1V708H515.1V707Z" fill="#E0F3FF"/>
<path d="M515.1 757H508.1V750H507V757H500V758H507V765H508.1V758H515.1V757Z" fill="#E0F3FF"/>
<path d="M465.1 7H458.1V0H457V7H450V8H457V15H458.1V8H465.1V7Z" fill="#E0F3FF"/>
<path d="M465.1 57H458.1V50H457V57H450V58H457V65H458.1V58H465.1V57Z" fill="#E0F3FF"/>
<path d="M465.1 107H458.1V100H457V107H450V108H457V115H458.1V108H465.1V107Z" fill="#E0F3FF"/>
<path d="M465.1 157H458.1V150H457V157H450V158H457V165H458.1V158H465.1V157Z" fill="#E0F3FF"/>
<path d="M465.1 207H458.1V200H457V207H450V208H457V215H458.1V208H465.1V207Z" fill="#E0F3FF"/>
<path d="M465.1 257H458.1V250H457V257H450V258H457V265H458.1V258H465.1V257Z" fill="#E0F3FF"/>
<path d="M465.1 307H458.1V300H457V307H450V308H457V315H458.1V308H465.1V307Z" fill="#E0F3FF"/>
<path d="M465.1 357H458.1V350H457V357H450V358H457V365H458.1V358H465.1V357Z" fill="#E0F3FF"/>
<path d="M465.1 407H458.1V400H457V407H450V408H457V415H458.1V408H465.1V407Z" fill="#E0F3FF"/>
<path d="M465.1 457H458.1V450H457V457H450V458H457V465H458.1V458H465.1V457Z" fill="#E0F3FF"/>
<path d="M465.1 507H458.1V500H457V507H450V508H457V515H458.1V508H465.1V507Z" fill="#E0F3FF"/>
<path d="M465.1 557H458.1V550H457V557H450V558H457V565H458.1V558H465.1V557Z" fill="#E0F3FF"/>
<path d="M465.1 607H458.1V600H457V607H450V608H457V615H458.1V608H465.1V607Z" fill="#E0F3FF"/>
<path d="M465.1 657H458.1V650H457V657H450V658H457V665H458.1V658H465.1V657Z" fill="#E0F3FF"/>
<path d="M465.1 707H458.1V700H457V707H450V708H457V715H458.1V708H465.1V707Z" fill="#E0F3FF"/>
<path d="M465.1 757H458.1V750H457V757H450V758H457V765H458.1V758H465.1V757Z" fill="#E0F3FF"/>
<path d="M415.1 7H408.1V0H407V7H400V8H407V15H408.1V8H415.1V7Z" fill="#E0F3FF"/>
<path d="M415.1 57H408.1V50H407V57H400V58H407V65H408.1V58H415.1V57Z" fill="#E0F3FF"/>
<path d="M415.1 107H408.1V100H407V107H400V108H407V115H408.1V108H415.1V107Z" fill="#E0F3FF"/>
<path d="M415.1 157H408.1V150H407V157H400V158H407V165H408.1V158H415.1V157Z" fill="#E0F3FF"/>
<path d="M415.1 207H408.1V200H407V207H400V208H407V215H408.1V208H415.1V207Z" fill="#E0F3FF"/>
<path d="M415.1 257H408.1V250H407V257H400V258H407V265H408.1V258H415.1V257Z" fill="#E0F3FF"/>
<path d="M415.1 307H408.1V300H407V307H400V308H407V315H408.1V308H415.1V307Z" fill="#E0F3FF"/>
<path d="M415.1 357H408.1V350H407V357H400V358H407V365H408.1V358H415.1V357Z" fill="#E0F3FF"/>
<path d="M415.1 407H408.1V400H407V407H400V408H407V415H408.1V408H415.1V407Z" fill="#E0F3FF"/>
<path d="M415.1 457H408.1V450H407V457H400V458H407V465H408.1V458H415.1V457Z" fill="#E0F3FF"/>
<path d="M415.1 507H408.1V500H407V507H400V508H407V515H408.1V508H415.1V507Z" fill="#E0F3FF"/>
<path d="M415.1 557H408.1V550H407V557H400V558H407V565H408.1V558H415.1V557Z" fill="#E0F3FF"/>
<path d="M415.1 607H408.1V600H407V607H400V608H407V615H408.1V608H415.1V607Z" fill="#E0F3FF"/>
<path d="M415.1 657H408.1V650H407V657H400V658H407V665H408.1V658H415.1V657Z" fill="#E0F3FF"/>
<path d="M415.1 707H408.1V700H407V707H400V708H407V715H408.1V708H415.1V707Z" fill="#E0F3FF"/>
<path d="M415.1 757H408.1V750H407V757H400V758H407V765H408.1V758H415.1V757Z" fill="#E0F3FF"/>
<path d="M365.1 7H358.1V0H357V7H350V8H357V15H358.1V8H365.1V7Z" fill="#E0F3FF"/>
<path d="M365.1 57H358.1V50H357V57H350V58H357V65H358.1V58H365.1V57Z" fill="#E0F3FF"/>
<path d="M365.1 107H358.1V100H357V107H350V108H357V115H358.1V108H365.1V107Z" fill="#E0F3FF"/>
<path d="M365.1 157H358.1V150H357V157H350V158H357V165H358.1V158H365.1V157Z" fill="#E0F3FF"/>
<path d="M365.1 207H358.1V200H357V207H350V208H357V215H358.1V208H365.1V207Z" fill="#E0F3FF"/>
<path d="M365.1 257H358.1V250H357V257H350V258H357V265H358.1V258H365.1V257Z" fill="#E0F3FF"/>
<path d="M365.1 307H358.1V300H357V307H350V308H357V315H358.1V308H365.1V307Z" fill="#E0F3FF"/>
<path d="M365.1 357H358.1V350H357V357H350V358H357V365H358.1V358H365.1V357Z" fill="#E0F3FF"/>
<path d="M365.1 407H358.1V400H357V407H350V408H357V415H358.1V408H365.1V407Z" fill="#E0F3FF"/>
<path d="M365.1 457H358.1V450H357V457H350V458H357V465H358.1V458H365.1V457Z" fill="#E0F3FF"/>
<path d="M365.1 507H358.1V500H357V507H350V508H357V515H358.1V508H365.1V507Z" fill="#E0F3FF"/>
<path d="M365.1 557H358.1V550H357V557H350V558H357V565H358.1V558H365.1V557Z" fill="#E0F3FF"/>
<path d="M365.1 607H358.1V600H357V607H350V608H357V615H358.1V608H365.1V607Z" fill="#E0F3FF"/>
<path d="M365.1 657H358.1V650H357V657H350V658H357V665H358.1V658H365.1V657Z" fill="#E0F3FF"/>
<path d="M365.1 707H358.1V700H357V707H350V708H357V715H358.1V708H365.1V707Z" fill="#E0F3FF"/>
<path d="M365.1 757H358.1V750H357V757H350V758H357V765H358.1V758H365.1V757Z" fill="#E0F3FF"/>
<path d="M315.1 7H308.1V0H307V7H300V8H307V15H308.1V8H315.1V7Z" fill="#E0F3FF"/>
<path d="M315.1 57H308.1V50H307V57H300V58H307V65H308.1V58H315.1V57Z" fill="#E0F3FF"/>
<path d="M315.1 107H308.1V100H307V107H300V108H307V115H308.1V108H315.1V107Z" fill="#E0F3FF"/>
<path d="M315.1 157H308.1V150H307V157H300V158H307V165H308.1V158H315.1V157Z" fill="#E0F3FF"/>
<path d="M315.1 207H308.1V200H307V207H300V208H307V215H308.1V208H315.1V207Z" fill="#E0F3FF"/>
<path d="M315.1 257H308.1V250H307V257H300V258H307V265H308.1V258H315.1V257Z" fill="#E0F3FF"/>
<path d="M315.1 307H308.1V300H307V307H300V308H307V315H308.1V308H315.1V307Z" fill="#E0F3FF"/>
<path d="M315.1 357H308.1V350H307V357H300V358H307V365H308.1V358H315.1V357Z" fill="#E0F3FF"/>
<path d="M315.1 407H308.1V400H307V407H300V408H307V415H308.1V408H315.1V407Z" fill="#E0F3FF"/>
<path d="M315.1 457H308.1V450H307V457H300V458H307V465H308.1V458H315.1V457Z" fill="#E0F3FF"/>
<path d="M315.1 507H308.1V500H307V507H300V508H307V515H308.1V508H315.1V507Z" fill="#E0F3FF"/>
<path d="M315.1 557H308.1V550H307V557H300V558H307V565H308.1V558H315.1V557Z" fill="#E0F3FF"/>
<path d="M315.1 607H308.1V600H307V607H300V608H307V615H308.1V608H315.1V607Z" fill="#E0F3FF"/>
<path d="M315.1 657H308.1V650H307V657H300V658H307V665H308.1V658H315.1V657Z" fill="#E0F3FF"/>
<path d="M315.1 707H308.1V700H307V707H300V708H307V715H308.1V708H315.1V707Z" fill="#E0F3FF"/>
<path d="M315.1 757H308.1V750H307V757H300V758H307V765H308.1V758H315.1V757Z" fill="#E0F3FF"/>
<path d="M265.1 7H258.1V0H257V7H250V8H257V15H258.1V8H265.1V7Z" fill="#E0F3FF"/>
<path d="M265.1 57H258.1V50H257V57H250V58H257V65H258.1V58H265.1V57Z" fill="#E0F3FF"/>
<path d="M265.1 107H258.1V100H257V107H250V108H257V115H258.1V108H265.1V107Z" fill="#E0F3FF"/>
<path d="M265.1 157H258.1V150H257V157H250V158H257V165H258.1V158H265.1V157Z" fill="#E0F3FF"/>
<path d="M265.1 207H258.1V200H257V207H250V208H257V215H258.1V208H265.1V207Z" fill="#E0F3FF"/>
<path d="M265.1 257H258.1V250H257V257H250V258H257V265H258.1V258H265.1V257Z" fill="#E0F3FF"/>
<path d="M265.1 307H258.1V300H257V307H250V308H257V315H258.1V308H265.1V307Z" fill="#E0F3FF"/>
<path d="M265.1 357H258.1V350H257V357H250V358H257V365H258.1V358H265.1V357Z" fill="#E0F3FF"/>
<path d="M265.1 407H258.1V400H257V407H250V408H257V415H258.1V408H265.1V407Z" fill="#E0F3FF"/>
<path d="M265.1 457H258.1V450H257V457H250V458H257V465H258.1V458H265.1V457Z" fill="#E0F3FF"/>
<path d="M265.1 507H258.1V500H257V507H250V508H257V515H258.1V508H265.1V507Z" fill="#E0F3FF"/>
<path d="M265.1 557H258.1V550H257V557H250V558H257V565H258.1V558H265.1V557Z" fill="#E0F3FF"/>
<path d="M265.1 607H258.1V600H257V607H250V608H257V615H258.1V608H265.1V607Z" fill="#E0F3FF"/>
<path d="M265.1 657H258.1V650H257V657H250V658H257V665H258.1V658H265.1V657Z" fill="#E0F3FF"/>
<path d="M265.1 707H258.1V700H257V707H250V708H257V715H258.1V708H265.1V707Z" fill="#E0F3FF"/>
<path d="M265.1 757H258.1V750H257V757H250V758H257V765H258.1V758H265.1V757Z" fill="#E0F3FF"/>
<path d="M215.1 7H208.1V0H207V7H200V8H207V15H208.1V8H215.1V7Z" fill="#E0F3FF"/>
<path d="M215.1 57H208.1V50H207V57H200V58H207V65H208.1V58H215.1V57Z" fill="#E0F3FF"/>
<path d="M215.1 107H208.1V100H207V107H200V108H207V115H208.1V108H215.1V107Z" fill="#E0F3FF"/>
<path d="M215.1 157H208.1V150H207V157H200V158H207V165H208.1V158H215.1V157Z" fill="#E0F3FF"/>
<path d="M215.1 207H208.1V200H207V207H200V208H207V215H208.1V208H215.1V207Z" fill="#E0F3FF"/>
<path d="M215.1 257H208.1V250H207V257H200V258H207V265H208.1V258H215.1V257Z" fill="#E0F3FF"/>
<path d="M215.1 307H208.1V300H207V307H200V308H207V315H208.1V308H215.1V307Z" fill="#E0F3FF"/>
<path d="M215.1 357H208.1V350H207V357H200V358H207V365H208.1V358H215.1V357Z" fill="#E0F3FF"/>
<path d="M215.1 407H208.1V400H207V407H200V408H207V415H208.1V408H215.1V407Z" fill="#E0F3FF"/>
<path d="M215.1 457H208.1V450H207V457H200V458H207V465H208.1V458H215.1V457Z" fill="#E0F3FF"/>
<path d="M215.1 507H208.1V500H207V507H200V508H207V515H208.1V508H215.1V507Z" fill="#E0F3FF"/>
<path d="M215.1 557H208.1V550H207V557H200V558H207V565H208.1V558H215.1V557Z" fill="#E0F3FF"/>
<path d="M215.1 607H208.1V600H207V607H200V608H207V615H208.1V608H215.1V607Z" fill="#E0F3FF"/>
<path d="M215.1 657H208.1V650H207V657H200V658H207V665H208.1V658H215.1V657Z" fill="#E0F3FF"/>
<path d="M215.1 707H208.1V700H207V707H200V708H207V715H208.1V708H215.1V707Z" fill="#E0F3FF"/>
<path d="M215.1 757H208.1V750H207V757H200V758H207V765H208.1V758H215.1V757Z" fill="#E0F3FF"/>
<path d="M165.1 7H158.1V0H157V7H150V8H157V15H158.1V8H165.1V7Z" fill="#E0F3FF"/>
<path d="M165.1 57H158.1V50H157V57H150V58H157V65H158.1V58H165.1V57Z" fill="#E0F3FF"/>
<path d="M165.1 107H158.1V100H157V107H150V108H157V115H158.1V108H165.1V107Z" fill="#E0F3FF"/>
<path d="M165.1 157H158.1V150H157V157H150V158H157V165H158.1V158H165.1V157Z" fill="#E0F3FF"/>
<path d="M165.1 207H158.1V200H157V207H150V208H157V215H158.1V208H165.1V207Z" fill="#E0F3FF"/>
<path d="M165.1 257H158.1V250H157V257H150V258H157V265H158.1V258H165.1V257Z" fill="#E0F3FF"/>
<path d="M165.1 307H158.1V300H157V307H150V308H157V315H158.1V308H165.1V307Z" fill="#E0F3FF"/>
<path d="M165.1 357H158.1V350H157V357H150V358H157V365H158.1V358H165.1V357Z" fill="#E0F3FF"/>
<path d="M165.1 407H158.1V400H157V407H150V408H157V415H158.1V408H165.1V407Z" fill="#E0F3FF"/>
<path d="M165.1 457H158.1V450H157V457H150V458H157V465H158.1V458H165.1V457Z" fill="#E0F3FF"/>
<path d="M165.1 507H158.1V500H157V507H150V508H157V515H158.1V508H165.1V507Z" fill="#E0F3FF"/>
<path d="M165.1 557H158.1V550H157V557H150V558H157V565H158.1V558H165.1V557Z" fill="#E0F3FF"/>
<path d="M165.1 607H158.1V600H157V607H150V608H157V615H158.1V608H165.1V607Z" fill="#E0F3FF"/>
<path d="M165.1 657H158.1V650H157V657H150V658H157V665H158.1V658H165.1V657Z" fill="#E0F3FF"/>
<path d="M165.1 707H158.1V700H157V707H150V708H157V715H158.1V708H165.1V707Z" fill="#E0F3FF"/>
<path d="M165.1 757H158.1V750H157V757H150V758H157V765H158.1V758H165.1V757Z" fill="#E0F3FF"/>
<path d="M115.1 7H108.1V0H107V7H100V8H107V15H108.1V8H115.1V7Z" fill="#E0F3FF"/>
<path d="M115.1 57H108.1V50H107V57H100V58H107V65H108.1V58H115.1V57Z" fill="#E0F3FF"/>
<path d="M115.1 107H108.1V100H107V107H100V108H107V115H108.1V108H115.1V107Z" fill="#E0F3FF"/>
<path d="M115.1 157H108.1V150H107V157H100V158H107V165H108.1V158H115.1V157Z" fill="#E0F3FF"/>
<path d="M115.1 207H108.1V200H107V207H100V208H107V215H108.1V208H115.1V207Z" fill="#E0F3FF"/>
<path d="M115.1 257H108.1V250H107V257H100V258H107V265H108.1V258H115.1V257Z" fill="#E0F3FF"/>
<path d="M115.1 307H108.1V300H107V307H100V308H107V315H108.1V308H115.1V307Z" fill="#E0F3FF"/>
<path d="M115.1 357H108.1V350H107V357H100V358H107V365H108.1V358H115.1V357Z" fill="#E0F3FF"/>
<path d="M115.1 407H108.1V400H107V407H100V408H107V415H108.1V408H115.1V407Z" fill="#E0F3FF"/>
<path d="M115.1 457H108.1V450H107V457H100V458H107V465H108.1V458H115.1V457Z" fill="#E0F3FF"/>
<path d="M115.1 507H108.1V500H107V507H100V508H107V515H108.1V508H115.1V507Z" fill="#E0F3FF"/>
<path d="M115.1 557H108.1V550H107V557H100V558H107V565H108.1V558H115.1V557Z" fill="#E0F3FF"/>
<path d="M115.1 607H108.1V600H107V607H100V608H107V615H108.1V608H115.1V607Z" fill="#E0F3FF"/>
<path d="M115.1 657H108.1V650H107V657H100V658H107V665H108.1V658H115.1V657Z" fill="#E0F3FF"/>
<path d="M115.1 707H108.1V700H107V707H100V708H107V715H108.1V708H115.1V707Z" fill="#E0F3FF"/>
<path d="M115.1 757H108.1V750H107V757H100V758H107V765H108.1V758H115.1V757Z" fill="#E0F3FF"/>
<path d="M65.1001 7H58.1001V0H57V7H50V8H57V15H58.1001V8H65.1001V7Z" fill="#E0F3FF"/>
<path d="M65.1001 57H58.1001V50H57V57H50V58H57V65H58.1001V58H65.1001V57Z" fill="#E0F3FF"/>
<path d="M65.1001 107H58.1001V100H57V107H50V108H57V115H58.1001V108H65.1001V107Z" fill="#E0F3FF"/>
<path d="M65.1001 157H58.1001V150H57V157H50V158H57V165H58.1001V158H65.1001V157Z" fill="#E0F3FF"/>
<path d="M65.1001 207H58.1001V200H57V207H50V208H57V215H58.1001V208H65.1001V207Z" fill="#E0F3FF"/>
<path d="M65.1001 257H58.1001V250H57V257H50V258H57V265H58.1001V258H65.1001V257Z" fill="#E0F3FF"/>
<path d="M65.1001 307H58.1001V300H57V307H50V308H57V315H58.1001V308H65.1001V307Z" fill="#E0F3FF"/>
<path d="M65.1001 357H58.1001V350H57V357H50V358H57V365H58.1001V358H65.1001V357Z" fill="#E0F3FF"/>
<path d="M65.1001 407H58.1001V400H57V407H50V408H57V415H58.1001V408H65.1001V407Z" fill="#E0F3FF"/>
<path d="M65.1001 457H58.1001V450H57V457H50V458H57V465H58.1001V458H65.1001V457Z" fill="#E0F3FF"/>
<path d="M65.1001 507H58.1001V500H57V507H50V508H57V515H58.1001V508H65.1001V507Z" fill="#E0F3FF"/>
<path d="M65.1001 557H58.1001V550H57V557H50V558H57V565H58.1001V558H65.1001V557Z" fill="#E0F3FF"/>
<path d="M65.1001 607H58.1001V600H57V607H50V608H57V615H58.1001V608H65.1001V607Z" fill="#E0F3FF"/>
<path d="M65.1001 657H58.1001V650H57V657H50V658H57V665H58.1001V658H65.1001V657Z" fill="#E0F3FF"/>
<path d="M65.1001 707H58.1001V700H57V707H50V708H57V715H58.1001V708H65.1001V707Z" fill="#E0F3FF"/>
<path d="M65.1001 757H58.1001V750H57V757H50V758H57V765H58.1001V758H65.1001V757Z" fill="#E0F3FF"/>
<path d="M15.1001 7H8.1001V0H7V7H0V8H7V15H8.1001V8H15.1001V7Z" fill="#E0F3FF"/>
<path d="M15.1001 57H8.1001V50H7V57H0V58H7V65H8.1001V58H15.1001V57Z" fill="#E0F3FF"/>
<path d="M15.1001 107H8.1001V100H7V107H0V108H7V115H8.1001V108H15.1001V107Z" fill="#E0F3FF"/>
<path d="M15.1001 157H8.1001V150H7V157H0V158H7V165H8.1001V158H15.1001V157Z" fill="#E0F3FF"/>
<path d="M15.1001 207H8.1001V200H7V207H0V208H7V215H8.1001V208H15.1001V207Z" fill="#E0F3FF"/>
<path d="M15.1001 257H8.1001V250H7V257H0V258H7V265H8.1001V258H15.1001V257Z" fill="#E0F3FF"/>
<path d="M15.1001 307H8.1001V300H7V307H0V308H7V315H8.1001V308H15.1001V307Z" fill="#E0F3FF"/>
<path d="M15.1001 357H8.1001V350H7V357H0V358H7V365H8.1001V358H15.1001V357Z" fill="#E0F3FF"/>
<path d="M15.1001 407H8.1001V400H7V407H0V408H7V415H8.1001V408H15.1001V407Z" fill="#E0F3FF"/>
<path d="M15.1001 457H8.1001V450H7V457H0V458H7V465H8.1001V458H15.1001V457Z" fill="#E0F3FF"/>
<path d="M15.1001 507H8.1001V500H7V507H0V508H7V515H8.1001V508H15.1001V507Z" fill="#E0F3FF"/>
<path d="M15.1001 557H8.1001V550H7V557H0V558H7V565H8.1001V558H15.1001V557Z" fill="#E0F3FF"/>
<path d="M15.1001 607H8.1001V600H7V607H0V608H7V615H8.1001V608H15.1001V607Z" fill="#E0F3FF"/>
<path d="M15.1001 657H8.1001V650H7V657H0V658H7V665H8.1001V658H15.1001V657Z" fill="#E0F3FF"/>
<path d="M15.1001 707H8.1001V700H7V707H0V708H7V715H8.1001V708H15.1001V707Z" fill="#E0F3FF"/>
<path d="M15.1001 757H8.1001V750H7V757H0V758H7V765H8.1001V758H15.1001V757Z" fill="#E0F3FF"/>
</svg>
