<svg width="22" height="22" viewBox="0 0 22 22" fill="none" xmlns="http://www.w3.org/2000/svg">
<path d="M7.10482 10.084C7.10482 9.95742 7.20742 9.85482 7.33398 9.85482H8.73004C8.82374 9.85482 8.90801 9.91187 8.94281 9.99887L9.30948 10.9155C9.32041 10.9429 9.32587 10.9717 9.32587 11.0007C9.32587 11.0296 9.32041 11.0584 9.30948 11.0858L8.94281 12.0024C8.90801 12.0894 8.82374 12.1465 8.73004 12.1465H7.33399C7.20742 12.1465 7.10482 12.0439 7.10482 11.9173V10.084Z" fill="#B8CCFA"/>
<path fill-rule="evenodd" clip-rule="evenodd" d="M11.0007 20.1673C16.0633 20.1673 20.1673 16.0633 20.1673 11.0007C20.1673 5.93804 16.0633 1.83398 11.0007 1.83398C5.93804 1.83398 1.83398 5.93804 1.83398 11.0007C1.83398 16.0633 5.93804 20.1673 11.0007 20.1673ZM7.33398 8.47982C6.44803 8.47982 5.72982 9.19803 5.72982 10.084V11.9173C5.72982 12.8033 6.44803 13.5215 7.33399 13.5215H8.73004C9.38599 13.5215 9.97585 13.1221 10.2195 12.5131L10.5494 11.6882H12.3653C12.416 11.9366 12.3834 12.1979 12.2675 12.4298L12.2191 12.5265C12.0493 12.8661 12.1869 13.2791 12.5265 13.4489C12.8661 13.6187 13.2791 13.4811 13.4489 13.1414L13.4973 13.0447C13.7098 12.6196 13.7951 12.1494 13.753 11.6882H15.1153C15.166 11.9366 15.1334 12.1979 15.0175 12.4298L14.9691 12.5265C14.7993 12.8661 14.9369 13.2791 15.2765 13.4489C15.6161 13.6187 16.0291 13.4811 16.1989 13.1414L16.2473 13.0447C16.6021 12.335 16.6021 11.4997 16.2473 10.79C16.1012 10.4977 15.8025 10.3132 15.4758 10.3132L12.8478 10.3132C12.8383 10.313 12.8287 10.313 12.8191 10.3132H10.5494L10.2195 9.48821C9.97585 8.87918 9.38599 8.47982 8.73004 8.47982H7.33398Z" fill="#B8CCFA"/>
</svg>
