<svg width="22" height="22" viewBox="0 0 22 22" fill="none" xmlns="http://www.w3.org/2000/svg">
<path d="M11.75 0.999512C11.75 0.585298 11.4142 0.249512 11 0.249512C10.5858 0.249512 10.25 0.585298 10.25 0.999512V7.99951C10.25 8.41372 10.5858 8.74951 11 8.74951C11.4142 8.74951 11.75 8.41372 11.75 7.99951V0.999512Z" fill="#4679EC"/>
<path d="M5.45046 3.59917C5.78164 3.35038 5.84844 2.88023 5.59966 2.54905C5.35087 2.21787 4.88072 2.15107 4.54954 2.39986C1.94046 4.35979 0.25 7.48209 0.25 10.9995C0.25 16.9366 5.06294 21.7495 11 21.7495C16.9371 21.7495 21.75 16.9366 21.75 10.9995C21.75 7.50824 20.0178 4.36251 17.4555 2.40368C17.1264 2.15211 16.6557 2.21494 16.4042 2.54401C16.1526 2.87308 16.2154 3.34378 16.5445 3.59535C18.7627 5.29112 20.25 8.00864 20.25 10.9995C20.25 16.1081 16.1086 20.2495 11 20.2495C5.89137 20.2495 1.75 16.1081 1.75 10.9995C1.75 7.97397 3.20215 5.28809 5.45046 3.59917Z" fill="#4679EC"/>
</svg>
