<svg width="338" height="338" viewBox="0 0 338 338" fill="none" xmlns="http://www.w3.org/2000/svg">
<path d="M171.528 322.865C259.372 322.865 330.584 281.75 330.584 231.031C330.584 180.312 259.372 139.196 171.528 139.196C83.6835 139.196 12.4717 180.312 12.4717 231.031C12.4717 281.75 83.6835 322.865 171.528 322.865Z" fill="#F5F5F5"/>
<path d="M276.403 276.066C301.324 276.066 321.526 264.402 321.526 250.013C321.526 235.624 301.324 223.96 276.403 223.96C251.483 223.96 231.28 235.624 231.28 250.013C231.28 264.402 251.483 276.066 276.403 276.066Z" fill="#E0E0E0"/>
<path d="M162.206 264.067L111.303 234.668L169.487 201.077L220.396 230.47L162.206 264.067Z" fill="#E0E0E0"/>
<path d="M23.5986 254.975L89.2517 292.878L144.319 261.093L78.6656 223.189L23.5986 254.975Z" fill="#E0E0E0"/>
<path d="M120.681 76.8147V73.0832C120.653 72.8676 120.57 72.6629 120.44 72.4888C120.309 72.3147 120.137 72.1772 119.938 72.0895L97.4065 59.1644C96.8696 58.8945 96.2769 58.7539 95.6759 58.7539C95.075 58.7539 94.4823 58.8945 93.9454 59.1644L29.1914 96.3444C28.9924 96.4321 28.8195 96.5696 28.6892 96.7437C28.5589 96.9178 28.4758 97.1225 28.4478 97.3381V101.07C28.4751 101.285 28.5581 101.49 28.6884 101.665C28.8187 101.839 28.992 101.976 29.1914 102.063L51.7157 114.968C52.2526 115.238 52.8453 115.379 53.4462 115.379C54.0472 115.379 54.6398 115.238 55.1768 114.968L119.931 77.7882C120.13 77.701 120.303 77.5637 120.434 77.3895C120.564 77.2153 120.647 77.0103 120.674 76.7945L120.681 76.8147Z" fill="#F0F0F0"/>
<path d="M29.1914 98.3115L51.7158 111.237C52.2518 111.51 52.8448 111.652 53.4463 111.652C54.0479 111.652 54.6409 111.51 55.1769 111.237L119.931 74.0567C120.884 73.5091 120.884 72.6235 119.931 72.0692L97.4066 59.1644C96.8696 58.8945 96.277 58.7539 95.676 58.7539C95.0751 58.7539 94.4824 58.8945 93.9455 59.1644L29.1914 96.3444C28.2383 96.8784 28.2383 97.764 29.1914 98.3115Z" fill="#FAFAFA"/>
<path d="M53.4462 111.655V115.38C52.844 115.388 52.2492 115.247 51.7157 114.967L29.1914 102.076C28.992 101.989 28.8187 101.851 28.6884 101.677C28.5581 101.503 28.4751 101.298 28.4478 101.082V97.3439C28.461 97.1927 28.5096 97.0468 28.5897 96.918C28.3261 97.3979 28.5221 97.9523 29.1914 98.3376L51.7157 111.242C52.2477 111.526 52.8436 111.668 53.4462 111.655Z" fill="#E0E0E0"/>
<path d="M65.5464 80.1258L84.6299 91.0027L116.152 72.9129L97.075 62.0293L65.5464 80.1258Z" fill="#E0E0E0"/>
<path d="M84.8458 90.1793L66.4383 79.6134C66.9167 78.0527 66.8811 76.3797 66.3369 74.8408L84.6295 85.2918C84.6295 85.2918 84.981 86.4477 84.8458 90.1793Z" fill="white"/>
<path d="M83.6896 83.8248C84.2033 84.1568 84.6314 84.6053 84.9392 85.1339C85.2469 85.6624 85.4256 86.2562 85.4607 86.8668V90.4226C85.4607 91.5448 84.663 91.9977 83.6896 91.4434L65.5728 81.0059V80.1271L83.4732 90.3347C84.0614 90.6727 84.5346 90.3956 84.5346 89.7263V86.4274C84.5142 86.061 84.4074 85.7047 84.223 85.3874C84.0385 85.0702 83.7816 84.8011 83.4732 84.6022L65.5728 74.3608V73.3604L83.6896 83.8248Z" fill="#EBEBEB"/>
<path d="M65.5728 73.3934L97.0744 55.2969L115.211 65.7073C115.726 66.0395 116.155 66.4889 116.463 67.0189C116.771 67.5488 116.949 68.1441 116.983 68.756V72.3321C117.007 72.5507 116.971 72.7718 116.879 72.9718C116.788 73.1718 116.643 73.3432 116.462 73.4678L84.9402 91.5643C85.1181 91.4369 85.2594 91.2648 85.3496 91.0654C85.4398 90.866 85.4758 90.6464 85.4539 90.4286V86.8661C85.421 86.2549 85.2432 85.6604 84.9353 85.1314C84.6273 84.6025 84.198 84.1544 83.6828 83.8241L65.5728 73.3934Z" fill="#FAFAFA"/>
<path d="M84.9404 85.1152C85.2618 85.6368 85.4412 86.2334 85.4609 86.8457V90.4082C85.4828 90.626 85.4468 90.8457 85.3566 91.0451C85.2664 91.2445 85.1252 91.4165 84.9472 91.5439L116.469 73.4474C116.65 73.3228 116.795 73.1514 116.886 72.9514C116.978 72.7515 117.014 72.5304 116.99 72.3117V68.7559C116.97 68.1436 116.79 67.547 116.469 67.0254L84.9404 85.1152Z" fill="#F0F0F0"/>
<path d="M46.1444 53.0527L45.9619 55.4593L67.2694 66.8905L67.7494 65.4844L46.1444 53.0527Z" fill="#EBEBEB"/>
<path d="M67.4661 66.0459L46.8278 54.1348L43.2383 56.2033L64.2822 68.5133L67.4661 66.0459Z" fill="white"/>
<path d="M60.4089 67.2354L58.3809 91.1522C58.3908 91.4222 58.4654 91.6859 58.5983 91.9212C58.7312 92.1564 58.9186 92.3563 59.1447 92.5042L71.1167 99.4332C71.3077 99.5389 71.5206 99.599 71.7386 99.609L64.3026 69.3174C64.0857 69.3056 63.8738 69.248 63.6807 69.1484L62.8222 68.6482L60.4089 67.2354Z" fill="#E0E0E0"/>
<path d="M65.1957 69.1217L67.3319 67.2897L68.8934 65.9377C69.0557 65.6808 69.245 65.4916 69.1436 65.2617L76.4849 95.3302C76.5863 95.5398 76.6134 96.0062 76.3227 96.182L72.625 99.3456C72.3451 99.4939 72.0273 99.5551 71.7124 99.5214L64.2764 69.2298C64.5868 69.2834 64.9062 69.2459 65.1957 69.1217Z" fill="#F0F0F0"/>
<path d="M68.8997 65.0655C69.3188 65.3088 69.2174 65.5792 68.8997 65.9443L65.1952 69.1147C64.9594 69.2379 64.6973 69.3023 64.4313 69.3023C64.1653 69.3023 63.9032 69.2379 63.6674 69.1147L60.4091 67.2354C59.9832 66.9921 59.9089 66.6406 60.2401 66.4513C60.4578 66.363 60.6927 66.3256 60.9271 66.342C61.1614 66.3584 61.3889 66.4282 61.5921 66.5459L64.1609 68.0331C64.2395 68.0729 64.3263 68.0937 64.4144 68.0937C64.5025 68.0937 64.5893 68.0729 64.6679 68.0331L67.3719 65.6806C67.5139 65.5995 67.5139 65.4711 67.3719 65.39L46.1455 53.053L47.1595 52.4648L68.8997 65.0655Z" fill="#FAFAFA"/>
<path d="M39.9932 54.208L60.2934 65.9298V104.556L39.9932 92.8279V54.208Z" fill="#EBEBEB"/>
<path d="M59.6385 66.5716L39.9939 55.2959C38.7925 56.5697 37.219 57.431 35.4985 57.7565L54.9809 68.9849C54.9809 68.9849 56.2382 68.6875 59.6385 66.5716Z" fill="white"/>
<path d="M53.0945 68.9511C53.6799 69.2444 54.3257 69.3971 54.9805 69.3971C55.6353 69.3971 56.2811 69.2444 56.8665 68.9511L60.1654 67.0178C61.2065 66.4161 61.2065 65.4495 60.1654 64.8478L40.8115 53.7344L39.9936 54.2076L59.0365 65.2061C59.1769 65.2471 59.3003 65.3324 59.388 65.4495C59.4758 65.5665 59.5232 65.7088 59.5232 65.8551C59.5232 66.0013 59.4758 66.1436 59.388 66.2607C59.3003 66.3777 59.1769 66.4631 59.0365 66.504L55.9607 68.2751C55.6094 68.4517 55.2216 68.5437 54.8284 68.5437C54.4352 68.5437 54.0474 68.4517 53.6961 68.2751L34.6599 57.2699L33.7271 57.8039L53.0945 68.9511Z" fill="#FAFAFA"/>
<path d="M33.7334 57.8037V96.4236L53.094 107.537C53.6795 107.83 54.3253 107.983 54.9801 107.983C55.6349 107.983 56.2807 107.83 56.8661 107.537L60.1785 105.637C60.3938 105.542 60.5796 105.391 60.7164 105.2C60.8532 105.008 60.9359 104.784 60.9559 104.549V65.9292C60.9349 66.1644 60.8502 66.3894 60.7108 66.58C60.5715 66.7706 60.3827 66.9195 60.165 67.0108L56.8661 68.9509C56.2807 69.2442 55.6349 69.3969 54.9801 69.3969C54.3253 69.3969 53.6795 69.2442 53.094 68.9509L33.7334 57.8037Z" fill="#EBEBEB"/>
<path d="M54.9803 69.3638C55.6366 69.3767 56.2854 69.2232 56.8664 68.9176L60.1652 67.0113C60.3805 66.9181 60.5664 66.7683 60.7033 66.5778C60.8402 66.3874 60.9229 66.1634 60.9426 65.9297V104.55C60.9226 104.784 60.8399 105.009 60.7031 105.2C60.5663 105.392 60.3805 105.543 60.1652 105.638L56.8528 107.537C56.2719 107.843 55.6231 107.997 54.9668 107.984L54.9803 69.3638Z" fill="#F0F0F0"/>
<path d="M218.059 209.559C217.957 207.849 217.727 205.8 217.45 203.421C216.416 194.39 215.003 182.019 218.748 170.168C221.026 162.956 226.515 154.404 235.087 152.031C236.993 151.504 241.604 150.727 243.375 154.817C243.624 155.407 243.772 156.036 243.814 156.676C243.997 159.271 242.827 161.563 241.529 163.652C240.035 166.079 238.305 168.384 236.628 170.628C235.046 172.751 233.404 174.941 231.971 177.212C230.423 179.68 229.067 182.263 227.915 184.939L227.367 184.702C228.517 182 229.873 179.39 231.423 176.895C232.863 174.603 234.512 172.399 236.108 170.27C237.771 168.039 239.488 165.741 240.975 163.341C242.219 161.313 243.341 159.143 243.172 156.716C243.135 156.144 243.003 155.582 242.78 155.053C241.198 151.396 236.953 152.126 235.202 152.606C226.86 154.918 221.499 163.287 219.269 170.344C215.564 182.08 216.97 194.376 217.998 203.353C218.268 205.74 218.505 207.801 218.606 209.525L218.059 209.559Z" fill="#A3BCF5"/>
<path d="M218.668 219.388C218.623 219.395 218.577 219.395 218.532 219.388C218.403 219.363 218.281 219.308 218.176 219.227C218.072 219.146 217.988 219.041 217.931 218.922C217.813 218.587 217.813 218.222 217.931 217.888C218.026 217.24 218.026 216.582 217.931 215.934C217.931 215.569 217.87 215.183 217.87 214.839V210.641C218.41 203.1 220.62 195.773 224.339 189.191C227.638 183.452 231.289 179.633 235.831 177.159C238.28 175.813 240.966 174.952 243.74 174.624C246.19 174.353 248.653 175.004 250.649 176.449C252.711 178.078 253.637 180.87 252.86 183.08C252.312 184.628 251.062 185.784 249.784 186.832C247.506 188.691 245.018 190.354 242.618 191.963C240.624 193.315 238.562 194.667 236.636 196.154C230.741 200.704 225.797 206.365 222.081 212.817C221.473 213.865 220.898 214.947 220.371 216.028L220.155 216.454C219.944 216.841 219.759 217.24 219.601 217.651C219.567 217.739 219.533 217.921 219.486 218.131C219.451 218.516 219.329 218.889 219.127 219.219C219.001 219.331 218.837 219.391 218.668 219.388ZM244.714 175.185C244.41 175.185 244.106 175.185 243.795 175.225C241.102 175.539 238.495 176.375 236.122 177.686C231.687 180.099 228.111 183.851 224.867 189.489C221.197 195.989 219.015 203.223 218.478 210.668V214.825C218.478 215.15 218.478 215.501 218.539 215.873C218.648 216.581 218.648 217.301 218.539 218.009C218.466 218.229 218.466 218.466 218.539 218.685C218.557 218.719 218.581 218.749 218.612 218.773C218.642 218.796 218.677 218.812 218.715 218.82C218.836 218.571 218.918 218.304 218.958 218.029C218.991 217.842 219.036 217.657 219.094 217.475C219.258 217.041 219.453 216.619 219.675 216.211L219.884 215.792C220.425 214.697 221.007 213.608 221.615 212.547C222.879 210.36 224.281 208.255 225.813 206.247C228.842 202.29 232.376 198.747 236.325 195.708C238.272 194.221 240.34 192.835 242.341 191.496C244.734 189.894 247.202 188.238 249.466 186.399C250.669 185.419 251.852 184.317 252.353 182.911C253.029 180.931 252.197 178.423 250.325 176.942C248.708 175.737 246.729 175.117 244.714 175.185Z" fill="#A3BCF5"/>
<path d="M218.16 213.615H218.085C218.047 213.606 218.011 213.59 217.98 213.567C217.948 213.544 217.921 213.515 217.901 213.482C217.881 213.448 217.868 213.411 217.862 213.373C217.857 213.334 217.859 213.295 217.869 213.257C223.446 191.016 238.866 181.093 247.099 178.734C247.175 178.713 247.255 178.722 247.324 178.76C247.392 178.798 247.442 178.861 247.464 178.936C247.486 179.013 247.476 179.094 247.438 179.163C247.401 179.233 247.337 179.285 247.262 179.308C239.15 181.627 223.96 191.422 218.451 213.399C218.432 213.461 218.393 213.516 218.341 213.555C218.289 213.594 218.225 213.615 218.16 213.615Z" fill="#A3BCF5"/>
<path d="M218.125 195.363C218.046 195.357 217.972 195.319 217.92 195.258C217.868 195.197 217.842 195.119 217.848 195.039C219.626 171.021 235.336 157.859 237.121 156.446C237.151 156.421 237.186 156.402 237.224 156.39C237.261 156.379 237.301 156.375 237.34 156.38C237.38 156.384 237.418 156.397 237.452 156.416C237.486 156.436 237.516 156.462 237.54 156.493C237.564 156.524 237.583 156.559 237.593 156.597C237.604 156.635 237.608 156.674 237.603 156.713C237.599 156.752 237.587 156.79 237.568 156.824C237.549 156.858 237.523 156.888 237.492 156.913C235.728 158.312 220.2 171.318 218.45 195.086C218.441 195.165 218.403 195.238 218.342 195.289C218.282 195.341 218.204 195.367 218.125 195.363Z" fill="#A3BCF5"/>
<path d="M211.22 117.716L177.632 98.3332C177.372 98.1468 177.067 98.0323 176.749 98.0016C176.431 97.9708 176.11 98.0248 175.82 98.1581L173.404 99.5533C173.138 99.7382 172.927 99.991 172.792 100.285C172.657 100.579 172.603 100.904 172.637 101.226V193.161C172.686 194.057 172.946 194.928 173.395 195.705C173.844 196.482 174.47 197.141 175.222 197.631L208.804 216.989C209.063 217.176 209.367 217.292 209.686 217.324C210.004 217.356 210.325 217.303 210.616 217.17L213.032 215.769C213.295 215.583 213.503 215.331 213.635 215.038C213.768 214.745 213.82 214.422 213.787 214.102V122.185C213.74 121.291 213.483 120.42 213.037 119.644C212.591 118.867 211.969 118.207 211.22 117.716Z" fill="#263238"/>
<path d="M179.873 194.736L177.457 196.132V203.778C177.469 204.002 177.534 204.22 177.646 204.414C177.758 204.608 177.915 204.773 178.103 204.896L179.232 205.548C179.433 205.649 179.654 205.702 179.879 205.702C180.103 205.702 180.325 205.649 180.525 205.548L181.654 204.896C182.056 204.636 182.366 204.258 182.542 203.814L184.723 197.533L179.873 194.736Z" fill="#263238"/>
<path d="M177.457 203.779C177.469 204.003 177.534 204.221 177.646 204.415C177.758 204.61 177.915 204.775 178.103 204.897L179.232 205.549C179.31 205.596 179.398 205.625 179.489 205.634C179.58 205.642 179.671 205.63 179.757 205.598C179.842 205.566 179.919 205.515 179.982 205.449C180.045 205.383 180.092 205.304 180.12 205.217L182.289 198.929L177.457 196.133V203.779Z" fill="#37474F"/>
<path d="M204.106 208.683L201.69 210.084V217.724C201.701 217.949 201.765 218.167 201.876 218.363C201.987 218.558 202.143 218.724 202.33 218.848L203.466 219.5C203.665 219.602 203.885 219.654 204.109 219.654C204.333 219.654 204.553 219.602 204.752 219.5L205.888 218.848C206.289 218.589 206.599 218.211 206.776 217.767L208.95 211.479L204.106 208.683Z" fill="#263238"/>
<path d="M201.69 217.726C201.701 217.95 201.765 218.169 201.876 218.364C201.987 218.559 202.143 218.725 202.33 218.849L203.466 219.501C203.544 219.549 203.631 219.578 203.722 219.586C203.813 219.594 203.905 219.582 203.99 219.55C204.076 219.518 204.153 219.467 204.216 219.401C204.279 219.335 204.326 219.256 204.354 219.169L206.534 212.881L201.702 210.085L201.69 217.726Z" fill="#37474F"/>
<path d="M175.38 99.8003L208.962 119.128C209.714 119.619 210.34 120.28 210.789 121.058C211.238 121.835 211.498 122.707 211.547 123.604V215.539C211.611 215.862 211.572 216.197 211.436 216.496C211.3 216.796 211.074 217.046 210.789 217.21C210.504 217.375 210.174 217.446 209.847 217.414C209.519 217.381 209.21 217.248 208.962 217.031L175.38 197.666C174.629 197.177 174.004 196.517 173.556 195.74C173.107 194.964 172.849 194.092 172.801 193.197V101.286C172.736 100.964 172.774 100.629 172.91 100.33C173.045 100.03 173.272 99.781 173.556 99.6169C173.841 99.4528 174.171 99.3822 174.498 99.4151C174.825 99.448 175.133 99.5828 175.38 99.8003Z" fill="#37474F"/>
<path d="M126.612 225.462L162.937 246.433L213.794 217.072L211.372 215.671L175.047 194.7L126.612 222.665V225.462Z" fill="#455A64"/>
<path d="M162.937 246.433V243.637L213.794 214.276V217.073L162.937 246.433Z" fill="#263238"/>
<path d="M163.166 242.362L162.798 242.115C169.243 232.36 169.2 215.509 168.675 211.281C168.632 210.997 168.602 210.822 168.596 210.755L169.037 210.683C169.037 210.815 169.085 210.973 169.11 211.16C169.581 214.15 172.244 230.391 175.397 235.32L175.023 235.561C172.528 231.69 170.396 221.241 169.327 215.213C169.394 222.056 168.397 234.492 163.166 242.362Z" fill="#FAFAFA"/>
<path d="M184.379 227.468C183.829 227.305 170.988 223.415 169.804 217.75L170.245 217.659C171.369 223.065 184.373 227.003 184.506 227.045L184.379 227.468Z" fill="#FAFAFA"/>
<path d="M171.417 225.172L171.091 223.789C171.046 223.535 170.917 223.303 170.724 223.132C170.531 222.961 170.286 222.86 170.028 222.847C169.815 222.816 169.598 222.85 169.406 222.947C169.214 223.043 169.056 223.195 168.953 223.384L168.536 223.209C168.676 222.933 168.898 222.707 169.172 222.562C169.445 222.417 169.757 222.36 170.064 222.4C170.286 222.414 170.503 222.475 170.7 222.579C170.897 222.683 171.069 222.828 171.206 223.004C171.278 222.431 171.571 221.909 172.021 221.548C172.192 221.459 172.383 221.415 172.576 221.422C172.768 221.428 172.956 221.484 173.12 221.584L172.921 221.983C172.82 221.918 172.705 221.88 172.585 221.873C172.466 221.865 172.347 221.889 172.239 221.941C171.725 222.231 171.526 223.348 171.496 223.753L171.417 225.172Z" fill="#FAFAFA"/>
<path d="M172.679 229.781L172.281 228.525C171.828 227.105 171.073 226.29 170.179 226.236C169.805 226.229 169.438 226.33 169.121 226.529C168.805 226.727 168.553 227.014 168.397 227.353L167.992 227.16C168.183 226.736 168.496 226.378 168.891 226.132C169.285 225.885 169.744 225.762 170.209 225.777C170.746 225.807 171.671 226.097 172.359 227.498C172.51 226.393 172.963 224.617 174.129 223.874C174.547 223.645 175.018 223.527 175.495 223.532C175.972 223.538 176.44 223.666 176.853 223.904L176.666 224.309C176.32 224.104 175.927 223.992 175.525 223.982C175.123 223.973 174.726 224.067 174.37 224.255C172.818 225.221 172.715 228.416 172.715 228.452L172.679 229.781Z" fill="#FAFAFA"/>
<path d="M167.225 232.849L166.827 232.644C167.721 230.922 169.684 229.684 171.387 229.769C171.748 229.773 172.104 229.858 172.428 230.018C172.752 230.178 173.036 230.409 173.259 230.693C173.423 229.824 173.761 228.997 174.253 228.262C174.745 227.527 175.381 226.899 176.122 226.416C176.917 225.888 177.835 225.574 178.787 225.503C179.739 225.432 180.694 225.607 181.558 226.012L181.383 226.416C180.587 226.048 179.709 225.889 178.834 225.954C177.959 226.02 177.115 226.308 176.382 226.791C175.599 227.299 174.945 227.983 174.473 228.788C174.001 229.593 173.724 230.498 173.664 231.43V232.571L173.241 231.508C173.101 231.13 172.849 230.804 172.519 230.573C172.189 230.342 171.796 230.218 171.393 230.216C169.829 230.137 168.047 231.273 167.225 232.849Z" fill="#FAFAFA"/>
<path d="M164.774 239.517L164.381 239.3C164.925 238.309 167.818 233.333 171.243 232.433C171.726 232.294 172.233 232.26 172.731 232.331C173.229 232.403 173.705 232.58 174.13 232.849L173.9 233.23C173.526 232.993 173.106 232.838 172.668 232.775C172.23 232.711 171.784 232.741 171.358 232.861C168.845 233.526 166.248 236.86 164.774 239.517Z" fill="#FAFAFA"/>
<path d="M208.95 186.311V189.107L162.937 215.671L126.612 194.7V191.904L172.625 165.34L208.95 186.311Z" fill="#263238"/>
<path d="M208.95 186.311L162.937 212.875L126.612 191.904L172.625 165.34L208.95 186.311Z" fill="#455A64"/>
<path d="M208.95 155.555V158.346L162.937 184.915L126.612 163.939V161.148L172.625 134.578L208.95 155.555Z" fill="#263238"/>
<path d="M208.95 155.555L162.937 182.119L126.612 161.148L172.625 134.578L208.95 155.555Z" fill="#455A64"/>
<path d="M162.78 145.644L129.197 126.286C128.938 126.099 128.634 125.983 128.316 125.951C127.997 125.92 127.676 125.973 127.385 126.105C126.95 126.353 125.404 127.253 124.969 127.5C124.705 127.686 124.495 127.939 124.361 128.233C124.227 128.527 124.174 128.852 124.208 129.173V221.084C124.258 221.98 124.517 222.851 124.966 223.628C125.416 224.404 126.042 225.064 126.793 225.554L160.376 244.918C160.635 245.105 160.939 245.221 161.257 245.253C161.576 245.284 161.897 245.231 162.188 245.099C162.623 244.845 164.181 243.951 164.604 243.692C164.87 243.508 165.081 243.257 165.217 242.963C165.353 242.67 165.408 242.346 165.377 242.025V150.12C165.327 149.222 165.066 148.349 164.615 147.571C164.163 146.793 163.535 146.133 162.78 145.644Z" fill="#263238"/>
<path opacity="0.2" d="M162.937 159.753L165.365 158.352V149.956L162.931 151.357L162.937 159.753Z" fill="black"/>
<path opacity="0.2" d="M211.377 131.788L213.805 130.393V121.997L211.371 123.398L211.377 131.788Z" fill="black"/>
<path d="M131.456 222.666L129.04 224.061V231.708C129.052 231.932 129.117 232.15 129.229 232.344C129.341 232.538 129.498 232.703 129.686 232.825L130.815 233.478C131.016 233.579 131.237 233.632 131.462 233.632C131.686 233.632 131.908 233.579 132.108 233.478L133.237 232.825C133.637 232.567 133.947 232.192 134.125 231.75L136.306 225.463L131.456 222.666Z" fill="#263238"/>
<path d="M129.034 231.708C129.046 231.932 129.111 232.15 129.223 232.344C129.335 232.538 129.492 232.703 129.68 232.826L130.809 233.478C130.887 233.525 130.975 233.554 131.066 233.563C131.157 233.571 131.248 233.559 131.334 233.527C131.419 233.495 131.496 233.444 131.559 233.378C131.622 233.312 131.669 233.233 131.697 233.146L133.878 226.858L129.046 224.062L129.034 231.708Z" fill="#37474F"/>
<path d="M155.67 236.648L153.254 238.044V245.69C153.265 245.914 153.329 246.132 153.44 246.326C153.551 246.52 153.707 246.685 153.894 246.808L155.03 247.46C155.229 247.561 155.449 247.614 155.673 247.614C155.896 247.614 156.117 247.561 156.316 247.46L157.452 246.808C157.85 246.548 158.16 246.173 158.34 245.733L160.514 239.445L155.67 236.648Z" fill="#263238"/>
<path d="M153.254 245.66C153.265 245.884 153.329 246.102 153.44 246.296C153.551 246.49 153.707 246.655 153.894 246.778L155.03 247.43C155.108 247.477 155.195 247.506 155.286 247.515C155.377 247.523 155.469 247.511 155.554 247.479C155.64 247.447 155.717 247.396 155.78 247.33C155.843 247.264 155.89 247.185 155.918 247.098L158.092 240.81L153.26 238.014L153.254 245.66Z" fill="#37474F"/>
<path d="M126.769 127.687L160.357 147.045C161.108 147.536 161.733 148.197 162.181 148.975C162.63 149.753 162.888 150.625 162.936 151.521V246.433C162.936 246.433 161.07 245.328 160.357 244.917L126.775 225.553C126.023 225.064 125.397 224.404 124.948 223.627C124.499 222.851 124.239 221.979 124.19 221.084V129.173C124.125 128.851 124.163 128.516 124.299 128.217C124.435 127.917 124.661 127.668 124.946 127.504C125.231 127.339 125.56 127.269 125.887 127.302C126.214 127.335 126.522 127.469 126.769 127.687Z" fill="#37474F"/>
<path opacity="0.2" d="M160.357 147.045L126.769 127.687C126.522 127.469 126.214 127.335 125.887 127.302C125.56 127.269 125.231 127.339 124.946 127.504C124.661 127.668 124.435 127.917 124.299 128.217C124.163 128.516 124.125 128.851 124.19 129.173V137.381L162.936 159.729V151.521C162.888 150.625 162.63 149.753 162.181 148.975C161.733 148.197 161.108 147.536 160.357 147.045Z" fill="black"/>
<path d="M206.528 155.779C206.469 155.778 206.413 155.754 206.372 155.712C206.33 155.67 206.306 155.614 206.305 155.556V127.977L180 143.162C179.976 143.178 179.948 143.188 179.919 143.193C179.89 143.198 179.861 143.196 179.832 143.189C179.804 143.181 179.777 143.168 179.754 143.15C179.731 143.132 179.712 143.109 179.698 143.083C179.683 143.058 179.673 143.03 179.669 143C179.665 142.971 179.666 142.941 179.673 142.913C179.681 142.884 179.694 142.857 179.711 142.833C179.729 142.81 179.752 142.79 179.777 142.775L206.45 127.397C206.483 127.376 206.522 127.365 206.561 127.365C206.601 127.365 206.64 127.376 206.673 127.397C206.707 127.417 206.734 127.445 206.753 127.479C206.772 127.513 206.782 127.552 206.782 127.59V155.556C206.782 155.588 206.776 155.619 206.762 155.649C206.749 155.678 206.73 155.704 206.706 155.725C206.682 155.747 206.654 155.762 206.623 155.772C206.592 155.781 206.56 155.783 206.528 155.779Z" fill="#FAFAFA"/>
<path d="M201.685 148.786H201.618C201.561 148.773 201.51 148.737 201.479 148.688C201.447 148.638 201.436 148.577 201.449 148.52L205.955 129.005L197.016 144.485C197.002 144.511 196.983 144.534 196.96 144.552C196.937 144.57 196.911 144.584 196.883 144.592C196.854 144.6 196.825 144.602 196.796 144.598C196.767 144.594 196.739 144.585 196.714 144.57C196.688 144.555 196.665 144.536 196.646 144.512C196.628 144.489 196.614 144.462 196.607 144.433C196.599 144.405 196.597 144.375 196.601 144.345C196.604 144.316 196.614 144.287 196.629 144.262L206.293 127.483C206.321 127.436 206.364 127.401 206.415 127.384C206.465 127.366 206.521 127.367 206.571 127.386C206.621 127.406 206.661 127.443 206.686 127.491C206.71 127.539 206.716 127.594 206.704 127.646L201.872 148.623C201.861 148.666 201.837 148.704 201.804 148.733C201.77 148.763 201.729 148.781 201.685 148.786Z" fill="#FAFAFA"/>
<path d="M192.001 141.821C191.97 141.821 191.94 141.815 191.912 141.803C191.884 141.79 191.858 141.772 191.838 141.749C191.797 141.707 191.773 141.651 191.773 141.592C191.773 141.533 191.797 141.477 191.838 141.435L206.37 127.452C206.412 127.411 206.468 127.388 206.527 127.388C206.586 127.388 206.642 127.411 206.684 127.452C206.726 127.495 206.749 127.552 206.749 127.612C206.749 127.672 206.726 127.729 206.684 127.772L192.152 141.749C192.133 141.77 192.11 141.788 192.084 141.8C192.058 141.813 192.03 141.82 192.001 141.821Z" fill="#FAFAFA"/>
<path d="M206.528 151.315C206.469 151.314 206.413 151.29 206.372 151.248C206.33 151.206 206.306 151.15 206.305 151.092C206.305 147.431 202.222 147.184 202.046 147.178C202.013 147.175 201.981 147.166 201.952 147.15C201.923 147.135 201.898 147.113 201.877 147.087C201.858 147.061 201.845 147.032 201.839 147.001C201.833 146.969 201.833 146.937 201.841 146.906C201.99 146.158 201.94 145.384 201.695 144.662C201.45 143.94 201.019 143.296 200.446 142.793C200.236 142.584 199.985 142.422 199.708 142.318C199.431 142.214 199.134 142.17 198.839 142.189C198.682 142.215 198.532 142.276 198.399 142.365C198.267 142.455 198.155 142.572 198.072 142.708C198.047 142.752 198.007 142.786 197.96 142.805C197.913 142.824 197.861 142.826 197.812 142.811C197.764 142.796 197.722 142.765 197.694 142.724C197.665 142.682 197.652 142.632 197.655 142.581C197.655 142.442 197.903 139.187 195.04 138.867C195.003 138.862 194.968 138.849 194.938 138.828C194.907 138.807 194.882 138.779 194.865 138.746C194.848 138.714 194.84 138.679 194.84 138.643C194.84 138.608 194.848 138.572 194.865 138.541C194.865 138.541 196.133 136.167 195.644 135.001C195.588 134.864 195.5 134.743 195.387 134.646C195.275 134.55 195.142 134.481 194.998 134.445C194.969 134.438 194.942 134.425 194.919 134.406C194.896 134.388 194.876 134.365 194.862 134.339C194.848 134.313 194.84 134.284 194.837 134.255C194.834 134.225 194.838 134.196 194.847 134.168C194.865 134.112 194.904 134.065 194.956 134.037C195.007 134.009 195.068 134.001 195.125 134.017C195.333 134.07 195.525 134.172 195.687 134.313C195.848 134.455 195.974 134.633 196.055 134.832C196.52 135.937 195.735 137.767 195.396 138.456C197.619 138.885 198.03 140.981 198.09 142.02C198.289 141.879 198.515 141.782 198.755 141.736C199.118 141.701 199.484 141.748 199.826 141.875C200.168 142.001 200.477 142.204 200.73 142.467C201.33 142.996 201.789 143.666 202.066 144.416C202.344 145.167 202.43 145.975 202.318 146.767C203.297 146.894 206.752 147.576 206.746 151.104C206.742 151.16 206.718 151.213 206.678 151.252C206.638 151.291 206.584 151.314 206.528 151.315Z" fill="#FAFAFA"/>
<path d="M206.528 145.287C206.472 145.288 206.417 145.267 206.376 145.228C206.335 145.19 206.309 145.138 206.304 145.082C206.208 143.802 205.465 142.147 204.529 141.736C204.343 141.653 204.138 141.626 203.937 141.658C203.736 141.69 203.549 141.78 203.399 141.917C203.362 141.941 203.319 141.953 203.275 141.953C203.231 141.953 203.189 141.941 203.152 141.917C203.113 141.896 203.082 141.864 203.062 141.826C203.041 141.787 203.033 141.743 203.037 141.7C203.037 141.7 203.236 139.435 202.215 138.498C201.994 138.314 201.731 138.184 201.45 138.121C201.168 138.058 200.876 138.063 200.597 138.136C200.558 138.144 200.518 138.142 200.481 138.129C200.444 138.116 200.411 138.094 200.385 138.064C200.359 138.033 200.342 137.997 200.334 137.957C200.327 137.918 200.33 137.878 200.343 137.84C200.548 137.278 200.947 135.702 200.409 135.14C200.156 134.88 199.691 134.856 199.02 135.074C198.974 135.089 198.925 135.089 198.879 135.074C198.834 135.058 198.794 135.029 198.766 134.989C198.739 134.95 198.724 134.904 198.724 134.856C198.724 134.809 198.739 134.762 198.766 134.723C199.141 134.252 200.065 132.875 199.836 132.217C199.798 132.126 199.736 132.047 199.658 131.987C199.579 131.928 199.486 131.89 199.389 131.879C199.36 131.872 199.333 131.859 199.309 131.841C199.286 131.824 199.266 131.802 199.251 131.777C199.235 131.751 199.225 131.723 199.221 131.694C199.217 131.665 199.218 131.635 199.226 131.607C199.231 131.578 199.243 131.551 199.259 131.527C199.276 131.502 199.298 131.482 199.323 131.467C199.348 131.451 199.375 131.441 199.404 131.437C199.434 131.434 199.463 131.436 199.491 131.444C199.661 131.468 199.821 131.537 199.956 131.643C200.09 131.749 200.195 131.889 200.258 132.048C200.506 132.766 199.902 133.86 199.479 134.464C199.697 134.412 199.924 134.414 200.141 134.47C200.358 134.526 200.558 134.633 200.723 134.784C201.388 135.472 201.068 136.928 200.868 137.611C201.163 137.575 201.462 137.603 201.745 137.691C202.028 137.78 202.289 137.927 202.511 138.124C203.411 138.945 203.508 140.54 203.496 141.271C203.685 141.182 203.891 141.136 204.1 141.136C204.309 141.136 204.515 141.182 204.704 141.271C205.845 141.772 206.637 143.554 206.751 144.997C206.754 145.027 206.75 145.056 206.741 145.083C206.732 145.111 206.718 145.137 206.699 145.159C206.679 145.181 206.656 145.199 206.63 145.211C206.604 145.224 206.575 145.232 206.546 145.233L206.528 145.287Z" fill="#FAFAFA"/>
<path d="M219.538 117.806C219.509 117.485 219.396 117.178 219.209 116.916C219.022 116.653 218.769 116.446 218.475 116.314L182.471 95.5242C181.67 95.1192 180.786 94.9082 179.889 94.9082C178.991 94.9082 178.107 95.1192 177.306 95.5242L121.932 127.5C121.638 127.632 121.385 127.839 121.198 128.102C121.011 128.364 120.897 128.671 120.869 128.992V131.788C120.897 132.109 121.011 132.416 121.198 132.679C121.385 132.941 121.638 133.148 121.932 133.28L157.936 154.064C158.736 154.472 159.621 154.684 160.518 154.684C161.416 154.684 162.301 154.472 163.1 154.064L218.475 122.094C218.769 121.962 219.022 121.755 219.209 121.492C219.396 121.23 219.509 120.923 219.538 120.602V117.806Z" fill="#37474F"/>
<path d="M157.936 151.267L121.932 130.484C120.506 129.656 120.506 128.321 121.932 127.5L177.307 95.5242C178.107 95.1192 178.992 94.9082 179.889 94.9082C180.786 94.9082 181.67 95.1192 182.471 95.5242L218.475 116.314C219.907 117.141 219.907 118.47 218.475 119.298L163.101 151.267C162.301 151.675 161.416 151.888 160.518 151.888C159.621 151.888 158.736 151.675 157.936 151.267Z" fill="#455A64"/>
<path opacity="0.1" d="M211.372 126.189L194.423 147.166L165.365 163.945L165.359 152.759L211.372 126.189Z" fill="black"/>
<path opacity="0.1" d="M208.949 158.347L194.423 177.922L165.365 194.707V183.515L208.949 158.347Z" fill="black"/>
<path opacity="0.1" d="M208.949 189.108L194.423 208.684L165.365 225.469V214.277L208.949 189.108Z" fill="black"/>
<path d="M133.293 256.203L88.7415 281.927L38.5732 252.893L83.1243 227.175L133.293 256.203Z" fill="#A3BCF5"/>
<path opacity="0.5" d="M133.293 256.203L88.7415 281.927L38.5732 252.893L83.1243 227.175L133.293 256.203Z" fill="black"/>
<path d="M83.1243 192.306V227.175L38.5732 252.893V218.03L83.1243 192.306Z" fill="#A3BCF5"/>
<path opacity="0.23" d="M83.1243 192.306V227.175L38.5732 252.893V218.03L83.1243 192.306Z" fill="black"/>
<path d="M88.7415 247.059V281.927L38.5732 252.893V218.03L88.7415 247.059Z" fill="#A3BCF5"/>
<path opacity="0.38" d="M88.7415 247.059V281.927L38.5732 252.893V218.03L88.7415 247.059Z" fill="black"/>
<path d="M133.294 221.334V256.203L83.1255 227.175V192.306L133.294 221.334Z" fill="#A3BCF5"/>
<path opacity="0.4" d="M133.294 221.334V256.203L83.1255 227.175V192.306L133.294 221.334Z" fill="black"/>
<path d="M133.293 256.203V221.334L88.7422 247.058V281.927L133.293 256.203Z" fill="#A3BCF5"/>
<path opacity="0.23" d="M133.293 256.203V221.334L88.7422 247.058V281.927L133.293 256.203Z" fill="black"/>
<path d="M83.1255 192.306L83.1859 173.002L133.233 202.066L133.294 221.334L83.1255 192.306Z" fill="#A3BCF5"/>
<path opacity="0.2" d="M83.1255 192.306L83.1859 173.002L133.233 202.066L133.294 221.334L83.1255 192.306Z" fill="black"/>
<path d="M88.7422 247.058L92.9219 230.17L137.068 204.682L133.293 221.334L88.7422 247.058Z" fill="#A3BCF5"/>
<path opacity="0.3" d="M88.7422 247.058L92.9219 230.17L137.068 204.682L133.293 221.334L88.7422 247.058Z" fill="black"/>
<path d="M38.574 218.03L33.2588 200.514L77.8098 174.796L83.125 192.306L38.574 218.03Z" fill="#A3BCF5"/>
<path opacity="0.1" d="M38.574 218.03L33.2588 200.514L77.8098 174.796L83.125 192.306L38.574 218.03Z" fill="black"/>
<path d="M38.5738 218.031L28.0884 203.553L78.2627 232.581L88.7421 247.059L38.5738 218.031Z" fill="#A3BCF5"/>
<path opacity="0.45" d="M38.5738 218.031L28.0884 203.553L78.2627 232.581L88.7421 247.059L38.5738 218.031Z" fill="black"/>
<g opacity="0.7">
<path opacity="0.7" d="M101.861 271.557C101.788 271.557 101.718 271.529 101.666 271.478C101.615 271.427 101.585 271.358 101.583 271.286V265.149C101.585 265.076 101.614 265.006 101.666 264.954C101.718 264.902 101.788 264.873 101.861 264.871C101.933 264.873 102.003 264.903 102.053 264.955C102.104 265.007 102.133 265.076 102.133 265.149V271.286C102.133 271.358 102.104 271.427 102.053 271.478C102.002 271.529 101.933 271.557 101.861 271.557Z" fill="white"/>
<path opacity="0.7" d="M101.058 267.274C101.022 267.28 100.985 267.28 100.949 267.274C100.883 267.244 100.831 267.19 100.804 267.122C100.778 267.055 100.777 266.98 100.804 266.912L101.783 264.659L102.87 265.915C102.909 265.972 102.926 266.04 102.917 266.108C102.909 266.176 102.875 266.238 102.824 266.283C102.772 266.328 102.706 266.352 102.637 266.351C102.569 266.35 102.503 266.324 102.453 266.278L101.94 265.674L101.336 267.123C101.31 267.173 101.269 267.214 101.22 267.241C101.17 267.268 101.114 267.28 101.058 267.274Z" fill="white"/>
<path opacity="0.7" d="M104.392 270.114C104.319 270.112 104.25 270.082 104.199 270.03C104.149 269.978 104.12 269.909 104.12 269.836V263.705C104.12 263.633 104.149 263.564 104.2 263.513C104.251 263.462 104.32 263.434 104.392 263.434C104.464 263.434 104.533 263.462 104.584 263.513C104.635 263.564 104.664 263.633 104.664 263.705V269.83C104.665 269.866 104.658 269.903 104.645 269.937C104.632 269.971 104.612 270.002 104.587 270.028C104.561 270.055 104.531 270.076 104.498 270.09C104.464 270.105 104.428 270.113 104.392 270.114Z" fill="white"/>
<path opacity="0.7" d="M103.589 265.831C103.553 265.837 103.516 265.837 103.48 265.831C103.447 265.817 103.417 265.796 103.392 265.77C103.367 265.744 103.348 265.713 103.335 265.679C103.322 265.645 103.316 265.609 103.317 265.573C103.318 265.537 103.326 265.502 103.342 265.469L104.314 263.186L105.401 264.436C105.451 264.488 105.479 264.557 105.479 264.629C105.479 264.701 105.451 264.771 105.401 264.822C105.376 264.848 105.346 264.868 105.313 264.882C105.279 264.896 105.244 264.903 105.208 264.903C105.172 264.903 105.136 264.896 105.103 264.882C105.07 264.868 105.04 264.848 105.015 264.822L104.501 264.218L103.897 265.668C103.872 265.726 103.828 265.774 103.772 265.804C103.716 265.834 103.651 265.843 103.589 265.831Z" fill="white"/>
</g>
<g opacity="0.7">
<path opacity="0.7" d="M94.559 275.718C94.4557 275.72 94.3538 275.695 94.263 275.646C94.1538 275.576 94.0653 275.478 94.0069 275.362C93.9485 275.246 93.9222 275.117 93.9308 274.988V274.233C93.9324 274.16 93.9623 274.091 94.0143 274.04C94.0662 273.989 94.136 273.961 94.2086 273.961C94.2807 273.961 94.3499 273.989 94.4008 274.04C94.4518 274.091 94.4804 274.161 94.4804 274.233V274.988C94.4804 275.096 94.4804 275.157 94.5348 275.169C94.5892 275.181 94.6194 275.169 94.71 275.121C94.8799 274.964 95.0139 274.772 95.1025 274.558C95.1911 274.344 95.2324 274.114 95.2234 273.882V270.742C95.2234 270.669 95.252 270.6 95.303 270.549C95.3539 270.498 95.4231 270.47 95.4952 270.47C95.5672 270.47 95.6364 270.498 95.6874 270.549C95.7383 270.6 95.767 270.669 95.767 270.742V273.882C95.7805 274.208 95.717 274.533 95.5816 274.83C95.4462 275.127 95.2428 275.388 94.9878 275.592C94.8587 275.671 94.7106 275.715 94.559 275.718Z" fill="white"/>
<path opacity="0.7" d="M91.6772 273.187V272.716C91.749 271.507 92.1026 270.33 92.7099 269.282C93.3171 268.233 94.161 267.341 95.1744 266.676C96.165 266.108 97.1072 266.024 97.832 266.447C98.2186 266.712 98.5268 267.076 98.7245 267.501C98.9221 267.926 99.0019 268.396 98.9554 268.863V269.02L91.6772 273.187ZM96.8173 266.7C96.3337 266.723 95.8638 266.868 95.4522 267.123C94.5839 267.695 93.8486 268.446 93.2962 269.327C92.7439 270.207 92.3874 271.196 92.251 272.227L98.3937 268.675C98.4199 268.326 98.3553 267.975 98.2061 267.658C98.0569 267.34 97.8281 267.066 97.5421 266.863C97.3189 266.747 97.069 266.69 96.8173 266.7Z" fill="white"/>
</g>
<path opacity="0.7" d="M28.0884 203.553L78.2627 232.581L88.7421 247.059L77.707 233.094L28.0884 203.553Z" fill="white"/>
<path opacity="0.7" d="M133.293 221.334L88.7422 247.058V281.927L89.5757 247.759L133.293 221.334Z" fill="white"/>
<path d="M65.9355 205.245C71.0799 204.502 75.7781 201.189 78.7795 197.025C80.1792 195.08 81.2103 192.894 81.8215 190.576C82.4707 188.409 82.5774 186.115 82.1325 183.897C81.2064 180.186 77.7723 177.989 74.1422 177.529C72.3001 177.287 70.4271 177.47 68.6666 178.063C66.8411 178.69 65.2574 179.872 64.1374 181.443C63.4351 182.281 62.9933 183.305 62.8665 184.391C62.8557 184.816 63.0056 185.23 63.2862 185.549C63.5669 185.869 63.9577 186.071 64.3807 186.115C65.4692 186.206 66.557 185.93 67.47 185.33C68.5833 184.706 69.5639 183.87 70.3566 182.87C72.0569 180.771 73.3293 178.36 74.1016 175.772C74.6436 173.551 74.6436 171.233 74.1016 169.012C73.6899 166.689 72.6281 164.53 71.0393 162.786C69.218 161.129 66.9066 160.111 64.4551 159.886C62.0152 159.551 59.5309 159.782 57.1948 160.562C56.1687 160.873 55.2182 161.393 54.403 162.09C53.8216 162.63 53.1591 163.523 53.3957 164.401C53.6323 165.28 54.9167 165.672 55.7888 165.557C57.0794 165.316 58.2616 164.675 59.1688 163.725C60.1798 162.73 61.0385 161.591 61.7173 160.345C62.2216 159.45 62.4848 158.439 62.4812 157.412C62.3933 153.126 57.6545 150.354 53.9433 149.57C52.9414 149.361 51.9153 149.292 50.8945 149.367C50.5498 149.367 50.7593 149.935 51.0365 149.915C53.0336 149.824 55.0183 150.272 56.7825 151.213C58.523 152.013 59.9849 153.314 60.9804 154.951C61.4241 155.758 61.6431 156.669 61.6146 157.589C61.5861 158.51 61.311 159.405 60.8182 160.183C60.1563 161.336 59.3322 162.388 58.3711 163.306C57.5666 164.036 56.3431 164.881 55.2142 164.8C55.0278 164.8 54.8453 164.747 54.6875 164.648C54.5297 164.549 54.403 164.407 54.3218 164.239C54.2878 164.017 54.3061 163.79 54.3754 163.577C54.4446 163.363 54.5629 163.169 54.7207 163.009C55.3176 162.366 56.0559 161.871 56.8771 161.562C58.9052 160.719 61.1012 160.358 63.2924 160.508C65.5505 160.549 67.7466 161.254 69.6062 162.536C71.2262 163.881 72.3767 165.706 72.8916 167.748C73.5438 169.822 73.7466 172.011 73.4864 174.17C73.085 176.342 72.2505 178.411 71.0326 180.254C69.782 182.322 68.2136 184.31 65.8612 185.121C65.2798 185.33 64.063 185.635 63.8332 184.79C63.6033 183.945 64.2658 182.904 64.6917 182.248C65.6334 180.766 67.0064 179.607 68.626 178.929C70.1889 178.302 71.8759 178.048 73.554 178.185C76.738 178.422 79.9693 180.085 81.0779 183.248C81.634 185.139 81.6946 187.141 81.2537 189.062C80.856 191.167 80.0991 193.189 79.0161 195.038C76.6866 198.966 73.1586 202.044 68.9505 203.819C67.95 204.252 66.9225 204.617 65.8747 204.955C65.7665 204.995 65.8138 205.266 65.9355 205.245Z" fill="#E0E0E0"/>
<path d="M44.4461 146.555C41.7421 146.359 38.0173 148.489 39.3423 150.043C40.6673 151.598 44.1825 149.084 44.1825 149.084C44.1825 149.084 43.8512 152.227 45.0004 152.585C46.1496 152.944 47.7044 149.942 46.5552 148.022C47.1094 148.241 47.7099 148.316 48.3008 148.24C48.8917 148.164 49.4539 147.941 49.9352 147.59C51.5711 146.386 49.8406 145.251 47.5354 145.453C47.5354 145.453 49.1849 140.045 45.8522 141.08C44.1825 141.587 43.5943 143.54 44.4461 146.555Z" fill="#A3BCF5"/>
<path opacity="0.65" d="M44.4461 146.555C41.7421 146.359 38.0173 148.489 39.3423 150.043C40.6673 151.598 44.1825 149.084 44.1825 149.084C44.1825 149.084 43.8512 152.227 45.0004 152.585C46.1496 152.944 47.7044 149.942 46.5552 148.022C47.1094 148.241 47.7099 148.316 48.3008 148.24C48.8917 148.164 49.4539 147.941 49.9352 147.59C51.5711 146.386 49.8406 145.251 47.5354 145.453C47.5354 145.453 49.1849 140.045 45.8522 141.08C44.1825 141.587 43.5943 143.54 44.4461 146.555Z" fill="white"/>
<path d="M46.9613 147.705C46.8117 147.558 46.6537 147.42 46.4881 147.292C46.2515 147.11 46.0014 146.934 45.7648 146.758C45.5344 146.591 45.2927 146.439 45.0414 146.305C44.8968 146.225 44.7479 146.153 44.5953 146.089C44.3846 145.99 44.1503 145.953 43.9193 145.981C43.8587 145.983 43.7998 146 43.7485 146.033C43.6973 146.065 43.6557 146.111 43.6281 146.164C43.6004 146.218 43.5878 146.279 43.5914 146.339C43.5951 146.4 43.6149 146.458 43.6489 146.508C43.8347 146.709 44.0667 146.863 44.3249 146.954L44.6899 147.15C44.94 147.299 45.1631 147.468 45.3659 147.637C45.5687 147.806 45.8391 147.968 46.0419 148.137C46.3906 148.42 46.7804 148.648 47.1979 148.813C47.2166 148.823 47.2375 148.829 47.2587 148.829C47.28 148.829 47.3009 148.823 47.3196 148.813C47.6643 148.543 47.1573 147.901 46.9613 147.705Z" fill="#455A64"/>
<path d="M262.476 72.1902C259.522 76.1651 255.567 98.0202 254.073 105.03C246.888 104.821 237.275 104.483 233.638 104.104C229.582 103.678 220.922 102.847 216.67 103.428C206.118 104.78 206.53 111.716 206.787 113.528C207.064 115.596 208.545 116.543 214.223 115.251C215.494 114.972 216.789 114.82 218.09 114.799C218.637 114.799 219.793 114.521 220.226 114.988C220.902 115.664 218.948 116.799 218.462 117.11C217.711 117.597 216.927 118.212 216.772 119.091C216.727 119.252 216.73 119.422 216.779 119.581C216.828 119.741 216.922 119.883 217.049 119.99C217.324 120.103 217.632 120.103 217.907 119.99C220.499 119.375 222.999 118.423 225.343 117.158C226.227 116.625 227.157 116.172 228.122 115.806C229.589 115.333 231.103 115.61 232.577 115.61C235.747 115.61 252.505 117.273 259.955 118.03C265.112 118.55 265.66 113.46 267.438 108.302C269.621 101.907 274.793 68.2762 274.793 68.2762C269.574 67.5191 265.991 67.4718 262.476 72.1902Z" fill="#FFA8A7"/>
<path d="M274.874 67.7484C272.379 67.2888 266.762 66.5925 263.706 70.0063C260.651 73.4201 259.927 77.0029 258.582 82.1743C257.237 87.3457 254.851 96.6069 254.851 96.6069C254.851 96.6069 258.792 102.265 271.129 100.663L274.874 67.7484Z" fill="#DB5555"/>
<path d="M305.856 246.497L297.182 246.503L294.688 227.677L305.632 227.244L305.856 246.497Z" fill="#FFA8A7"/>
<path d="M277.058 237.093C275.584 239.655 270.845 239.446 266.918 238.54L266.465 220.031L278.058 219.571L277.058 237.093Z" fill="#FFA8A7"/>
<path d="M305.267 127.534C305.578 135.544 304.516 182.912 304.516 182.912C304.807 185.21 307.187 189.219 307.68 197.513C308.403 209.56 305.95 235.248 305.95 235.248C305.95 235.248 300.981 237.843 295.627 235.856C295.627 235.856 290.179 198.676 288.191 186.792C286.474 176.449 284.27 148.706 284.27 148.706L279.991 184.264C280.776 188.472 281.1 192.754 280.958 197.033C280.782 202.563 277.632 229.414 277.632 229.414C274.038 230.589 270.178 230.681 266.532 229.677C266.532 229.677 263.95 188.009 263.652 182.959C263.314 177.199 263.544 126.357 263.544 126.357L305.267 127.534Z" fill="#0A235C"/>
<path opacity="0.2" d="M284.283 148.72C284.283 148.72 276.705 146.57 271.541 141.96C271.541 141.96 273.961 146.09 280.815 149.754L280.423 180.789L284.283 148.72Z" fill="black"/>
<path d="M287.298 262.2C287.021 262.484 287.183 264.357 287.521 264.843C287.859 265.33 289.928 266.98 293.517 267.101C296.945 267.209 299.973 266.628 301.927 265.276C303.88 263.924 304.8 262.484 304.915 260.544C305.03 258.604 304.739 256.718 305.591 255.183C306.395 253.771 307.7 252.155 307.963 251.391C308.552 249.735 307.835 247.43 307.835 247.43L287.298 262.2Z" fill="#263238"/>
<path d="M295.951 244.848C295.956 245.587 295.851 246.323 295.64 247.031C294.907 249.337 293.804 251.508 292.375 253.46C291.388 254.724 290.145 255.786 289.097 257.009C287.975 258.17 287.288 259.681 287.15 261.288C287.109 263.992 290.057 264.77 292.308 265.081C294.748 265.403 297.229 265.171 299.568 264.405C300.8 264.033 301.898 263.314 302.73 262.333C303.563 261.352 304.094 260.151 304.259 258.875C304.354 258.125 304.259 257.367 304.341 256.617C304.57 254.894 305.222 253.254 306.24 251.845C306.829 251.029 307.332 250.154 307.741 249.235C308.369 247.545 307.741 245.7 307.227 244.071C306.788 242.658 306.287 241.056 305.794 241.211C305.794 241.961 305.794 242.029 305.314 242.563C304.638 243.239 304.672 244.179 303.962 244.767C304.167 244.143 304.308 243.5 304.381 242.847C304.414 242.581 304.35 242.312 304.199 242.09C303.954 241.891 303.667 241.753 303.36 241.684C302.291 241.368 301.193 241.162 300.082 241.069C299.024 240.93 297.951 240.964 296.905 241.171C296.595 241.242 296.319 241.416 296.12 241.664C295.946 241.941 295.859 242.263 295.87 242.59C295.87 243.03 295.945 244.131 295.951 244.848Z" fill="#455A64"/>
<path d="M293.383 251.966C294.356 251.182 296.587 251.081 297.818 251.169C299.064 251.225 300.276 251.597 301.34 252.25C301.496 252.355 301.685 252.4 301.872 252.378C302.06 252.356 302.233 252.267 302.36 252.129C302.435 252.05 302.492 251.956 302.526 251.853C302.561 251.75 302.573 251.641 302.562 251.533C302.55 251.425 302.515 251.321 302.459 251.227C302.404 251.134 302.328 251.054 302.239 250.993C301.064 250.197 299.689 249.747 298.271 249.695C295.256 249.607 294.397 250.155 294.397 250.155C294.397 250.155 293.052 251.088 293.383 251.966Z" fill="#F5F5F5"/>
<path d="M291.192 254.805C292.415 254.014 294.883 254.021 296.106 254.129C297.333 254.207 298.517 254.606 299.54 255.285C299.696 255.389 299.884 255.434 300.07 255.412C300.256 255.39 300.428 255.302 300.554 255.164C300.631 255.086 300.689 254.992 300.725 254.889C300.761 254.787 300.774 254.677 300.763 254.569C300.752 254.461 300.717 254.356 300.661 254.262C300.605 254.169 300.53 254.089 300.44 254.028C299.245 253.19 297.84 252.703 296.384 252.622C293.362 252.527 292.605 253.169 292.605 253.169C292.261 253.318 291.956 253.543 291.711 253.826C291.467 254.109 291.289 254.444 291.192 254.805Z" fill="#F5F5F5"/>
<path d="M299.352 246.775C298.076 246.601 296.777 246.759 295.58 247.234C295.066 247.552 294.749 248.404 295.093 248.586C296.141 248.116 297.288 247.912 298.433 247.992C299.564 248.058 300.675 248.319 301.718 248.762C301.982 248.864 302.293 249.012 302.563 249.148C302.65 249.192 302.744 249.218 302.841 249.225C302.938 249.231 303.036 249.218 303.127 249.186C303.219 249.153 303.303 249.103 303.375 249.037C303.446 248.971 303.504 248.891 303.543 248.803C303.607 248.649 303.612 248.477 303.558 248.32C303.503 248.163 303.392 248.031 303.246 247.951C302.048 247.284 300.72 246.883 299.352 246.775Z" fill="#F5F5F5"/>
<path d="M247.097 248.639C246.789 249.412 246.789 250.273 247.097 251.046C247.394 251.769 250.977 254.014 255.952 253.919C259.652 253.829 263.26 252.751 266.403 250.796C268.357 249.633 270.337 249.491 272.798 249.444C275.259 249.397 278.544 248.349 279.139 247.227C279.734 246.104 279.207 244.097 279.207 244.097L247.097 248.639Z" fill="#263238"/>
<path d="M267.85 234.107L267.465 234.005C267.246 233.939 267.016 233.918 266.789 233.945C266.546 234.003 266.326 234.135 266.16 234.323C265.649 234.923 265.196 235.57 264.808 236.257C263.693 237.899 261.428 239.204 258.995 240.373C257.332 241.164 255.716 241.766 254.006 242.435C252.296 243.104 249.95 243.483 248.598 244.321C246.57 245.545 246.185 248.823 248.334 250.229C250.2 251.446 255.175 252.9 260.502 251.656C263.416 250.98 266.755 248.059 270.541 247.945C272.954 247.87 277.524 247.411 279.153 245.66C279.768 244.882 279.153 242.28 278.606 240.035C278.038 237.588 278.295 233.951 277.2 233.951L277.132 235.175C277.031 235.54 276.172 235.898 275.902 236.182L274.928 237.21C274.529 237.685 274.043 238.08 273.495 238.372C272.528 238.805 271.399 238.548 270.365 238.278C270.325 238.278 270.886 236.398 270.947 236.216C271.008 236.073 271.026 235.916 271.001 235.763C270.949 235.613 270.846 235.486 270.71 235.405C269.857 234.779 268.883 234.338 267.85 234.107Z" fill="#455A64"/>
<path d="M261.307 239.169C261.496 238.847 261.763 238.578 262.083 238.385C262.403 238.193 262.766 238.083 263.139 238.067C264.24 237.918 266.127 238.811 267.282 239.858C267.391 239.957 267.475 240.08 267.525 240.218C267.576 240.356 267.591 240.504 267.571 240.649C267.551 240.794 267.496 240.933 267.41 241.052C267.325 241.171 267.211 241.267 267.08 241.332C266.915 241.414 266.729 241.442 266.547 241.413C266.365 241.384 266.197 241.299 266.066 241.17C264.8 239.909 263.093 239.192 261.307 239.169Z" fill="#F5F5F5"/>
<path d="M257.832 240.906C258.085 240.583 258.412 240.324 258.787 240.154C259.161 239.983 259.571 239.905 259.981 239.926C259.981 239.926 262.834 240.143 264.517 241.873C264.621 241.968 264.701 242.087 264.749 242.219C264.797 242.351 264.812 242.493 264.794 242.632C264.775 242.772 264.723 242.905 264.642 243.02C264.561 243.135 264.453 243.228 264.328 243.293C264.168 243.37 263.989 243.397 263.813 243.369C263.638 243.342 263.475 243.261 263.348 243.137C262.655 242.375 261.799 241.778 260.844 241.392C259.889 241.006 258.86 240.84 257.832 240.906Z" fill="#F5F5F5"/>
<path d="M254.012 242.434C254.299 242.137 254.647 241.905 255.032 241.755C255.417 241.604 255.83 241.539 256.243 241.562C257.859 241.741 259.378 242.424 260.583 243.516C260.687 243.612 260.766 243.731 260.814 243.863C260.862 243.996 260.878 244.138 260.859 244.278C260.841 244.418 260.789 244.552 260.708 244.667C260.627 244.783 260.519 244.877 260.394 244.942C260.234 245.021 260.053 245.048 259.877 245.019C259.702 244.99 259.539 244.906 259.413 244.78C258.757 243.996 257.928 243.376 256.99 242.969C256.052 242.562 255.033 242.379 254.012 242.434Z" fill="#F5F5F5"/>
<path d="M289.326 67.8979C292.517 68.263 296.289 68.459 299.338 68.8578C303.265 69.3716 306.328 73.4344 307.288 79.7212C308.342 86.6434 303.908 106.491 303.908 106.491L305.32 129.894C299.568 134.132 275.069 136.356 262.861 127.541C262.861 127.541 263.145 87.7115 264.098 81.5734C265.409 73.1572 267.478 67.9317 276.942 67.3301L289.326 67.8979Z" fill="#DB5555"/>
<path d="M311.141 118.598C310.107 120.328 309.066 122.059 307.998 123.769C307.606 124.405 307.207 125.033 306.795 125.655C306.571 125.96 306.31 126.234 306.017 126.473C305.504 126.825 304.436 126.602 303.814 126.622C300.758 126.726 297.712 126.951 294.674 127.298C294.42 127.29 294.167 127.338 293.934 127.438C293.7 127.539 293.491 127.689 293.322 127.879C293.197 128.141 293.172 128.439 293.252 128.718C293.332 128.997 293.51 129.237 293.755 129.393C294.252 129.692 294.818 129.86 295.397 129.88L298.034 130.191C298.41 130.204 298.775 130.321 299.088 130.529C300.048 131.307 298.216 132.239 297.669 132.618C296.568 133.383 295.392 134.035 294.16 134.565C288.664 136.877 287.995 138.553 289.009 140.46C289.888 142.116 293.687 148.139 303.34 142.954C307.227 140.865 313.142 134.267 315.84 131.077C319.72 126.473 326.284 116.205 326.284 116.205C330.015 111.081 330.495 108.978 330.583 106.849C330.671 104.719 319.091 88.34 315.157 82.5872C311.223 76.8344 309.35 69.8378 299.339 68.8779C299.339 68.8779 295.526 80.9648 301.84 88.7861L316.421 109.127C316.421 109.127 312.561 116.225 311.141 118.598Z" fill="#FFA8A7"/>
<path d="M321.721 90.3882C319.849 87.6842 317.895 84.8991 316.009 82.141C308.066 70.5476 308.735 68.4249 297.284 68.2627C296.27 69.8175 295.668 76.5099 297.196 83.2293C298.473 88.8739 303.28 92.8556 303.28 92.8556L309.012 100.623C309.012 100.623 312.521 100.515 316.725 97.4321C319.154 95.7311 320.919 93.2424 321.721 90.3882Z" fill="#DB5555"/>
<path d="M296.877 37.4295C296.302 36.5717 295.504 35.886 294.57 35.4456C293.635 35.0051 292.599 34.8263 291.571 34.9283L290.976 49.442L290.002 54.8027L290.171 60.7717C290.737 60.6918 291.272 60.4701 291.728 60.1274C292.185 59.7846 292.547 59.3318 292.781 58.8113C293.673 57.0943 296.161 48.793 296.161 48.793C298.392 41.9722 297.918 38.8896 296.877 37.4295Z" fill="#263238"/>
<path d="M290.3 49.5098C290.551 48.6277 291.034 47.8292 291.7 47.1979C292.531 46.3056 295.843 45.3389 297.351 48.1511C298.858 50.9632 296.317 54.6745 294.356 55.8101C291.848 57.2703 290.375 55.2829 290.375 55.2829L290.435 68.6474C289.266 71.3514 283.986 73.7579 280.843 73.3794C278.342 73.0617 276.037 71.0945 278.274 68.2283L278.092 64.4156C278.092 64.4156 274.746 65.0916 273.089 64.9226C270.338 64.6387 268.506 62.5634 267.533 59.6431C265.964 54.9516 265.268 51.139 265.93 41.7291C266.661 31.4201 278.578 30.7238 285.223 34.4553C291.869 38.1868 290.3 49.5098 290.3 49.5098Z" fill="#FFA8A7"/>
<path d="M262.139 31.0219C261.834 28.7708 262.612 26.3575 264.971 25.5598C265.837 25.1976 266.787 25.0873 267.713 25.2416C268.638 25.3959 269.502 25.8085 270.203 26.4319C270.499 25.6377 271.01 24.9418 271.68 24.4223C272.349 23.9028 273.151 23.5803 273.993 23.4911C274.836 23.4019 275.687 23.5496 276.451 23.9174C277.214 24.2852 277.86 24.8587 278.315 25.5733C278.942 24.6215 279.91 23.9464 281.019 23.6873C281.703 23.5345 282.411 23.5204 283.101 23.6458C283.791 23.7712 284.448 24.0336 285.035 24.4174C285.995 25.1272 287.124 26.4454 286.84 28.1557C288.739 27.3918 290.72 28.0272 292.133 29.7037C292.973 30.7303 293.449 32.0073 293.485 33.3338C293.534 34.0228 293.434 34.7143 293.194 35.3618C292.924 35.977 292.369 36.3826 292.207 37.0789C291.971 37.6915 291.85 38.3422 291.849 38.9987C292.004 40.1344 292.254 41.2701 292.403 42.3787C292.563 43.4829 292.656 44.5959 292.68 45.7114C292.645 45.9737 292.554 46.2254 292.413 46.4494C292.271 46.6733 292.084 46.8643 291.862 47.0093C291.231 47.5613 290.742 48.2568 290.436 49.0373C290.199 49.524 289.969 50.7273 289.503 51.0653C288.063 52.0725 287.901 48.8142 287.833 48.1855C287.741 46.7426 287.741 45.2953 287.833 43.8524C287.107 43.843 286.391 43.6818 285.731 43.3791C285.071 43.0764 284.481 42.6389 284 42.0948C283.502 41.4833 283.173 40.7512 283.047 39.9721C282.969 39.5258 282.933 39.0732 282.939 38.6201C281.999 40.1749 279.816 40.8104 278.261 40.6481C275.652 40.4115 274.753 39.2961 274.334 38.4782C274.169 39.2844 273.814 40.0398 273.299 40.6819C272.633 41.3083 271.83 41.7711 270.954 42.0339C270.198 42.2356 269.402 42.2276 268.65 42.0108C267.899 41.7941 267.22 41.3767 266.688 40.8036C265.627 42.3246 262.936 41.6486 262.341 41.2227C260.989 40.2425 260.55 39.0731 260.401 37.4033C260.252 35.7336 260.929 33.8273 262.781 33.1716C262.447 32.4964 262.23 31.7696 262.139 31.0219Z" fill="#263238"/>
<path d="M278.092 64.3963C278.092 64.3963 284.135 62.8685 286.204 61.6247C287.427 60.9083 288.405 59.8384 289.009 58.5557C288.748 59.821 288.235 61.021 287.502 62.0844C286.042 64.1597 278.159 66.0255 278.159 66.0255L278.092 64.3963Z" fill="#F28F8F"/>
<path d="M278.429 49.0646C278.452 49.3206 278.549 49.5643 278.71 49.7654C278.87 49.9664 279.086 50.116 279.33 50.1954C279.575 50.2749 279.837 50.2807 280.085 50.2122C280.333 50.1437 280.555 50.0038 280.724 49.8101C280.893 49.6163 281.001 49.3772 281.035 49.1224C281.069 48.8676 281.028 48.6084 280.916 48.377C280.804 48.1456 280.626 47.9522 280.405 47.8208C280.184 47.6895 279.93 47.626 279.673 47.6382C279.32 47.6659 278.992 47.8308 278.76 48.0975C278.527 48.3641 278.408 48.7113 278.429 49.0646Z" fill="#263238"/>
<path d="M276.408 58.8458C276.439 59.1756 276.566 59.489 276.774 59.7471C276.981 60.0053 277.26 60.1967 277.576 60.2977C277.891 60.3986 278.229 60.4046 278.548 60.3149C278.867 60.2253 279.153 60.0439 279.369 59.7933C279.586 59.5427 279.724 59.234 279.767 58.9055C279.809 58.577 279.754 58.2432 279.609 57.9456C279.463 57.6481 279.234 57.3998 278.948 57.2318C278.663 57.0637 278.334 56.9832 278.003 57.0003C277.548 57.0366 277.126 57.2506 276.827 57.5959C276.529 57.9413 276.378 58.3903 276.408 58.8458Z" fill="#F28F8F"/>
<path d="M279.518 44.5622L282.303 45.9142C282.476 45.5325 282.496 45.0987 282.359 44.7024C282.222 44.3062 281.938 43.9777 281.566 43.7848C281.381 43.6965 281.18 43.6466 280.976 43.638C280.771 43.6295 280.567 43.6626 280.375 43.7353C280.184 43.8079 280.009 43.9187 279.862 44.0608C279.714 44.203 279.597 44.3735 279.518 44.5622Z" fill="#263238"/>
<path d="M267.404 45.7316L269.777 43.7036C269.653 43.5418 269.497 43.407 269.32 43.3075C269.142 43.2081 268.946 43.146 268.743 43.1251C268.541 43.1042 268.336 43.1249 268.142 43.1861C267.947 43.2472 267.768 43.3474 267.613 43.4805C267.297 43.7576 267.099 44.1454 267.06 44.5643C267.021 44.9831 267.144 45.4009 267.404 45.7316Z" fill="#263238"/>
<path d="M268.115 48.7999C268.131 49.05 268.221 49.2897 268.373 49.4888C268.525 49.6879 268.733 49.8376 268.97 49.919C269.207 50.0005 269.463 50.0101 269.705 49.9466C269.948 49.883 270.166 49.7493 270.332 49.5621C270.499 49.3749 270.607 49.1426 270.642 48.8945C270.676 48.6463 270.637 48.3934 270.529 48.1675C270.42 47.9415 270.248 47.7527 270.032 47.6246C269.817 47.4966 269.568 47.4352 269.318 47.4479C268.98 47.4706 268.665 47.6249 268.44 47.8778C268.215 48.1307 268.098 48.4618 268.115 48.7999Z" fill="#263238"/>
<path d="M274.387 47.3008L274.346 55.2979L270.114 54.0811L274.387 47.3008Z" fill="#F28F8F"/>
<path d="M263.768 58.4873C263.807 58.4786 263.843 58.4622 263.876 58.4389C263.908 58.4157 263.936 58.3862 263.957 58.3521C263.981 58.3187 263.998 58.2807 264.007 58.2406C264.016 58.2004 264.016 58.1588 264.009 58.1184C264.001 58.0779 263.986 58.0395 263.963 58.0053C263.94 57.9711 263.91 57.9419 263.876 57.9194L260.198 55.4723C260.164 55.4495 260.126 55.4337 260.086 55.4258C260.045 55.4178 260.004 55.418 259.964 55.4261C259.923 55.4343 259.885 55.4504 259.851 55.4734C259.817 55.4964 259.788 55.5259 259.766 55.5602C259.742 55.594 259.725 55.6323 259.717 55.6727C259.708 55.7132 259.708 55.7549 259.717 55.7954C259.725 55.8359 259.741 55.8743 259.765 55.9082C259.788 55.9421 259.818 55.9709 259.853 55.9928L263.524 58.4399C263.559 58.4653 263.598 58.4827 263.641 58.4908C263.683 58.499 263.726 58.4978 263.768 58.4873Z" fill="#E0E0E0"/>
<path d="M263.376 60.0705C263.433 60.0562 263.485 60.0267 263.527 59.985C263.568 59.9433 263.598 59.8911 263.612 59.8339C263.63 59.7523 263.616 59.6669 263.572 59.596C263.527 59.5252 263.457 59.4746 263.376 59.4553L259.076 58.4616C259.036 58.4515 258.995 58.4495 258.954 58.4556C258.913 58.4617 258.874 58.4759 258.839 58.4973C258.804 58.5187 258.773 58.5469 258.749 58.5802C258.725 58.6135 258.707 58.6513 258.698 58.6914C258.679 58.7729 258.694 58.8584 258.738 58.9292C258.783 59.0001 258.853 59.0507 258.934 59.07L263.234 60.0705C263.281 60.0772 263.328 60.0772 263.376 60.0705Z" fill="#E0E0E0"/>
<path d="M259.38 62.9292H259.42L263.564 61.415C263.642 61.3863 263.706 61.3278 263.74 61.2524C263.775 61.177 263.779 61.0908 263.75 61.0128C263.721 60.9348 263.663 60.8714 263.588 60.8365C263.512 60.8017 263.426 60.7982 263.348 60.8269L259.204 62.3411C259.165 62.3554 259.129 62.3772 259.099 62.4055C259.069 62.4337 259.044 62.4677 259.027 62.5055C259.01 62.5433 259.001 62.5841 259 62.6255C258.999 62.6669 259.006 62.7081 259.022 62.7467C259.05 62.8146 259.102 62.8703 259.167 62.9037C259.233 62.9371 259.308 62.9462 259.38 62.9292Z" fill="#E0E0E0"/>
<path d="M224.322 95.3576C224.408 95.5291 224.542 95.6718 224.707 95.768C224.873 95.8643 225.063 95.9098 225.255 95.899C225.446 95.8882 225.63 95.8216 225.784 95.7073C225.938 95.5931 226.055 95.4362 226.12 95.2562L229.203 87.6512C229.253 87.5293 229.278 87.3985 229.276 87.2667C229.275 87.135 229.246 87.0049 229.193 86.8842C229.14 86.7636 229.063 86.6549 228.967 86.5647C228.871 86.4745 228.758 86.4045 228.634 86.359C228.511 86.3136 228.379 86.2935 228.248 86.3C228.116 86.3066 227.987 86.3396 227.868 86.3971C227.75 86.4546 227.644 86.5355 227.557 86.6348C227.471 86.7341 227.405 86.8499 227.364 86.9752L224.275 94.5802C224.229 94.7061 224.21 94.8401 224.218 94.9738C224.226 95.1075 224.262 95.2381 224.322 95.3576Z" fill="#E0E0E0"/>
<path d="M219.246 95.3159C219.345 95.5152 219.508 95.6751 219.709 95.7694C219.91 95.8637 220.138 95.8869 220.354 95.835C220.57 95.7831 220.762 95.6593 220.899 95.4839C221.035 95.3085 221.108 95.0919 221.105 94.8697L221.004 85.4057C220.984 85.1607 220.872 84.9322 220.691 84.7657C220.51 84.5992 220.273 84.5068 220.027 84.5068C219.781 84.5068 219.544 84.5992 219.363 84.7657C219.182 84.9322 219.071 85.1607 219.05 85.4057L219.145 94.8697C219.143 95.0243 219.178 95.1772 219.246 95.3159Z" fill="#E0E0E0"/>
<path d="M210.64 90.05L210.701 90.1649L215.359 96.9249C215.503 97.1389 215.726 97.2874 215.979 97.338C216.232 97.3886 216.495 97.3373 216.711 97.1953C216.921 97.0477 217.066 96.8244 217.115 96.5724C217.164 96.3203 217.113 96.0591 216.974 95.8433L212.317 89.0833C212.181 88.8736 211.97 88.7241 211.727 88.6657C211.484 88.6073 211.228 88.6444 211.012 88.7694C210.796 88.8945 210.636 89.0978 210.565 89.3374C210.495 89.577 210.519 89.8346 210.633 90.0567L210.64 90.05Z" fill="#E0E0E0"/>
<g clip-path="url(#clip0_1668_9221)">
<path d="M278.44 96.6212H278.033C277.906 96.6212 277.817 96.5958 277.767 96.545C277.716 96.4942 277.69 96.4179 277.69 96.3036V96.0241C277.69 95.9035 277.716 95.8145 277.767 95.7637C277.817 95.7129 277.906 95.6875 278.033 95.6875H278.446C278.669 95.6875 278.783 95.7764 278.783 95.9543H278.688C278.688 95.8971 278.669 95.859 278.637 95.8272C278.599 95.7955 278.535 95.7828 278.446 95.7828H278.033C277.938 95.7828 277.875 95.8018 277.837 95.8336C277.805 95.8654 277.786 95.9352 277.786 96.0305V96.31C277.786 96.3989 277.805 96.4561 277.837 96.4878C277.875 96.5196 277.938 96.5323 278.027 96.5323H278.44C278.529 96.5323 278.592 96.5196 278.624 96.4942C278.662 96.4624 278.675 96.4052 278.675 96.31V96.2782H278.218V96.1829H278.777V96.2528C278.777 96.3989 278.751 96.4942 278.707 96.545C278.662 96.5958 278.573 96.6212 278.44 96.6212ZM279.018 95.7828V96.1448H279.621C279.685 96.1448 279.736 96.1321 279.767 96.1004C279.806 96.0686 279.818 96.0114 279.818 95.9416C279.818 95.8971 279.799 95.859 279.767 95.8272C279.736 95.7955 279.685 95.7828 279.628 95.7828H279.018ZM279.018 96.2338V96.6148H278.923V95.6812H279.596C279.71 95.6812 279.793 95.7066 279.844 95.7574C279.894 95.8018 279.92 95.8654 279.92 95.9479C279.92 96.0114 279.907 96.0623 279.875 96.1004C279.856 96.1258 279.825 96.1512 279.786 96.1766C279.818 96.1829 279.844 96.202 279.869 96.2401C279.894 96.2782 279.907 96.3354 279.907 96.3989V96.6148H279.812V96.3862C279.812 96.329 279.799 96.2909 279.78 96.2655C279.755 96.2401 279.723 96.2274 279.666 96.2274H279.018V96.2338ZM281.05 96.0051C281.05 95.9162 281.031 95.8527 281 95.8209C280.968 95.7891 280.904 95.7764 280.809 95.7764H280.403C280.314 95.7764 280.25 95.7955 280.212 95.8272C280.174 95.859 280.155 95.9225 280.155 96.0114V96.31C280.155 96.3989 280.174 96.4561 280.206 96.4878C280.244 96.5196 280.307 96.5323 280.403 96.5323H280.809C280.904 96.5323 280.968 96.5196 281 96.4878C281.031 96.4561 281.044 96.3989 281.044 96.31V96.0051H281.05ZM281.146 96.2973C281.146 96.4243 281.12 96.5132 281.07 96.5577C281.025 96.5958 280.936 96.6212 280.809 96.6212H280.403C280.276 96.6212 280.187 96.5958 280.136 96.5513C280.085 96.5069 280.06 96.4243 280.06 96.3036V96.0114C280.06 95.8908 280.085 95.8082 280.136 95.7574C280.187 95.7066 280.276 95.6812 280.409 95.6812H280.815C280.936 95.6812 281.019 95.7002 281.07 95.7447C281.127 95.7955 281.152 95.8844 281.152 96.0114V96.2973H281.146ZM281.292 95.6875H281.387V96.3354C281.387 96.3989 281.406 96.4497 281.438 96.4751C281.476 96.5069 281.54 96.5196 281.635 96.5196H282.041C282.124 96.5196 282.187 96.5069 282.219 96.4751C282.257 96.4434 282.276 96.3925 282.276 96.329V95.6875H282.372V96.2973C282.372 96.4243 282.346 96.5069 282.289 96.5577C282.238 96.6021 282.156 96.6212 282.041 96.6212H281.635C281.514 96.6212 281.425 96.6021 281.374 96.5577C281.317 96.5069 281.292 96.4243 281.292 96.3036V95.6875ZM282.53 96.6148V95.6875H283.159C283.274 95.6875 283.356 95.7066 283.407 95.751C283.458 95.7955 283.483 95.8717 283.483 95.9733C283.483 96.075 283.458 96.1448 283.407 96.1766C283.356 96.2147 283.274 96.2274 283.153 96.2274H282.619V96.6085H282.53V96.6148ZM282.626 96.1385H283.185C283.261 96.1385 283.318 96.1258 283.343 96.1067C283.375 96.0813 283.388 96.0368 283.388 95.9733C283.388 95.9035 283.375 95.8527 283.343 95.8209C283.312 95.7891 283.267 95.7764 283.197 95.7764H282.626V96.1385ZM285.027 96.0051C285.027 95.9162 285.008 95.8527 284.976 95.8209C284.944 95.7891 284.881 95.7764 284.785 95.7764H284.379C284.29 95.7764 284.226 95.7955 284.188 95.8272C284.15 95.859 284.131 95.9225 284.131 96.0114V96.31C284.131 96.3989 284.15 96.4561 284.182 96.4878C284.22 96.5196 284.283 96.5323 284.379 96.5323H284.785C284.881 96.5323 284.944 96.5196 284.976 96.4878C285.008 96.4561 285.02 96.3989 285.02 96.31V96.0051H285.027ZM285.122 96.2973C285.122 96.4243 285.096 96.5132 285.046 96.5577C285.001 96.5958 284.912 96.6212 284.785 96.6212H284.379C284.252 96.6212 284.163 96.5958 284.112 96.5513C284.061 96.5069 284.036 96.4243 284.036 96.3036V96.0114C284.036 95.8908 284.061 95.8082 284.112 95.7574C284.163 95.7066 284.252 95.6812 284.385 95.6812H284.792C284.912 95.6812 284.995 95.7002 285.046 95.7447C285.103 95.7955 285.128 95.8844 285.128 96.0114V96.2973H285.122ZM285.268 96.6212V95.6875H286.094V95.7828H285.363V96.094H286.075V96.1893H285.363V96.6212H285.268ZM287.408 96.6212H287.002C286.875 96.6212 286.786 96.5958 286.735 96.545C286.684 96.4942 286.659 96.4116 286.659 96.2846V96.0114C286.659 95.8908 286.684 95.8018 286.735 95.751C286.786 95.7002 286.875 95.6748 287.002 95.6748H287.408C287.631 95.6748 287.745 95.7637 287.745 95.9416H287.65C287.65 95.8844 287.631 95.8463 287.599 95.8145C287.561 95.7828 287.497 95.7701 287.408 95.7701H287.002C286.907 95.7701 286.843 95.7891 286.805 95.8209C286.767 95.8527 286.754 95.9225 286.754 96.0178V96.2909C286.754 96.3798 286.773 96.4434 286.805 96.4815C286.843 96.5132 286.907 96.5323 287.002 96.5323H287.408C287.497 96.5323 287.555 96.5196 287.593 96.4942C287.631 96.4688 287.65 96.4243 287.65 96.3608H287.745C287.745 96.4497 287.72 96.5196 287.669 96.5577C287.618 96.6021 287.529 96.6212 287.408 96.6212ZM288.888 96.0051C288.888 95.9162 288.869 95.8527 288.838 95.8209C288.806 95.7891 288.742 95.7764 288.647 95.7764H288.241C288.152 95.7764 288.088 95.7955 288.05 95.8272C288.012 95.859 287.993 95.9225 287.993 96.0114V96.31C287.993 96.3989 288.012 96.4561 288.044 96.4878C288.082 96.5196 288.145 96.5323 288.241 96.5323H288.647C288.742 96.5323 288.806 96.5196 288.838 96.4878C288.869 96.4561 288.882 96.3989 288.882 96.31V96.0051H288.888ZM288.984 96.2973C288.984 96.4243 288.958 96.5132 288.907 96.5577C288.863 96.5958 288.774 96.6212 288.647 96.6212H288.241C288.113 96.6212 288.025 96.5958 287.974 96.5513C287.923 96.5069 287.898 96.4243 287.898 96.3036V96.0114C287.898 95.8908 287.923 95.8082 287.974 95.7574C288.025 95.7066 288.113 95.6812 288.247 95.6812H288.653C288.774 95.6812 288.857 95.7002 288.907 95.7447C288.965 95.7955 288.99 95.8844 288.99 96.0114V96.2973H288.984ZM290.476 95.6875H290.267L289.797 96.4815L289.327 95.6875H289.117V96.6212H289.212V95.7637H289.269L289.771 96.6212H289.822L290.324 95.7637H290.375V96.6212H290.47V95.6875H290.476ZM290.641 96.6148V95.6875H291.27C291.385 95.6875 291.467 95.7066 291.518 95.751C291.569 95.7955 291.594 95.8717 291.594 95.9733C291.594 96.075 291.569 96.1448 291.518 96.1766C291.467 96.2147 291.385 96.2274 291.264 96.2274H290.737V96.6085H290.641V96.6148ZM290.737 96.1385H291.296C291.372 96.1385 291.429 96.1258 291.454 96.1067C291.486 96.0813 291.499 96.0368 291.499 95.9733C291.499 95.9035 291.486 95.8527 291.454 95.8209C291.423 95.7891 291.378 95.7764 291.308 95.7764H290.737V96.1385ZM291.766 96.6212H291.658L292.14 95.6875H292.287L292.769 96.6212H292.655L292.534 96.3862H291.88L291.766 96.6212ZM291.944 96.2909H292.496L292.223 95.7574L291.944 96.2909ZM292.865 96.6212V95.6875H293.08L293.798 96.5196V95.6875H293.893V96.6212H293.754L293.017 95.7637H292.96V96.6212H292.865ZM294.198 96.6212H294.103V95.6875H294.198V96.6212ZM294.421 96.6212V95.6875H295.246V95.7828H294.516V96.094H295.227V96.1893H294.516V96.5323H295.246V96.6276H294.421V96.6212ZM295.405 95.9543C295.405 95.859 295.431 95.7955 295.475 95.751C295.526 95.7129 295.602 95.6875 295.704 95.6875H296.174C296.383 95.6875 296.491 95.7764 296.491 95.9479H296.396C296.396 95.8908 296.377 95.8527 296.345 95.8272C296.307 95.7955 296.244 95.7828 296.155 95.7828H295.704C295.621 95.7828 295.564 95.7955 295.532 95.8272C295.507 95.8527 295.494 95.8908 295.494 95.9543C295.494 96.0051 295.507 96.0432 295.539 96.0623C295.57 96.0877 295.64 96.094 295.735 96.094H296.148C296.269 96.094 296.358 96.1131 296.409 96.1512C296.466 96.1893 296.491 96.2528 296.491 96.3354V96.3544C296.491 96.4497 296.466 96.5196 296.421 96.5577C296.377 96.5958 296.294 96.6148 296.186 96.6148H295.704C295.608 96.6148 295.532 96.5958 295.481 96.5513C295.424 96.5069 295.399 96.437 295.399 96.3481H295.494C295.494 96.4052 295.513 96.4434 295.545 96.4751C295.583 96.5069 295.647 96.5196 295.735 96.5196H296.174C296.25 96.5196 296.301 96.5069 296.339 96.4815C296.377 96.4561 296.39 96.4116 296.39 96.3481C296.39 96.2846 296.377 96.2465 296.345 96.221C296.313 96.1956 296.256 96.1829 296.167 96.1829H295.697C295.577 96.1829 295.494 96.1639 295.45 96.1258C295.424 96.094 295.405 96.0368 295.405 95.9543Z" fill="white"/>
<path fill-rule="evenodd" clip-rule="evenodd" d="M267.49 89.0576H272.876V89.3117H267.68V89.5594H272.876V89.8135H267.68V90.0675H272.876V90.3216H267.68V90.5757H272.876V90.8297H267.68V91.0838H272.876V91.3379H267.68V91.5919H272.876V91.846H267.68V92.1001H272.876V92.3541H267.68V92.6018H272.876V92.8559H267.68V93.11H272.876V93.364H267.68V93.6181H272.876V94.1326H267.49V89.0576Z" fill="white"/>
<path fill-rule="evenodd" clip-rule="evenodd" d="M267.49 89.0576L272.876 94.1326H267.49V89.0576Z" fill="white"/>
<path fill-rule="evenodd" clip-rule="evenodd" d="M269.161 91.1711L269.263 91.1902C269.879 90.5233 270.076 89.9389 270.33 89.2402C270.705 91.584 271.594 92.7273 272.191 93.0131C271.575 93.0385 271.143 92.7082 270.838 92.2192C270.355 91.7428 269.746 91.3807 269.371 91.241C268.837 91.927 268.342 92.3144 268.215 92.3525C268.126 92.3907 267.986 92.27 268.062 92.2001C268.221 92.0413 269.015 91.5078 269.206 91.241C269.218 91.2283 269.231 91.2156 269.25 91.2029L269.161 91.1711ZM269.39 91.2156C269.682 91.2918 270.146 91.476 270.597 91.7364C270.432 91.2601 270.203 90.4788 270.133 89.977C269.981 90.3137 269.701 90.7837 269.39 91.2156Z" fill="white"/>
<path fill-rule="evenodd" clip-rule="evenodd" d="M274.571 89.0576C275.854 89.0576 277.22 89.0576 278.503 89.0576C280.027 89.0576 280.503 89.9405 280.503 90.563C280.503 91.3061 280.503 92.3668 280.503 93.1163C280.503 93.8976 280.014 94.1262 279.176 94.1262H275.587C274.825 94.1262 274.361 93.6943 274.285 93.2624V91.7634C274.292 91.2616 274.87 90.9314 275.409 90.8996C276.368 90.8996 277.334 90.8996 278.293 90.8996C278.293 90.563 278.083 90.4232 277.677 90.4232H274.565V89.0576H274.571ZM293.963 89.0576C295.246 89.0576 296.611 89.0576 297.894 89.0576C299.419 89.0576 299.895 89.9405 299.895 90.563C299.895 91.3061 299.895 92.3668 299.895 93.1163C299.895 93.8976 299.406 94.1262 298.568 94.1262H294.979C294.217 94.1262 293.753 93.6943 293.677 93.2624V91.7634C293.683 91.2616 294.261 90.9314 294.801 90.8996C295.76 90.8996 296.726 90.8996 297.685 90.8996C297.685 90.563 297.475 90.4232 297.069 90.4232H293.956V89.0576H293.963ZM296.128 92.1763H297.704V92.4875V92.4939C297.704 92.659 297.558 92.7987 297.386 92.7987H296.116C295.944 92.7987 295.798 92.659 295.798 92.4875C295.798 92.3033 295.951 92.1763 296.128 92.1763ZM276.737 92.1763H278.312V92.4875V92.4939C278.312 92.659 278.166 92.7987 277.995 92.7987H276.724C276.553 92.7987 276.407 92.659 276.407 92.4875C276.413 92.3033 276.559 92.1763 276.737 92.1763Z" fill="white"/>
<path fill-rule="evenodd" clip-rule="evenodd" d="M281.361 87.2998H283.292V90.6535L284.918 89.0529L287.173 89.0592L285.077 91.1171L287.173 94.1278H285.007L283.73 92.2731L283.343 92.5653V94.1278H281.367V87.2998H281.361ZM288.862 89.0592C288.964 87.8715 289.77 87.3189 291.695 87.3189H292.832V88.5828H291.828C291.39 88.5828 291.219 88.748 291.187 89.002V89.0592H292.832V90.4248H291.187V94.1278H288.868L288.875 90.4248H288.017V89.0656L288.862 89.0592Z" fill="white"/>
</g>
<defs>
<clipPath id="clip0_1668_9221">
<rect width="32.457" height="9.33693" fill="white" transform="translate(267.49 87.2979)"/>
</clipPath>
</defs>
</svg>
