<svg width="26" height="26" viewBox="0 0 26 26" fill="none" xmlns="http://www.w3.org/2000/svg">
<path fill-rule="evenodd" clip-rule="evenodd" d="M13.5956 14.874H15.4512C15.891 14.874 16.2557 14.5165 16.2557 14.0723C16.2557 13.6173 15.891 13.2598 15.4512 13.2598H13.5956V11.3857C13.5956 10.9415 13.2417 10.584 12.8019 10.584C12.3621 10.584 11.9974 10.9415 11.9974 11.3857V13.2598H10.1526C9.71278 13.2598 9.3481 13.6173 9.3481 14.0723C9.3481 14.5165 9.71278 14.874 10.1526 14.874H11.9974V16.7482C11.9974 17.1923 12.3621 17.5498 12.8019 17.5498C13.2417 17.5498 13.5956 17.1923 13.5956 16.7482V14.874ZM20.9499 9.77758C21.202 9.77467 21.4766 9.7715 21.726 9.7715C21.9941 9.7715 22.2087 9.98817 22.2087 10.259V18.969C22.2087 21.6557 20.0527 23.8332 17.3819 23.8332H8.8547C6.06592 23.8332 3.79199 21.5473 3.79199 18.7307V7.05234C3.79199 4.36567 5.95866 2.1665 8.62945 2.1665H14.3572C14.6361 2.1665 14.8506 2.394 14.8506 2.66484V6.15317C14.8506 8.13567 16.4702 9.76067 18.4331 9.7715C18.8916 9.7715 19.2958 9.77493 19.6495 9.77793C19.9247 9.78026 20.1693 9.78234 20.3852 9.78234C20.5379 9.78234 20.7358 9.78005 20.9499 9.77758ZM21.2445 8.19637C20.3628 8.19962 19.3235 8.19637 18.5759 8.18878C17.3896 8.18878 16.4124 7.20187 16.4124 6.0037V3.14803C16.4124 2.68112 16.9734 2.44928 17.2941 2.7862C17.8744 3.39563 18.6718 4.23327 19.4656 5.06716C20.2579 5.89942 21.0466 6.72795 21.6124 7.32212C21.9256 7.65037 21.6961 8.19528 21.2445 8.19637Z" fill="white"/>
</svg>
