<svg width="26" height="26" viewBox="0 0 26 26" fill="none" xmlns="http://www.w3.org/2000/svg">
<path fill-rule="evenodd" clip-rule="evenodd" d="M9.66964 17.7559H15.5046C15.9444 17.7559 16.3091 17.3876 16.3091 16.9434C16.3091 16.4992 15.9444 16.1417 15.5046 16.1417H9.66964C9.22987 16.1417 8.86518 16.4992 8.86518 16.9434C8.86518 17.3876 9.22987 17.7559 9.66964 17.7559ZM13.295 10.7251H9.66964C9.22987 10.7251 8.86518 11.0934 8.86518 11.5376C8.86518 11.9817 9.22987 12.3392 9.66964 12.3392H13.295C13.7348 12.3392 14.0995 11.9817 14.0995 11.5376C14.0995 11.0934 13.7348 10.7251 13.295 10.7251ZM20.9497 9.77783C21.2018 9.77492 21.4763 9.77175 21.7257 9.77175C21.9939 9.77175 22.2084 9.98841 22.2084 10.2592V18.9692C22.2084 21.6559 20.0525 23.8334 17.3924 23.8334H8.85445C6.06568 23.8334 3.79175 21.5476 3.79175 18.7309V7.05258C3.79175 4.36592 5.95841 2.16675 8.62921 2.16675H14.3569C14.6358 2.16675 14.8503 2.39425 14.8503 2.66508V6.15341C14.8503 8.13592 16.47 9.76091 18.4328 9.77175C18.8913 9.77175 19.2955 9.77518 19.6492 9.77817C19.9244 9.78051 20.1691 9.78258 20.385 9.78258C20.5377 9.78258 20.7356 9.7803 20.9497 9.77783ZM21.2454 8.19658C20.3637 8.19983 19.3244 8.19658 18.5768 8.189C17.3905 8.189 16.4133 7.20208 16.4133 6.00391V3.14825C16.4133 2.68133 16.9743 2.4495 17.295 2.78641C17.8752 3.39573 18.6724 4.23319 19.4661 5.06693C20.2585 5.89934 21.0474 6.72806 21.6133 7.32233C21.9265 7.65058 21.697 8.1955 21.2454 8.19658Z" fill="#4679EC"/>
</svg>
