<svg width="15" height="18" viewBox="0 0 15 18" fill="none" xmlns="http://www.w3.org/2000/svg">
<path d="M11.2038 1.5755L11.2939 1.6275C12.072 2.07671 12.7209 2.4513 13.196 2.81795C13.6975 3.20494 14.0955 3.64914 14.2622 4.27132C14.4289 4.8935 14.3063 5.4772 14.0655 6.06309C13.8984 6.46976 13.6526 6.92674 13.3565 7.44801L12.7212 7.0704L12.713 7.0656L5.78767 3.06728L5.14002 2.68557C5.44011 2.17448 5.71049 1.73795 5.97669 1.393C6.36368 0.891518 6.80788 0.49349 7.43006 0.326777C8.05224 0.160063 8.63594 0.282668 9.22183 0.523468C9.7769 0.751604 10.4257 1.12624 11.2038 1.5755Z" fill="#4679EC"/>
<path d="M4.38859 3.98384L0.910623 10.0077C0.612836 10.5225 0.377376 10.9296 0.290141 11.3926C0.202905 11.8556 0.274092 12.3204 0.364123 12.9083L0.388379 13.0672C0.554565 14.1586 0.691545 15.0581 0.898145 15.7403C1.11422 16.4537 1.44637 17.0712 2.09964 17.4484C2.75291 17.8256 3.45378 17.8045 4.17967 17.6349C4.87373 17.4727 5.72126 17.1416 6.74949 16.7398L6.89924 16.6814C7.45337 16.4654 7.89152 16.2946 8.24888 15.9876C8.60623 15.6805 8.84102 15.2731 9.13796 14.7578L12.6077 8.74792L11.9588 8.36226L5.02893 4.36127L4.38859 3.98384Z" fill="#4679EC"/>
</svg>
