<svg width="22" height="23" viewBox="0 0 22 23" fill="none" xmlns="http://www.w3.org/2000/svg">
<path fill-rule="evenodd" clip-rule="evenodd" d="M11 8.25019C8.37665 8.25019 6.25 10.3768 6.25 13.0002C6.25 15.6235 8.37665 17.7502 11 17.7502C13.6234 17.7502 15.75 15.6235 15.75 13.0002C15.75 10.3768 13.6234 8.25019 11 8.25019ZM7.75 13.0002C7.75 11.2053 9.20507 9.75019 11 9.75019C12.7949 9.75019 14.25 11.2053 14.25 13.0002C14.25 14.7951 12.7949 16.2502 11 16.2502C9.20507 16.2502 7.75 14.7951 7.75 13.0002Z" fill="#4679EC"/>
<path fill-rule="evenodd" clip-rule="evenodd" d="M14.6501 2.2413C12.5685 0.390922 9.43153 0.390922 7.34986 2.2413L7.1341 2.43308C6.54195 2.95944 5.77721 3.25019 4.98493 3.25019C2.3699 3.25019 0.25 5.37009 0.25 7.98513V13.0454C0.249992 14.882 0.249985 16.3216 0.373728 17.4637C0.500006 18.6293 0.762324 19.5736 1.34815 20.38C1.70281 20.8681 2.13209 21.2974 2.62024 21.652C3.42656 22.2379 4.37094 22.5002 5.53648 22.6265C6.67859 22.7502 8.11817 22.7502 9.95465 22.7502H12.0453C13.8818 22.7502 15.3214 22.7502 16.4635 22.6265C17.6291 22.5002 18.5734 22.2379 19.3798 21.652C19.8679 21.2974 20.2972 20.8681 20.6518 20.38C21.2377 19.5736 21.5 18.6293 21.6263 17.4637C21.75 16.3216 21.75 14.882 21.75 13.0455V7.98512C21.75 5.37009 19.6301 3.25019 17.0151 3.25019C16.2228 3.25019 15.4581 2.95944 14.8659 2.43308L14.6501 2.2413ZM8.3464 3.36241C9.85975 2.01722 12.1403 2.01722 13.6536 3.36241L13.8694 3.55419C14.7361 4.32462 15.8554 4.75019 17.0151 4.75019C18.8017 4.75019 20.25 6.19852 20.25 7.98512V13.0002C20.25 14.8918 20.249 16.2502 20.135 17.3021C20.0225 18.3401 19.8074 18.9903 19.4383 19.4983C19.1762 19.8591 18.8589 20.1764 18.4981 20.4385C17.9901 20.8076 17.3399 21.0227 16.302 21.1352C15.25 21.2492 13.8916 21.2502 12 21.2502H10C8.10843 21.2502 6.74999 21.2492 5.69804 21.1352C4.66013 21.0227 4.00992 20.8076 3.50191 20.4385C3.14111 20.1764 2.82382 19.8591 2.56168 19.4983C2.19259 18.9903 1.97745 18.3401 1.865 17.3021C1.75103 16.2502 1.75 14.8918 1.75 13.0002V7.98513C1.75 6.19852 3.19833 4.75019 4.98493 4.75019C6.14458 4.75019 7.26392 4.32462 8.13065 3.55419L8.3464 3.36241Z" fill="#4679EC"/>
<path d="M16 8.00024C16 8.55253 16.4477 9.00024 17 9.00024C17.5523 9.00024 18 8.55253 18 8.00024C18 7.44796 17.5523 7.00024 17 7.00024C16.4477 7.00024 16 7.44796 16 8.00024Z" fill="#2D264B"/>
</svg>
