<svg width="6" height="7" viewBox="0 0 6 7" fill="none" xmlns="http://www.w3.org/2000/svg">
<path d="M2.87791 0.4599C1.55326 0.4599 0.475586 1.52934 0.475586 2.84387C0.475586 3.57917 0.857068 4.47164 1.60947 5.49649C2.16008 6.24652 2.70266 6.78143 2.72549 6.80385C2.76746 6.84504 2.82267 6.8657 2.87795 6.8657C2.93162 6.8657 2.98533 6.8462 3.02697 6.80711C3.04985 6.78562 3.5938 6.27237 4.14545 5.5327C4.89845 4.52302 5.28026 3.61838 5.28026 2.84386C5.28023 1.52934 4.20254 0.4599 2.87791 0.4599ZM2.87791 3.87307C2.2303 3.87307 1.70344 3.35945 1.70344 2.72814C1.70344 2.09683 2.23031 1.58322 2.87791 1.58322C3.52551 1.58322 4.05238 2.09683 4.05238 2.72814C4.05238 3.35945 3.52549 3.87307 2.87791 3.87307Z" fill="white"/>
</svg>