<svg width="26" height="26" viewBox="0 0 26 26" fill="none" xmlns="http://www.w3.org/2000/svg">
<path fill-rule="evenodd" clip-rule="evenodd" d="M15.2981 12.1686H18.2966C18.7512 12.1686 19.1084 11.7927 19.1084 11.3394C19.1084 10.8751 18.7512 10.5102 18.2966 10.5102H15.2981C14.8434 10.5102 14.4862 10.8751 14.4862 11.3394C14.4862 11.7927 14.8434 12.1686 15.2981 12.1686ZM21.8579 6.4208C22.5183 6.4208 22.9513 6.65297 23.3843 7.16152C23.8173 7.67007 23.893 8.39974 23.7956 9.06196L22.7672 16.3144C22.5724 17.7085 21.4033 18.7355 20.0285 18.7355H8.21858C6.77887 18.7355 5.58813 17.609 5.46905 16.1497L4.47316 4.09804L2.8386 3.81059C2.40561 3.7332 2.10251 3.30204 2.17828 2.85982C2.25406 2.40765 2.67623 2.10804 3.12005 2.17548L5.70179 2.57238C6.06984 2.63981 6.34046 2.94826 6.37293 3.32415L6.57861 5.80059C6.61108 6.15547 6.89253 6.4208 7.23892 6.4208H21.8579ZM8.04516 20.4829C7.13587 20.4829 6.39978 21.2346 6.39978 22.1633C6.39978 23.0809 7.13587 23.8327 8.04516 23.8327C8.94363 23.8327 9.67972 23.0809 9.67972 22.1633C9.67972 21.2346 8.94363 20.4829 8.04516 20.4829ZM20.2232 20.4829C19.3139 20.4829 18.5778 21.2346 18.5778 22.1633C18.5778 23.0809 19.3139 23.8327 20.2232 23.8327C21.1216 23.8327 21.8577 23.0809 21.8577 22.1633C21.8577 21.2346 21.1216 20.4829 20.2232 20.4829Z" fill="#4679EC"/>
</svg>
