<svg width="26" height="26" viewBox="0 0 26 26" fill="none" xmlns="http://www.w3.org/2000/svg">
<path d="M2.97928 3.52051L5.23261 3.91051L6.27586 16.3396C6.35928 17.3547 7.20753 18.1336 8.22586 18.1303H20.0439C21.0157 18.1325 21.8401 17.4175 21.9777 16.4555L23.0058 9.35101C23.1206 8.55692 22.5692 7.82026 21.7762 7.70542C21.7069 7.69567 5.59445 7.69026 5.59445 7.69026" stroke="#60739F" stroke-width="1.5" stroke-linecap="round" stroke-linejoin="round"/>
<path d="M15.3022 11.694H18.3063" stroke="#60739F" stroke-width="1.5" stroke-linecap="round" stroke-linejoin="round"/>
<path fill-rule="evenodd" clip-rule="evenodd" d="M7.75059 21.8857C8.07667 21.8857 8.33992 22.1501 8.33992 22.4751C8.33992 22.8012 8.07667 23.0655 7.75059 23.0655C7.4245 23.0655 7.16125 22.8012 7.16125 22.4751C7.16125 22.1501 7.4245 21.8857 7.75059 21.8857Z" fill="#60739F" stroke="#60739F" stroke-width="1.5" stroke-linecap="round" stroke-linejoin="round"/>
<path fill-rule="evenodd" clip-rule="evenodd" d="M19.9709 21.8857C20.297 21.8857 20.5613 22.1501 20.5613 22.4751C20.5613 22.8012 20.297 23.0655 19.9709 23.0655C19.6448 23.0655 19.3816 22.8012 19.3816 22.4751C19.3816 22.1501 19.6448 21.8857 19.9709 21.8857Z" fill="#60739F" stroke="#60739F" stroke-width="1.5" stroke-linecap="round" stroke-linejoin="round"/>
</svg>
