<svg width="10" height="10" viewBox="0 0 10 10" fill="none" xmlns="http://www.w3.org/2000/svg">
<path d="M4.0575 8.85866C4.00917 8.81158 3.8025 8.63379 3.6325 8.46818C2.56333 7.49724 0.813333 4.96436 0.279167 3.63866C0.193333 3.43733 0.0116667 2.92832 0 2.65636C0 2.39576 0.06 2.14734 0.181667 1.91029C0.351667 1.61479 0.619167 1.37774 0.935 1.24785C1.15417 1.16423 1.81 1.03434 1.82167 1.03434C2.53917 0.904448 3.705 0.833008 4.99333 0.833008C6.22083 0.833008 7.33917 0.904448 8.0675 1.0108C8.07917 1.02297 8.89417 1.15286 9.17333 1.29493C9.68333 1.55553 10 2.06454 10 2.60927V2.65636C9.9875 3.01112 9.67083 3.75718 9.65917 3.75718C9.12417 5.01145 7.46 7.48587 6.35417 8.48035C6.35417 8.48035 6.07 8.76043 5.8925 8.8822C5.6375 9.07217 5.32167 9.16634 5.00583 9.16634C4.65333 9.16634 4.325 9.05999 4.0575 8.85866Z" fill="#7099F5"/>
</svg>
