<svg width="22" height="24" viewBox="0 0 22 24" fill="none" xmlns="http://www.w3.org/2000/svg">
<path fill-rule="evenodd" clip-rule="evenodd" d="M10.9999 8.24907C8.92888 8.24907 7.24995 9.928 7.24995 11.9991C7.24995 14.0701 8.92888 15.7491 10.9999 15.7491C13.071 15.7491 14.7499 14.0701 14.7499 11.9991C14.7499 9.928 13.071 8.24907 10.9999 8.24907ZM8.74995 11.9991C8.74995 10.7564 9.75731 9.74907 10.9999 9.74907C12.2426 9.74907 13.2499 10.7564 13.2499 11.9991C13.2499 13.2417 12.2426 14.2491 10.9999 14.2491C9.75731 14.2491 8.74995 13.2417 8.74995 11.9991Z" fill="#4679EC"/>
<path fill-rule="evenodd" clip-rule="evenodd" d="M14.4147 3.23135C13.4342 -0.20403 8.56564 -0.204029 7.58523 3.23135C7.28146 4.29576 6.18792 4.92711 5.11423 4.65798C1.6489 3.78935 -0.785401 8.00569 1.69952 10.5724C2.46944 11.3677 2.46944 12.6304 1.69952 13.4257C-0.785401 15.9925 1.6489 20.2088 5.11423 19.3402C6.18792 19.071 7.28146 19.7024 7.58523 20.7668C8.56564 24.2022 13.4342 24.2022 14.4147 20.7668C14.7184 19.7024 15.812 19.071 16.8857 19.3402C20.351 20.2088 22.7853 15.9925 20.3004 13.4257C19.5305 12.6304 19.5305 11.3677 20.3004 10.5724C22.7853 8.00569 20.351 3.78935 16.8857 4.65798C15.812 4.92711 14.7184 4.29576 14.4147 3.23135ZM9.02764 3.643C9.59392 1.65876 12.406 1.65876 12.9722 3.643C13.4982 5.48583 15.3915 6.57893 17.2504 6.11297C19.2519 5.61126 20.6579 8.04657 19.2227 9.5291C17.8897 10.906 17.8897 13.0922 19.2227 14.469C20.6579 15.9516 19.2519 18.3869 17.2504 17.8852C15.3915 17.4192 13.4982 18.5123 12.9722 20.3551C12.406 22.3394 9.59392 22.3394 9.02764 20.3551C8.50172 18.5123 6.60843 17.4192 4.74952 17.8852C2.74798 18.3869 1.34196 15.9516 2.77722 14.469C4.1102 13.0922 4.1102 10.906 2.77722 9.5291C1.34196 8.04657 2.74798 5.61126 4.74952 6.11297C6.60843 6.57893 8.50172 5.48584 9.02764 3.643Z" fill="#4679EC"/>
</svg>
