<svg width="56" height="39" viewBox="0 0 56 39" fill="none" xmlns="http://www.w3.org/2000/svg">
<path d="M55.1573 4.68822C55.997 3.68056 55.8608 2.18297 54.8532 1.34326C53.8455 0.503544 52.3479 0.639689 51.5082 1.64735L34.4377 22.1319C31.0088 26.2467 28.5966 29.1324 26.5044 31.0216C24.461 32.8669 23.0507 33.4533 21.6661 33.4533C20.2814 33.4533 18.8712 32.8669 16.8278 31.0216C14.7355 29.1323 12.3234 26.2467 8.8944 22.1319L4.4906 16.8473C3.65089 15.8397 2.1533 15.7035 1.14564 16.5433C0.13798 17.383 0.0018349 18.8806 0.84155 19.8882L5.36757 25.3194C8.64592 29.2536 11.2714 32.4042 13.6443 34.547C16.0955 36.7604 18.6012 38.2033 21.6661 38.2033C24.731 38.2033 27.2366 36.7604 29.6878 34.547C32.0608 32.4042 34.6862 29.2536 37.9645 25.3196L55.1573 4.68822Z" fill="#18B48B"/>
</svg>
