<svg width="26" height="26" viewBox="0 0 26 26" fill="none" xmlns="http://www.w3.org/2000/svg">
<path d="M19.3783 11.8054C20.8896 11.593 22.0531 10.2974 22.0563 8.72761C22.0563 7.18061 20.9286 5.89794 19.4498 5.65527" stroke="#60739F" stroke-width="1.5" stroke-linecap="round" stroke-linejoin="round"/>
<path d="M21.3725 15.4385C22.8361 15.6573 23.8577 16.1697 23.8577 17.226C23.8577 17.9529 23.3767 18.4252 22.5989 18.7221" stroke="#60739F" stroke-width="1.5" stroke-linecap="round" stroke-linejoin="round"/>
<path fill-rule="evenodd" clip-rule="evenodd" d="M12.8772 15.8857C9.39541 15.8857 6.42166 16.4133 6.42166 18.5204C6.42166 20.6264 9.37699 21.1692 12.8772 21.1692C16.3591 21.1692 19.3317 20.647 19.3317 18.5388C19.3317 16.4307 16.3775 15.8857 12.8772 15.8857Z" stroke="#60739F" stroke-width="1.5" stroke-linecap="round" stroke-linejoin="round"/>
<path fill-rule="evenodd" clip-rule="evenodd" d="M12.8772 12.879C15.162 12.879 17.0145 11.0276 17.0145 8.74174C17.0145 6.45699 15.162 4.60449 12.8772 4.60449C10.5925 4.60449 8.73999 6.45699 8.73999 8.74174C8.73132 11.0189 10.5697 12.8714 12.8469 12.879H12.8772Z" stroke="#60739F" stroke-width="1.5" stroke-linecap="round" stroke-linejoin="round"/>
<path d="M6.3752 11.8054C4.86287 11.593 3.70045 10.2974 3.6972 8.72761C3.6972 7.18061 4.82495 5.89794 6.3037 5.65527" stroke="#60739F" stroke-width="1.5" stroke-linecap="round" stroke-linejoin="round"/>
<path d="M4.38089 15.4385C2.9173 15.6573 1.89572 16.1697 1.89572 17.226C1.89572 17.9529 2.37672 18.4252 3.15455 18.7221" stroke="#60739F" stroke-width="1.5" stroke-linecap="round" stroke-linejoin="round"/>
</svg>
