<svg width="26" height="26" viewBox="0 0 26 26" fill="none" xmlns="http://www.w3.org/2000/svg">
<path fill-rule="evenodd" clip-rule="evenodd" d="M17.5049 8.9186C17.5049 11.4641 15.4756 13.5052 12.9448 13.5052C10.414 13.5052 8.38473 11.4641 8.38473 8.9186C8.38473 6.37213 10.414 4.33301 12.9448 4.33301C15.4756 4.33301 17.5049 6.37213 17.5049 8.9186ZM12.9448 21.6663C9.22768 21.6663 6.05377 21.077 6.05377 18.7199C6.05377 16.3617 9.20731 15.7509 12.9448 15.7509C16.6619 15.7509 19.8358 16.3402 19.8358 18.6984C19.8358 21.0556 16.6823 21.6663 12.9448 21.6663ZM19.4535 9.00133C19.4535 10.299 19.0665 11.5078 18.3875 12.5127C18.3176 12.6161 18.3797 12.7557 18.5029 12.7771C18.6727 12.8064 18.8482 12.823 19.0267 12.8279C20.8067 12.8747 22.4043 11.7224 22.8457 9.98772C23.4995 7.41101 21.5798 5.09773 19.1354 5.09773C18.8696 5.09773 18.6154 5.12602 18.3681 5.17676C18.3341 5.18456 18.2982 5.20017 18.2788 5.23042C18.2556 5.26749 18.273 5.31725 18.2963 5.34945C19.0306 6.38462 19.4535 7.64712 19.4535 9.00133ZM22.4014 14.6383C23.5975 14.8734 24.3841 15.3534 24.7101 16.051C24.9855 16.6238 24.9855 17.2882 24.7101 17.8599C24.2115 18.9419 22.6042 19.2892 21.9795 19.379C21.8504 19.3985 21.7467 19.2863 21.7602 19.1566C22.0794 16.1584 19.5408 14.7368 18.8841 14.41C18.856 14.3954 18.8502 14.3729 18.8531 14.3593C18.855 14.3495 18.8667 14.3339 18.888 14.331C20.3091 14.3046 21.8369 14.4997 22.4014 14.6383ZM6.97354 12.8278C7.15203 12.8229 7.32663 12.8073 7.49735 12.777C7.62055 12.7556 7.68263 12.616 7.61279 12.5126C6.93377 11.5077 6.54674 10.2989 6.54674 9.00124C6.54674 7.64702 6.96966 6.38452 7.70397 5.34935C7.72725 5.31715 7.74374 5.26739 7.72143 5.23032C7.70203 5.20105 7.66517 5.18446 7.63219 5.17666C7.38386 5.12592 7.12972 5.09763 6.86393 5.09763C4.41948 5.09763 2.49981 7.41091 3.15458 9.98763C3.59594 11.7223 5.19356 12.8746 6.97354 12.8278ZM7.14669 14.3587C7.1496 14.3733 7.14378 14.3948 7.11662 14.4104C6.45895 14.7372 3.92041 16.1588 4.23954 19.156C4.25312 19.2867 4.1503 19.3979 4.02129 19.3794C3.3966 19.2896 1.78928 18.9423 1.29069 17.8603C1.01423 17.2876 1.01423 16.6241 1.29069 16.0514C1.61661 15.3538 2.40233 14.8738 3.59836 14.6377C4.16388 14.5001 5.69069 14.305 7.11274 14.3313C7.13408 14.3343 7.14475 14.3499 7.14669 14.3587Z" fill="#4679EC"/>
</svg>
