<svg width="29" height="29" viewBox="0 0 29 29" fill="none" xmlns="http://www.w3.org/2000/svg">
<path d="M19.8331 19.8479V25.2175H5.51422V3.7392H14.4635V1.94934H5.51422C5.03952 1.94934 4.58426 2.13791 4.2486 2.47358C3.91294 2.80924 3.72437 3.2645 3.72437 3.7392V25.2175C3.72437 25.6922 3.91294 26.1474 4.2486 26.4831C4.58426 26.8187 5.03952 27.0073 5.51422 27.0073H19.8331C20.3078 27.0073 20.763 26.8187 21.0987 26.4831C21.4343 26.1474 21.6229 25.6922 21.6229 25.2175V19.8479H19.8331Z" fill="white"/>
<path d="M26.5809 5.31417L23.6276 2.36091C23.36 2.09855 23.0001 1.9516 22.6253 1.9516C22.2505 1.9516 21.8906 2.09855 21.623 2.36091L9.09399 14.8899V19.8478H14.0429L26.5719 7.31881C26.8343 7.05115 26.9812 6.69129 26.9812 6.31649C26.9812 5.94169 26.8343 5.58183 26.5719 5.31417H26.5809ZM13.3002 18.0579H10.8838V15.6416L19.332 7.18457L21.7572 9.60983L13.3002 18.0579ZM23.0191 8.34798L20.5938 5.92272L22.6253 3.89124L25.0506 6.31649L23.0191 8.34798Z" fill="white"/>
</svg>
