              <svg
              href.prevent
                width="32"
                height="32"
                viewBox="0 0 32 32"
                fill="none"
                xmlns="http://www.w3.org/2000/svg"
              >
                <path
                  d="M0 3.925C0 2.88403 0.413525 1.88569 1.14961 1.14961C1.88569 0.413525 2.88403 0 3.925 0H20.3688C21.4097 0.000222302 22.4079 0.413894 23.1438 1.15003L26.325 4.33124C27.0611 5.06715 27.4748 6.06532 27.475 7.10621V12.9525C26.8478 12.6316 26.1904 12.3732 25.5125 12.1812V7.10621C25.5124 6.58577 25.3056 6.08668 24.9375 5.71873L21.7563 2.53751C21.3883 2.16945 20.8892 1.96261 20.3688 1.9625H19.625V6.86875C19.625 7.64948 19.3149 8.39824 18.7628 8.9503C18.2107 9.50236 17.462 9.8125 16.6812 9.8125H8.83125C8.05052 9.8125 7.30176 9.50236 6.7497 8.9503C6.19764 8.39824 5.8875 7.64948 5.8875 6.86875V1.9625H3.925C3.40451 1.9625 2.90534 2.16926 2.5373 2.5373C2.16926 2.90534 1.9625 3.40451 1.9625 3.925V23.55C1.9625 24.0705 2.16926 24.5697 2.5373 24.9377C2.90534 25.3057 3.40451 25.5125 3.925 25.5125V16.6812C3.925 15.9005 4.23514 15.1518 4.7872 14.5997C5.33926 14.0476 6.08802 13.7375 6.86875 13.7375H16.3614C15.5705 14.2949 14.8561 14.9543 14.2419 15.7H6.86875C6.60851 15.7 6.35892 15.8034 6.1749 15.9874C5.99088 16.1714 5.8875 16.421 5.8875 16.6812V25.5125H12.1812C12.3755 26.1974 12.6326 26.8529 12.9525 27.475H3.925C2.88403 27.475 1.88569 27.0615 1.14961 26.3254C0.413525 25.5893 0 24.591 0 23.55V3.925ZM7.85 1.9625V6.86875C7.85 7.12899 7.95338 7.37858 8.1374 7.5626C8.32142 7.74662 8.57101 7.85 8.83125 7.85H16.6812C16.9415 7.85 17.1911 7.74662 17.3751 7.5626C17.5591 7.37858 17.6625 7.12899 17.6625 6.86875V1.9625H7.85ZM31.4 22.5688C31.4 24.9109 30.4696 27.1572 28.8134 28.8134C27.1572 30.4696 24.9109 31.4 22.5688 31.4C20.2266 31.4 17.9803 30.4696 16.3241 28.8134C14.6679 27.1572 13.7375 24.9109 13.7375 22.5688C13.7375 20.2266 14.6679 17.9803 16.3241 16.3241C17.9803 14.6679 20.2266 13.7375 22.5688 13.7375C24.9109 13.7375 27.1572 14.6679 28.8134 16.3241C30.4696 17.9803 31.4 20.2266 31.4 22.5688ZM27.1865 23.2635L27.1924 23.2576C27.3722 23.0756 27.4736 22.8305 27.475 22.5746V22.5629C27.4734 22.3052 27.3705 22.0584 27.1885 21.876L23.2635 17.951C23.0795 17.7667 22.8298 17.6631 22.5694 17.6629C22.3091 17.6628 22.0593 17.766 21.875 17.95C21.6908 18.134 21.5871 18.3837 21.587 18.644C21.5868 18.9044 21.69 19.1542 21.874 19.3385L24.125 21.5875H18.6438C18.3835 21.5875 18.1339 21.6909 17.9499 21.8749C17.7659 22.0589 17.6625 22.3085 17.6625 22.5688C17.6625 22.829 17.7659 23.0786 17.9499 23.2626C18.1339 23.4466 18.3835 23.55 18.6438 23.55H24.125L21.874 25.799C21.6898 25.9833 21.5863 26.2332 21.5863 26.4938C21.5863 26.7543 21.6898 27.0042 21.874 27.1885C22.0583 27.3727 22.3082 27.4762 22.5688 27.4762C22.8293 27.4762 23.0792 27.3727 23.2635 27.1885L27.1885 23.2635H27.1865Z"
                  fill="url(#paint0_linear_159_1275)"
                />
                <defs>
                  <linearGradient
                    id="paint0_linear_159_1275"
                    x1="-2.23969"
                    y1="-19.3507"
                    x2="59.0253"
                    y2="-9.07856"
                    gradientUnits="userSpaceOnUse"
                  >
                    <stop stop-color="#3F4F61" />
                    <stop offset="1" stop-color="#3A9FD1" />
                  </linearGradient>
                </defs>
              </svg>