<svg width="47" height="46" viewBox="0 0 47 46" fill="none" xmlns="http://www.w3.org/2000/svg">
<path d="M18.0199 31.4794C25.9358 31.4794 32.353 25.2237 32.353 17.5068C32.353 9.78999 25.9358 3.53424 18.0199 3.53424C10.1039 3.53424 3.68677 9.78999 3.68677 17.5068C3.68677 25.2237 10.1039 31.4794 18.0199 31.4794Z" fill="url(#paint0_linear_159_1414)"/>
<path d="M20.2174 15.6438V17.2274H16.5863V18.5315H20.2174V20.1151H16.5863C16.5863 20.674 16.6819 21.2329 16.873 21.6055C17.0641 21.9781 17.2552 22.3507 17.5419 22.537C17.8285 22.8164 18.2108 22.9096 18.593 23.0959C18.9752 23.189 19.453 23.2822 19.9307 23.2822C20.3129 23.2822 20.5996 23.2822 20.9818 23.189C21.364 23.0959 21.6507 23.0959 21.9374 22.9096L22.3196 25.4247C21.9374 25.5178 21.4596 25.611 20.9818 25.611C20.5041 25.7041 20.0263 25.7041 19.5485 25.7041C18.6885 25.7041 17.8285 25.611 17.0641 25.3315C16.2997 25.1452 15.6308 24.7726 15.153 24.3068C14.5797 23.8411 14.1975 23.2822 13.8153 22.537C13.5286 21.8849 13.3375 21.0466 13.3375 20.1151H11.522V18.5315H13.3375V17.2274H11.522V15.6438H13.3375C13.4331 14.7123 13.6242 13.9671 13.9108 13.2219C14.293 12.5699 14.6753 11.9178 15.2486 11.4521C15.8219 10.9863 16.4908 10.6137 17.2552 10.4274C18.0196 10.1479 18.8796 10.0548 19.7396 10.0548C20.1218 10.0548 20.5996 10.0548 20.9818 10.1479C21.364 10.2411 21.8418 10.2411 22.224 10.4274L21.8418 12.9425C21.5551 12.8493 21.2685 12.7562 20.8863 12.663C20.5041 12.5699 20.2174 12.5699 19.8352 12.5699C19.3574 12.5699 18.8796 12.663 18.4974 12.7562C18.1152 12.8493 17.733 13.0356 17.5419 13.3151C17.2552 13.5945 17.0641 13.874 16.873 14.2466C16.6819 14.6192 16.5863 15.0849 16.5863 15.6438H20.2174Z" fill="white"/>
<path d="M29.4862 42.6575C37.4021 42.6575 43.8193 36.4018 43.8193 28.6849C43.8193 20.9681 37.4021 14.7123 29.4862 14.7123C21.5702 14.7123 15.1531 20.9681 15.1531 28.6849C15.1531 36.4018 21.5702 42.6575 29.4862 42.6575Z" fill="url(#paint1_linear_159_1414)"/>
<path d="M27.9573 25.8904C28.0529 26.0767 28.1484 26.263 28.3395 26.4493C28.5306 26.6356 28.7218 26.8219 29.0084 26.9151C29.2951 27.1014 29.6773 27.1945 30.0595 27.3808C30.7284 27.6603 31.3973 27.9397 31.9706 28.2192C32.5439 28.4986 33.0217 28.8712 33.4039 29.2438C33.7861 29.6164 34.1683 30.0822 34.3594 30.5479C34.5505 31.0137 34.7417 31.6658 34.7417 32.3178C34.7417 32.9699 34.6461 33.5288 34.455 33.9945C34.2639 34.4603 33.9772 34.926 33.595 35.2986C33.2128 35.6712 32.735 35.9507 32.2573 36.137C31.6839 36.3233 31.1106 36.5096 30.5373 36.6027V38.6521H28.8173V36.6027C28.244 36.5096 27.6707 36.4164 27.0973 36.2301C26.524 36.0438 26.0462 35.7644 25.664 35.2986C25.1863 34.926 24.8996 34.3671 24.6129 33.8082C24.3263 33.2493 24.2307 32.5041 24.2307 31.6658H27.384C27.384 32.1315 27.4795 32.5973 27.5751 32.8767C27.6707 33.2493 27.8618 33.4356 28.1484 33.7151C28.3395 33.9014 28.6262 34.0877 28.9129 34.1808C29.1995 34.274 29.4862 34.274 29.7728 34.274C30.1551 34.274 30.4417 34.274 30.6328 34.1808C30.9195 34.0877 31.1106 33.9945 31.3017 33.8082C31.4928 33.6219 31.5884 33.4356 31.6839 33.2493C31.7795 33.063 31.7795 32.7836 31.7795 32.5041C31.7795 32.2247 31.7795 31.9452 31.6839 31.7589C31.5884 31.5726 31.4928 31.2931 31.3017 31.1068C31.1106 30.9205 30.9195 30.7342 30.6328 30.6411C30.3462 30.4548 29.964 30.3616 29.5817 30.1753C28.9129 29.8959 28.244 29.6164 27.6707 29.337C27.0973 29.0575 26.6196 28.6849 26.2373 28.3123C25.8551 27.9397 25.4729 27.474 25.2818 27.0082C25.0907 26.5425 24.8996 25.8904 24.8996 25.2384C24.8996 24.6794 24.9951 24.1205 25.1863 23.6548C25.3774 23.189 25.664 22.7233 26.0462 22.3507C26.4285 21.9781 26.9062 21.6986 27.384 21.4192C27.8618 21.2329 28.5306 21.0466 29.104 20.9534V18.7178H30.8239V20.9534C31.3973 21.0466 31.9706 21.2329 32.5439 21.5123C33.0217 21.7918 33.4995 22.0712 33.7861 22.537C34.1683 22.9096 34.455 23.4685 34.6461 24.0274C34.8372 24.5863 34.9328 25.2384 34.9328 25.8904H31.7795C31.7795 25.0521 31.5884 24.4 31.2062 24.0274C30.8239 23.6548 30.3462 23.3753 29.7728 23.3753C29.4862 23.3753 29.1995 23.4685 28.9129 23.5616C28.7218 23.6548 28.5306 23.7479 28.3395 23.9342C28.1484 24.1205 28.0529 24.3068 28.0529 24.4931C27.9573 24.6794 27.9573 24.9589 27.9573 25.2384C27.8618 25.4247 27.9573 25.7041 27.9573 25.8904Z" fill="white"/>
<defs>
<linearGradient id="paint0_linear_159_1414" x1="3.68677" y1="17.5068" x2="32.353" y2="17.5068" gradientUnits="userSpaceOnUse">
<stop stop-color="#434343"/>
<stop offset="1"/>
</linearGradient>
<linearGradient id="paint1_linear_159_1414" x1="13.1084" y1="-2.50929" x2="68.9596" y2="7.09673" gradientUnits="userSpaceOnUse">
<stop stop-color="#3F4F61"/>
<stop offset="1" stop-color="#3A9FD1"/>
</linearGradient>
</defs>
</svg>
