                  <svg width="20" height="20" viewBox="0 0 17 17" fill="none" xmlns="http://www.w3.org/2000/svg">
                    <path fill-rule="evenodd" clip-rule="evenodd"
                      d="M14.5605 0.418161C14.8288 0.150305 15.1925 -2.33985e-05 15.5716 0.000244498C15.9507 0.000512395 16.3142 0.151356 16.582 0.419591C16.8499 0.687826 17.0003 1.05148 17 1.43055C16.9997 1.80963 16.8489 2.17307 16.5806 2.44093L4.87732 14.1432H12.7862C13.1651 14.1432 13.5285 14.2937 13.7964 14.5616C14.0643 14.8295 14.2148 15.1929 14.2148 15.5717C14.2148 15.9506 14.0643 16.3139 13.7964 16.5818C13.5285 16.8497 13.1651 17.0002 12.7862 17.0002H1.42862C1.04973 17.0002 0.686354 16.8497 0.418435 16.5818C0.150516 16.3139 0 15.9506 0 15.5717V4.21513C0 3.83626 0.150516 3.47292 0.418435 3.20502C0.686354 2.93713 1.04973 2.78662 1.42862 2.78662C1.80752 2.78662 2.1709 2.93713 2.43881 3.20502C2.70673 3.47292 2.85725 3.83626 2.85725 4.21513V12.1233L14.5605 0.418161Z"
                      fill="black" />
                  </svg>
