<svg width="27" height="26" viewBox="0 0 27 26" fill="none" xmlns="http://www.w3.org/2000/svg">
<path d="M25.948 22.0019H14.2296C13.7676 22.0019 13.3926 21.6318 13.3926 21.1757C13.3926 20.7197 13.3926 5.10861 13.3926 4.65257C13.3926 4.19653 13.7676 3.82642 14.2296 3.82642H25.948C26.41 3.82642 26.785 4.19653 26.785 4.65257V21.1757C26.785 21.6318 26.41 22.0019 25.948 22.0019Z" fill="#ECEFF1"/>
<path d="M14.9978 0.199168C14.804 0.0355963 14.5438 -0.0349979 14.2989 0.0166564L0.693857 2.59937C0.290808 2.67513 0 3.02982 0 3.44478V22.3847C0 22.7979 0.290808 23.1543 0.693857 23.2301L14.2989 25.8128C14.3499 25.8231 14.4026 25.8283 14.4553 25.8283C14.6526 25.8283 14.8448 25.7594 14.9978 25.6303C15.1934 25.4667 15.3057 25.2222 15.3057 24.9674V0.862065C15.3057 0.605515 15.1934 0.36274 14.9978 0.199168Z" fill="#2E7D32"/>
<path d="M11.2686 16.7334L8.58015 13.5903L11.2992 10.014C11.5883 9.6348 11.5203 9.08861 11.1513 8.79291C10.7823 8.49721 10.2483 8.56678 9.95755 8.94424L7.43913 12.2561L5.31692 9.77569C5.00573 9.41041 4.46837 9.37736 4.11807 9.69394C3.76437 10.0105 3.72866 10.5602 4.03815 10.9202L6.37632 13.6546L4.00584 16.7717C3.71676 17.1509 3.78478 17.6971 4.15378 17.9928C4.31023 18.1163 4.49558 18.1754 4.67753 18.1754C4.93091 18.1754 5.18088 18.0606 5.34923 17.8397L7.51735 14.987L9.98986 17.8762C10.1582 18.0745 10.3929 18.1754 10.6292 18.1754C10.8282 18.1754 11.0272 18.1041 11.1887 17.9597C11.5424 17.6431 11.5781 17.0935 11.2686 16.7334Z" fill="#FAFAFA"/>
</svg>
