<svg width="24" height="24" viewBox="0 0 24 24" fill="none" xmlns="http://www.w3.org/2000/svg">
<g clip-path="url(#clip0_159_1298)">
<path d="M18.4398 17.0412C18.1912 16.8627 17.8534 16.8737 17.6169 17.0682C14.7557 19.4198 10.5164 19.2558 7.84642 16.5859C5.1801 13.9197 5.0089 9.68114 7.36417 6.81555C7.55856 6.57905 7.5696 6.24133 7.3911 5.99261C7.21256 5.74385 6.88917 5.6463 6.60284 5.7548C5.36197 6.22498 4.25383 6.94239 3.30928 7.88698C-0.343343 11.5393 -0.350459 17.4638 3.30924 21.1233C6.96132 24.7755 12.8861 24.7828 16.5455 21.1233C17.49 20.1787 18.2073 19.0706 18.6776 17.8295C18.7862 17.5432 18.6886 17.2197 18.4398 17.0412V17.0412ZM15.5901 20.1678C12.4828 23.2752 7.41169 23.3149 4.26478 20.1678C1.16714 17.0704 1.10828 11.9987 4.26478 8.84248C4.49516 8.6121 4.73689 8.39748 4.9893 8.19912C4.30572 9.8931 3.46391 14.1145 6.89101 17.5414C10.3138 20.9641 14.5314 20.1299 16.2337 19.443C16.0353 19.6955 15.8206 19.9374 15.5901 20.1678V20.1678Z" fill="white"/>
<path d="M8.26632 10.8049C8.41302 10.8538 9.18718 11.0409 9.84703 11.6906C10.4967 12.3505 10.6839 13.1246 10.7328 13.2713C10.8245 13.5475 11.0829 13.7339 11.3739 13.7339C11.665 13.7339 11.9233 13.5475 12.0151 13.2713C12.064 13.1246 12.2511 12.3505 12.9008 11.6906C13.5606 11.0409 14.3348 10.8538 14.4815 10.8049C14.7577 10.7131 14.9441 10.4548 14.9441 10.1637C14.9441 9.87268 14.7577 9.61433 14.4815 9.52258C14.3348 9.47367 13.5606 9.28652 12.9008 8.63685C12.2511 7.97701 12.0639 7.20285 12.0151 7.05615C11.9233 6.77996 11.665 6.59354 11.3739 6.59354C11.0829 6.59354 10.8245 6.77996 10.7328 7.05615C10.6838 7.20285 10.4967 7.97701 9.84703 8.63685C9.18718 9.28657 8.41302 9.47367 8.26632 9.52258C7.99013 9.61433 7.80371 9.87268 7.80371 10.1637C7.80371 10.4548 7.99013 10.7131 8.26632 10.8049ZM11.3739 8.8912C11.7102 9.39403 12.1437 9.82751 12.6464 10.1637C12.1435 10.5001 11.7102 10.9334 11.3739 11.4363C11.0376 10.9335 10.6042 10.5001 10.1014 10.1638C10.6043 9.82746 11.0376 9.39412 11.3739 8.8912Z" fill="white"/>
<path d="M14.0558 5.01568C14.2025 5.06459 14.9767 5.25174 15.6365 5.9014C16.2862 6.56125 16.4733 7.33541 16.5223 7.48211C16.614 7.7583 16.8724 7.94472 17.1634 7.94472C17.4545 7.94472 17.7128 7.7583 17.8046 7.48211C17.8535 7.33541 18.0406 6.56125 18.6903 5.9014C19.3501 5.25169 20.1243 5.06459 20.271 5.01568C20.5472 4.92393 20.7336 4.66558 20.7336 4.37452C20.7336 4.08347 20.5472 3.82512 20.271 3.73337C20.1243 3.68445 19.3501 3.49731 18.6903 2.84764C18.0406 2.18779 17.8534 1.41363 17.8046 1.26693C17.7128 0.990745 17.4545 0.804321 17.1635 0.804321C16.8725 0.804321 16.6141 0.990745 16.5223 1.26693C16.4734 1.41363 16.2863 2.18779 15.6366 2.84764C14.9767 3.49735 14.2026 3.68445 14.0559 3.73337C13.7797 3.82512 13.5933 4.08347 13.5933 4.37452C13.5933 4.66558 13.7796 4.92393 14.0558 5.01568ZM17.1635 3.10194C17.4997 3.60478 17.9332 4.03825 18.436 4.37448C17.933 4.7108 17.4997 5.14413 17.1634 5.64706C16.8272 5.14422 16.3938 4.7108 15.891 4.37452C16.3939 4.03825 16.8271 3.60487 17.1635 3.10194Z" fill="white"/>
<path d="M23.1656 11.6936C23.0189 11.6447 22.2447 11.4576 21.5849 10.8079C20.9352 10.148 20.748 9.37388 20.6992 9.22719C20.6074 8.951 20.3491 8.76457 20.058 8.76457C19.7669 8.76457 19.5086 8.951 19.4168 9.22719C19.3679 9.37388 19.1808 10.148 18.5311 10.8079C17.8713 11.4576 17.0971 11.6447 16.9504 11.6936C16.6742 11.7854 16.4878 12.0437 16.4878 12.3348C16.4878 12.6258 16.6742 12.8842 16.9504 12.9759C17.0971 13.0248 17.8713 13.212 18.5311 13.8617C19.1808 14.5215 19.3679 15.2957 19.4168 15.4424C19.5086 15.7185 19.7669 15.905 20.058 15.905C20.3491 15.905 20.6074 15.7185 20.6992 15.4424C20.7481 15.2957 20.9352 14.5215 21.5849 13.8617C22.2447 13.2119 23.0189 13.0248 23.1656 12.9759C23.4418 12.8842 23.6282 12.6258 23.6282 12.3348C23.6282 12.0437 23.4418 11.7854 23.1656 11.6936ZM20.058 13.6073C19.7217 13.1045 19.2883 12.671 18.7855 12.3348C19.2884 11.9985 19.7217 11.5651 20.058 11.0622C20.3943 11.565 20.8277 11.9985 21.3305 12.3347C20.8276 12.671 20.3943 13.1044 20.058 13.6073Z" fill="white"/>
</g>
<defs>
<clipPath id="clip0_159_1298">
<rect width="23.0609" height="23.0609" fill="white" transform="translate(0.567139 0.804352)"/>
</clipPath>
</defs>
</svg>