<svg width="20" height="20" viewBox="0 0 15 14" fill="none" xmlns="http://www.w3.org/2000/svg">
<path d="M2.2688 9.55312C3.21162 10.4735 4.46717 11.0261 5.7989 11.1066C7.13064 11.1872 8.44663 10.7902 9.49895 9.99052L13.1198 13.5203C13.2482 13.6412 13.4202 13.7081 13.5987 13.7066C13.7773 13.7051 13.948 13.6353 14.0743 13.5122C14.2005 13.3892 14.2721 13.2227 14.2737 13.0487C14.2752 12.8746 14.2066 12.707 14.0826 12.5818L10.4617 9.05199C11.3184 7.98015 11.7235 6.63008 11.5942 5.27712C11.465 3.92416 10.8112 2.67022 9.76618 1.77102C8.72116 0.871825 7.36363 0.395111 5.97046 0.438099C4.57728 0.481086 3.2534 1.04054 2.2688 2.00236C1.76005 2.49806 1.35648 3.08662 1.08113 3.73441C0.805784 4.3822 0.664062 5.07653 0.664062 5.77774C0.664063 6.47894 0.805784 7.17327 1.08113 7.82106C1.35648 8.46886 1.76005 9.05742 2.2688 9.55312V9.55312ZM3.23155 2.94222C3.90464 2.28608 4.79028 1.87774 5.73758 1.78677C6.68487 1.69581 7.63522 1.92785 8.42669 2.44337C9.21817 2.95888 9.80181 3.72597 10.0782 4.61394C10.3545 5.50191 10.3065 6.45582 9.94231 7.31315C9.5781 8.17048 8.92023 8.87818 8.08079 9.31569C7.24134 9.75319 6.27226 9.89342 5.33865 9.71249C4.40504 9.53155 3.56466 9.04065 2.9607 8.32342C2.35673 7.60619 2.02655 6.707 2.02641 5.77906C2.02454 5.25177 2.13011 4.72936 2.33699 4.24215C2.54387 3.75494 2.84793 3.31264 3.23155 2.94089V2.94222Z" fill="url(#paint0_linear_159_1108)"/>
<defs>
<linearGradient id="paint0_linear_159_1108" x1="-0.306681" y1="-7.74314" x2="26.2098" y2="-3.18383" gradientUnits="userSpaceOnUse">
<stop stop-color="#3F4F61"/>
<stop offset="1" stop-color="#3A9FD1"/>
</linearGradient>
</defs>
</svg>