<svg width="23" height="28" viewBox="0 0 23 28" fill="none" xmlns="http://www.w3.org/2000/svg">
<path fill-rule="evenodd" clip-rule="evenodd" d="M11.4892 14.331H11.5703H11.6007H11.6515C13.1374 14.3057 14.3393 13.7842 15.2268 12.7867C17.1794 10.5893 16.8548 6.82231 16.8193 6.46283C16.6925 3.76415 15.4145 2.47304 14.3596 1.87052C13.5735 1.4199 12.6556 1.17687 11.6312 1.15662H11.5957H11.5754H11.545C10.982 1.15662 9.87644 1.24775 8.81651 1.85027C7.7515 2.45279 6.4532 3.7439 6.32642 6.46283C6.29092 6.82231 5.96634 10.5893 7.91886 12.7867C8.80129 13.7842 10.0032 14.3057 11.4892 14.331ZM7.68063 6.58943C7.68063 6.58107 7.68217 6.57271 7.68355 6.56519C7.68468 6.55905 7.6857 6.55347 7.6857 6.54892C7.85306 2.91862 10.4344 2.52876 11.54 2.52876H11.5603H11.6009C12.9702 2.55914 15.298 3.11609 15.4552 6.54892V6.54893C15.4552 6.56412 15.4552 6.5793 15.4603 6.58943C15.4653 6.62487 15.8203 10.0678 14.2076 11.8805C13.5686 12.5994 12.7166 12.9538 11.5958 12.964H11.5704H11.5451C10.4294 12.9538 9.57229 12.5994 8.93835 11.8805C7.3307 10.078 7.67556 6.61981 7.68063 6.58943ZM21.9923 21.9224V21.9376C21.9973 22.2009 22.0024 23.5528 21.7488 24.2262C21.6981 24.3578 21.6018 24.4692 21.4851 24.5451L21.483 24.5465C21.3015 24.6613 17.6603 26.9653 11.5856 26.9653C5.48463 26.9653 1.83824 24.6464 1.6861 24.5451C1.56438 24.4692 1.47309 24.3578 1.42238 24.2262C1.15359 23.5477 1.15866 22.1958 1.16373 21.9325V21.9173C1.16881 21.8768 1.16881 21.8363 1.16881 21.7908L1.16904 21.7831C1.19958 20.7814 1.27076 18.4471 3.46618 17.6947L3.46623 17.6946C3.48143 17.6896 3.49663 17.6845 3.5169 17.6795C5.81427 17.0972 7.70593 15.7808 7.72622 15.7656C8.03557 15.5479 8.46158 15.6238 8.67965 15.9327C8.89772 16.2415 8.82165 16.6668 8.51229 16.8845C8.50843 16.887 8.50067 16.8923 8.48916 16.9C8.24398 17.065 6.29435 18.3769 3.88204 18.9959C2.70039 19.4161 2.56853 20.6769 2.53303 21.8313C2.53303 21.8547 2.53169 21.8768 2.53038 21.8983C2.52915 21.9185 2.52796 21.9382 2.52796 21.9578C2.51782 22.4135 2.55332 23.1173 2.63446 23.5224C3.46111 23.9882 6.70178 25.6033 11.5805 25.6033C16.4796 25.6033 19.7 23.9932 20.5215 23.5274C20.6027 23.1224 20.6331 22.4186 20.628 21.9629C20.623 21.9224 20.623 21.8819 20.623 21.8364V21.8363C20.5875 20.6819 20.4556 19.4212 19.274 19.001C16.7484 18.3529 14.7299 16.9504 14.6437 16.8896C14.3343 16.6719 14.2583 16.2466 14.4763 15.9377C14.6944 15.6289 15.1204 15.5529 15.4298 15.7706C15.4501 15.7858 17.3519 17.1023 19.6391 17.6845C19.6467 17.6871 19.6556 17.6896 19.6645 17.6921C19.6733 17.6947 19.6822 17.6972 19.6898 17.6997C21.8856 18.4473 21.9564 20.7822 21.987 21.7886L21.9872 21.7958C21.9872 21.8193 21.9885 21.8414 21.9898 21.8629C21.9911 21.8831 21.9923 21.9028 21.9923 21.9224Z" fill="white"/>
<path d="M11.4892 14.331L11.4841 14.6296H11.4892V14.331ZM11.6515 14.331L11.6515 14.6296L11.6565 14.6295L11.6515 14.331ZM15.2268 12.7867L15.4499 12.9852L15.45 12.9851L15.2268 12.7867ZM16.8193 6.46283L16.521 6.47684L16.5214 6.48452L16.5222 6.49217L16.8193 6.46283ZM14.3596 1.87052L14.2111 2.12956L14.2115 2.12979L14.3596 1.87052ZM11.6312 1.15662L11.6371 0.858039H11.6312V1.15662ZM8.81651 1.85027L8.96353 2.11014L8.96406 2.10984L8.81651 1.85027ZM6.32642 6.46283L6.62355 6.49217L6.62431 6.48447L6.62467 6.47674L6.32642 6.46283ZM7.91886 12.7867L8.14248 12.5889L8.14205 12.5884L7.91886 12.7867ZM7.68355 6.56519L7.38989 6.51121L7.38989 6.51122L7.68355 6.56519ZM7.68063 6.58943L7.97513 6.63859L7.97921 6.61418V6.58943H7.68063ZM7.6857 6.54892L7.38712 6.53516V6.54892H7.6857ZM11.6009 2.52876L11.6075 2.23018H11.6009V2.52876ZM15.4552 6.54892L15.7541 6.54892L15.7535 6.53526L15.4552 6.54892ZM15.4603 6.58943L15.7558 6.54713L15.749 6.49911L15.7272 6.45573L15.4603 6.58943ZM14.2076 11.8805L13.9845 11.682L13.9844 11.6821L14.2076 11.8805ZM11.5958 12.964L11.5958 13.2626L11.5985 13.2625L11.5958 12.964ZM11.5451 12.964L11.5424 13.2625H11.5451V12.964ZM8.93835 11.8805L9.16231 11.683L9.16118 11.6817L8.93835 11.8805ZM21.9923 21.9376L21.6936 21.9376L21.6937 21.9433L21.9923 21.9376ZM21.7488 24.2262L22.0275 24.3335L22.0283 24.3314L21.7488 24.2262ZM21.4851 24.5451L21.6447 24.7975L21.648 24.7953L21.4851 24.5451ZM21.483 24.5465L21.3233 24.2942L21.3233 24.2942L21.483 24.5465ZM1.6861 24.5451L1.8516 24.2965L1.84416 24.2918L1.6861 24.5451ZM1.42238 24.2262L1.70101 24.1188L1.69997 24.1162L1.42238 24.2262ZM1.16373 21.9325L1.46231 21.9383V21.9325H1.16373ZM1.16373 21.9173L0.86747 21.8803L0.865157 21.8987V21.9173H1.16373ZM1.16881 21.7908L0.870228 21.7817V21.7908H1.16881ZM1.16904 21.7831L0.8706 21.774L0.870599 21.774L1.16904 21.7831ZM3.46618 17.6947L3.37516 17.4102L3.36937 17.4122L3.46618 17.6947ZM3.46623 17.6946L3.55724 17.979L3.5605 17.9779L3.46623 17.6946ZM3.5169 17.6795L3.58921 17.9692L3.59025 17.9689L3.5169 17.6795ZM7.72622 15.7656L7.5543 15.5213L7.54726 15.5266L7.72622 15.7656ZM8.67965 15.9327L8.92356 15.7605L8.92356 15.7605L8.67965 15.9327ZM8.51229 16.8845L8.67446 17.1355L8.68413 17.1287L8.51229 16.8845ZM8.48916 16.9L8.65584 17.1477L8.65585 17.1477L8.48916 16.9ZM3.88204 18.9959L3.80783 18.7067L3.79473 18.71L3.78199 18.7146L3.88204 18.9959ZM2.53303 21.8313L2.23445 21.8221V21.8313H2.53303ZM2.53038 21.8983L2.82841 21.9164L2.82841 21.9164L2.53038 21.8983ZM2.52796 21.9578L2.82654 21.9645V21.9578H2.52796ZM2.63446 23.5224L2.3417 23.581L2.36859 23.7153L2.48788 23.7825L2.63446 23.5224ZM20.5215 23.5274L20.6688 23.7872L20.7875 23.7199L20.8143 23.5861L20.5215 23.5274ZM20.628 21.9629L20.9266 21.9596L20.9264 21.9426L20.9243 21.9258L20.628 21.9629ZM20.623 21.8363H20.9217L20.9214 21.8272L20.623 21.8363ZM19.274 19.001L19.374 18.7196L19.3613 18.7151L19.3482 18.7117L19.274 19.001ZM14.6437 16.8896L14.8157 16.6455L14.8155 16.6454L14.6437 16.8896ZM14.4763 15.9377L14.2324 15.7655L14.2324 15.7655L14.4763 15.9377ZM15.4298 15.7706L15.6088 15.5315L15.6016 15.5265L15.4298 15.7706ZM19.6391 17.6845L19.7334 17.4012L19.7232 17.3978L19.7128 17.3952L19.6391 17.6845ZM19.6898 17.6997L19.786 17.4171L19.7841 17.4164L19.6898 17.6997ZM21.987 21.7886L22.2854 21.7796L22.2854 21.7796L21.987 21.7886ZM21.9872 21.7958H22.2859L22.2856 21.7868L21.9872 21.7958ZM21.9898 21.8629L21.6918 21.881L21.6918 21.881L21.9898 21.8629ZM11.5703 14.0324H11.4892V14.6296H11.5703V14.0324ZM11.6007 14.0324H11.5703V14.6296H11.6007V14.0324ZM11.6515 14.0324H11.6007V14.6296H11.6515V14.0324ZM15.0038 12.5883C14.178 13.5163 13.0588 14.0084 11.6464 14.0325L11.6565 14.6295C13.216 14.603 14.5007 14.052 15.4499 12.9852L15.0038 12.5883ZM16.5222 6.49217C16.5388 6.66059 16.6269 7.66773 16.4723 8.89834C16.3169 10.1351 15.9214 11.5555 15.0036 12.5884L15.45 12.9851C16.4848 11.8205 16.9032 10.2588 17.0648 8.97278C17.2272 7.68066 17.1353 6.62455 17.1164 6.43349L16.5222 6.49217ZM14.2115 2.12979C15.1843 2.68542 16.3994 3.88763 16.521 6.47684L17.1175 6.44882C16.9856 3.64068 15.6447 2.26066 14.5077 1.61126L14.2115 2.12979ZM11.6253 1.45513C12.6053 1.47451 13.4732 1.70654 14.2111 2.12956L14.5081 1.61149C13.6739 1.13327 12.7059 0.879228 11.6371 0.858098L11.6253 1.45513ZM11.5957 1.45519H11.6312V0.858039H11.5957V1.45519ZM11.5754 1.45519H11.5957V0.858039H11.5754V1.45519ZM11.545 1.45519H11.5754V0.858039H11.545V1.45519ZM8.96406 2.10984C9.96095 1.54316 11.008 1.45519 11.545 1.45519V0.858039C10.9561 0.858039 9.79193 0.952348 8.66895 1.5907L8.96406 2.10984ZM6.62467 6.47674C6.74627 3.86893 7.98011 2.6665 8.96353 2.11014L8.66949 1.5904C7.52289 2.23908 6.16013 3.61887 6.02816 6.44892L6.62467 6.47674ZM8.14205 12.5884C7.22429 11.5555 6.82877 10.1351 6.67338 8.89834C6.51876 7.66773 6.60691 6.66059 6.62355 6.49217L6.02928 6.43349C6.01042 6.62455 5.91853 7.68066 6.08088 8.97278C6.24246 10.2588 6.66091 11.8205 7.69566 12.9851L8.14205 12.5884ZM11.4943 14.0325C10.0817 14.0084 8.9629 13.5162 8.14248 12.5889L7.69523 12.9846C8.63969 14.0521 9.92478 14.603 11.4841 14.6295L11.4943 14.0325ZM7.38989 6.51122C7.38928 6.51452 7.38205 6.54943 7.38205 6.58943H7.97921C7.97921 6.60303 7.97799 6.61311 7.9774 6.61742C7.97688 6.62121 7.97634 6.62386 7.97721 6.61916L7.38989 6.51122ZM7.38712 6.54892C7.38712 6.53911 7.38766 6.53112 7.38816 6.52566C7.38865 6.52015 7.38923 6.5159 7.38958 6.51347C7.39014 6.50966 7.39069 6.50686 7.38989 6.51121L7.97721 6.61916C7.97753 6.61738 7.97916 6.60873 7.98051 6.59945C7.98183 6.5904 7.98428 6.57183 7.98428 6.54892H7.38712ZM11.54 2.23018C10.9601 2.23018 9.96809 2.33101 9.09225 2.93118C8.19956 3.54289 7.47478 4.64065 7.38744 6.53517L7.98396 6.56267C8.06398 4.82689 8.71357 3.91457 9.4298 3.42378C10.1629 2.92143 11.0143 2.82734 11.54 2.82734V2.23018ZM11.5603 2.23018H11.54V2.82734H11.5603V2.23018ZM11.6009 2.23018H11.5603V2.82734H11.6009V2.23018ZM15.7535 6.53526C15.6715 4.74506 15.0171 3.65738 14.1602 3.02295C13.3172 2.39876 12.3218 2.2461 11.6075 2.23026L11.5943 2.82726C12.2493 2.84179 13.1024 2.9828 13.8049 3.50288C14.4935 4.01274 15.0817 4.91995 15.1569 6.56258L15.7535 6.53526ZM15.7538 6.54893V6.54892H15.1566V6.54893H15.7538ZM15.7272 6.45573C15.7391 6.47939 15.7451 6.50006 15.7482 6.51372C15.7514 6.52751 15.7527 6.53829 15.7532 6.544C15.754 6.55307 15.7538 6.55963 15.7538 6.54893H15.1566C15.1566 6.55342 15.1564 6.57517 15.1585 6.59816C15.1604 6.61921 15.1661 6.66892 15.1933 6.72313L15.7272 6.45573ZM14.4307 12.0789C15.3006 11.1012 15.6235 9.70947 15.7376 8.59902C15.8525 7.48114 15.7615 6.58702 15.7558 6.54713L15.1647 6.63172C15.1641 6.62728 15.2531 7.47236 15.1436 8.53797C15.0333 9.61102 14.7273 10.8471 13.9845 11.682L14.4307 12.0789ZM11.5985 13.2625C12.7887 13.2518 13.7265 12.8712 14.4308 12.0788L13.9844 11.6821C13.4107 12.3276 12.6445 12.6559 11.5931 12.6654L11.5985 13.2625ZM11.5704 13.2625H11.5958V12.6654H11.5704V13.2625ZM11.5451 13.2625H11.5704V12.6654H11.5451V13.2625ZM8.7144 12.0779C9.41412 12.8715 10.3578 13.2518 11.5424 13.2625L11.5478 12.6654C10.5009 12.6559 9.73046 12.3273 9.16231 11.683L8.7144 12.0779ZM7.38613 6.54026C7.37863 6.5852 7.29123 7.48454 7.40775 8.60138C7.52376 9.71318 7.84789 11.1064 8.71553 12.0792L9.16118 11.6817C8.42116 10.852 8.1139 9.61491 8.00168 8.53941C7.89 7.46896 7.97756 6.62403 7.97513 6.63859L7.38613 6.54026ZM22.2908 21.9376V21.9224H21.6937V21.9376H22.2908ZM22.0283 24.3314C22.172 23.9495 22.2356 23.4039 22.2655 22.9476C22.296 22.4815 22.2934 22.0688 22.2908 21.9318L21.6937 21.9433C21.6962 22.0697 21.6987 22.4645 21.6696 22.9086C21.6399 23.3623 21.5792 23.8294 21.4694 24.1209L22.0283 24.3314ZM21.648 24.7953C21.8115 24.6889 21.9518 24.5298 22.0274 24.3335L21.4702 24.1188C21.4444 24.1858 21.392 24.2495 21.3222 24.2949L21.648 24.7953ZM21.6426 24.7988L21.6447 24.7975L21.3255 24.2928L21.3233 24.2942L21.6426 24.7988ZM11.5856 27.2639C17.737 27.2639 21.4339 24.9309 21.6426 24.7988L21.3233 24.2942C21.1692 24.3917 17.5837 26.6668 11.5856 26.6668V27.2639ZM1.52066 24.7937C1.7059 24.917 5.40918 27.2639 11.5856 27.2639V26.6668C5.56008 26.6668 1.97058 24.3758 1.85153 24.2966L1.52066 24.7937ZM1.14376 24.3335C1.21767 24.5253 1.35115 24.6881 1.52803 24.7984L1.84416 24.2918C1.77761 24.2503 1.72851 24.1902 1.70099 24.1188L1.14376 24.3335ZM0.865212 21.9268C0.862572 22.0639 0.859995 22.477 0.892502 22.9444C0.92432 23.4018 0.991902 23.9502 1.14479 24.3361L1.69997 24.1162C1.58407 23.8236 1.51979 23.3569 1.48822 22.9029C1.45733 22.4589 1.45982 22.0645 1.46226 21.9383L0.865212 21.9268ZM0.865157 21.9173V21.9325H1.46231V21.9173H0.865157ZM0.870228 21.7908C0.870228 21.8399 0.869824 21.8615 0.86747 21.8803L1.46 21.9544C1.46779 21.8922 1.46738 21.8327 1.46738 21.7908H0.870228ZM0.870599 21.774L0.870367 21.7817L1.46724 21.7999L1.46748 21.7922L0.870599 21.774ZM3.36937 17.4122C2.16745 17.8242 1.54494 18.6762 1.22564 19.5421C0.910756 20.3961 0.885798 21.2756 0.8706 21.774L1.46748 21.7922C1.48282 21.2889 1.50873 20.5005 1.78592 19.7487C2.05871 19.0089 2.56949 18.3176 3.56299 17.9771L3.36937 17.4122ZM3.37524 17.4103L3.37518 17.4103L3.55718 17.979L3.55723 17.979L3.37524 17.4103ZM3.44458 17.3898C3.41224 17.3978 3.38757 17.4061 3.37197 17.4113L3.5605 17.9779C3.5753 17.973 3.58103 17.9712 3.58921 17.9691L3.44458 17.3898ZM7.54726 15.5266C7.55184 15.5231 7.08747 15.848 6.33575 16.246C5.58568 16.6431 4.56143 17.1067 3.44354 17.39L3.59025 17.9689C5.94043 17.3732 7.86823 16.0322 7.90517 16.0046L7.54726 15.5266ZM8.92356 15.7605C8.61145 15.3184 7.99982 15.2079 7.55438 15.5214L7.89805 16.0098C8.07133 15.8878 8.3117 15.9292 8.43575 16.1049L8.92356 15.7605ZM8.68413 17.1287C9.12684 16.8172 9.238 16.2058 8.92356 15.7605L8.43575 16.1049C8.55744 16.2772 8.51646 16.5165 8.34045 16.6404L8.68413 17.1287ZM8.65585 17.1477C8.66171 17.1438 8.6662 17.1408 8.66971 17.1384C8.67365 17.1358 8.67469 17.1351 8.67433 17.1353L8.35026 16.6338C8.34336 16.6382 8.33233 16.6457 8.32247 16.6523L8.65585 17.1477ZM3.95625 19.2851C6.42027 18.6528 8.40494 17.3166 8.65584 17.1477L8.32247 16.6523C8.08303 16.8134 6.16842 18.1009 3.80783 18.7067L3.95625 19.2851ZM2.83147 21.8404C2.84921 21.2634 2.89119 20.7026 3.05852 20.2398C3.22049 19.7918 3.49349 19.451 3.98209 19.2772L3.78199 18.7146C3.08894 18.9611 2.70518 19.4608 2.49694 20.0368C2.29405 20.598 2.25235 21.2447 2.23459 21.8221L2.83147 21.8404ZM2.82841 21.9164C2.82965 21.896 2.83161 21.8651 2.83161 21.8313H2.23445C2.23445 21.8443 2.23372 21.8577 2.23236 21.8802L2.82841 21.9164ZM2.82654 21.9578C2.82654 21.9488 2.82708 21.9382 2.82841 21.9164L2.23236 21.8802C2.23122 21.8988 2.22938 21.9276 2.22938 21.9578H2.82654ZM2.92722 23.4637C2.85214 23.0889 2.81656 22.4095 2.82646 21.9645L2.22946 21.9512C2.21908 22.4176 2.2545 23.1457 2.3417 23.581L2.92722 23.4637ZM11.5805 25.3048C6.7676 25.3048 3.57752 23.7111 2.78104 23.2623L2.48788 23.7825C3.3447 24.2653 6.63596 25.9019 11.5805 25.9019V25.3048ZM20.3743 23.2677C19.5837 23.716 16.414 25.3048 11.5805 25.3048V25.9019C16.5451 25.9019 19.8162 24.2705 20.6688 23.7872L20.3743 23.2677ZM20.3295 21.9662C20.3345 22.4164 20.3036 23.095 20.2288 23.4688L20.8143 23.5861C20.9017 23.1497 20.9317 22.4208 20.9266 21.9596L20.3295 21.9662ZM20.3244 21.8364C20.3244 21.8783 20.324 21.9378 20.3318 22L20.9243 21.9258C20.9219 21.907 20.9215 21.8855 20.9215 21.8364H20.3244ZM20.3244 21.8363V21.8364H20.9215V21.8363H20.3244ZM19.1739 19.2823C19.6625 19.456 19.9355 19.7968 20.0975 20.2448C20.2648 20.7077 20.3068 21.2685 20.3245 21.8455L20.9214 21.8272C20.9036 21.2498 20.8619 20.603 20.6591 20.0418C20.4508 19.4658 20.067 18.9661 19.374 18.7196L19.1739 19.2823ZM14.4717 17.1337C14.5672 17.2009 16.6211 18.6285 19.1997 19.2902L19.3482 18.7117C16.8756 18.0773 14.8927 16.6998 14.8157 16.6455L14.4717 17.1337ZM14.2324 15.7655C13.918 16.2109 14.0292 16.8222 14.4719 17.1338L14.8155 16.6454C14.6395 16.5216 14.5985 16.2823 14.7202 16.1099L14.2324 15.7655ZM15.6016 15.5265C15.1562 15.213 14.5445 15.3235 14.2324 15.7655L14.7202 16.1099C14.8443 15.9343 15.0847 15.8929 15.2579 16.0148L15.6016 15.5265ZM19.7128 17.3952C18.5998 17.1119 17.5754 16.6482 16.8239 16.251C16.0704 15.8527 15.6037 15.5279 15.6087 15.5316L15.2508 16.0096C15.2882 16.0376 17.2259 17.3783 19.5654 17.9739L19.7128 17.3952ZM19.7463 17.405C19.7417 17.4037 19.7386 17.4028 19.736 17.402C19.7334 17.4012 19.7328 17.401 19.7334 17.4012L19.5448 17.9678C19.5598 17.9728 19.5753 17.9772 19.5826 17.9792L19.7463 17.405ZM19.7841 17.4164C19.7691 17.4114 19.7536 17.4071 19.7463 17.405L19.5826 17.9792C19.5872 17.9806 19.5903 17.9814 19.5929 17.9822C19.5955 17.983 19.5961 17.9832 19.5956 17.983L19.7841 17.4164ZM22.2854 21.7796C22.2702 21.2789 22.2454 20.3979 21.9305 19.5438C21.6112 18.6776 20.9885 17.8265 19.786 17.4171L19.5936 17.9824C20.5869 18.3205 21.0975 19.0106 21.3702 19.7504C21.6474 20.5022 21.6732 21.2919 21.6885 21.7977L22.2854 21.7796ZM22.2856 21.7868L22.2854 21.7796L21.6885 21.7977L21.6887 21.8049L22.2856 21.7868ZM22.2879 21.8448C22.2865 21.8222 22.2858 21.8089 22.2858 21.7958H21.6886C21.6886 21.8297 21.6906 21.8606 21.6918 21.881L22.2879 21.8448ZM22.2908 21.9224C22.2908 21.8921 22.289 21.8634 22.2879 21.8448L21.6918 21.881C21.6931 21.9028 21.6937 21.9134 21.6937 21.9224H22.2908Z" fill="white"/>
</svg>
