<svg width="17" height="17" viewBox="0 0 17 17" fill="none" xmlns="http://www.w3.org/2000/svg">
<g clip-path="url(#clip0_171_4138)">
<path d="M0 4.24997V6.13886H17V4.24997C17 3.74901 16.801 3.26856 16.4468 2.91433C16.0925 2.56009 15.6121 2.36108 15.1111 2.36108H1.88889C1.38792 2.36108 0.907478 2.56009 0.553243 2.91433C0.199007 3.26856 0 3.74901 0 4.24997H0Z" fill="#0099B5"/>
<path d="M17 12.75V10.8611H0V12.75C0 13.2509 0.199007 13.7314 0.553243 14.0856C0.907478 14.4399 1.38792 14.6389 1.88889 14.6389H15.1111C15.6121 14.6389 16.0925 14.4399 16.4468 14.0856C16.801 13.7314 17 13.2509 17 12.75Z" fill="#1EB53A"/>
<path d="M0 6.13892H17V6.84725H0V6.13892ZM0 10.1528H17V10.8611H0V10.1528Z" fill="#CE1126"/>
<path d="M0 8.50001V10.1528H17V6.84723H0V8.50001Z" fill="#EEEEEE"/>
<path d="M1.98333 4.32557C1.98337 3.97742 2.1067 3.64053 2.33144 3.37464C2.55619 3.10875 2.86783 2.93104 3.21111 2.87301C2.99978 2.83714 2.78318 2.84781 2.5764 2.90428C2.36962 2.96075 2.17766 3.06166 2.0139 3.19996C1.85014 3.33826 1.71853 3.51063 1.62826 3.70504C1.53798 3.89945 1.49121 4.11122 1.49121 4.32557C1.49121 4.53991 1.53798 4.75168 1.62826 4.94609C1.71853 5.1405 1.85014 5.31287 2.0139 5.45117C2.17766 5.58948 2.36962 5.69038 2.5764 5.74685C2.78318 5.80332 2.99978 5.81399 3.21111 5.77812C2.86783 5.7201 2.55619 5.54238 2.33144 5.27649C2.1067 5.0106 1.98337 4.67372 1.98333 4.32557ZM4.19475 5.41309L4.12864 5.20957L4.06252 5.41309H3.84814L4.02144 5.53918L3.95533 5.74271L4.12864 5.61662L4.30147 5.74271L4.23536 5.53918L4.40866 5.41309H4.19475ZM5.47069 5.41309L5.40458 5.20957L5.33847 5.41309H5.12455L5.29786 5.53918L5.23175 5.74271L5.40458 5.61662L5.57789 5.74271L5.51177 5.53918L5.68508 5.41309H5.47069ZM5.40458 4.0309L5.33847 4.23443H5.12455L5.29786 4.36051L5.23175 4.56404L5.40458 4.43796L5.57789 4.56404L5.51177 4.36051L5.68508 4.23443H5.47069L5.40458 4.0309ZM6.74711 5.41309L6.681 5.20957L6.61488 5.41309H6.40097L6.5738 5.53918L6.50769 5.74271L6.681 5.61662L6.8543 5.74271L6.78819 5.53918L6.96102 5.41309H6.74711ZM6.681 4.0309L6.61488 4.23443H6.40097L6.5738 4.36051L6.50769 4.56404L6.681 4.43796L6.8543 4.56404L6.78819 4.36051L6.96102 4.23443H6.74711L6.681 4.0309ZM6.681 2.85223L6.61488 3.05576H6.40097L6.5738 3.18184L6.50769 3.38537L6.681 3.25929L6.8543 3.38537L6.78819 3.18184L6.96102 3.05576H6.74711L6.681 2.85223ZM8.02352 5.41309L7.95741 5.20957L7.8913 5.41309H7.67691L7.85022 5.53918L7.78411 5.74271L7.95741 5.61662L8.13025 5.74271L8.06413 5.53918L8.23744 5.41309H8.02352ZM7.95741 4.0309L7.8913 4.23443H7.67691L7.85022 4.36051L7.78411 4.56404L7.95741 4.43796L8.13025 4.56404L8.06413 4.36051L8.23744 4.23443H8.02352L7.95741 4.0309ZM7.95741 2.85223L7.8913 3.05576H7.67691L7.85022 3.18184L7.78411 3.38537L7.95741 3.25929L8.13025 3.38537L8.06413 3.18184L8.23744 3.05576H8.02352L7.95741 2.85223ZM9.29947 5.41309L9.23336 5.20957L9.16725 5.41309H8.95333L9.12663 5.53918L9.06052 5.74271L9.23336 5.61662L9.40666 5.74271L9.34055 5.53918L9.51386 5.41309H9.29947ZM9.23336 4.0309L9.16725 4.23443H8.95333L9.12663 4.36051L9.06052 4.56404L9.23336 4.43796L9.40666 4.56404L9.34055 4.36051L9.51386 4.23443H9.29947L9.23336 4.0309ZM9.23336 2.85223L9.16725 3.05576H8.95333L9.12663 3.18184L9.06052 3.38537L9.23336 3.25929L9.40666 3.38537L9.34055 3.18184L9.51386 3.05576H9.29947L9.23336 2.85223Z" fill="white"/>
</g>
<defs>
<clipPath id="clip0_171_4138">
<rect width="17" height="17" fill="white"/>
</clipPath>
</defs>
</svg>
